<svg width="281" height="67" viewBox="0 0 281 67" fill="none" xmlns="http://www.w3.org/2000/svg">
<g clip-path="url(#clip0_713_2193)">
<path d="M82.5277 16.6128C83.9825 13.9793 86.0325 11.9384 88.6335 10.468C91.2566 8.99764 94.2103 8.27344 97.5167 8.27344C101.573 8.27344 105.055 9.34877 107.943 11.4775C110.83 13.6062 112.77 16.525 113.74 20.2119H104.592C103.909 18.7854 102.939 17.7101 101.705 16.9639C100.448 16.2178 99.0376 15.8447 97.4506 15.8447C94.8936 15.8447 92.7996 16.7225 91.2125 18.5001C89.6254 20.2777 88.8319 22.6478 88.8319 25.6324C88.8319 28.617 89.6254 30.9872 91.2125 32.7648C92.7996 34.5424 94.8716 35.4202 97.4506 35.4202C99.0376 35.4202 100.47 35.0471 101.705 34.301C102.961 33.5548 103.909 32.4795 104.592 31.053H113.74C112.77 34.7399 110.83 37.6367 107.943 39.7435C105.055 41.8502 101.573 42.9256 97.5167 42.9256C94.2103 42.9256 91.2345 42.2014 88.6335 40.731C86.0104 39.2607 83.9825 37.2197 82.5277 34.6082C81.0729 31.9967 80.3455 29.0121 80.3455 25.6324C80.3455 22.2528 81.0729 19.2682 82.5277 16.6347V16.6128Z" fill="#8CB63F"/>
<path d="M148.413 8.64648V42.6622H140.081V28.6609H127.142V42.6622H118.81V8.64648H127.142V21.9675H140.081V8.64648H148.413Z" fill="#8CB63F"/>
<path d="M175.68 36.6491H162.917L160.867 42.6622H152.16L164.526 8.64648H174.159L186.525 42.6622H177.708L175.658 36.6491H175.68ZM173.542 30.2629L169.31 17.7978L165.122 30.2629H173.542Z" fill="#8CB63F"/>
<path d="M195.937 41.7845C193.953 40.9725 192.366 39.7874 191.198 38.2073C190.008 36.6272 189.391 34.718 189.324 32.4795H198.186C198.318 33.7304 198.759 34.696 199.508 35.3544C200.258 36.0128 201.227 36.3419 202.44 36.3419C203.652 36.3419 204.644 36.0567 205.349 35.4861C206.055 34.9155 206.43 34.1474 206.43 33.1379C206.43 32.304 206.143 31.6017 205.57 31.0531C204.997 30.5044 204.313 30.0436 203.476 29.6924C202.638 29.3413 201.47 28.9243 199.949 28.4854C197.745 27.8051 195.937 27.1248 194.549 26.4445C193.16 25.7642 191.948 24.7547 190.956 23.4379C189.942 22.1212 189.457 20.3875 189.457 18.2588C189.457 15.0986 190.603 12.6187 192.917 10.8192C195.21 9.01964 198.23 8.11987 201.911 8.11987C205.592 8.11987 208.7 9.01964 211.014 10.8192C213.307 12.6187 214.541 15.0986 214.718 18.3026H205.702C205.636 17.2054 205.239 16.3495 204.49 15.7131C203.74 15.0766 202.793 14.7694 201.624 14.7694C200.61 14.7694 199.817 15.0327 199.2 15.5594C198.582 16.0861 198.274 16.8542 198.274 17.8637C198.274 18.961 198.781 19.8169 199.839 20.4314C200.875 21.0458 202.506 21.7042 204.71 22.4284C206.915 23.1746 208.7 23.8768 210.089 24.5571C211.477 25.2375 212.668 26.225 213.66 27.5198C214.651 28.8146 215.158 30.4825 215.158 32.5015C215.158 34.5205 214.674 36.2103 213.682 37.7904C212.69 39.3704 211.257 40.6433 209.383 41.565C207.51 42.5087 205.283 42.9695 202.704 42.9695C200.125 42.9695 197.965 42.5745 195.981 41.7625L195.937 41.7845Z" fill="#8CB63F"/>
<path d="M250.779 42.6622H242.447L228.516 21.6822V42.6622H220.184V8.64648H228.516L242.447 29.7362V8.64648H250.779V42.6622Z" fill="#8CB63F"/>
<path d="M265.68 35.881H280.383V42.6622H256.246V36.3638L270.838 15.4277H256.246V8.64648H280.383V14.9449L265.68 35.881Z" fill="#8CB63F"/>
<path d="M82.9244 53.5692C83.2991 52.9108 83.8282 52.3841 84.4895 52.011C85.1507 51.638 85.8781 51.4624 86.7158 51.4624C87.6856 51.4624 88.5233 51.7038 89.2286 52.1866C89.956 52.6694 90.463 53.3497 90.7496 54.2056H88.7657C88.5674 53.7886 88.3028 53.5033 87.9281 53.2839C87.5754 53.0864 87.1566 52.9766 86.6937 52.9766C86.1867 52.9766 85.7459 53.0864 85.3712 53.3278C84.9744 53.5692 84.6878 53.8984 84.4674 54.3153C84.247 54.7323 84.1368 55.237 84.1368 55.8076C84.1368 56.3782 84.247 56.861 84.4674 57.2999C84.6878 57.7169 84.9964 58.068 85.3712 58.2875C85.7679 58.5289 86.2088 58.6386 86.6937 58.6386C87.1566 58.6386 87.5754 58.5289 87.9281 58.3314C88.2808 58.1119 88.5674 57.8047 88.7657 57.4097H90.7496C90.463 58.2875 89.956 58.9678 89.2507 59.4506C88.5233 59.9334 87.6856 60.1748 86.7158 60.1748C85.9002 60.1748 85.1507 59.9993 84.4895 59.6262C83.8282 59.2531 83.2991 58.7483 82.9244 58.068C82.5497 57.4097 82.3513 56.6635 82.3513 55.8076C82.3513 54.9518 82.5497 54.2056 82.9244 53.5472V53.5692Z" fill="#8CB63F"/>
<path d="M93.4609 59.7797C92.9319 59.4944 92.5351 59.0775 92.2265 58.5508C91.9179 58.0241 91.7856 57.4096 91.7856 56.7073C91.7856 56.0051 91.9399 55.4126 92.2485 54.8639C92.5571 54.3372 92.9759 53.9203 93.505 53.635C94.034 53.3497 94.6291 53.196 95.2904 53.196C95.9517 53.196 96.5469 53.3497 97.0759 53.635C97.6049 53.9203 98.0237 54.3372 98.3323 54.8639C98.6409 55.3906 98.7952 56.0051 98.7952 56.7073C98.7952 57.4096 98.6409 58.0021 98.3323 58.5508C98.0237 59.0775 97.5829 59.4944 97.0538 59.7797C96.5248 60.065 95.9076 60.2186 95.2463 60.2186C94.5851 60.2186 94.012 60.065 93.4829 59.7797H93.4609ZM96.106 58.4849C96.3705 58.3313 96.591 58.1119 96.7673 57.8046C96.9216 57.4974 97.0098 57.1463 97.0098 56.7073C97.0098 56.0709 96.8334 55.5662 96.5028 55.215C96.1721 54.8639 95.7533 54.6883 95.2463 54.6883C94.7394 54.6883 94.3426 54.8639 94.012 55.215C93.6813 55.5662 93.505 56.049 93.505 56.7073C93.505 57.3657 93.6593 57.8485 93.9899 58.1996C94.3206 58.5508 94.7173 58.7263 95.2023 58.7263C95.5109 58.7263 95.7974 58.6605 96.084 58.5069L96.106 58.4849Z" fill="#8CB63F"/>
<path d="M105.783 53.9861C106.29 54.4909 106.532 55.2151 106.532 56.1148V60.087H104.813V56.3343C104.813 55.7857 104.68 55.3906 104.416 55.0834C104.151 54.7981 103.777 54.6445 103.314 54.6445C102.851 54.6445 102.454 54.7981 102.19 55.0834C101.925 55.3687 101.771 55.7857 101.771 56.3343V60.087H100.052V53.3058H101.771V54.1397C101.991 53.8544 102.3 53.613 102.653 53.4594C103.005 53.3058 103.402 53.218 103.821 53.218C104.636 53.218 105.298 53.4814 105.783 53.9861Z" fill="#8CB63F"/>
<path d="M109.287 59.9115C108.847 59.7139 108.494 59.4506 108.229 59.0995C107.965 58.7483 107.833 58.3753 107.811 57.9583H109.552C109.574 58.2216 109.706 58.4411 109.949 58.6167C110.169 58.7922 110.456 58.88 110.786 58.88C111.117 58.88 111.359 58.8142 111.558 58.6825C111.734 58.5508 111.822 58.3753 111.822 58.1778C111.822 57.9583 111.712 57.7827 111.492 57.673C111.271 57.5633 110.897 57.4536 110.412 57.3219C109.905 57.1902 109.486 57.0805 109.155 56.9488C108.825 56.8171 108.56 56.6196 108.318 56.3563C108.075 56.0929 107.965 55.7198 107.965 55.259C107.965 54.8859 108.075 54.5348 108.295 54.2275C108.516 53.9203 108.825 53.6789 109.221 53.5033C109.618 53.3278 110.103 53.24 110.654 53.24C111.47 53.24 112.109 53.4375 112.594 53.8545C113.079 54.2495 113.343 54.7981 113.387 55.4784H111.734C111.712 55.2151 111.602 54.9956 111.404 54.842C111.205 54.6884 110.941 54.6006 110.61 54.6006C110.301 54.6006 110.059 54.6665 109.883 54.7762C109.706 54.8859 109.64 55.0395 109.64 55.259C109.64 55.4784 109.75 55.654 109.993 55.7857C110.213 55.8954 110.588 56.0271 111.051 56.1368C111.536 56.2685 111.955 56.3782 112.263 56.5099C112.594 56.6416 112.858 56.8391 113.101 57.1244C113.343 57.4097 113.453 57.7608 113.453 58.1997C113.453 58.5947 113.343 58.9459 113.123 59.2531C112.902 59.5603 112.594 59.8017 112.197 59.9773C111.8 60.1529 111.315 60.2406 110.786 60.2406C110.257 60.2406 109.728 60.1309 109.287 59.9334V59.9115Z" fill="#8CB63F"/>
<path d="M116.87 54.7323V58.0022C116.87 58.2217 116.936 58.3972 117.047 58.5069C117.157 58.6167 117.333 58.6606 117.598 58.6606H118.391V60.109H117.311C115.856 60.109 115.129 59.4067 115.129 58.0022V54.7323H114.313V53.3278H115.129V51.6599H116.87V53.3278H118.391V54.7323H116.87Z" fill="#8CB63F"/>
<path d="M122.227 53.5253C122.579 53.3277 122.998 53.218 123.439 53.218V55.0176H122.976C122.425 55.0176 122.028 55.1492 121.764 55.3906C121.499 55.632 121.345 56.0929 121.345 56.7074V60.087H119.625V53.3058H121.345V54.3592C121.565 54.0081 121.852 53.7228 122.204 53.5253H122.227Z" fill="#8CB63F"/>
<path d="M131.022 53.3279V60.1091H129.28V59.2532C129.06 59.5385 128.773 59.7799 128.421 59.9335C128.068 60.0871 127.671 60.1749 127.252 60.1749C126.723 60.1749 126.238 60.0652 125.842 59.8457C125.423 59.6263 125.114 59.2971 124.872 58.8582C124.629 58.4193 124.519 57.8926 124.519 57.3V53.3279H126.238V57.0586C126.238 57.6073 126.371 58.0023 126.635 58.3095C126.9 58.5948 127.274 58.7485 127.737 58.7485C128.2 58.7485 128.575 58.5948 128.861 58.3095C129.126 58.0242 129.258 57.6073 129.258 57.0586V53.3279H131H131.022Z" fill="#8CB63F"/>
<path d="M132.719 54.8639C133.005 54.3372 133.402 53.9203 133.909 53.635C134.416 53.3497 134.989 53.196 135.651 53.196C136.488 53.196 137.194 53.4155 137.745 53.8325C138.296 54.2494 138.67 54.842 138.847 55.6101H136.995C136.907 55.3248 136.731 55.0834 136.488 54.9298C136.246 54.7761 135.959 54.6883 135.629 54.6883C135.144 54.6883 134.747 54.8639 134.46 55.215C134.174 55.5662 134.019 56.0709 134.019 56.7293C134.019 57.3877 134.152 57.8705 134.46 58.2216C134.747 58.5727 135.144 58.7483 135.629 58.7483C136.334 58.7483 136.775 58.4411 136.995 57.8266H138.847C138.648 58.5508 138.296 59.1433 137.723 59.5822C137.172 60.0211 136.466 60.2406 135.629 60.2406C134.967 60.2406 134.394 60.087 133.887 59.8017C133.38 59.5164 132.983 59.0994 132.697 58.5727C132.41 58.046 132.278 57.4316 132.278 56.7293C132.278 56.027 132.41 55.4126 132.697 54.8859L132.719 54.8639Z" fill="#8CB63F"/>
<path d="M142.109 54.7323V58.0022C142.109 58.2217 142.175 58.3972 142.285 58.5069C142.396 58.6167 142.572 58.6606 142.836 58.6606H143.63V60.109H142.55C141.095 60.109 140.368 59.4067 140.368 58.0022V54.7323H139.552V53.3278H140.368V51.6599H142.109V53.3278H143.63V54.7323H142.109Z" fill="#8CB63F"/>
<path d="M144.997 52.2305C144.798 52.033 144.688 51.7916 144.688 51.5063C144.688 51.221 144.798 50.9796 144.997 50.7821C145.195 50.5846 145.459 50.4968 145.746 50.4968C146.033 50.4968 146.297 50.5846 146.495 50.7821C146.694 50.9796 146.804 51.221 146.804 51.5063C146.804 51.7916 146.694 52.033 146.495 52.2305C146.297 52.428 146.033 52.5158 145.746 52.5158C145.459 52.5158 145.195 52.428 144.997 52.2305ZM146.606 53.3278V60.109H144.886V53.3278H146.606Z" fill="#8CB63F"/>
<path d="M149.56 59.7797C149.031 59.4944 148.634 59.0775 148.325 58.5508C148.017 58.0241 147.884 57.4096 147.884 56.7073C147.884 56.0051 148.039 55.4126 148.347 54.8639C148.656 54.3372 149.075 53.9203 149.604 53.635C150.133 53.3497 150.728 53.196 151.389 53.196C152.05 53.196 152.645 53.3497 153.175 53.635C153.704 53.9203 154.122 54.3372 154.431 54.8639C154.74 55.3906 154.894 56.0051 154.894 56.7073C154.894 57.4096 154.74 58.0021 154.431 58.5508C154.122 59.0775 153.682 59.4944 153.152 59.7797C152.623 60.065 152.006 60.2186 151.345 60.2186C150.684 60.2186 150.111 60.065 149.582 59.7797H149.56ZM152.205 58.4849C152.469 58.3313 152.69 58.1119 152.866 57.8046C153.02 57.4974 153.108 57.1463 153.108 56.7073C153.108 56.0709 152.932 55.5662 152.601 55.215C152.271 54.8639 151.852 54.6883 151.345 54.6883C150.838 54.6883 150.441 54.8639 150.111 55.215C149.78 55.5662 149.604 56.049 149.604 56.7073C149.604 57.3657 149.758 57.8485 150.089 58.1996C150.419 58.5508 150.816 58.7263 151.301 58.7263C151.609 58.7263 151.896 58.6605 152.183 58.5069L152.205 58.4849Z" fill="#8CB63F"/>
<path d="M161.881 53.9861C162.388 54.4909 162.631 55.2151 162.631 56.1148V60.087H160.911V56.3343C160.911 55.7857 160.779 55.3906 160.515 55.0834C160.25 54.7981 159.875 54.6445 159.412 54.6445C158.95 54.6445 158.553 54.7981 158.288 55.0834C158.024 55.3687 157.869 55.7857 157.869 56.3343V60.087H156.15V53.3058H157.869V54.1397C158.09 53.8544 158.398 53.613 158.751 53.4594C159.104 53.3058 159.501 53.218 159.919 53.218C160.735 53.218 161.396 53.4814 161.881 53.9861Z" fill="#8CB63F"/>
<path d="M174.291 51.5723V60.1091H172.572V56.4661H168.891V60.1091H167.172V51.5723H168.891V55.0836H172.572V51.5723H174.291Z" fill="#8CB63F"/>
<path d="M182.271 57.234H177.289C177.333 57.7168 177.51 58.1119 177.796 58.3752C178.105 58.6605 178.48 58.7922 178.92 58.7922C179.56 58.7922 180.023 58.5288 180.287 57.9802H182.139C181.94 58.6386 181.566 59.1653 181.014 59.5822C180.463 59.9992 179.78 60.2186 178.964 60.2186C178.303 60.2186 177.73 60.065 177.201 59.7797C176.672 59.4944 176.275 59.0775 175.989 58.5508C175.702 58.0241 175.548 57.4096 175.548 56.7073C175.548 56.0051 175.68 55.3906 175.967 54.8639C176.253 54.3372 176.65 53.9203 177.179 53.635C177.686 53.3497 178.281 53.196 178.964 53.196C179.648 53.196 180.199 53.3277 180.706 53.613C181.213 53.8983 181.61 54.2933 181.896 54.7981C182.183 55.3028 182.315 55.8954 182.315 56.5537C182.315 56.7951 182.315 57.0146 182.271 57.2121V57.234ZM180.53 56.0709C180.53 55.632 180.353 55.2809 180.045 55.0175C179.736 54.7542 179.361 54.6225 178.898 54.6225C178.48 54.6225 178.105 54.7542 177.818 55.0175C177.532 55.2809 177.355 55.632 177.289 56.0929H180.53V56.0709Z" fill="#8CB63F"/>
<path d="M183.549 54.8639C183.814 54.3372 184.188 53.9203 184.673 53.635C185.136 53.3497 185.665 53.196 186.26 53.196C186.767 53.196 187.208 53.3058 187.583 53.5033C187.958 53.7008 188.266 53.9641 188.509 54.2714V53.3058H190.25V60.087H188.509V59.0994C188.288 59.4286 187.98 59.692 187.583 59.8895C187.186 60.087 186.745 60.1967 186.238 60.1967C185.665 60.1967 185.136 60.0431 184.673 59.7578C184.21 59.4725 183.836 59.0555 183.549 58.5069C183.285 57.9802 183.13 57.3657 183.13 56.6635C183.13 55.9612 183.263 55.3687 183.549 54.842V54.8639ZM188.244 55.654C188.09 55.3467 187.87 55.1273 187.583 54.9736C187.296 54.82 187.01 54.7322 186.679 54.7322C186.349 54.7322 186.062 54.82 185.798 54.9736C185.533 55.1273 185.313 55.3467 185.136 55.654C184.96 55.9612 184.894 56.3123 184.894 56.7073C184.894 57.1024 184.982 57.4754 185.136 57.7827C185.291 58.0899 185.533 58.3313 185.798 58.4849C186.062 58.6386 186.371 58.7263 186.679 58.7263C186.988 58.7263 187.296 58.6386 187.583 58.4849C187.87 58.3313 188.09 58.0899 188.244 57.8046C188.399 57.5193 188.487 57.1463 188.487 56.7293C188.487 56.3123 188.399 55.9612 188.244 55.654Z" fill="#8CB63F"/>
<path d="M193.623 51.0454V60.087H191.903V51.0454H193.623Z" fill="#8CB63F"/>
<path d="M197.326 54.7323V58.0022C197.326 58.2217 197.392 58.3972 197.502 58.5069C197.613 58.6167 197.789 58.6606 198.053 58.6606H198.847V60.109H197.767C196.312 60.109 195.585 59.4067 195.585 58.0022V54.7323H194.769V53.3278H195.585V51.6599H197.326V53.3278H198.847V54.7323H197.326Z" fill="#8CB63F"/>
<path d="M205.283 53.5692C205.68 53.7886 205.989 54.1178 206.231 54.5567C206.452 54.9957 206.562 55.5223 206.562 56.1368V60.109H204.843V56.3563C204.843 55.8076 204.71 55.4126 204.446 55.1054C204.181 54.8201 203.807 54.6665 203.344 54.6665C202.881 54.6665 202.484 54.8201 202.219 55.1054C201.955 55.3907 201.801 55.8076 201.801 56.3563V60.109H200.081V51.0674H201.801V54.1837C202.021 53.8984 202.308 53.657 202.682 53.5033C203.057 53.3278 203.454 53.2619 203.917 53.2619C204.424 53.2619 204.887 53.3717 205.283 53.5911V53.5692Z" fill="#8CB63F"/>
<path d="M217.738 60.1091L216.812 59.1874C216.018 59.8896 215.048 60.2408 213.902 60.2408C213.263 60.2408 212.712 60.131 212.249 59.9116C211.764 59.6921 211.389 59.3849 211.147 58.9899C210.882 58.5948 210.75 58.134 210.75 57.6073C210.75 57.0367 210.904 56.532 211.235 56.093C211.544 55.6541 212.028 55.281 212.646 54.9958C212.425 54.7324 212.271 54.4691 212.161 54.2277C212.073 53.9863 212.006 53.7229 212.006 53.4157C212.006 53.0207 212.117 52.6695 212.315 52.3623C212.513 52.055 212.822 51.7917 213.197 51.6161C213.571 51.4406 214.034 51.3528 214.541 51.3528C215.048 51.3528 215.489 51.4406 215.864 51.6381C216.239 51.8356 216.503 52.0989 216.679 52.4281C216.856 52.7573 216.944 53.1084 216.922 53.5254H215.247C215.247 53.2621 215.181 53.0426 215.048 52.9109C214.916 52.7793 214.718 52.6915 214.475 52.6915C214.233 52.6915 214.056 52.7573 213.902 52.889C213.748 53.0207 213.682 53.1962 213.682 53.4157C213.682 53.6351 213.748 53.8326 213.858 54.0302C213.968 54.2277 214.189 54.4691 214.453 54.7763L216.613 56.905C216.613 56.905 216.635 56.8611 216.657 56.8611C216.679 56.8611 216.657 56.8392 216.679 56.8172L217.385 55.6541H219.17L218.311 57.1684C218.156 57.4976 217.98 57.7829 217.782 58.0681L219.854 60.1091H217.738ZM215.71 58.112L213.594 56.0272C212.8 56.3783 212.403 56.8831 212.403 57.5195C212.403 57.8926 212.535 58.1998 212.822 58.4412C213.109 58.6826 213.461 58.8143 213.924 58.8143C214.585 58.8143 215.181 58.5729 215.71 58.112Z" fill="#8CB63F"/>
<path d="M224.967 59.8895C224.483 59.692 224.108 59.3848 223.821 59.0117C223.535 58.6386 223.402 58.1778 223.38 57.6511H225.232C225.254 58.0022 225.386 58.2875 225.607 58.485C225.827 58.6825 226.136 58.7922 226.532 58.7922C226.929 58.7922 227.26 58.7045 227.48 58.5069C227.701 58.3094 227.833 58.068 227.833 57.7608C227.833 57.4974 227.745 57.2999 227.591 57.1463C227.436 56.9927 227.238 56.861 227.017 56.7513C226.775 56.6635 226.466 56.5538 226.048 56.4441C225.496 56.2904 225.034 56.1149 224.681 55.9613C224.328 55.8076 224.042 55.5662 223.777 55.237C223.535 54.9079 223.402 54.4909 223.402 53.9423C223.402 53.4375 223.535 52.9986 223.777 52.6255C224.02 52.2524 224.394 51.9672 224.857 51.7696C225.32 51.5721 225.849 51.4624 226.422 51.4624C227.304 51.4624 228.031 51.6819 228.582 52.0988C229.134 52.5377 229.442 53.1303 229.508 53.8984H227.613C227.613 53.6131 227.48 53.3717 227.238 53.1742C226.995 52.9766 226.687 52.8889 226.312 52.8889C225.981 52.8889 225.717 52.9766 225.519 53.1522C225.32 53.3278 225.21 53.5692 225.21 53.8984C225.21 54.1178 225.276 54.3153 225.43 54.469C225.585 54.6226 225.761 54.7323 226.003 54.842C226.224 54.9298 226.555 55.0395 226.951 55.1712C227.502 55.3248 227.965 55.5004 228.318 55.654C228.671 55.8076 228.979 56.071 229.222 56.3782C229.486 56.7074 229.596 57.1244 229.596 57.6511C229.596 58.1119 229.486 58.5289 229.244 58.9239C229.001 59.3189 228.649 59.6262 228.208 59.8676C227.745 60.109 227.194 60.2187 226.577 60.2187C225.981 60.2187 225.43 60.109 224.967 59.9115V59.8895Z" fill="#8CB63F"/>
<path d="M231.073 54.8639C231.338 54.3372 231.713 53.9203 232.197 53.635C232.682 53.3497 233.189 53.196 233.785 53.196C234.292 53.196 234.732 53.3058 235.129 53.5033C235.526 53.7008 235.812 53.9641 236.055 54.2714V53.3058H237.796V60.087H236.055V59.0994C235.834 59.4286 235.526 59.692 235.129 59.8895C234.732 60.087 234.292 60.1967 233.785 60.1967C233.211 60.1967 232.682 60.0431 232.219 59.7578C231.757 59.4725 231.382 59.0555 231.095 58.5069C230.831 57.9802 230.677 57.3657 230.677 56.6635C230.677 55.9612 230.809 55.3687 231.095 54.842L231.073 54.8639ZM235.768 55.654C235.592 55.3467 235.394 55.1273 235.107 54.9736C234.821 54.82 234.534 54.7322 234.203 54.7322C233.873 54.7322 233.586 54.82 233.322 54.9736C233.057 55.1273 232.837 55.3467 232.66 55.654C232.484 55.9612 232.418 56.3123 232.418 56.7073C232.418 57.1024 232.506 57.4754 232.66 57.7827C232.837 58.0899 233.057 58.3313 233.322 58.4849C233.586 58.6386 233.895 58.7263 234.203 58.7263C234.512 58.7263 234.821 58.6386 235.107 58.4849C235.394 58.3313 235.614 58.0899 235.768 57.8046C235.923 57.4974 236.011 57.1463 236.011 56.7293C236.011 56.3123 235.923 55.9612 235.768 55.654Z" fill="#8CB63F"/>
<path d="M242.535 54.7323H241.345V60.109H239.604V54.7323H238.832V53.3278H239.604V52.9767C239.604 52.1427 239.846 51.5283 240.309 51.1332C240.794 50.7382 241.499 50.5626 242.469 50.5846V52.033C242.051 52.033 241.764 52.0988 241.588 52.2305C241.411 52.3622 241.345 52.6475 241.345 53.0206V53.3059H242.535V54.7104V54.7323Z" fill="#8CB63F"/>
<path d="M249.942 57.234H244.96C245.004 57.7168 245.181 58.1119 245.467 58.3752C245.776 58.6605 246.15 58.7922 246.591 58.7922C247.231 58.7922 247.693 58.5288 247.958 57.9802H249.81C249.611 58.6386 249.236 59.1653 248.685 59.5822C248.134 59.9992 247.451 60.2186 246.635 60.2186C245.974 60.2186 245.401 60.065 244.872 59.7797C244.343 59.4944 243.946 59.0775 243.66 58.5508C243.373 58.0241 243.219 57.4096 243.219 56.7073C243.219 56.0051 243.373 55.3906 243.66 54.8639C243.946 54.3372 244.343 53.9203 244.872 53.635C245.379 53.3497 245.974 53.196 246.657 53.196C247.341 53.196 247.892 53.3277 248.399 53.613C248.906 53.8983 249.303 54.2933 249.589 54.7981C249.876 55.3028 250.008 55.8954 250.008 56.5537C250.008 56.7951 250.008 57.0146 249.964 57.2121L249.942 57.234ZM248.2 56.0709C248.2 55.632 248.024 55.2809 247.715 55.0175C247.407 54.7542 247.032 54.6225 246.569 54.6225C246.15 54.6225 245.776 54.7542 245.489 55.0175C245.203 55.2809 245.026 55.632 244.96 56.0929H248.2V56.0709Z" fill="#8CB63F"/>
<path d="M253.248 54.7323V58.0022C253.248 58.2217 253.314 58.3972 253.424 58.5069C253.535 58.6167 253.711 58.6606 253.976 58.6606H254.769V60.109H253.689C252.234 60.109 251.507 59.4067 251.507 58.0022V54.7323H250.691V53.3278H251.507V51.6599H253.248V53.3278H254.769V54.7323H253.248Z" fill="#8CB63F"/>
<path d="M262.528 53.3279L258.318 63.3131H256.488L257.965 59.9335L255.232 53.3279H257.172L258.935 58.0681L260.721 53.3279H262.55H262.528Z" fill="#8CB63F"/>
<path d="M273.704 60.1091H271.984L268.083 54.2496V60.1091H266.364V51.5503H268.083L271.984 57.4317V51.5503H273.704V60.1091Z" fill="#8CB63F"/>
<path d="M277.143 58.6607H281V60.1091H275.159V58.7924L278.994 53.0207H275.159V51.5723H281V52.889L277.143 58.6607Z" fill="#8CB63F"/>
<path d="M33.6592 67.0219C52.2486 67.0219 67.3183 52.0186 67.3183 33.511C67.3183 15.0034 52.2486 0 33.6592 0C15.0697 0 0 15.0034 0 33.511C0 52.0186 15.0697 67.0219 33.6592 67.0219Z" fill="#8CB63F"/>
<path d="M33.6591 39.0852C33.6591 39.0852 52.3072 39.195 53.4093 37.0662C53.4093 37.0662 54.3572 28.4416 49.64 23.1966C49.5298 23.0649 49.3094 23.0649 49.1992 23.1966L44.989 28.5733C44.989 28.5733 44.8347 28.5733 44.8568 28.5074L47.7223 21.5287C47.7884 21.3751 47.7444 21.1995 47.6341 21.0898C46.8847 20.4095 44.0412 17.9955 39.5224 16.8104C39.3461 16.7665 39.1698 16.8763 39.1477 17.0518L37.5166 32.8307C37.5166 32.8307 37.4504 32.8746 37.4504 32.8307V16.3276C37.4504 16.3276 37.4504 14.1331 35.2682 14.1331H32.0941C29.9118 14.1331 29.9118 16.3276 29.9118 16.3276V32.8307C29.9118 32.8307 29.8457 32.8746 29.8457 32.8307L28.2145 17.0518C28.2145 16.8763 28.0162 16.7446 27.8398 16.8104C23.3211 18.0174 20.4776 20.4095 19.7281 21.0898C19.5959 21.1995 19.5738 21.3751 19.6399 21.5287L22.5055 28.5074C22.5055 28.5074 22.4394 28.6391 22.3732 28.5733L18.1631 23.1966L30.5952 39.0413C32.4467 39.0633 33.6811 39.0413 33.6811 39.0413L33.6591 39.0852Z" fill="white"/>
<path opacity="0.75" d="M30.5512 39.0632L18.1191 23.2185C18.0089 23.0868 17.7885 23.0649 17.6782 23.2185C12.9611 28.4635 13.9089 37.0881 13.9089 37.0881C14.7245 38.6682 25.2168 38.9974 30.5732 39.0852L30.5512 39.0632Z" fill="white"/>
<path opacity="0.75" d="M13.9972 37.922C13.8649 37.8562 13.7327 37.8342 13.6004 37.8342C12.344 37.8562 8.35425 38.1415 8.28812 40.5335C8.19995 43.0573 29.1625 43.6718 33.6592 43.6498C33.8135 43.6498 33.9899 43.6498 34.1662 43.6498L31.2566 39.941C18.2514 39.7654 14.7466 38.2731 13.9972 37.922Z" fill="white"/>
<path d="M59.0083 40.5555C58.9422 38.1415 54.9525 37.8781 53.696 37.8562C53.5638 37.8562 53.4315 37.8781 53.2993 37.944C52.5278 38.3171 48.6262 39.963 33.6592 39.963C32.8216 39.963 32.0281 39.963 31.2566 39.963L34.1662 43.6718C39.5446 43.6718 59.0965 42.9915 59.0083 40.5555Z" fill="white"/>
</g>
<defs>
<clipPath id="clip0_713_2193">
<rect width="281" height="67" fill="white"/>
</clipPath>
</defs>
</svg>
