<svg width="292" height="87" viewBox="0 0 292 87" fill="none" xmlns="http://www.w3.org/2000/svg">
<mask id="mask0_423_1440" style="mask-type:luminance" maskUnits="userSpaceOnUse" x="0" y="0" width="292" height="87">
<path d="M292 0H0V87H292V0Z" fill="white"/>
</mask>
<g mask="url(#mask0_423_1440)">
<path d="M82.076 18.2513V36.332H61.7703V18.2513H50.3529V63.3175H61.7703V45.0415H82.076V63.3175H93.5013V18.2513H82.076ZM231.497 18.2513V45.119L207.037 18.2513H197.028V63.3175H208.325V35.0021L233.843 63.3175H242.786V18.2513H231.497ZM249.52 18.2513V26.6321H272.552C264.185 38.8616 255.817 51.0901 247.449 63.3175H291.863V54.6096H267.074L292.001 18.2513H249.52ZM160.383 21.1327C158.876 22.1962 157.654 23.6058 156.821 25.24C155.989 26.8743 155.571 28.6841 155.604 30.5133C155.549 32.1841 155.846 33.848 156.477 35.3993C157.107 36.9507 158.057 38.3556 159.266 39.525C161.718 41.8748 166.194 44.1807 172.694 46.4427C174.487 46.9339 176.182 47.7255 177.705 48.7832C178.096 49.1653 178.395 49.6303 178.578 50.143C178.761 50.6558 178.824 51.2029 178.762 51.7431C178.699 52.2833 178.514 52.8025 178.219 53.2615C177.924 53.7205 177.527 54.1073 177.058 54.3926C175.479 55.1569 173.727 55.5056 171.972 55.4048C169.626 55.3827 167.302 54.9579 165.103 54.1493C162.063 52.9671 159.15 51.4867 156.409 49.7302V59.737C161.163 62.6279 166.642 64.1449 172.224 64.1158C177.882 64.1158 182.306 62.9244 185.496 60.5415C187.043 59.4135 188.286 57.9289 189.119 56.217C189.951 54.5052 190.346 52.6182 190.271 50.7207C190.327 48.4201 189.807 46.1415 188.758 44.0867C187.719 42.1646 186.167 40.5603 184.271 39.4475C181.275 37.8211 178.144 36.452 174.911 35.3555C174.019 35.0362 173.342 34.796 172.915 34.6208C171.257 34.0788 169.698 33.2764 168.299 32.2447C167.853 31.9463 167.483 31.5509 167.217 31.089C166.95 30.6271 166.794 30.1109 166.761 29.5802C166.757 29.0197 166.916 28.4699 167.22 27.9963C167.523 27.5227 167.958 27.1455 168.473 26.9096C170.026 26.2007 171.732 25.8813 173.44 25.9796C175.699 26.0187 177.94 26.3896 180.088 27.0801C182.931 27.9721 185.69 29.1052 188.335 30.4668V21.1994C185.863 20.0233 183.274 19.1054 180.609 18.4605C178.059 17.8429 175.443 17.5306 172.818 17.5305C168.381 17.3269 164.004 18.5973 160.383 21.1389M8.47234 23.884C6.12032 26.0313 4.26793 28.6572 3.04302 31.5805C1.81811 34.5038 1.24984 37.6548 1.37744 40.8162C1.3504 44.021 1.96853 47.1991 3.19588 50.1658C4.38365 53.0386 6.17824 55.6279 8.45979 57.7608C10.7194 59.8537 13.3893 61.4669 16.3047 62.5007C19.4619 63.5982 22.7891 64.1416 26.1358 64.1065C29.1856 64.1192 32.2242 63.7425 35.1763 62.9858C38.1201 62.1988 40.948 61.0375 43.5891 59.5309V48.9909C41.0445 50.7635 38.271 52.1914 35.3426 53.2363C32.6946 54.1712 29.9049 54.6545 27.0929 54.6654C25.2255 54.7586 23.3585 54.472 21.6078 53.8233C19.8571 53.1746 18.2598 52.1777 16.915 50.8943C15.6274 49.5525 14.6284 47.9669 13.9782 46.2332C13.3281 44.4994 13.0403 42.6535 13.1322 40.8069C13.0306 38.9255 13.3316 37.0442 14.0156 35.2855C14.6996 33.5268 15.7511 31.9303 17.1017 30.6001C20.0904 28.0035 23.9931 26.6723 27.9668 26.8941C30.5598 26.8999 33.1361 27.3047 35.603 28.0938C38.2871 28.9576 40.8413 30.1745 43.1968 31.7115V21.1327C40.696 19.92 38.0643 18.9908 35.352 18.3629C32.6832 17.7548 29.9525 17.4516 27.2137 17.4592C19.4536 17.4592 13.208 19.6008 8.47704 23.884" fill="#7ABC25"/>
<path d="M120.271 4.23151V22.9571L118.401 4.65001C114.938 5.49262 111.753 7.20064 109.152 9.61001L112.53 17.9986L107.445 11.4235C102.099 17.0934 103.15 26.7825 103.15 26.7825C104.329 29.0842 124.305 28.7603 124.305 28.7603C124.305 28.7603 144.278 29.0842 145.459 26.7825C145.459 26.7825 146.511 17.0934 141.163 11.4235L136.08 18.0002L139.458 9.61001C136.856 7.20064 133.671 5.49262 130.209 4.65001L128.342 22.9571V4.23151C128.342 4.23151 128.342 1.21831 124.305 0.959457C120.271 1.21831 120.271 4.23151 120.271 4.23151Z" fill="#7ABC25"/>
</g>
<mask id="mask1_423_1440" style="mask-type:luminance" maskUnits="userSpaceOnUse" x="0" y="0" width="292" height="87">
<path d="M292 0H0V87H292V0Z" fill="white"/>
</mask>
<g mask="url(#mask1_423_1440)">
<path d="M146.366 27.6241C146.366 27.6241 143.542 29.6004 123.699 29.6391H121.66C102.091 29.5988 103.229 27.6241 103.229 27.6241H103.072C102.131 27.6241 97.0786 27.7543 96.9908 30.5691C96.9013 33.3297 117.999 33.2816 122.744 33.2398C128.235 33.2816 152.67 33.3297 152.584 30.5691C152.493 27.7512 147.443 27.6241 146.5 27.6241H146.366Z" fill="#7ABC25"/>
<path d="M0 71.0939L140.392 71.7139L280.787 71.0939L140.392 70.4739L0 71.0939Z" fill="#7ABC25"/>
<path d="M132.486 34.2891V42.6033H117.118V34.3341C113.572 34.2953 109.166 34.1791 105.382 33.8691V62.8541H117.118V50.7067H132.486V62.8541H144.218V33.7745C140.61 34.0737 136.334 34.2178 132.486 34.2891Z" fill="#7ABC25"/>
</g>
<mask id="mask2_423_1440" style="mask-type:luminance" maskUnits="userSpaceOnUse" x="0" y="0" width="292" height="87">
<path d="M292 0H0V87H292V0Z" fill="white"/>
</mask>
<g mask="url(#mask2_423_1440)">
<path d="M12.1328 84.4983V86.0839C11.5675 86.3761 10.9707 86.6044 10.3536 86.7644C9.76793 86.9182 9.16466 86.9968 8.55868 86.9984C8.00832 87.0001 7.46033 86.9271 6.93008 86.7814C6.41202 86.6322 5.91808 86.4109 5.46309 86.1242C4.74369 85.6655 4.1507 85.0376 3.73722 84.2968C3.32807 83.5542 3.11644 82.7212 3.12218 81.8757C3.12501 81.2115 3.26444 80.5548 3.53199 79.9454C3.79954 79.336 4.18964 78.7867 4.67861 78.3308C5.19096 77.8464 5.79724 77.4694 6.46096 77.2226C7.16392 76.9668 7.90846 76.8407 8.65752 76.8506C9.21758 76.8504 9.77573 76.9149 10.3206 77.0428C10.9149 77.1841 11.4932 77.3845 12.0465 77.6411V79.1663C11.4829 78.8554 10.8876 78.6044 10.2704 78.4176C9.7474 78.2604 9.20419 78.1785 8.65752 78.1743C8.1299 78.1569 7.60399 78.2426 7.10994 78.4263C6.61589 78.6101 6.16342 78.8885 5.77846 79.2453C5.41917 79.5938 5.13347 80.0093 4.93791 80.4676C4.74235 80.926 4.64083 81.4181 4.63923 81.9155C4.63762 82.4129 4.73596 82.9057 4.92856 83.3653C5.12115 83.8249 5.40417 84.2421 5.7612 84.5928C6.1341 84.9477 6.57509 85.2253 7.05822 85.4092C7.54135 85.5932 8.05685 85.6797 8.57437 85.6639C9.17023 85.6606 9.76178 85.5638 10.3269 85.3771C10.9651 85.162 11.5725 84.8666 12.1344 84.4983M14.7373 81.9299C14.7336 82.4193 14.8289 82.9044 15.0175 83.3568C15.2061 83.8093 15.4842 84.22 15.8356 84.5649C16.1809 84.9147 16.5953 85.1907 17.0531 85.3756C17.9918 85.7518 19.042 85.7518 19.9808 85.3756C20.4406 85.1873 20.8573 84.9095 21.2062 84.5587C21.5559 84.2126 21.8341 83.8025 22.0252 83.3513C22.4049 82.4371 22.4049 81.4119 22.0252 80.4977C21.8267 80.0411 21.5412 79.6264 21.1842 79.2763C20.8401 78.9195 20.4243 78.6376 19.9635 78.4486C19.5025 78.26 19.0081 78.1636 18.5091 78.165C18.0168 78.1644 17.5295 78.2624 17.0766 78.4533C16.6108 78.6444 16.1876 78.9241 15.8309 79.2763C15.4748 79.6134 15.1952 80.0213 15.0103 80.4729C14.821 80.9326 14.7251 81.4245 14.7279 81.9206M13.2154 81.8664C13.2159 81.2103 13.3531 80.5613 13.6186 79.9599C13.8879 79.3433 14.2795 78.7862 14.7702 78.3215C15.7728 77.3644 17.1149 76.8331 18.5091 76.8413C19.2103 76.8384 19.9054 76.9689 20.5566 77.2257C21.5255 77.5907 22.3579 78.2402 22.9417 79.0869C23.5255 79.9335 23.8326 80.9366 23.8216 81.9609C23.8231 82.6231 23.6864 83.2784 23.42 83.886C23.1556 84.4985 22.7669 85.0508 22.2778 85.5089C21.7817 85.9859 21.1952 86.3615 20.5519 86.614C19.2425 87.1173 17.789 87.114 16.482 86.6047C15.8455 86.3531 15.2651 85.9808 14.7734 85.5089C14.2754 85.0387 13.8803 84.4727 13.6123 83.8457C13.3472 83.219 13.2132 82.5457 13.2185 81.8664M25.4173 86.8279V77.0102H26.6552L33.1978 84.63V77.0102H34.6099V86.8279H33.3547L26.8294 79.205V86.8326L25.4173 86.8279ZM36.2259 86.0529V84.2115C36.5897 84.6477 37.0251 85.0203 37.5141 85.3136C37.9157 85.5342 38.3678 85.6495 38.8273 85.6484C39.2425 85.6722 39.6531 85.5521 39.9883 85.3089C40.128 85.1993 40.2396 85.0586 40.314 84.8984C40.3885 84.7381 40.4236 84.5629 40.4167 84.3867C40.4227 84.0832 40.3211 83.7871 40.1295 83.5497C39.7245 83.1395 39.2628 82.7878 38.7583 82.505C37.9687 82.0626 37.254 81.5009 36.6402 80.8403C36.3497 80.4292 36.1996 79.9372 36.2118 79.436C36.2015 79.0827 36.2696 78.7314 36.4114 78.4068C36.5531 78.0823 36.7651 77.7924 37.0324 77.5574C37.616 77.0548 38.3723 76.7925 39.1458 76.8242C39.53 76.8242 39.9122 76.8795 40.2802 76.9885C40.6759 77.1096 41.0541 77.2811 41.4051 77.4985V79.0934C41.0383 78.7897 40.6326 78.5349 40.1986 78.3355C39.8522 78.1851 39.4786 78.1055 39.1003 78.1014C38.707 78.0824 38.3191 78.1979 38.002 78.4285C37.8683 78.5249 37.7599 78.6517 37.6862 78.7982C37.6125 78.9447 37.5755 79.1066 37.5784 79.2701C37.5784 79.7558 38.1626 80.3593 39.3309 81.0805L39.5412 81.2076C40.2648 81.5946 40.9019 82.1218 41.4145 82.7576C41.7223 83.2566 41.8755 83.8337 41.8554 84.4177C41.8647 84.7683 41.7959 85.1166 41.6538 85.4381C41.5117 85.7595 41.2999 86.0461 41.0333 86.2777C40.4483 86.7775 39.6926 87.0385 38.9199 87.0077C38.4277 87.0148 37.938 86.9388 37.4717 86.783C37.0161 86.6221 36.5939 86.3805 36.2259 86.07M46.134 86.845V78.2905H42.4783V77.0102H51.194V78.2905H47.5398V86.8279L46.134 86.845ZM52.3456 86.845V77.0102H55.256C56.0918 76.9566 56.9186 77.2063 57.5812 77.7124C57.8584 77.9624 58.0756 78.2704 58.217 78.6139C58.3585 78.9574 58.4205 79.3278 58.3987 79.6979C58.4261 80.2522 58.2684 80.8001 57.9499 81.2572C57.5861 81.6924 57.0916 82.0018 56.5379 82.1407C56.7112 82.2361 56.8697 82.3557 57.0086 82.4957C57.2208 82.7255 57.4119 82.9734 57.5797 83.2366L59.9927 86.8279H58.2669L56.5645 84.2518C56.2383 83.6919 55.8194 83.19 55.3251 82.7669C54.994 82.5459 54.6011 82.4331 54.2017 82.4445H53.7733V86.8279L52.3456 86.845ZM53.7702 81.282H54.9501C55.4741 81.3191 55.9961 81.187 56.4375 80.9054C56.7473 80.5973 56.9232 80.1819 56.9276 79.7476C56.932 79.3133 56.7645 78.8945 56.461 78.5804C56.0099 78.3024 55.4799 78.1757 54.9501 78.2192H53.7702V81.282ZM60.5168 77.0273H61.9289V82.6615C61.9128 83.1088 61.9475 83.5565 62.0324 83.9961C62.0955 84.2452 62.2134 84.4775 62.3776 84.6765C62.6592 85.0101 63.0167 85.273 63.421 85.4438C63.8572 85.6166 64.3239 85.7019 64.7938 85.6949C65.545 85.7305 66.284 85.4966 66.8743 85.0361C67.1307 84.8239 67.3346 84.5567 67.4706 84.2547C67.6065 83.9528 67.6709 83.6242 67.6587 83.2939V77.0102H69.0708V83.3203C69.0872 83.8231 68.9892 84.3231 68.7839 84.7834C68.5786 85.2438 68.2713 85.6527 67.8847 85.9801C67.0161 86.6856 65.9139 87.0483 64.7907 86.9984C64.0904 87.0097 63.3955 86.8756 62.751 86.6047C62.1525 86.3453 61.6265 85.9464 61.2181 85.4422C60.9658 85.1461 60.7807 84.7999 60.6752 84.427C60.5494 83.8608 60.4966 83.2811 60.5183 82.7018L60.5168 77.0273ZM79.6222 84.5153V86.101C79.0571 86.3937 78.4602 86.622 77.8429 86.7814C77.2573 86.9355 76.6541 87.0141 76.048 87.0155C75.4977 87.0169 74.9497 86.9439 74.4194 86.7985C73.9015 86.6489 73.4076 86.4277 72.9525 86.1413C72.2331 85.6825 71.6401 85.0546 71.2266 84.3138C70.8174 83.5713 70.6058 82.7382 70.6116 81.8927C70.6123 81.2253 70.7511 80.565 71.0196 79.9524C71.2881 79.3399 71.6805 78.7881 72.1727 78.3308C72.6845 77.8465 73.2902 77.4695 73.9535 77.2226C74.6564 76.9668 75.401 76.8407 76.15 76.8506C76.7096 76.8506 77.2672 76.9151 77.8116 77.0428C78.4058 77.1844 78.984 77.3848 79.5374 77.6411V79.1663C78.9732 78.8556 78.3774 78.6047 77.7598 78.4176C77.2373 78.2604 76.6946 78.1785 76.1485 78.1743C75.6208 78.1565 75.0947 78.2419 74.6006 78.4258C74.1065 78.6096 73.6541 78.8881 73.2694 79.2453C72.9102 79.5938 72.6245 80.0092 72.429 80.4675C72.2334 80.9258 72.1318 81.4179 72.13 81.9152C72.1283 82.4126 72.2264 82.9053 72.4188 83.3649C72.6111 83.8245 72.8938 84.2419 73.2506 84.5928C73.6232 84.9477 74.0639 85.2252 74.5468 85.4092C75.0296 85.5931 75.5449 85.6797 76.0622 85.6639C76.6591 85.6607 77.2517 85.564 77.8178 85.3771C78.4556 85.1623 79.0626 84.8669 79.6237 84.4983M83.9447 86.8233V78.2905H80.289V77.0102H89.0062V78.2905H85.3521V86.8279L83.9447 86.8233ZM90.2206 77.0056H91.6468V86.8233H90.2159L90.2206 77.0056ZM94.7894 81.9253C94.7866 82.4145 94.8822 82.8994 95.0707 83.3517C95.2593 83.8041 95.537 84.2149 95.8877 84.5603C96.2339 84.9104 96.6495 85.1864 97.1084 85.3709C98.0471 85.7472 99.0973 85.7472 100.036 85.3709C100.496 85.183 100.913 84.9052 101.261 84.5541C101.611 84.2072 101.889 83.7973 102.082 83.3466C102.271 82.8929 102.368 82.4068 102.368 81.916C102.371 81.4278 102.275 80.944 102.085 80.4931C101.887 80.0367 101.602 79.6221 101.246 79.2717C100.901 78.9144 100.484 78.6325 100.022 78.444C99.5616 78.255 99.0676 78.1585 98.5691 78.1603C98.0768 78.1598 97.5895 78.2579 97.1366 78.4486C96.668 78.6398 96.2417 78.9193 95.8814 79.2717C95.5283 79.6106 95.25 80.018 95.064 80.4683C94.8755 80.9281 94.7795 81.4199 94.7816 81.916M93.2675 81.8617C93.2681 81.2052 93.4071 80.5559 93.6755 79.9552C93.9419 79.3375 94.3332 78.7799 94.8255 78.3169C95.3232 77.8431 95.9094 77.4693 96.5514 77.2164C97.1932 76.9635 97.8781 76.8346 98.5691 76.8366C99.2702 76.8338 99.9654 76.9643 100.617 77.221C101.901 77.735 102.93 78.7254 103.483 79.98C103.747 80.6082 103.879 81.2825 103.872 81.9625C103.874 82.6245 103.738 83.2799 103.472 83.8876C103.208 84.4996 102.82 85.0519 102.331 85.5104C101.835 85.9868 101.249 86.3623 100.606 86.6156C99.2933 87.121 97.8362 87.1177 96.5263 86.6063C95.8899 86.3554 95.3098 85.983 94.8192 85.5104C94.3251 85.042 93.9332 84.4787 93.6676 83.855C93.4019 83.2284 93.2674 82.5551 93.2722 81.8757M105.465 86.8279V77.0102H106.69L113.244 84.63V77.0102H114.656V86.8279H113.401L106.867 79.205V86.8326L105.465 86.8279ZM120.448 86.8279V77.0102H121.86V81.2371H127.594V77.0102H129.006V86.8279H127.594V82.5577H121.853V86.8279H120.448ZM131.127 86.8279V77.0102H137.106V78.2595H132.531V81.2371H136.971V82.5003H132.531V85.56H137.238V86.8248L131.127 86.8279ZM140.934 82.6739H144.032L142.463 79.1368L140.934 82.6739ZM137.66 86.8279L141.967 77.0102H143.002L147.364 86.8279H145.896L144.615 83.9387H140.379L139.124 86.8279H137.66ZM148.15 86.8279V77.0102H149.562V85.56H154.291V86.8248L148.15 86.8279ZM157.348 86.8279V78.2905H153.69V77.0102H162.404V78.2905H158.753V86.8279H157.348ZM163.575 86.8279V77.0102H164.987V81.2371H170.72V77.0102H172.132V86.8279H170.72V82.5577H164.987V86.8279H163.575ZM179.812 82.6739H182.911L181.342 79.1368L179.812 82.6739ZM176.538 86.8279L180.841 77.0102H181.878L186.24 86.8279H184.772L183.491 83.9387H179.255L178 86.8279H176.538ZM186.982 86.8279V77.0102H188.219L194.768 84.63V77.0102H196.18V86.8279H194.913L188.388 79.205V86.8326L186.982 86.8279ZM201.957 78.3479H199.713V85.4918H201.957C203.008 85.5508 204.042 85.2091 204.847 84.537C205.521 83.829 205.896 82.8935 205.896 81.9214C205.896 80.9493 205.521 80.0139 204.847 79.3058C204.044 78.6315 203.009 78.2885 201.957 78.3479ZM201.957 77.0102C202.594 76.9999 203.23 77.0681 203.85 77.2133C204.492 77.3786 205.091 77.6752 205.609 78.084C206.128 78.4929 206.553 79.0047 206.858 79.5863C207.221 80.3111 207.41 81.1088 207.41 81.9175C207.41 82.7262 207.221 83.524 206.858 84.2487C206.498 84.9476 205.963 85.5437 205.303 85.9801C204.864 86.2786 204.374 86.4965 203.857 86.6233C203.235 86.7691 202.598 86.8378 201.96 86.8279H198.304V77.0102H201.957ZM212.244 86.0607V84.2115C212.607 84.6492 213.043 85.022 213.534 85.3136C213.934 85.5343 214.385 85.6496 214.843 85.6484C215.258 85.6727 215.67 85.5526 216.005 85.3089C216.145 85.1996 216.257 85.059 216.332 84.8988C216.407 84.7385 216.442 84.563 216.435 84.3867C216.44 84.083 216.338 83.7869 216.146 83.5497C215.741 83.1395 215.28 82.7878 214.775 82.505C213.986 82.0632 213.271 81.5014 212.659 80.8403C212.366 80.43 212.215 79.9376 212.229 79.436C212.218 79.0828 212.286 78.7317 212.428 78.4072C212.569 78.0827 212.781 77.7926 213.048 77.5574C213.632 77.0553 214.389 76.793 215.163 76.8242C215.547 76.8241 215.929 76.8794 216.297 76.9885C216.693 77.1102 217.072 77.2816 217.423 77.4985V79.0934C217.056 78.7896 216.649 78.5348 216.214 78.3355C215.867 78.185 215.494 78.1054 215.116 78.1014C214.722 78.082 214.334 78.1976 214.017 78.4285C213.884 78.5251 213.776 78.652 213.702 78.7985C213.629 78.9449 213.592 79.1067 213.595 79.2701C213.595 79.7558 214.178 80.3593 215.345 81.0805L215.56 81.2076C216.282 81.5962 216.918 82.1232 217.431 82.7576C217.74 83.2565 217.893 83.8335 217.874 84.4177C217.883 84.7687 217.813 85.1173 217.67 85.4387C217.527 85.7602 217.315 86.0466 217.047 86.2777C216.463 86.7778 215.707 87.0389 214.935 87.0077C214.443 87.0148 213.953 86.9388 213.487 86.783C213.032 86.6224 212.61 86.3808 212.243 86.07M221.354 82.6832H224.449L222.88 79.1461L221.354 82.6832ZM218.078 86.8372L222.383 77.0195H223.417L227.782 86.8372H226.312L225.031 83.948H220.795L219.531 86.8372H218.078ZM228.524 86.8372V77.0102H234.183V78.2595H229.933V81.1642H234.051V82.429H229.933V86.8279L228.524 86.8372ZM235.842 86.8372V77.0102H241.823V78.2595H237.254V81.2371H241.694V82.5003H237.254V85.56H241.968V86.8248L235.842 86.8372ZM246.449 86.8372V78.2905H242.795V77.0102H251.506V78.2905H247.855V86.8279L246.449 86.8372ZM255.062 86.8372V81.9129L251.219 77.0102H252.904L255.805 80.7302L258.775 77.0102H260.489L256.502 81.9857V86.8279L255.062 86.8372ZM264.824 86.8372V77.0102H266.06L272.611 84.63V77.0102H274.023V86.8279H272.758L266.231 79.205V86.8326L264.824 86.8372ZM275.179 86.8372L281.711 78.2549H275.647V77.0149H284.171V77.1699L277.755 85.622H284.171V86.8279L275.179 86.8372Z" fill="#7ABC25"/>
</g>
</svg>
