<svg width="151" height="37" viewBox="0 0 151 37" fill="none" xmlns="http://www.w3.org/2000/svg">
<g clip-path="url(#clip0_1114_1774)">
<path d="M44.2051 8.94137C44.9882 7.52555 46.0782 6.42034 47.4769 5.62954C48.8756 4.83874 50.4629 4.44238 52.235 4.44238C54.4073 4.44238 56.2672 5.01595 57.8145 6.16309C59.3618 7.31023 60.3965 8.87468 60.9167 10.8564H56.0156C55.6498 10.0923 55.1334 9.50922 54.4645 9.10906C53.7957 8.7089 53.0354 8.50881 52.1836 8.50881C50.8097 8.50881 49.6968 8.9871 48.8451 9.94369C47.9933 10.9003 47.5683 12.177 47.5683 13.7757C47.5683 15.3745 47.9933 16.6531 48.8451 17.6078C49.6968 18.5644 50.8097 19.0427 52.1836 19.0427C53.0354 19.0427 53.7957 18.8426 54.4645 18.4424C55.1334 18.0422 55.6517 17.4611 56.0156 16.695H60.9167C60.3946 18.6768 59.3599 20.2374 57.8145 21.375C56.2672 22.5146 54.4073 23.0824 52.235 23.0824C50.4629 23.0824 48.8756 22.688 47.4769 21.8953C46.0782 21.1045 44.9863 20.005 44.2051 18.5968C43.4238 17.1886 43.0312 15.5803 43.0312 13.7738C43.0312 11.9674 43.4219 10.3534 44.2051 8.93756V8.94137Z" fill="white"/>
<path d="M79.5094 4.65137V22.956H75.0504V15.4196H68.1143V22.956H63.6553V4.65137H68.1143V11.8219H75.0504V4.65137H79.5094Z" fill="white"/>
<path d="M94.1113 19.7223H87.2799L86.1843 22.956H81.5176L88.1412 4.65137H93.3034L99.927 22.956H95.207L94.1113 19.7223ZM92.9642 16.2809L90.6966 9.5791L88.4538 16.2809H92.9642Z" fill="white"/>
<path d="M104.957 22.4877C103.896 22.0532 103.05 21.4091 102.415 20.5574C101.781 19.7056 101.445 18.6804 101.411 17.4799H106.156C106.225 18.1583 106.459 18.6747 106.859 19.031C107.259 19.3874 107.779 19.5665 108.424 19.5665C109.068 19.5665 109.605 19.414 109.988 19.111C110.371 18.8081 110.562 18.385 110.562 17.8458C110.562 17.3942 110.409 17.0207 110.106 16.7253C109.801 16.4299 109.428 16.186 108.986 15.9955C108.542 15.8049 107.913 15.5877 107.095 15.3438C105.912 14.9779 104.948 14.614 104.201 14.2481C103.454 13.8822 102.81 13.3449 102.271 12.6322C101.731 11.9195 101.463 10.9896 101.463 9.84248C101.463 8.13893 102.08 6.80504 103.315 5.84084C104.55 4.87663 106.158 4.39453 108.138 4.39453C110.118 4.39453 111.779 4.87663 113.014 5.84084C114.249 6.80504 114.908 8.14845 114.996 9.86916H110.173C110.139 9.27844 109.921 8.81349 109.521 8.4743C109.121 8.13511 108.608 7.96552 107.983 7.96552C107.444 7.96552 107.01 8.10844 106.68 8.39617C106.35 8.68201 106.185 9.09551 106.185 9.63478C106.185 10.2255 106.463 10.6866 107.019 11.0163C107.576 11.346 108.444 11.7023 109.626 12.0853C110.807 12.4855 111.768 12.8666 112.507 13.2324C113.246 13.5983 113.885 14.1281 114.424 14.8236C114.963 15.5191 115.232 16.4147 115.232 17.5085C115.232 18.6023 114.967 19.4998 114.437 20.3516C113.908 21.2033 113.138 21.8817 112.13 22.3848C111.122 22.8897 109.931 23.1413 108.557 23.1413C107.183 23.1413 106.019 22.924 104.959 22.4896L104.957 22.4877Z" fill="white"/>
<path d="M134.343 22.956H129.884L122.428 11.6657V22.956H117.969V4.65137H122.428L129.884 15.9932V4.65137H134.343V22.956Z" fill="white"/>
<path d="M142.322 19.305H150.196V22.956H137.263V19.5661L145.085 8.30239H137.263V4.65137H150.196V8.04133L142.322 19.305Z" fill="white"/>
<path d="M44.4259 28.8193C44.6298 28.4611 44.908 28.1828 45.2625 27.9828C45.6169 27.7827 46.0113 27.6836 46.4496 27.6836C46.9622 27.6836 47.4119 27.8151 47.7987 28.078C48.1856 28.341 48.4543 28.705 48.6086 29.1699H47.5491C47.4443 28.9508 47.2957 28.7869 47.1051 28.6764C46.9146 28.5659 46.6935 28.5125 46.4439 28.5125C46.1771 28.5125 45.9389 28.5754 45.7293 28.6992C45.5197 28.8231 45.3577 29.0003 45.2415 29.229C45.1253 29.4577 45.0662 29.7244 45.0662 30.0312C45.0662 30.338 45.1234 30.601 45.2415 30.8316C45.3577 31.0621 45.5197 31.2393 45.7293 31.3651C45.9389 31.4909 46.1752 31.5518 46.4439 31.5518C46.6935 31.5518 46.9146 31.4966 47.1051 31.3842C47.2957 31.2717 47.4443 31.106 47.5491 30.8868H48.6086C48.4543 31.3556 48.1856 31.7214 47.8026 31.9825C47.4176 32.2436 46.9679 32.3731 46.4496 32.3731C46.0113 32.3731 45.615 32.2741 45.2625 32.074C44.9099 31.8739 44.6298 31.5976 44.4259 31.2412C44.222 30.8868 44.1191 30.4828 44.1191 30.0312C44.1191 29.5796 44.222 29.1737 44.4259 28.8174V28.8193Z" fill="white"/>
<path d="M50.0703 32.1638C49.7902 32.0075 49.5691 31.7884 49.409 31.5026C49.249 31.2167 49.1689 30.889 49.1689 30.5155C49.1689 30.142 49.2509 29.8143 49.4167 29.5284C49.5805 29.2426 49.8054 29.0235 50.0912 28.8672C50.3771 28.7109 50.6953 28.6328 51.0459 28.6328C51.3965 28.6328 51.7148 28.7109 52.0006 28.8672C52.2864 29.0235 52.5113 29.2426 52.6751 29.5284C52.839 29.8143 52.9229 30.142 52.9229 30.5155C52.9229 30.889 52.839 31.2167 52.6694 31.5026C52.4998 31.7884 52.2731 32.0075 51.9853 32.1638C51.6976 32.32 51.3756 32.3982 51.0211 32.3982C50.6667 32.3982 50.3542 32.32 50.0741 32.1638H50.0703ZM51.488 31.4721C51.6347 31.3901 51.7529 31.2701 51.8405 31.1062C51.9282 30.9442 51.972 30.7461 51.972 30.5136C51.972 30.1668 51.8805 29.9 51.6995 29.7133C51.5166 29.5265 51.2955 29.4331 51.0307 29.4331C50.7658 29.4331 50.5467 29.5265 50.3694 29.7133C50.1922 29.9 50.1027 30.1668 50.1027 30.5136C50.1027 30.8604 50.1884 31.1272 50.3618 31.3139C50.5352 31.5007 50.7525 31.594 51.0173 31.594C51.1831 31.594 51.3413 31.554 51.488 31.4721Z" fill="white"/>
<path d="M56.6713 29.0503C56.9381 29.3247 57.0734 29.7077 57.0734 30.1993V32.3373H56.153V30.3232C56.153 30.0335 56.0806 29.8106 55.9358 29.6543C55.7909 29.4981 55.5928 29.4199 55.3431 29.4199C55.0935 29.4199 54.8877 29.4981 54.741 29.6543C54.5943 29.8106 54.5199 30.0335 54.5199 30.3232V32.3373H53.5977V28.692H54.5199V29.1455C54.6419 28.9874 54.8001 28.8635 54.9906 28.774C55.1812 28.6844 55.3908 28.6387 55.6194 28.6387C56.0539 28.6387 56.4045 28.7759 56.6732 29.0503H56.6713Z" fill="white"/>
<path d="M58.5399 32.2362C58.3036 32.1295 58.1149 31.9828 57.9777 31.798C57.8405 31.6131 57.7643 31.4092 57.751 31.1863H58.679C58.6961 31.3273 58.7647 31.4435 58.8867 31.535C59.0067 31.6265 59.1573 31.6741 59.3383 31.6741C59.5193 31.6741 59.6508 31.6398 59.7499 31.5693C59.849 31.4988 59.8985 31.4092 59.8985 31.2987C59.8985 31.1806 59.8375 31.091 59.7175 31.0319C59.5975 30.9729 59.405 30.9081 59.142 30.8376C58.8695 30.7709 58.6466 30.7042 58.4732 30.6337C58.2998 30.5632 58.1511 30.4565 58.0254 30.3116C57.8996 30.1668 57.8386 29.9725 57.8386 29.7266C57.8386 29.5247 57.8958 29.3398 58.0139 29.174C58.1302 29.0083 58.2979 28.8749 58.5132 28.7796C58.7304 28.6824 58.9858 28.6348 59.2792 28.6348C59.7137 28.6348 60.0605 28.7434 60.3196 28.9606C60.5788 29.1778 60.7217 29.4713 60.7484 29.8391H59.8661C59.8528 29.6942 59.7918 29.5799 59.6851 29.4942C59.5784 29.4084 59.4336 29.3665 59.2544 29.3665C59.0868 29.3665 58.9591 29.397 58.8695 29.458C58.78 29.5189 58.7342 29.6047 58.7342 29.7152C58.7342 29.8391 58.7952 29.9305 58.9191 29.9953C59.041 30.0582 59.2335 30.123 59.4907 30.1897C59.7537 30.2564 59.9709 30.3231 60.1424 30.3936C60.3139 30.4641 60.4626 30.5727 60.5864 30.7194C60.7122 30.8662 60.777 31.0605 60.7808 31.3025C60.7808 31.514 60.7217 31.7027 60.6055 31.8685C60.4892 32.0362 60.3216 32.1657 60.1062 32.261C59.889 32.3544 59.6356 32.402 59.3459 32.402C59.0563 32.402 58.78 32.3487 58.5437 32.2401L58.5399 32.2362Z" fill="white"/>
<path d="M62.6066 29.4479V31.2124C62.6066 31.3344 62.6371 31.424 62.6962 31.4792C62.7553 31.5345 62.8544 31.5612 62.9954 31.5612H63.4241V32.3386H62.8448C62.0674 32.3386 61.6806 31.9613 61.6806 31.2067V29.4498H61.2461V28.6933H61.6806V27.792H62.6086V28.6933H63.4241V29.4498H62.6086L62.6066 29.4479Z" fill="white"/>
<path d="M65.4732 28.8045C65.6637 28.694 65.8829 28.6406 66.1287 28.6406V29.6086H65.8848C65.5951 29.6086 65.376 29.6772 65.2293 29.8125C65.0825 29.9478 65.0082 30.186 65.0082 30.5233V32.3393H64.0859V28.694H65.0082V29.2599C65.1264 29.0675 65.2807 28.915 65.4713 28.8064L65.4732 28.8045Z" fill="white"/>
<path d="M70.1887 28.6914V32.3367H69.2607V31.8756C69.1426 32.0337 68.9882 32.1576 68.7977 32.2471C68.6071 32.3367 68.3994 32.3824 68.1764 32.3824C67.8906 32.3824 67.6391 32.3215 67.4199 32.2014C67.2008 32.0814 67.0274 31.9022 66.9035 31.6679C66.7797 31.4335 66.7168 31.1534 66.7168 30.8294V28.6914H67.6391V30.6979C67.6391 30.9876 67.7115 31.2105 67.8563 31.3668C68.0011 31.523 68.1993 31.6012 68.4489 31.6012C68.6986 31.6012 68.9025 31.523 69.0473 31.3668C69.1921 31.2105 69.2645 30.9876 69.2645 30.6979V28.6914H70.1925H70.1887Z" fill="white"/>
<path d="M71.0909 29.5246C71.2452 29.2426 71.4567 29.0215 71.7292 28.8672C72.0017 28.7109 72.3123 28.6328 72.6629 28.6328C73.1146 28.6328 73.488 28.7452 73.7853 28.972C74.0807 29.1988 74.2808 29.5151 74.3798 29.9229H73.3871C73.3337 29.7647 73.246 29.6408 73.1203 29.5513C72.9945 29.4617 72.8402 29.416 72.6553 29.416C72.3924 29.416 72.1828 29.5113 72.0303 29.7018C71.8779 29.8924 71.7997 30.163 71.7997 30.5155C71.7997 30.868 71.876 31.131 72.0303 31.3215C72.1847 31.5121 72.3924 31.6074 72.6553 31.6074C73.0288 31.6074 73.2727 31.4397 73.3851 31.1081H74.3779C74.2769 31.5026 74.0769 31.817 73.7796 32.0495C73.4804 32.2819 73.1088 32.3982 72.661 32.3982C72.3104 32.3982 71.9979 32.32 71.7273 32.1638C71.4548 32.0075 71.2433 31.7884 71.089 31.5064C70.9346 31.2244 70.8584 30.8928 70.8584 30.5155C70.8584 30.1382 70.9346 29.8085 71.089 29.5246H71.0909Z" fill="white"/>
<path d="M76.132 29.4479V31.2124C76.132 31.3344 76.1625 31.424 76.2216 31.4792C76.2807 31.5345 76.3798 31.5612 76.5208 31.5612H76.9495V32.3386H76.3702C75.5928 32.3386 75.2059 31.9613 75.2059 31.2067V29.4498H74.7715V28.6933H75.2059V27.792H76.1339V28.6933H76.9495V29.4498H76.1339L76.132 29.4479Z" fill="white"/>
<path d="M77.6756 28.1029C77.5689 28 77.5137 27.8723 77.5137 27.718C77.5137 27.5636 77.567 27.436 77.6756 27.3331C77.7824 27.2302 77.9176 27.1787 78.0796 27.1787C78.2416 27.1787 78.3769 27.2302 78.4836 27.3331C78.5903 27.436 78.6456 27.5636 78.6456 27.718C78.6456 27.8723 78.5922 28 78.4836 28.1029C78.375 28.2058 78.2416 28.2572 78.0796 28.2572C77.9176 28.2572 77.7824 28.2058 77.6756 28.1029ZM78.5331 28.6917V32.337H77.6109V28.6917H78.5331Z" fill="white"/>
<path d="M80.1123 32.1638C79.8321 32.0075 79.6111 31.7884 79.451 31.5026C79.291 31.2167 79.2109 30.889 79.2109 30.5155C79.2109 30.142 79.2929 29.8143 79.4587 29.5284C79.6225 29.2426 79.8474 29.0235 80.1332 28.8672C80.4191 28.7109 80.7373 28.6328 81.0879 28.6328C81.4385 28.6328 81.7567 28.7109 82.0426 28.8672C82.3284 29.0235 82.5533 29.2426 82.7171 29.5284C82.881 29.8143 82.9649 30.142 82.9649 30.5155C82.9649 30.889 82.881 31.2167 82.7114 31.5026C82.5418 31.7884 82.3151 32.0075 82.0273 32.1638C81.7396 32.32 81.4176 32.3982 81.0631 32.3982C80.7087 32.3982 80.3962 32.32 80.1161 32.1638H80.1123ZM81.5319 31.4721C81.6786 31.3901 81.7968 31.2701 81.8844 31.1062C81.9721 30.9442 82.0159 30.7461 82.0159 30.5136C82.0159 30.1668 81.9244 29.9 81.7434 29.7133C81.5605 29.5265 81.3394 29.4331 81.0746 29.4331C80.8097 29.4331 80.5906 29.5265 80.4133 29.7133C80.2361 29.9 80.1466 30.1668 80.1466 30.5136C80.1466 30.8604 80.2323 31.1272 80.4057 31.3139C80.5791 31.5007 80.7963 31.594 81.0612 31.594C81.227 31.594 81.3852 31.554 81.5319 31.4721Z" fill="white"/>
<path d="M86.7143 29.0503C86.981 29.3247 87.1163 29.7077 87.1163 30.1993V32.3373H86.196V30.3232C86.196 30.0335 86.1236 29.8106 85.9787 29.6543C85.8339 29.4981 85.6357 29.4199 85.3861 29.4199C85.1365 29.4199 84.9307 29.4981 84.784 29.6543C84.6372 29.8106 84.5629 30.0335 84.5629 30.3232V32.3373H83.6406V28.692H84.5629V29.1455C84.6849 28.9874 84.843 28.8635 85.0336 28.774C85.2241 28.6844 85.4337 28.6387 85.6624 28.6387C86.0969 28.6387 86.4475 28.7759 86.7162 29.0503H86.7143Z" fill="white"/>
<path d="M93.3677 27.7432V32.3374H92.4454V30.3823H90.477V32.3374H89.5547V27.7432H90.477V29.6316H92.4454V27.7432H93.3677Z" fill="white"/>
<path d="M97.6404 30.7918H94.9746C94.9975 31.0548 95.0889 31.2606 95.2509 31.4111C95.4129 31.5597 95.6129 31.634 95.8492 31.634C96.1922 31.634 96.4342 31.4873 96.5791 31.1939H97.5718C97.467 31.5445 97.265 31.8341 96.9659 32.059C96.6667 32.2857 96.3008 32.3982 95.8664 32.3982C95.5158 32.3982 95.2013 32.32 94.9212 32.1638C94.643 32.0075 94.4258 31.7884 94.2695 31.5026C94.1133 31.2167 94.0352 30.889 94.0352 30.5155C94.0352 30.142 94.1114 29.8066 94.2657 29.5208C94.4201 29.235 94.6335 29.0158 94.9098 28.8634C95.1861 28.709 95.5043 28.6328 95.8645 28.6328C96.2246 28.6328 96.5219 28.7071 96.7963 28.8558C97.0707 29.0044 97.2841 29.2159 97.4346 29.4903C97.5852 29.7647 97.6614 30.0791 97.6614 30.4355C97.6614 30.5669 97.6519 30.6851 97.6347 30.7918H97.6404ZM96.7124 30.1725C96.7086 29.9362 96.6229 29.7457 96.4552 29.6027C96.2875 29.4598 96.0836 29.3893 95.8435 29.3893C95.6149 29.3893 95.4224 29.4579 95.268 29.597C95.1118 29.7361 95.0165 29.9267 94.9822 30.1725H96.7124Z" fill="white"/>
<path d="M98.3207 29.5208C98.4674 29.235 98.6675 29.0158 98.919 28.8634C99.1706 28.709 99.4526 28.6328 99.7651 28.6328C100.038 28.6328 100.276 28.6881 100.48 28.7967C100.684 28.9072 100.847 29.0444 100.969 29.2121V28.6919H101.897V32.3372H100.969V31.8036C100.851 31.9751 100.687 32.1161 100.48 32.2286C100.272 32.341 100.032 32.3963 99.7594 32.3963C99.4526 32.3963 99.1725 32.3181 98.9209 32.16C98.6694 32.0018 98.4693 31.7789 98.3226 31.4911C98.1759 31.2034 98.1016 30.8737 98.1016 30.5002C98.1016 30.1268 98.1759 29.8047 98.3226 29.5189L98.3207 29.5208ZM100.838 29.9381C100.75 29.778 100.632 29.6542 100.482 29.5703C100.333 29.4846 100.173 29.4427 100.001 29.4427C99.8299 29.4427 99.6717 29.4846 99.5269 29.5684C99.3821 29.6523 99.2639 29.7742 99.1744 29.9343C99.0848 30.0944 99.0391 30.2849 99.0391 30.5041C99.0391 30.7232 99.0848 30.9157 99.1744 31.0795C99.2639 31.2434 99.3821 31.3711 99.5288 31.4587C99.6755 31.5464 99.8318 31.5902 99.9995 31.5902C100.167 31.5902 100.331 31.5483 100.48 31.4625C100.628 31.3768 100.746 31.2548 100.836 31.0948C100.924 30.9347 100.967 30.7423 100.967 30.5193C100.967 30.2964 100.924 30.1039 100.836 29.9438L100.838 29.9381Z" fill="white"/>
<path d="M103.72 27.4668V32.3374H102.798V27.4668H103.72Z" fill="white"/>
<path d="M105.702 29.4479V31.2124C105.702 31.3344 105.733 31.424 105.792 31.4792C105.851 31.5345 105.95 31.5612 106.091 31.5612H106.52V32.3386H105.941C105.163 32.3386 104.776 31.9613 104.776 31.2067V29.4498H104.342V28.6933H104.776V27.792H105.704V28.6933H106.52V29.4498H105.704L105.702 29.4479Z" fill="white"/>
<path d="M109.973 28.8197C110.189 28.9398 110.356 29.1189 110.476 29.3533C110.596 29.5877 110.657 29.8697 110.657 30.1993V32.3374H109.737V30.3232C109.737 30.0336 109.665 29.8106 109.52 29.6544C109.375 29.4981 109.177 29.42 108.927 29.42C108.677 29.42 108.472 29.4981 108.325 29.6544C108.178 29.8106 108.104 30.0336 108.104 30.3232V32.3374H107.182V27.4668H108.104V29.1456C108.222 28.9874 108.38 28.8636 108.578 28.774C108.777 28.6844 108.996 28.6387 109.236 28.6387C109.512 28.6387 109.758 28.6997 109.973 28.8197Z" fill="white"/>
<path d="M116.633 32.3369L116.133 31.8434C115.709 32.2245 115.188 32.415 114.573 32.415C114.236 32.415 113.938 32.356 113.681 32.2397C113.424 32.1235 113.226 31.9596 113.087 31.7462C112.946 31.5328 112.875 31.287 112.875 31.0049C112.875 30.702 112.961 30.4295 113.132 30.1894C113.304 29.9474 113.555 29.753 113.889 29.6044C113.771 29.4595 113.685 29.3204 113.632 29.187C113.578 29.0537 113.553 28.9088 113.553 28.7564C113.553 28.5449 113.609 28.3562 113.717 28.1866C113.828 28.017 113.984 27.8856 114.188 27.7884C114.392 27.6912 114.63 27.6436 114.903 27.6436C115.175 27.6436 115.415 27.6969 115.613 27.8017C115.811 27.9065 115.958 28.0475 116.053 28.2228C116.151 28.3981 116.193 28.5944 116.179 28.8078H115.284C115.287 28.663 115.253 28.5525 115.179 28.4763C115.104 28.4001 115.003 28.3619 114.876 28.3619C114.748 28.3619 114.651 28.3981 114.569 28.4706C114.487 28.543 114.447 28.6363 114.447 28.7507C114.447 28.865 114.479 28.9698 114.546 29.0765C114.613 29.1832 114.72 29.3166 114.868 29.4748L116.027 30.62C116.027 30.62 116.042 30.6029 116.046 30.5933C116.05 30.5838 116.055 30.5762 116.059 30.5667L116.435 29.9416H117.395L116.934 30.7515C116.846 30.923 116.751 31.085 116.65 31.2393L117.763 32.3388H116.631L116.633 32.3369ZM115.554 31.2717L114.422 30.1532C113.997 30.3418 113.784 30.6105 113.784 30.9554C113.784 31.1536 113.858 31.3193 114.007 31.4527C114.156 31.5861 114.354 31.6528 114.6 31.6528C114.96 31.6528 115.278 31.5251 115.554 31.2717Z" fill="white"/>
<path d="M120.506 32.2187C120.249 32.1082 120.047 31.9519 119.899 31.7442C119.75 31.5384 119.672 31.2945 119.668 31.0144H120.655C120.668 31.203 120.735 31.3517 120.855 31.4622C120.975 31.5727 121.141 31.6261 121.352 31.6261C121.564 31.6261 121.735 31.5746 121.859 31.4717C121.983 31.3688 122.044 31.2335 122.044 31.0677C122.044 30.9325 122.002 30.82 121.918 30.7324C121.835 30.6447 121.732 30.5761 121.606 30.5247C121.48 30.4751 121.309 30.418 121.09 30.357C120.79 30.2693 120.548 30.1817 120.362 30.0978C120.175 30.0121 120.015 29.8825 119.881 29.7091C119.748 29.5357 119.681 29.3051 119.681 29.0155C119.681 28.743 119.75 28.5067 119.885 28.3047C120.02 28.1027 120.211 27.9484 120.457 27.8417C120.703 27.7349 120.983 27.6797 121.299 27.6797C121.774 27.6797 122.159 27.794 122.454 28.0246C122.749 28.2552 122.913 28.5772 122.944 28.9888H121.93C121.92 28.8306 121.854 28.7011 121.73 28.5963C121.606 28.4915 121.438 28.4419 121.232 28.4419C121.053 28.4419 120.908 28.4876 120.802 28.581C120.695 28.6744 120.64 28.8078 120.64 28.9831C120.64 29.1069 120.68 29.2079 120.762 29.2899C120.844 29.3718 120.945 29.4366 121.065 29.488C121.185 29.5395 121.356 29.5967 121.575 29.6634C121.875 29.751 122.117 29.8387 122.305 29.9263C122.494 30.014 122.656 30.1455 122.793 30.3208C122.93 30.4961 122.997 30.7267 122.997 31.0125C122.997 31.2583 122.934 31.487 122.806 31.6966C122.679 31.9081 122.492 32.0758 122.246 32.1996C122 32.3254 121.709 32.3864 121.372 32.3864C121.034 32.3864 120.762 32.3311 120.506 32.2225V32.2187Z" fill="white"/>
<path d="M123.776 29.5208C123.923 29.235 124.123 29.0158 124.374 28.8634C124.626 28.709 124.908 28.6328 125.22 28.6328C125.493 28.6328 125.731 28.6881 125.935 28.7967C126.139 28.9072 126.303 29.0444 126.424 29.2121V28.6919H127.352V32.3372H126.424V31.8036C126.306 31.9751 126.142 32.1161 125.935 32.2286C125.727 32.341 125.487 32.3963 125.214 32.3963C124.908 32.3963 124.628 32.3181 124.376 32.16C124.125 32.0018 123.924 31.7789 123.778 31.4911C123.631 31.2034 123.557 30.8737 123.557 30.5002C123.557 30.1268 123.631 29.8047 123.778 29.5189L123.776 29.5208ZM126.293 29.9381C126.205 29.778 126.087 29.6542 125.937 29.5703C125.788 29.4846 125.628 29.4427 125.456 29.4427C125.285 29.4427 125.127 29.4846 124.982 29.5684C124.837 29.6523 124.719 29.7742 124.629 29.9343C124.54 30.0944 124.494 30.2849 124.494 30.5041C124.494 30.7232 124.54 30.9157 124.629 31.0795C124.719 31.2434 124.837 31.3711 124.984 31.4587C125.131 31.5464 125.287 31.5902 125.455 31.5902C125.622 31.5902 125.786 31.5483 125.935 31.4625C126.083 31.3768 126.202 31.2548 126.291 31.0948C126.379 30.9347 126.423 30.7423 126.423 30.5193C126.423 30.2964 126.379 30.1039 126.291 29.9438L126.293 29.9381Z" fill="white"/>
<path d="M129.928 29.4486H129.29V32.3374H128.356V29.4486H127.94V28.6921H128.356V28.5073C128.356 28.0595 128.484 27.7298 128.737 27.5202C128.99 27.3087 129.375 27.2115 129.888 27.2248V28.0023C129.665 27.9985 129.509 28.0347 129.421 28.1147C129.333 28.1948 129.29 28.3358 129.29 28.5435V28.694H129.928V29.4505V29.4486Z" fill="white"/>
<path d="M133.888 30.7918H131.223C131.246 31.0548 131.337 31.2606 131.499 31.4111C131.661 31.5597 131.861 31.634 132.097 31.634C132.44 31.634 132.682 31.4873 132.827 31.1939H133.82C133.715 31.5445 133.513 31.8341 133.214 32.059C132.915 32.2857 132.549 32.3982 132.114 32.3982C131.764 32.3982 131.449 32.32 131.169 32.1638C130.891 32.0075 130.674 31.7884 130.518 31.5026C130.361 31.2167 130.283 30.889 130.283 30.5155C130.283 30.142 130.359 29.8066 130.514 29.5208C130.668 29.235 130.882 29.0158 131.158 28.8634C131.434 28.709 131.752 28.6328 132.113 28.6328C132.473 28.6328 132.77 28.7071 133.044 28.8558C133.319 29.0044 133.532 29.2159 133.683 29.4903C133.833 29.7647 133.909 30.0791 133.909 30.4355C133.909 30.5669 133.9 30.6851 133.883 30.7918H133.888ZM132.96 30.1725C132.957 29.9362 132.871 29.7457 132.703 29.6027C132.536 29.4598 132.332 29.3893 132.092 29.3893C131.863 29.3893 131.67 29.4579 131.516 29.597C131.36 29.7361 131.265 29.9267 131.23 30.1725H132.96Z" fill="white"/>
<path d="M135.66 29.4479V31.2124C135.66 31.3344 135.691 31.424 135.75 31.4792C135.809 31.5345 135.908 31.5612 136.049 31.5612H136.478V32.3386H135.899C135.121 32.3386 134.734 31.9613 134.734 31.2067V29.4498H134.3V28.6933H134.734V27.792H135.662V28.6933H136.478V29.4498H135.662L135.66 29.4479Z" fill="white"/>
<path d="M140.629 28.6914L138.371 34.0612H137.389L138.178 32.2452L136.717 28.6914H137.75L138.691 31.2391L139.646 28.6914H140.627H140.629Z" fill="white"/>
<path d="M146.616 32.3373H145.695L143.609 29.1855V32.3373H142.687V27.7373H143.609L145.695 30.8967V27.7373H146.616V32.3373Z" fill="white"/>
<path d="M148.467 31.5619H150.532V32.3394H147.399V31.6286L149.454 28.5226H147.399V27.7451H150.532V28.4559L148.467 31.5619Z" fill="white"/>
<path d="M18.0245 36.0491C27.9792 36.0491 36.0491 27.9792 36.0491 18.0245C36.0491 8.06986 27.9792 0 18.0245 0C8.06986 0 0 8.06986 0 18.0245C0 27.9792 8.06986 36.0491 18.0245 36.0491Z" fill="white"/>
<path d="M18.0237 21.0254C18.0237 21.0254 28.0145 21.0807 28.6052 19.9431C28.6052 19.9431 29.114 15.3012 26.5834 12.481C26.5186 12.4086 26.4024 12.4143 26.3433 12.4905L24.0852 15.3812C24.0586 15.4155 24.0014 15.385 24.0185 15.3431L25.5487 11.5835C25.583 11.5015 25.562 11.4081 25.4972 11.3472C25.0971 10.9775 23.5726 9.68744 21.1545 9.04146C21.063 9.01669 20.9678 9.08148 20.9582 9.17676L20.0817 17.664C20.0798 17.6888 20.0417 17.6869 20.0417 17.6621V8.78803C20.0417 8.78803 20.0417 7.6123 18.8755 7.6123H17.1738C16.0057 7.6123 16.0057 8.78803 16.0057 8.78803V17.6621C16.0057 17.6869 15.9676 17.6888 15.9657 17.664L15.0892 9.17676C15.0796 9.08148 14.9863 9.01669 14.8929 9.04146C12.4748 9.68935 10.9503 10.9775 10.5502 11.3472C10.4854 11.4081 10.4644 11.5015 10.4987 11.5835L12.0289 15.3431C12.046 15.385 11.9908 15.4174 11.9622 15.3812L9.7041 12.4905L16.3659 21.0159C17.3587 21.0292 18.0218 21.0254 18.0218 21.0254H18.0237Z" fill="#8BB53F"/>
<path opacity="0.75" d="M16.3679 21.0138L9.70607 12.4884C9.647 12.4122 9.53076 12.4064 9.46597 12.4789C6.93541 15.301 7.44419 19.941 7.44419 19.941C7.88246 20.787 13.5038 20.9738 16.3698 21.0138H16.3679Z" fill="#8BB53F"/>
<path opacity="0.75" d="M7.49988 20.4081C7.43319 20.3757 7.36078 20.3586 7.28646 20.3605C6.61571 20.3738 4.4796 20.5206 4.43958 21.8182C4.39575 23.1769 15.6232 23.5123 18.0318 23.4913C18.1119 23.4913 18.2033 23.4913 18.3043 23.4913L16.7418 21.4924C9.77701 21.4028 7.89243 20.5968 7.50179 20.4081H7.49988Z" fill="#8BB53F"/>
<path d="M31.6111 21.8161C31.5711 20.5204 29.4331 20.3736 28.7642 20.3584C28.6899 20.3584 28.6175 20.3736 28.5508 20.406C28.1354 20.6061 26.0507 21.4979 18.0246 21.4979C17.5768 21.4979 17.1518 21.4941 16.7402 21.4903L18.3028 23.4892C21.1782 23.4854 31.653 23.1291 31.6111 21.8161Z" fill="#8BB53F"/>
<g clip-path="url(#clip1_1114_1774)">
<path d="M44.2038 8.93845C44.9862 7.52105 46.0765 6.41735 47.4767 5.62736C48.8749 4.83736 50.4626 4.44141 52.2358 4.44141C54.4087 4.44141 56.268 5.01525 57.8155 6.16295C59.3629 7.31064 60.3978 8.87533 60.9181 10.857H56.0155C55.6501 10.0919 55.1337 9.51039 54.4642 9.11061C53.7947 8.71083 53.0334 8.50998 52.1822 8.50998C50.8088 8.50998 49.6955 8.98819 48.8443 9.9446C47.9931 10.901 47.5666 12.1788 47.5666 13.7779C47.5666 15.377 47.9931 16.6548 48.8443 17.6112C49.6955 18.5676 50.8088 19.0458 52.1822 19.0458C53.0334 19.0458 53.7947 18.8469 54.4642 18.4452C55.1337 18.0454 55.6501 17.4639 56.0155 16.6988H60.9181C60.3959 18.6805 59.3629 20.2413 57.8155 21.3795C56.268 22.5176 54.4087 23.0876 52.2358 23.0876C50.4626 23.0876 48.8768 22.6917 47.4767 21.9017C46.0765 21.1117 44.9862 20.0118 44.2038 18.604C43.4215 17.1961 43.0312 15.5874 43.0312 13.7798C43.0312 11.9722 43.4215 10.3597 44.2038 8.94228V8.93845Z" fill="black"/>
<path d="M79.5088 4.64941V22.9532H75.05V15.4186H68.1141V22.9532H63.6553V4.64941H68.1141V11.8206H75.05V4.64941H79.5088Z" fill="black"/>
<path d="M94.1097 19.7206H87.279L86.1849 22.9532H81.5176L88.1398 4.64941H93.3025L99.9247 22.9532H95.2057L94.1116 19.7206H94.1097ZM92.962 16.2794L90.6934 9.57876L88.4516 16.2794H92.962Z" fill="black"/>
<path d="M104.958 22.4849C103.898 22.0507 103.05 21.408 102.415 20.5548C101.78 19.7036 101.446 18.6784 101.411 17.479H106.157C106.226 18.1562 106.461 18.6745 106.861 19.0303C107.261 19.3861 107.783 19.564 108.425 19.564C109.068 19.564 109.608 19.4129 109.99 19.1068C110.373 18.8027 110.564 18.3819 110.564 17.8425C110.564 17.391 110.411 17.0161 110.107 16.7215C109.803 16.427 109.43 16.1821 108.986 15.9908C108.542 15.7996 107.913 15.5834 107.096 15.3386C105.914 14.9732 104.95 14.6079 104.202 14.2425C103.454 13.8772 102.811 13.3397 102.272 12.6262C101.732 11.9127 101.463 10.9831 101.463 9.83538C101.463 8.13105 102.079 6.79781 103.314 5.83375C104.548 4.86969 106.157 4.38574 108.139 4.38574C110.12 4.38574 111.781 4.86777 113.014 5.83375C114.248 6.79781 114.908 8.14062 114.996 9.86216H110.172C110.137 9.27109 109.919 8.80628 109.52 8.46771C109.12 8.12914 108.607 7.9589 107.982 7.9589C107.442 7.9589 107.008 8.10236 106.677 8.38928C106.346 8.67621 106.182 9.08938 106.182 9.62688C106.182 10.2179 106.459 10.6789 107.016 11.0079C107.572 11.3389 108.441 11.6946 109.623 12.0772C110.805 12.477 111.765 12.8596 112.504 13.2249C113.242 13.5902 113.881 14.1201 114.42 14.8145C114.96 15.5107 115.229 16.404 115.229 17.5001C115.229 18.5961 114.963 19.4913 114.434 20.3425C113.904 21.1937 113.135 21.8728 112.127 22.3759C111.119 22.8808 109.927 23.1314 108.556 23.1314C107.184 23.1314 106.017 22.9134 104.958 22.4791V22.4849Z" fill="black"/>
<path d="M134.341 22.9532H129.883L122.425 11.6637V22.9532H117.966V4.64941H122.425L129.883 15.9925V4.64941H134.341V22.9532Z" fill="black"/>
<path d="M142.32 19.3036H150.195V22.9532H137.263V19.5637L145.084 8.29908H137.263V4.64941H150.195V8.03894L142.32 19.3036Z" fill="black"/>
<path d="M44.4252 28.8198C44.6299 28.4621 44.9072 28.1828 45.2611 27.9839C45.615 27.785 46.0109 27.6836 46.449 27.6836C46.9616 27.6836 47.4111 27.8156 47.7975 28.0776C48.1839 28.3416 48.4536 28.705 48.6066 29.1699H47.5469C47.4417 28.9499 47.2944 28.7854 47.1031 28.6763C46.9119 28.5673 46.6919 28.5118 46.4413 28.5118C46.1735 28.5118 45.9363 28.575 45.7278 28.6993C45.5193 28.8236 45.3567 29.0015 45.2401 29.2292C45.1234 29.4568 45.066 29.7246 45.066 30.0325C45.066 30.3405 45.1234 30.6026 45.2401 30.8321C45.3567 31.0616 45.5193 31.2395 45.7278 31.3658C45.9363 31.4901 46.1735 31.5532 46.4413 31.5532C46.6919 31.5532 46.9119 31.4978 47.1031 31.3849C47.2944 31.274 47.4417 31.1075 47.5469 30.8876H48.6066C48.4536 31.3562 48.1839 31.7216 47.8013 31.9836C47.4168 32.2457 46.9673 32.3757 46.449 32.3757C46.0109 32.3757 45.615 32.2763 45.2611 32.0754C44.9072 31.8765 44.6299 31.5991 44.4252 31.2434C44.2205 30.8876 44.1191 30.484 44.1191 30.0325C44.1191 29.5811 44.2205 29.1756 44.4252 28.8179V28.8198Z" fill="black"/>
<path d="M50.0698 32.1639C49.7887 32.0089 49.5687 31.7871 49.408 31.502C49.2473 31.217 49.167 30.888 49.167 30.515C49.167 30.142 49.2492 29.813 49.4137 29.528C49.5782 29.243 49.804 29.023 50.089 28.8662C50.374 28.7112 50.6915 28.6328 51.0435 28.6328C51.3954 28.6328 51.713 28.7112 51.998 28.8662C52.283 29.0211 52.5087 29.243 52.6732 29.528C52.8377 29.813 52.92 30.142 52.92 30.515C52.92 30.888 52.8358 31.217 52.6675 31.502C52.4991 31.7871 52.2696 32.007 51.9827 32.1639C51.6957 32.3188 51.3744 32.3972 51.0186 32.3972C50.6628 32.3972 50.351 32.3188 50.0718 32.1639H50.0698ZM51.4872 31.4734C51.6345 31.393 51.7512 31.2706 51.8392 31.108C51.9272 30.9454 51.9712 30.7484 51.9712 30.515C51.9712 30.1688 51.8794 29.901 51.6977 29.7155C51.5159 29.5299 51.2921 29.4362 51.0301 29.4362C50.768 29.4362 50.5461 29.5299 50.3682 29.7155C50.1904 29.9029 50.1024 30.1688 50.1024 30.515C50.1024 30.8613 50.1884 31.129 50.3625 31.3146C50.5366 31.502 50.7546 31.5939 51.0167 31.5939C51.1831 31.5939 51.34 31.5537 51.4872 31.4714V31.4734Z" fill="black"/>
<path d="M56.6686 29.0518C56.9364 29.3254 57.0703 29.7099 57.0703 30.1995V32.3381H56.1483V30.3239C56.1483 30.035 56.0756 29.8112 55.9302 29.6563C55.7849 29.5014 55.5878 29.4229 55.3373 29.4229C55.0867 29.4229 54.882 29.5014 54.7347 29.6563C54.5874 29.8112 54.5148 30.035 54.5148 30.3239V32.3381H53.5928V28.6922H54.5148V29.1456C54.6372 28.9868 54.794 28.8644 54.9853 28.7745C55.1766 28.6846 55.3851 28.6387 55.6146 28.6387C56.0488 28.6387 56.4008 28.7764 56.6667 29.0499L56.6686 29.0518Z" fill="black"/>
<path d="M58.54 32.2365C58.3028 32.1294 58.1153 31.984 57.9776 31.7985C57.8399 31.613 57.7634 31.4102 57.75 31.1864H58.6777C58.6949 31.326 58.7638 31.4427 58.8843 31.5345C59.0048 31.6263 59.1559 31.6723 59.3357 31.6723C59.5155 31.6723 59.6475 31.6378 59.747 31.567C59.8465 31.4963 59.8943 31.4064 59.8943 31.2973C59.8943 31.1787 59.8331 31.0908 59.7126 31.0315C59.5921 30.9722 59.4008 30.9071 59.1368 30.8363C58.8652 30.7713 58.6414 30.7024 58.4692 30.6317C58.2952 30.5609 58.146 30.4538 58.0216 30.3084C57.8973 30.163 57.8342 29.9679 57.8342 29.7231C57.8342 29.5203 57.8916 29.3367 58.0082 29.1703C58.1249 29.0039 58.2913 28.8719 58.5094 28.7762C58.7275 28.6806 58.9819 28.6309 59.2764 28.6309C59.7106 28.6309 60.0569 28.7399 60.317 28.956C60.5752 29.1741 60.7187 29.4668 60.7455 29.834H59.8637C59.8503 29.6887 59.791 29.5739 59.682 29.4878C59.5729 29.4017 59.4314 29.3596 59.2516 29.3596C59.0852 29.3596 58.957 29.3903 58.8671 29.4515C58.7772 29.5127 58.7313 29.5987 58.7313 29.7078C58.7313 29.8302 58.7925 29.9239 58.9149 29.9871C59.0373 30.0502 59.2286 30.1152 59.4868 30.1822C59.7508 30.2472 59.967 30.3161 60.1391 30.3868C60.3094 30.4576 60.4586 30.5647 60.5829 30.712C60.7072 30.8593 60.7723 31.0525 60.778 31.2935C60.778 31.5039 60.7206 31.6933 60.6039 31.8597C60.4872 32.0261 60.3208 32.1562 60.1047 32.2518C59.8866 32.3456 59.6341 32.3934 59.3453 32.3934C59.0565 32.3934 58.7791 32.3398 58.5419 32.2327L58.54 32.2365Z" fill="black"/>
<path d="M62.607 29.4494V31.213C62.607 31.3354 62.6357 31.4253 62.695 31.4789C62.7543 31.5344 62.8538 31.5612 62.9953 31.5612H63.4238V32.3378H62.8442C62.0676 32.3378 61.6793 31.9609 61.6793 31.2054V29.4475H61.2451V28.69H61.6793V27.7891H62.607V28.69H63.4238V29.4475H62.607V29.4494Z" fill="black"/>
<path d="M65.4718 28.8042C65.6631 28.6951 65.8811 28.6396 66.126 28.6396V29.6075H65.8831C65.5942 29.6075 65.3742 29.6764 65.2289 29.8122C65.0816 29.948 65.0089 30.1852 65.0089 30.5238V32.341H64.0869V28.6951H65.0089V29.2613C65.1275 29.0681 65.2824 28.917 65.4737 28.808L65.4718 28.8042Z" fill="black"/>
<path d="M70.1875 28.6914V32.3372H69.2598V31.8762C69.1412 32.035 68.9863 32.1574 68.795 32.2473C68.6037 32.3372 68.3971 32.3831 68.1733 32.3831C67.8883 32.3831 67.6358 32.3238 67.4158 32.2014C67.1959 32.0809 67.0237 31.903 66.8994 31.6677C66.775 31.4324 66.7119 31.1532 66.7119 30.828V28.6895H67.6339V30.696C67.6339 30.9848 67.7066 31.2086 67.852 31.3636C67.9973 31.5185 68.1944 31.5969 68.4449 31.5969C68.6955 31.5969 68.8983 31.5185 69.0436 31.3636C69.189 31.2086 69.2617 30.9848 69.2617 30.696V28.6895H70.1894L70.1875 28.6914Z" fill="black"/>
<path d="M71.0899 29.5242C71.2429 29.2411 71.4552 29.0211 71.7288 28.8662C72.0004 28.7112 72.3122 28.6328 72.6641 28.6328C73.1156 28.6328 73.4905 28.7457 73.787 28.9714C74.0835 29.1971 74.2824 29.5146 74.3819 29.9221H73.3872C73.3336 29.7633 73.2456 29.6409 73.1213 29.551C72.997 29.4611 72.842 29.4152 72.6565 29.4152C72.3925 29.4152 72.184 29.5108 72.031 29.7021C71.878 29.8934 71.8015 30.1631 71.8015 30.515C71.8015 30.867 71.878 31.131 72.031 31.3203C72.184 31.5116 72.3925 31.6073 72.6565 31.6073C73.0295 31.6073 73.2724 31.4408 73.3872 31.108H74.3819C74.2805 31.502 74.0815 31.8158 73.7831 32.0491C73.4847 32.2825 73.1117 32.3972 72.6641 32.3972C72.3122 32.3972 72.0023 32.3188 71.7288 32.1639C71.4571 32.0089 71.2429 31.789 71.0899 31.5059C70.9369 31.2228 70.8604 30.8919 70.8604 30.515C70.8604 30.1382 70.9369 29.8073 71.0899 29.5242Z" fill="black"/>
<path d="M76.1305 29.4494V31.213C76.1305 31.3354 76.1592 31.4253 76.2185 31.4789C76.2778 31.5344 76.3772 31.5612 76.5188 31.5612H76.9473V32.3378H76.3677C75.5911 32.3378 75.2028 31.9609 75.2028 31.2054V29.4475H74.7686V28.69H75.2028V27.7891H76.1305V28.69H76.9473V29.4475H76.1305V29.4494Z" fill="black"/>
<path d="M77.6743 28.1026C77.5672 27.9993 77.5137 27.8712 77.5137 27.7181C77.5137 27.5651 77.5672 27.4369 77.6743 27.3336C77.7815 27.2304 77.9173 27.1787 78.0799 27.1787C78.2425 27.1787 78.3764 27.2304 78.4854 27.3336C78.5925 27.4369 78.6461 27.5651 78.6461 27.7181C78.6461 27.8712 78.5925 27.9993 78.4854 28.1026C78.3783 28.2059 78.2425 28.2575 78.0799 28.2575C77.9173 28.2575 77.7834 28.2059 77.6743 28.1026ZM78.5332 28.6918V32.3376H77.6112V28.6918H78.5332Z" fill="black"/>
<path d="M80.1128 32.1639C79.8316 32.0089 79.6116 31.7871 79.451 31.502C79.2903 31.217 79.21 30.888 79.21 30.515C79.21 30.142 79.2922 29.813 79.4567 29.528C79.6212 29.243 79.8469 29.023 80.1319 28.8662C80.417 28.7112 80.7345 28.6328 81.0864 28.6328C81.4384 28.6328 81.7559 28.7112 82.0409 28.8662C82.3259 29.0211 82.5517 29.243 82.7162 29.528C82.8807 29.813 82.9629 30.142 82.9629 30.515C82.9629 30.888 82.8788 31.217 82.7104 31.502C82.5421 31.7871 82.3126 32.007 82.0256 32.1639C81.7387 32.3188 81.4174 32.3972 81.0616 32.3972C80.7058 32.3972 80.394 32.3188 80.1147 32.1639H80.1128ZM81.5302 31.4734C81.6775 31.393 81.7942 31.2706 81.8822 31.108C81.9702 30.9454 82.0142 30.7484 82.0142 30.515C82.0142 30.1688 81.9223 29.901 81.7406 29.7155C81.5589 29.5299 81.3351 29.4362 81.073 29.4362C80.811 29.4362 80.5891 29.5299 80.4112 29.7155C80.2333 29.9029 80.1453 30.1688 80.1453 30.515C80.1453 30.8613 80.2314 31.129 80.4055 31.3146C80.5795 31.502 80.7976 31.5939 81.0597 31.5939C81.2261 31.5939 81.3829 31.5537 81.5302 31.4714V31.4734Z" fill="black"/>
<path d="M86.7145 29.0518C86.9823 29.3254 87.1162 29.7099 87.1162 30.1995V32.3381H86.1942V30.3239C86.1942 30.035 86.1216 29.8112 85.9781 29.6563C85.8327 29.5014 85.6357 29.4229 85.3851 29.4229C85.1345 29.4229 84.9299 29.5014 84.7826 29.6563C84.6353 29.8112 84.5626 30.035 84.5626 30.3239V32.3381H83.6406V28.6922H84.5626V29.1456C84.685 28.9868 84.8419 28.8644 85.0332 28.7745C85.2244 28.6846 85.4329 28.6387 85.6625 28.6387C86.0967 28.6387 86.4486 28.7764 86.7145 29.0499V29.0518Z" fill="black"/>
<path d="M93.3669 27.7451V32.3397H92.445V30.3848H90.4767V32.3397H89.5547V27.7451H90.4767V29.6331H92.445V27.7451H93.3669Z" fill="black"/>
<path d="M97.638 30.7924H94.9735C94.9964 31.0563 95.0882 31.261 95.2508 31.4102C95.4134 31.5594 95.6123 31.634 95.8495 31.634C96.1919 31.634 96.4349 31.4867 96.5802 31.1921H97.5749C97.4697 31.5441 97.2669 31.831 96.9685 32.0567C96.6701 32.2824 96.3048 32.3953 95.8687 32.3953C95.5186 32.3953 95.203 32.3169 94.9237 32.1619C94.6445 32.007 94.4283 31.7851 94.2715 31.5001C94.1165 31.2151 94.0381 30.8861 94.0381 30.5131C94.0381 30.1401 94.1146 29.8053 94.2695 29.5184C94.4226 29.2334 94.6387 29.0134 94.9142 28.8604C95.1915 28.7074 95.509 28.6309 95.8687 28.6309C96.2283 28.6309 96.5248 28.7055 96.8002 28.8547C97.0737 29.0039 97.288 29.2162 97.4391 29.4897C97.5902 29.7633 97.6667 30.0789 97.6667 30.4347C97.6667 30.5666 97.6572 30.6852 97.6399 30.7904L97.638 30.7924ZM96.7103 30.1726C96.7065 29.9354 96.6204 29.746 96.454 29.6026C96.2876 29.4591 96.0829 29.3883 95.8419 29.3883C95.6143 29.3883 95.4211 29.4572 95.2661 29.5949C95.1112 29.7326 95.0155 29.9258 94.9792 30.1707H96.7103V30.1726Z" fill="black"/>
<path d="M98.3186 29.5223C98.4658 29.2373 98.6648 29.0173 98.9173 28.8643C99.1698 28.7113 99.451 28.6348 99.7627 28.6348C100.034 28.6348 100.273 28.6902 100.476 28.7993C100.681 28.9083 100.843 29.0479 100.966 29.2144V28.6941H101.894V32.3399H100.966V31.8062C100.847 31.9765 100.685 32.118 100.476 32.2309C100.268 32.3418 100.027 32.3992 99.7551 32.3992C99.4471 32.3992 99.1679 32.3208 98.9154 32.162C98.6629 32.0032 98.4639 31.7814 98.3166 31.4944C98.1694 31.2075 98.0967 30.8766 98.0967 30.5036C98.0967 30.1306 98.1694 29.8073 98.3166 29.5223H98.3186ZM100.836 29.9393C100.748 29.7786 100.629 29.6562 100.48 29.5701C100.331 29.4841 100.17 29.442 99.9999 29.442C99.8297 29.442 99.6709 29.4841 99.5256 29.5663C99.3802 29.6486 99.2635 29.771 99.1736 29.9317C99.0837 30.0923 99.0378 30.2817 99.0378 30.5017C99.0378 30.7217 99.0818 30.9129 99.1736 31.0774C99.2635 31.2419 99.3821 31.3682 99.5294 31.4562C99.6767 31.5442 99.8335 31.5882 99.9999 31.5882C100.166 31.5882 100.331 31.5461 100.48 31.46C100.629 31.3739 100.748 31.2515 100.836 31.0908C100.924 30.9302 100.968 30.7389 100.968 30.5151C100.968 30.2913 100.924 30.1 100.836 29.9393Z" fill="black"/>
<path d="M103.719 27.4678V32.3378H102.797V27.4678H103.719Z" fill="black"/>
<path d="M105.701 29.4494V31.213C105.701 31.3354 105.729 31.4253 105.789 31.4789C105.848 31.5344 105.948 31.5612 106.089 31.5612H106.518V32.3378H105.938C105.161 32.3378 104.773 31.9609 104.773 31.2054V29.4475H104.339V28.69H104.773V27.7891H105.701V28.69H106.518V29.4475H105.701V29.4494Z" fill="black"/>
<path d="M109.971 28.8201C110.186 28.9406 110.354 29.1185 110.475 29.3538C110.595 29.5891 110.656 29.8703 110.656 30.1993V32.3378H109.734V30.3236C109.734 30.0348 109.662 29.811 109.516 29.656C109.371 29.5011 109.174 29.4227 108.923 29.4227C108.673 29.4227 108.468 29.5011 108.321 29.656C108.173 29.811 108.101 30.0348 108.101 30.3236V32.3378H107.179V27.4678H108.101V29.1453C108.219 28.9866 108.376 28.8641 108.575 28.7742C108.774 28.6843 108.992 28.6384 109.233 28.6384C109.51 28.6384 109.755 28.6996 109.97 28.8201H109.971Z" fill="black"/>
<path d="M116.632 32.3377L116.131 31.8442C115.706 32.2267 115.186 32.4161 114.572 32.4161C114.233 32.4161 113.937 32.3587 113.68 32.242C113.424 32.1253 113.225 31.9608 113.085 31.7485C112.946 31.5362 112.875 31.2894 112.875 31.0083C112.875 30.706 112.961 30.4344 113.131 30.1915C113.302 29.9505 113.554 29.7554 113.889 29.6062C113.77 29.4608 113.684 29.3231 113.632 29.1892C113.581 29.0553 113.554 28.9118 113.554 28.7588C113.554 28.5484 113.61 28.359 113.719 28.1887C113.828 28.0204 113.984 27.8865 114.189 27.7909C114.394 27.6952 114.631 27.6455 114.903 27.6455C115.174 27.6455 115.415 27.6991 115.614 27.8043C115.811 27.9095 115.958 28.0491 116.054 28.2251C116.15 28.4011 116.192 28.5962 116.178 28.8104H115.283C115.287 28.665 115.253 28.5541 115.178 28.4776C115.103 28.4011 115.002 28.3628 114.876 28.3628C114.75 28.3628 114.65 28.3992 114.57 28.4718C114.489 28.5445 114.447 28.6383 114.447 28.7511C114.447 28.864 114.48 28.9692 114.547 29.0763C114.612 29.1834 114.721 29.3173 114.87 29.4742L116.029 30.6199C116.029 30.6199 116.045 30.6027 116.048 30.5932C116.052 30.5836 116.058 30.576 116.062 30.5664L116.437 29.9409H117.397L116.936 30.75C116.848 30.9203 116.754 31.0829 116.653 31.2378L117.766 32.3377H116.634H116.632ZM115.551 31.2722L114.419 30.1532C113.992 30.3426 113.78 30.6104 113.78 30.9566C113.78 31.1536 113.854 31.32 114.004 31.4539C114.153 31.5878 114.35 31.6548 114.597 31.6548C114.956 31.6548 115.274 31.5266 115.551 31.2722Z" fill="black"/>
<path d="M120.505 32.2187C120.248 32.1097 120.046 31.9509 119.897 31.7444C119.747 31.5378 119.671 31.2948 119.667 31.0137H120.654C120.667 31.203 120.734 31.3522 120.855 31.4613C120.975 31.5703 121.142 31.6258 121.352 31.6258C121.563 31.6258 121.737 31.5741 121.859 31.4708C121.982 31.3675 122.043 31.2336 122.043 31.0653C122.043 30.9295 122.001 30.8166 121.918 30.7306C121.834 30.6426 121.731 30.5737 121.607 30.524C121.482 30.4742 121.31 30.4169 121.09 30.3556C120.792 30.2677 120.549 30.1816 120.363 30.0955C120.176 30.0094 120.017 29.8813 119.883 29.7072C119.749 29.5331 119.682 29.3017 119.682 29.0128C119.682 28.7412 119.751 28.504 119.887 28.3013C120.023 28.1004 120.214 27.9455 120.459 27.8365C120.704 27.7293 120.985 27.6758 121.301 27.6758C121.775 27.6758 122.159 27.7906 122.456 28.022C122.752 28.2515 122.915 28.5729 122.946 28.9861H121.932C121.922 28.8273 121.855 28.6972 121.731 28.5939C121.607 28.4906 121.44 28.439 121.234 28.439C121.054 28.439 120.91 28.4849 120.803 28.5767C120.696 28.6685 120.643 28.8024 120.643 28.9784C120.643 29.1008 120.683 29.2041 120.765 29.2845C120.845 29.3648 120.947 29.4318 121.067 29.4815C121.188 29.5312 121.358 29.5905 121.578 29.6556C121.876 29.7435 122.119 29.8315 122.309 29.9195C122.498 30.0075 122.659 30.1395 122.796 30.3136C122.932 30.4895 123.001 30.7191 123.001 31.0041C123.001 31.2508 122.938 31.4785 122.81 31.6889C122.682 31.8993 122.496 32.0676 122.251 32.192C122.004 32.3163 121.714 32.3794 121.375 32.3794C121.056 32.3794 120.767 32.3239 120.511 32.2149L120.505 32.2187Z" fill="black"/>
<path d="M123.776 29.5223C123.923 29.2373 124.122 29.0173 124.374 28.8643C124.627 28.7113 124.908 28.6348 125.22 28.6348C125.491 28.6348 125.731 28.6902 125.933 28.7993C126.138 28.9083 126.301 29.0479 126.423 29.2144V28.6941H127.351V32.3399H126.423V31.8062C126.304 31.9765 126.142 32.118 125.933 32.2309C125.725 32.3418 125.484 32.3992 125.212 32.3992C124.904 32.3992 124.625 32.3208 124.372 32.162C124.12 32.0032 123.921 31.7814 123.774 31.4944C123.626 31.2075 123.554 30.8766 123.554 30.5036C123.554 30.1306 123.626 29.8073 123.774 29.5223H123.776ZM126.293 29.9393C126.205 29.7786 126.086 29.6562 125.937 29.5701C125.788 29.4841 125.627 29.442 125.457 29.442C125.287 29.442 125.128 29.4841 124.983 29.5663C124.837 29.6486 124.721 29.771 124.631 29.9317C124.541 30.0923 124.495 30.2817 124.495 30.5017C124.495 30.7217 124.539 30.9129 124.631 31.0774C124.721 31.2419 124.839 31.3682 124.986 31.4562C125.134 31.5442 125.291 31.5882 125.457 31.5882C125.623 31.5882 125.788 31.5461 125.937 31.46C126.086 31.3739 126.205 31.2515 126.293 31.0908C126.381 30.9302 126.425 30.7389 126.425 30.5151C126.425 30.2913 126.381 30.1 126.293 29.9393Z" fill="black"/>
<path d="M129.926 29.4494H129.287V32.3378H128.354V29.4494H127.938V28.692H128.354V28.5083C128.354 28.0607 128.48 27.7317 128.736 27.5213C128.991 27.3109 129.375 27.2114 129.888 27.2248V28.0014C129.664 27.9976 129.509 28.0339 129.421 28.1124C129.333 28.1908 129.289 28.3343 129.289 28.5408V28.692H129.928V29.4494H129.926Z" fill="black"/>
<path d="M133.888 30.7924H131.223C131.244 31.0563 131.338 31.261 131.499 31.4102C131.66 31.5594 131.86 31.634 132.098 31.634C132.44 31.634 132.683 31.4867 132.828 31.1921H133.823C133.718 31.5441 133.515 31.831 133.217 32.0567C132.918 32.2824 132.553 32.3953 132.117 32.3953C131.767 32.3953 131.451 32.3169 131.172 32.1619C130.892 32.007 130.676 31.7851 130.52 31.5001C130.365 31.2151 130.286 30.8861 130.286 30.5131C130.286 30.1401 130.363 29.8053 130.516 29.5184C130.669 29.2334 130.885 29.0134 131.16 28.8604C131.436 28.7074 131.755 28.6309 132.115 28.6309C132.474 28.6309 132.771 28.7055 133.046 28.8547C133.32 29.0039 133.534 29.2162 133.685 29.4897C133.836 29.7633 133.913 30.0789 133.913 30.4347C133.913 30.5666 133.903 30.6852 133.886 30.7904L133.888 30.7924ZM132.96 30.1726C132.956 29.9354 132.87 29.746 132.704 29.6026C132.538 29.4591 132.333 29.3883 132.092 29.3883C131.864 29.3883 131.671 29.4572 131.516 29.5949C131.361 29.7326 131.265 29.9258 131.229 30.1707H132.96V30.1726Z" fill="black"/>
<path d="M135.658 29.4494V31.213C135.658 31.3354 135.687 31.4253 135.746 31.4789C135.805 31.5344 135.905 31.5612 136.046 31.5612H136.475V32.3378H135.895C135.118 32.3378 134.73 31.9609 134.73 31.2054V29.4475H134.296V28.69H134.73V27.7891H135.658V28.69H136.475V29.4475H135.658V29.4494Z" fill="black"/>
<path d="M140.627 28.6914L138.369 34.0626H137.388L138.178 32.2454L136.717 28.6914H137.75L138.691 31.2374L139.645 28.6914H140.627Z" fill="black"/>
<path d="M146.616 32.3376H145.694L143.608 29.1853V32.3376H142.686V27.7373H143.608L145.694 30.8973V27.7373H146.616V32.3376Z" fill="black"/>
<path d="M148.466 31.5612H150.532V32.3378H147.398V31.6262L149.451 28.5198H147.398V27.7432H150.532V28.4547L148.466 31.5612Z" fill="black"/>
<path d="M18.0245 36.0491C27.9792 36.0491 36.0491 27.9792 36.0491 18.0245C36.0491 8.06986 27.9792 0 18.0245 0C8.06986 0 0 8.06986 0 18.0245C0 27.9792 8.06986 36.0491 18.0245 36.0491Z" fill="#56D54F"/>
<path d="M18.0259 21.026C18.0259 21.026 28.0166 21.0815 28.6077 19.9433C28.6077 19.9433 29.1165 15.3028 26.5858 12.4814C26.5208 12.4087 26.406 12.4145 26.3448 12.491L24.0858 15.3813C24.059 15.4157 24.0035 15.3851 24.0188 15.343L25.5491 11.5824C25.5816 11.5001 25.5625 11.4064 25.4974 11.3471C25.0957 10.976 23.5731 9.68869 21.1553 9.04025C21.0635 9.01538 20.9698 9.08042 20.9602 9.17606L20.0841 17.6633C20.0822 17.6881 20.044 17.6862 20.044 17.6613V8.78775C20.044 8.78775 20.044 7.61328 18.8771 7.61328H17.1766C16.0098 7.61328 16.0098 8.78775 16.0098 8.78775V17.6613C16.0098 17.6862 15.9716 17.6881 15.9697 17.6633L15.0936 9.17606C15.084 9.08042 14.9903 9.01538 14.8985 9.04025C12.4807 9.68678 10.9561 10.976 10.5564 11.3471C10.4913 11.4064 10.4722 11.5001 10.5047 11.5824L12.035 15.343C12.0522 15.3851 11.9967 15.4157 11.968 15.3813L9.70898 12.491L16.3713 21.0164C17.3641 21.0298 18.0279 21.026 18.0279 21.026H18.0259Z" fill="white"/>
<path opacity="0.75" d="M16.3685 21.0141L9.70609 12.4886C9.64679 12.4121 9.53011 12.4064 9.46507 12.479C6.93441 15.3005 7.44322 19.941 7.44322 19.941C7.88125 20.7864 13.503 20.9739 16.3685 21.0141Z" fill="white"/>
<path opacity="0.75" d="M7.50006 20.4083C7.43311 20.3758 7.36042 20.3586 7.28582 20.3605C6.61633 20.3739 4.4778 20.5212 4.43763 21.8181C4.39363 23.1762 15.6219 23.5109 18.0302 23.4899C18.1105 23.4899 18.2023 23.4899 18.3018 23.4899L16.739 21.491C9.77441 21.4011 7.89028 20.5958 7.49815 20.4064L7.50006 20.4083Z" fill="white"/>
<path d="M31.6114 21.8179C31.5713 20.5229 29.4346 20.3757 28.7632 20.3604C28.6886 20.3604 28.6179 20.3757 28.549 20.4082C28.1339 20.609 26.0489 21.5004 18.0227 21.5004C17.5751 21.5004 17.1486 21.4966 16.7373 21.4927L18.3001 23.4916C21.177 23.4878 31.6516 23.132 31.6095 21.8179H31.6114Z" fill="white"/>
</g>
</g>
<defs>
<clipPath id="clip0_1114_1774">
<rect width="150.532" height="36.051" fill="white"/>
</clipPath>
<clipPath id="clip1_1114_1774">
<rect width="150.532" height="36.051" fill="white"/>
</clipPath>
</defs>
</svg>
