<svg width="131" height="32" viewBox="0 0 131 32" fill="none" xmlns="http://www.w3.org/2000/svg">
<g clip-path="url(#clip0_551_62)">
<mask id="mask0_551_62" style="mask-type:luminance" maskUnits="userSpaceOnUse" x="0" y="0" width="131" height="32">
<path d="M131 0H0V32H131V0Z" fill="white"/>
</mask>
<g mask="url(#mask0_551_62)">
<mask id="mask1_551_62" style="mask-type:luminance" maskUnits="userSpaceOnUse" x="0" y="0" width="131" height="32">
<path d="M131 0H0V32H131V0Z" fill="white"/>
</mask>
<g mask="url(#mask1_551_62)">
<mask id="mask2_551_62" style="mask-type:luminance" maskUnits="userSpaceOnUse" x="0" y="0" width="131" height="32">
<path d="M130.906 0H0V31.9156H130.906V0Z" fill="white"/>
</mask>
<g mask="url(#mask2_551_62)">
<path d="M26.5231 5.6548C27.2928 4.31258 28.3673 3.26665 29.745 2.51702C31.1228 1.76739 32.6852 1.39258 34.4324 1.39258C36.5721 1.39258 38.404 1.93628 39.9279 3.02369C41.4519 4.1111 42.471 5.59406 42.9836 7.47258H38.1561C37.7959 6.74813 37.2864 6.19554 36.6275 5.81628C35.9687 5.43702 35.219 5.24739 34.3801 5.24739C33.0269 5.24739 31.9325 5.70073 31.0935 6.60739C30.2546 7.51406 29.8358 8.72443 29.8358 10.24C29.8358 11.7555 30.2546 12.9674 31.0935 13.8741C31.9325 14.7792 33.0269 15.2326 34.3801 15.2326C35.219 15.2326 35.9687 15.0444 36.6275 14.6637C37.2864 14.2844 37.7959 13.7333 38.1561 13.0074H42.9836C42.4694 14.8859 41.4504 16.3644 39.9279 17.443C38.404 18.523 36.5721 19.0622 34.4324 19.0622C32.6867 19.0622 31.1228 18.6874 29.745 17.9378C28.3673 17.1881 27.2928 16.1467 26.5231 14.8118C25.7534 13.4785 25.3671 11.9541 25.3671 10.24C25.3671 8.52591 25.7519 6.99999 26.5231 5.65628" fill="white"/>
<path d="M61.2929 1.58984V18.9395H56.9011V11.7958H50.0709V18.9395H45.6807V1.58984H50.0709V8.3854H56.9011V1.58984H61.2929Z" fill="white"/>
<path d="M74.5422 12.6121L72.3086 6.26095L70.0996 12.6121H74.5422ZM75.6721 15.8743H68.945L67.866 18.938H63.2694L69.7917 1.58984H74.8762L81.3985 18.938H76.7512L75.6721 15.8743Z" fill="white"/>
<path d="M86.3537 18.4934C85.31 18.0815 84.4756 17.4726 83.8507 16.6652C83.2257 15.8578 82.8962 14.8859 82.8608 13.7497H87.5344C87.6036 14.3926 87.8345 14.883 88.2271 15.2208C88.6196 15.5585 89.1338 15.7274 89.768 15.7274C90.4022 15.7274 90.9317 15.5837 91.3089 15.2948C91.686 15.0059 91.8738 14.6074 91.8738 14.0963C91.8738 13.6682 91.7245 13.3141 91.4243 13.0341C91.1242 12.7541 90.7562 12.523 90.3206 12.3423C89.8834 12.1615 89.2631 11.9556 88.4595 11.7245C87.2942 11.3778 86.3444 11.0326 85.6086 10.6874C84.8728 10.3408 84.2386 9.83114 83.709 9.15559C83.178 8.48003 82.9132 7.59855 82.9132 6.51114C82.9132 4.89633 83.5212 3.63263 84.7358 2.71707C85.9503 1.803 87.5343 1.34521 89.4863 1.34521C91.4382 1.34521 93.0714 1.803 94.2875 2.71707C95.5036 3.63115 96.1533 4.90374 96.2395 6.53485H91.489C91.4536 5.97485 91.2396 5.53337 90.8471 5.21188C90.453 4.8904 89.9496 4.7304 89.3323 4.7304C88.8012 4.7304 88.3733 4.86671 88.047 5.13781C87.7222 5.41041 87.559 5.80003 87.559 6.31114C87.559 6.87114 87.833 7.30818 88.381 7.62225C88.929 7.93485 89.7834 8.27264 90.9487 8.63412C92.1124 9.01338 93.0576 9.37485 93.7857 9.72151C94.5123 10.0682 95.1419 10.5704 95.673 11.2297C96.2041 11.8889 96.4688 12.7378 96.4688 13.7748C96.4688 14.8119 96.2071 15.6608 95.6853 16.4682C95.1634 17.2756 94.4045 17.9185 93.4116 18.3956C92.4188 18.8741 91.2473 19.1126 89.8942 19.1126C88.5411 19.1126 87.3943 18.9067 86.3506 18.4948" fill="white"/>
<path d="M115.294 18.938H110.902L103.559 8.23873V18.938H99.1674V1.58984H103.559L110.902 12.3395V1.58984H115.294V18.938Z" fill="white"/>
<path d="M118.169 1.58984V5.0491H125.872L118.169 15.7261V18.938H130.906V15.4787H123.15L130.906 4.8017V1.58984H118.169Z" fill="white"/>
<path d="M0.377145 25.7094C0.628061 25.2857 0.9698 24.9568 1.40544 24.7198C1.83954 24.4828 2.32752 24.3643 2.86784 24.3643C3.49898 24.3643 4.05315 24.5198 4.52727 24.8324C5.00294 25.145 5.3339 25.5761 5.52324 26.1257H4.22094C4.09163 25.865 3.90845 25.6709 3.67447 25.5406C3.44048 25.4117 3.16801 25.3465 2.86168 25.3465C2.53226 25.3465 2.23978 25.4206 1.9827 25.5687C1.72563 25.7154 1.52551 25.9257 1.38235 26.1954C1.23919 26.465 1.16838 26.782 1.16838 27.1465C1.16838 27.5109 1.23919 27.8191 1.38235 28.0931C1.52551 28.3657 1.72563 28.5761 1.9827 28.7243C2.23824 28.8709 2.53072 28.9465 2.86168 28.9465C3.16955 28.9465 3.44048 28.8813 3.67447 28.748C3.90845 28.6161 4.09163 28.4206 4.22094 28.1613H5.52324C5.3339 28.7168 5.00294 29.148 4.53189 29.4591C4.05931 29.7672 3.50514 29.9228 2.86784 29.9228C2.32752 29.9228 1.84108 29.8043 1.40544 29.5672C0.97134 29.3302 0.628061 29.0028 0.377145 28.582C0.126228 28.1613 0 27.6828 0 27.148C0 26.6131 0.126228 26.1331 0.377145 25.7094Z" fill="white"/>
<path d="M9.06375 28.8488C9.24539 28.7525 9.38855 28.6088 9.49785 28.4162C9.6056 28.2251 9.65948 27.991 9.65948 27.7154C9.65948 27.3051 9.54711 26.9895 9.32236 26.7688C9.09761 26.548 8.82361 26.4369 8.50034 26.4369C8.17707 26.4369 7.90461 26.548 7.68756 26.7688C7.46897 26.9895 7.35967 27.3051 7.35967 27.7154C7.35967 28.1258 7.46743 28.4414 7.67986 28.6621C7.89383 28.8843 8.16168 28.994 8.48495 28.994C8.69122 28.994 8.8821 28.9465 9.06375 28.8503M7.31965 29.668C6.97483 29.4843 6.70236 29.2221 6.50686 28.8858C6.30982 28.548 6.2113 28.1584 6.2113 27.7169C6.2113 27.2754 6.3129 26.8858 6.51456 26.548C6.71622 26.2103 6.9933 25.9495 7.34428 25.7658C7.69525 25.5821 8.08625 25.4888 8.51727 25.4888C8.9483 25.4888 9.34083 25.5806 9.69181 25.7658C10.0428 25.951 10.3183 26.2117 10.5215 26.548C10.7232 26.8858 10.8248 27.2754 10.8248 27.7169C10.8248 28.1584 10.7201 28.548 10.5123 28.8858C10.3045 29.2236 10.0243 29.4843 9.67026 29.668C9.3162 29.8517 8.92059 29.9451 8.48341 29.9451C8.04623 29.9451 7.66293 29.8532 7.31811 29.668" fill="white"/>
<path d="M15.4398 25.982C15.7693 26.3065 15.934 26.7598 15.934 27.342V29.8754H14.801V27.4916C14.801 27.1479 14.7117 26.8857 14.5332 26.7005C14.3546 26.5168 14.1114 26.4235 13.8051 26.4235C13.4987 26.4235 13.2447 26.5154 13.0631 26.7005C12.883 26.8857 12.7922 27.1494 12.7922 27.4916V29.8754H11.6592V25.5583H12.7922V26.0961C12.943 25.9094 13.137 25.7628 13.371 25.6561C13.6049 25.5494 13.8636 25.4961 14.1437 25.4961C14.6779 25.4961 15.1089 25.6591 15.4383 25.9835" fill="white"/>
<path d="M17.7381 29.754C17.4471 29.6265 17.2162 29.4532 17.0453 29.2354C16.876 29.0177 16.7821 28.7762 16.7667 28.511H17.9074C17.9289 28.6784 18.0136 28.8147 18.1629 28.9243C18.3122 29.034 18.497 29.0888 18.7186 29.0888C18.9403 29.0888 19.1035 29.0473 19.2236 28.9643C19.3452 28.8799 19.4067 28.7747 19.4067 28.6443C19.4067 28.5036 19.3313 28.3984 19.1835 28.3288C19.0342 28.2591 18.7987 28.1821 18.4754 28.0991C18.1414 28.0221 17.8674 27.9406 17.6534 27.8577C17.4394 27.7747 17.2562 27.6473 17.1023 27.4754C16.9499 27.3036 16.8714 27.0725 16.8714 26.7821C16.8714 26.5436 16.9422 26.3243 17.0854 26.1273C17.2285 25.9303 17.4333 25.7747 17.6996 25.6606C17.9674 25.5465 18.2815 25.4888 18.6432 25.4888C19.1789 25.4888 19.6038 25.6177 19.9224 25.8754C20.2411 26.1332 20.4166 26.4784 20.4489 26.9154H19.3636C19.3482 26.7451 19.2728 26.6073 19.142 26.5065C19.0096 26.4058 18.8326 26.3554 18.6124 26.3554C18.4061 26.3554 18.2491 26.391 18.1383 26.4636C18.0275 26.5362 17.972 26.6384 17.972 26.7673C17.972 26.9125 18.0475 27.0221 18.1983 27.0977C18.3492 27.1747 18.5832 27.2503 18.9018 27.3273C19.2266 27.4058 19.4929 27.4858 19.7038 27.5688C19.9147 27.6517 20.0979 27.7806 20.2518 27.954C20.4042 28.1288 20.4843 28.3584 20.4904 28.6443C20.4904 28.8932 20.4196 29.1169 20.2765 29.314C20.1333 29.511 19.9286 29.6651 19.6623 29.7777C19.3944 29.8888 19.0835 29.9451 18.7263 29.9451C18.3692 29.9451 18.0305 29.8799 17.7381 29.754Z" fill="white"/>
<path d="M22.7425 26.4532V28.5421C22.7425 28.6873 22.7794 28.7925 22.8518 28.8577C22.9241 28.9228 23.0473 28.9554 23.2197 28.9554H23.7461V29.874H23.0349C22.079 29.874 21.6018 29.428 21.6018 28.5332V26.4532H21.0676V25.5569H21.6018V24.4888H22.744V25.5569H23.7477V26.4532H22.744H22.7425Z" fill="white"/>
<path d="M26.2677 25.6902C26.5017 25.5598 26.771 25.4961 27.0728 25.4961V26.6413H26.7726C26.4155 26.6413 26.1476 26.7213 25.9675 26.8828C25.7859 27.0442 25.6966 27.3242 25.6966 27.7242V29.8754H24.5636V25.5583H25.6966V26.2279C25.8428 25.9983 26.0337 25.8205 26.2677 25.6902Z" fill="white"/>
<path d="M32.0697 25.5571V29.8742H30.9275V29.329C30.7828 29.5156 30.5919 29.6623 30.358 29.769C30.124 29.8756 29.8669 29.9275 29.5929 29.9275C29.2419 29.9275 28.931 29.8564 28.6616 29.7142C28.3907 29.5705 28.1798 29.3616 28.0258 29.0831C27.8719 28.806 27.7949 28.4742 27.7949 28.0905V25.5571H28.9279V27.9334C28.9279 28.2756 29.0172 28.5394 29.1957 28.7245C29.3728 28.9082 29.6175 29.0016 29.9239 29.0016C30.2302 29.0016 30.4827 28.9097 30.6597 28.7245C30.8382 28.5408 30.9275 28.2756 30.9275 27.9334V25.5571H32.0697Z" fill="white"/>
<path d="M33.1778 26.5436C33.3672 26.2088 33.6289 25.9495 33.9629 25.7643C34.2969 25.5792 34.6802 25.4873 35.1128 25.4873C35.6685 25.4873 36.1288 25.6221 36.4936 25.8888C36.8584 26.1569 37.1017 26.5318 37.2264 27.0147H36.0056C35.941 26.828 35.8317 26.6814 35.6778 26.5747C35.5238 26.468 35.3329 26.4147 35.1066 26.4147C34.7834 26.4147 34.5263 26.5288 34.3385 26.754C34.1492 26.9792 34.0553 27.3006 34.0553 27.7155C34.0553 28.1303 34.1492 28.4443 34.3385 28.671C34.5278 28.8962 34.7849 29.0103 35.1066 29.0103C35.5654 29.0103 35.8656 28.8132 36.0056 28.4177H37.2264C37.1017 28.8858 36.8569 29.2577 36.4905 29.5317C36.1242 29.8088 35.6654 29.9451 35.1143 29.9451C34.6818 29.9451 34.2985 29.8532 33.9644 29.668C33.6289 29.4843 33.3672 29.2236 33.1794 28.8888C32.99 28.554 32.8961 28.1629 32.8961 27.7155C32.8961 27.268 32.9916 26.8784 33.1794 26.5436" fill="white"/>
<path d="M39.3799 26.4532V28.5421C39.3799 28.6873 39.4169 28.7925 39.4892 28.8577C39.5616 28.9228 39.6847 28.9554 39.8571 28.9554H40.3836V29.874H39.6724C38.7164 29.874 38.2392 29.428 38.2392 28.5332V26.4532H37.7051V25.5569H38.2392V24.4888H39.3814V25.5569H40.3851V26.4532H39.3814H39.3799Z" fill="white"/>
<path d="M42.3355 29.8743H41.2025V25.5572H42.3355V29.8743ZM41.278 24.8609C41.1456 24.7394 41.0809 24.5869 41.0809 24.4046C41.0809 24.2224 41.1471 24.0713 41.278 23.9483C41.4104 23.8269 41.5766 23.7661 41.7767 23.7661C41.9768 23.7661 42.1416 23.8269 42.2739 23.9483C42.4063 24.0713 42.4725 24.2224 42.4725 24.4046C42.4725 24.5869 42.4063 24.7394 42.2739 24.8609C42.1416 24.9824 41.9753 25.0431 41.7767 25.0431C41.5782 25.0431 41.4104 24.9824 41.278 24.8609Z" fill="white"/>
<path d="M46.0222 28.8488C46.2039 28.7525 46.3471 28.6088 46.4563 28.4162C46.5641 28.2251 46.618 27.991 46.618 27.7154C46.618 27.3051 46.5056 26.9895 46.2809 26.7688C46.0561 26.548 45.7821 26.4369 45.4588 26.4369C45.1356 26.4369 44.8631 26.548 44.6461 26.7688C44.4275 26.9895 44.3182 27.3051 44.3182 27.7154C44.3182 28.1258 44.4244 28.4414 44.6384 28.6621C44.8523 28.8843 45.1202 28.994 45.4434 28.994C45.6497 28.994 45.8406 28.9465 46.0222 28.8503M44.2781 29.668C43.9333 29.4843 43.6609 29.2221 43.4654 28.8858C43.2683 28.548 43.1698 28.1584 43.1698 27.7169C43.1698 27.2754 43.2714 26.8858 43.4731 26.548C43.6747 26.2103 43.9518 25.9495 44.3028 25.7658C44.6538 25.5821 45.0447 25.4888 45.4758 25.4888C45.9068 25.4888 46.2993 25.5806 46.6503 25.7658C47.0013 25.951 47.2768 26.2117 47.48 26.548C47.6817 26.8858 47.7833 27.2754 47.7833 27.7169C47.7833 28.1584 47.6786 28.548 47.4708 28.8858C47.263 29.2236 46.9828 29.4843 46.6288 29.668C46.2747 29.8517 45.8791 29.9451 45.4419 29.9451C45.0047 29.9451 44.6214 29.8532 44.2766 29.668" fill="white"/>
<path d="M52.3985 25.982C52.7279 26.3065 52.8926 26.7598 52.8926 27.342V29.8754H51.7596V27.4916C51.7596 27.1479 51.6704 26.8857 51.4918 26.7005C51.3132 26.5168 51.07 26.4235 50.7637 26.4235C50.4573 26.4235 50.2033 26.5154 50.0217 26.7005C49.8416 26.8857 49.7508 27.1494 49.7508 27.4916V29.8754H48.6178V25.5583H49.7508V26.0961C49.9016 25.9094 50.0956 25.7628 50.3296 25.6561C50.5636 25.5494 50.8222 25.4961 51.1023 25.4961C51.6365 25.4961 52.0675 25.6591 52.3969 25.9835" fill="white"/>
<path d="M60.583 24.4355V29.8741H59.4501V27.56H57.0303V29.8741H55.8958V24.4355H57.0303V26.6711H59.4501V24.4355H60.583Z" fill="white"/>
<path d="M64.6964 27.311C64.6918 27.031 64.5871 26.8058 64.3808 26.6369C64.1746 26.468 63.9252 26.3836 63.6281 26.3836C63.3479 26.3836 63.1124 26.4651 62.92 26.6295C62.7291 26.7925 62.6121 27.0206 62.5675 27.311H64.6964ZM65.8386 28.0428H62.5598C62.5859 28.3554 62.6998 28.5984 62.9 28.7747C63.1001 28.951 63.3464 29.0399 63.6358 29.0399C64.0576 29.0399 64.3562 28.8665 64.5348 28.5184H65.7555C65.6277 28.9332 65.3783 29.2754 65.012 29.5436C64.6456 29.8103 64.1946 29.9451 63.6604 29.9451C63.2294 29.9451 62.8415 29.8532 62.4982 29.668C62.1565 29.4828 61.8886 29.2221 61.6962 28.8843C61.5053 28.5465 61.4083 28.1569 61.4083 27.7169C61.4083 27.2769 61.5022 26.8784 61.6916 26.5406C61.8809 26.2028 62.1441 25.9421 62.4843 25.7614C62.8245 25.5791 63.2155 25.4888 63.6573 25.4888C64.0991 25.4888 64.4655 25.5777 64.8026 25.754C65.1397 25.9303 65.4014 26.1806 65.5877 26.5051C65.774 26.8295 65.8663 27.2014 65.8663 27.6236C65.8663 27.7791 65.8556 27.9199 65.834 28.0443" fill="white"/>
<path d="M69.7719 27.034C69.6641 26.8443 69.5179 26.6992 69.3347 26.5969C69.1515 26.4962 68.9529 26.4458 68.7436 26.4458C68.5342 26.4458 68.3387 26.4947 68.1601 26.594C67.9831 26.6917 67.8384 26.8369 67.7276 27.0266C67.6168 27.2162 67.5613 27.4399 67.5613 27.6992C67.5613 27.9584 67.6168 28.1866 67.7276 28.3806C67.8384 28.5762 67.9831 28.7243 68.1648 28.8295C68.3464 28.9347 68.5373 28.9851 68.7436 28.9851C68.9498 28.9851 69.1515 28.9347 69.3347 28.834C69.5179 28.7318 69.6626 28.5866 69.7719 28.3969C69.8796 28.2073 69.9335 27.9792 69.9335 27.7155C69.9335 27.4518 69.8796 27.2236 69.7719 27.034ZM66.6762 26.5392C66.8578 26.2014 67.1026 25.9421 67.412 25.7599C67.723 25.5777 68.0693 25.4873 68.4526 25.4873C68.7882 25.4873 69.0807 25.5525 69.3316 25.6814C69.5825 25.8118 69.7842 25.9747 69.935 26.1718V25.5569H71.0772V29.874H69.935V29.2429C69.7903 29.4443 69.5887 29.6132 69.3316 29.7451C69.0761 29.8769 68.779 29.9436 68.4449 29.9436C68.0678 29.9436 67.723 29.8503 67.412 29.6636C67.1011 29.4769 66.8563 29.2132 66.6762 28.8725C66.4946 28.5332 66.4053 28.1406 66.4053 27.6992C66.4053 27.2577 66.4961 26.8769 66.6762 26.5392Z" fill="white"/>
<path d="M73.3184 24.1099H72.1854V29.8758H73.3184V24.1099Z" fill="white"/>
<path d="M75.7553 26.4532V28.5421C75.7553 28.6873 75.7922 28.7925 75.8646 28.8577C75.9369 28.9228 76.0601 28.9554 76.234 28.9554H76.7589V29.874H76.0478C75.0918 29.874 74.6146 29.428 74.6146 28.5332V26.4532H74.0804V25.5569H74.6146V24.4888H75.7568V25.5569H76.7605V26.4532H75.7568H75.7553Z" fill="white"/>
<path d="M81.0105 25.7094C81.2753 25.8531 81.4815 26.062 81.6293 26.3405C81.7786 26.6175 81.851 26.9524 81.851 27.342V29.8738H80.718V27.4901C80.718 27.1479 80.6303 26.8842 80.4502 26.699C80.2731 26.5153 80.0284 26.422 79.722 26.422C79.4157 26.422 79.1617 26.5138 78.9816 26.699C78.8 26.8842 78.7107 27.1479 78.7107 27.4901V29.8738H77.5762V24.1079H78.7107V26.0961C78.8554 25.9094 79.0509 25.7612 79.2926 25.6546C79.5358 25.5479 79.8052 25.4961 80.1023 25.4961C80.4425 25.4961 80.7442 25.5672 81.009 25.7094" fill="white"/>
<path d="M87.8764 28.6117L86.4833 27.2872C85.9599 27.5095 85.6982 27.8265 85.6982 28.2384C85.6982 28.4724 85.7906 28.668 85.9737 28.8265C86.1569 28.985 86.4001 29.0635 86.7019 29.0635C87.1437 29.0635 87.5362 28.9124 87.8764 28.6102M89.2033 29.8739L88.5876 29.2902C88.0642 29.7421 87.4254 29.9672 86.6695 29.9672C86.2554 29.9672 85.8891 29.8991 85.5735 29.7613C85.2579 29.6235 85.0132 29.4295 84.8408 29.1776C84.6668 28.9243 84.5822 28.6339 84.5822 28.3006C84.5822 27.9421 84.6884 27.6191 84.8977 27.3332C85.1071 27.0487 85.418 26.8176 85.829 26.6398C85.6843 26.4695 85.5781 26.305 85.5135 26.145C85.4488 25.9865 85.418 25.8176 85.418 25.6354C85.418 25.3865 85.4858 25.1613 85.6197 24.9613C85.7536 24.7613 85.9476 24.6043 86.1985 24.4902C86.4494 24.3761 86.7419 24.3184 87.0775 24.3184C87.413 24.3184 87.7086 24.3806 87.9518 24.505C88.195 24.6295 88.3751 24.7969 88.4952 25.0043C88.6137 25.2117 88.6645 25.4428 88.6476 25.6976H87.547C87.5531 25.5258 87.5085 25.3939 87.4177 25.3035C87.3253 25.2117 87.2022 25.1672 87.0451 25.1672C86.8881 25.1672 86.7681 25.2102 86.668 25.2961C86.5679 25.3806 86.5187 25.4917 86.5187 25.628C86.5187 25.7643 86.5587 25.8858 86.6387 26.0132C86.7203 26.1406 86.8527 26.2976 87.0359 26.4858L88.4614 27.8413C88.4721 27.831 88.4798 27.8206 88.4844 27.8102C88.4906 27.7998 88.4952 27.7895 88.5014 27.7791L88.9632 27.0398H90.1454L89.5774 27.9984C89.4696 28.1998 89.3542 28.3924 89.2295 28.5747L90.598 29.8754H89.2049L89.2033 29.8739Z" fill="white"/>
<path d="M93.9675 29.7332C93.652 29.6029 93.4026 29.4162 93.2194 29.1718C93.0362 28.9273 92.9408 28.6399 92.9362 28.3066H94.1507C94.1661 28.5303 94.2492 28.7066 94.397 28.837C94.5463 28.9673 94.7495 29.031 95.0081 29.031C95.2668 29.031 95.4807 28.9703 95.6316 28.8488C95.7824 28.7258 95.858 28.5673 95.858 28.3688C95.858 28.2073 95.8072 28.0755 95.7041 27.9718C95.601 27.8681 95.4732 27.7851 95.3193 27.7258C95.1653 27.6666 94.9544 27.5999 94.6835 27.5273C94.3171 27.4236 94.0185 27.3214 93.7891 27.2192C93.5582 27.117 93.3626 26.9644 93.1979 26.7584C93.0331 26.5525 92.9517 26.2799 92.9517 25.9362C92.9517 25.6132 93.0348 25.3332 93.2026 25.0947C93.3704 24.8562 93.6042 24.6725 93.9075 24.5466C94.2092 24.4192 94.5542 24.3555 94.9436 24.3555C95.5271 24.3555 95.9995 24.4918 96.3643 24.7644C96.7276 25.037 96.9293 25.4177 96.9662 25.9066H95.7193C95.7086 25.7199 95.6271 25.5644 95.4732 25.4429C95.3208 25.3199 95.1159 25.2592 94.8634 25.2592C94.6418 25.2592 94.4647 25.314 94.3324 25.4236C94.2 25.5318 94.1338 25.6903 94.1338 25.8992C94.1338 26.0444 94.1846 26.1644 94.2831 26.2607C94.3832 26.357 94.508 26.4355 94.6558 26.4947C94.8036 26.554 95.0128 26.6221 95.2821 26.7007C95.6501 26.8044 95.9487 26.9081 96.1811 27.0132C96.412 27.117 96.6123 27.2725 96.7801 27.4799C96.9464 27.6873 97.031 27.9614 97.031 28.2977C97.031 28.5881 96.9524 28.8592 96.7969 29.1081C96.6399 29.357 96.4122 29.557 96.1089 29.7051C95.8072 29.8518 95.4484 29.9273 95.0328 29.9273C94.6171 29.9273 94.2831 29.8621 93.9675 29.7332Z" fill="white"/>
<path d="M101.089 27.034C100.981 26.8443 100.835 26.6992 100.652 26.5969C100.468 26.4962 100.27 26.4458 100.06 26.4458C99.8511 26.4458 99.6556 26.4947 99.477 26.594C99.3 26.6917 99.1553 26.8369 99.0444 27.0266C98.9336 27.2162 98.8782 27.4399 98.8782 27.6992C98.8782 27.9584 98.9336 28.1866 99.0444 28.3806C99.1553 28.5762 99.3 28.7243 99.4816 28.8295C99.6633 28.9332 99.8541 28.9851 100.06 28.9851C100.267 28.9851 100.468 28.9347 100.652 28.834C100.835 28.7318 100.981 28.5866 101.089 28.3969C101.196 28.2073 101.25 27.9792 101.25 27.7155C101.25 27.4518 101.196 27.2236 101.089 27.034ZM97.9915 26.5392C98.1732 26.2014 98.4179 25.9421 98.7273 25.7599C99.0383 25.5777 99.3846 25.4873 99.7679 25.4873C100.104 25.4873 100.396 25.5525 100.647 25.6814C100.898 25.8118 101.099 25.9747 101.25 26.1718V25.5569H102.393V29.874H101.25V29.2429C101.106 29.4443 100.904 29.6132 100.647 29.7451C100.391 29.8769 100.094 29.9436 99.7602 29.9436C99.3831 29.9436 99.0383 29.8503 98.7273 29.6636C98.4164 29.4769 98.1716 29.2132 97.9915 28.8725C97.8099 28.5332 97.7206 28.1406 97.7206 27.6992C97.7206 27.2577 97.8114 26.8769 97.9915 26.5392Z" fill="white"/>
<path d="M105.557 26.4532H104.772V29.8739H103.624V26.4532H103.113V25.5569H103.624V25.3391C103.624 24.8087 103.781 24.4191 104.093 24.1702C104.406 23.9213 104.879 23.8043 105.511 23.8191V24.7391C105.236 24.7332 105.045 24.7776 104.936 24.871C104.828 24.9643 104.774 25.1332 104.774 25.3776V25.5569H105.559V26.4532H105.557Z" fill="white"/>
<path d="M109.289 27.311C109.284 27.031 109.178 26.8058 108.973 26.6369C108.767 26.468 108.518 26.3836 108.221 26.3836C107.94 26.3836 107.705 26.4651 107.512 26.6295C107.322 26.7925 107.205 27.0206 107.16 27.311H109.289ZM110.431 28.0428H107.152C107.178 28.3554 107.292 28.5984 107.492 28.7747C107.692 28.951 107.939 29.0399 108.228 29.0399C108.65 29.0399 108.949 28.8665 109.127 28.5184H110.348C110.22 28.9332 109.971 29.2754 109.604 29.5436C109.238 29.8103 108.787 29.9451 108.253 29.9451C107.822 29.9451 107.434 29.8532 107.091 29.668C106.749 29.4828 106.481 29.2221 106.289 28.8843C106.098 28.5465 106.001 28.1569 106.001 27.7169C106.001 27.2769 106.095 26.8784 106.284 26.5406C106.473 26.2028 106.737 25.9421 107.077 25.7614C107.417 25.5791 107.808 25.4888 108.25 25.4888C108.692 25.4888 109.058 25.5777 109.395 25.754C109.732 25.9303 109.994 26.1806 110.18 26.5051C110.366 26.8295 110.459 27.2014 110.459 27.6236C110.459 27.7791 110.448 27.9199 110.426 28.0443" fill="white"/>
<path d="M112.609 26.4532V28.5421C112.609 28.6873 112.646 28.7925 112.718 28.8577C112.791 28.9228 112.914 28.9554 113.088 28.9554H113.613V29.874H112.902C111.946 29.874 111.468 29.428 111.468 28.5332V26.4532H110.934V25.5569H111.468V24.4888H112.611V25.5569H113.614V26.4532H112.611H112.609Z" fill="white"/>
<path d="M118.722 25.5571L115.945 31.9156H114.738L115.711 29.7645L113.913 25.5571H115.185L116.342 28.5734L117.515 25.5571H118.722Z" fill="white"/>
<path d="M126.089 29.8741H124.956L122.389 26.1423V29.8741H121.256V24.4282H122.389L124.956 28.1675V24.4282H126.089V29.8741Z" fill="white"/>
<path d="M127.053 24.4355V25.3541H129.579L127.053 29.0326V29.8741H130.906V28.9541H128.364L130.906 25.277V24.4355H127.053Z" fill="white"/>
<path fill-rule="evenodd" clip-rule="evenodd" d="M21.254 10.2281C21.254 15.877 16.4958 20.4563 10.6262 20.4563C4.75664 20.4563 0 15.8756 0 10.2281C0 4.58074 4.75818 0 10.6262 0C16.4943 0 21.254 4.57926 21.254 10.2281ZM9.65025 11.923L5.72333 7.08592C5.68792 7.04296 5.62019 7.04 5.58171 7.08C4.08852 8.68148 4.3887 11.3141 4.3887 11.3141C4.64731 11.7941 7.96003 11.9007 9.65025 11.923ZM4.29499 11.5524C4.33964 11.5509 4.3812 11.5598 4.42122 11.5791C4.65213 11.6857 5.76355 12.1435 9.86904 12.1939C10.1101 12.1968 10.3606 12.1987 10.6247 12.1987C15.3551 12.1987 16.5852 11.692 16.8299 11.5779C16.8699 11.5602 16.9115 11.5513 16.9562 11.5513C17.3518 11.5602 18.6125 11.6431 18.6356 12.3779L18.6341 12.3794C18.6587 13.1246 12.4827 13.3276 10.7878 13.329L10.7864 13.3272H10.6295C9.20865 13.3391 2.59092 13.1494 2.61555 12.3791C2.64018 11.6443 3.89938 11.5613 4.29499 11.5524ZM10.6262 11.9287C10.6262 11.9287 16.5157 11.9613 16.8636 11.3139C16.8636 11.3139 17.1638 8.68134 15.6722 7.07986C15.6337 7.03838 15.5659 7.04134 15.5305 7.0843L14.1991 8.7243C14.1837 8.74504 14.1498 8.72578 14.1606 8.70208L15.0626 6.56875C15.0827 6.52282 15.0703 6.46949 15.0334 6.43541C14.7963 6.22504 13.8989 5.49467 12.4734 5.12726C12.4196 5.11245 12.3641 5.14949 12.358 5.20282L11.8408 10.0176C11.8392 10.0325 11.8177 10.031 11.8177 10.0176V4.98356C11.8177 4.98356 11.8177 4.31689 11.1296 4.31689H10.1259C9.4378 4.31689 9.4378 4.98356 9.4378 4.98356V10.0176C9.4378 10.0325 9.41625 10.0325 9.41471 10.0176L8.89749 5.20282C8.89133 5.14949 8.83591 5.11245 8.78203 5.12726C7.35658 5.49467 6.45759 6.22504 6.22207 6.43541C6.18358 6.46949 6.17281 6.52282 6.19282 6.56875L7.09489 8.70208C7.10566 8.72578 7.0718 8.74356 7.05641 8.7243L5.72485 7.0843L9.65178 11.9213C10.2367 11.9287 10.6293 11.9273 10.6293 11.9273L10.6262 11.9287Z" fill="white"/>
</g>
</g>
</g>
</g>
<defs>
<clipPath id="clip0_551_62">
<rect width="131" height="32" fill="white"/>
</clipPath>
</defs>
</svg>
