<svg width="106" height="31" viewBox="0 0 106 31" fill="none" xmlns="http://www.w3.org/2000/svg">
<g clip-path="url(#clip0_551_119)">
<mask id="mask0_551_119" style="mask-type:luminance" maskUnits="userSpaceOnUse" x="0" y="0" width="33" height="30">
<path d="M32.408 0H0V29.803H32.408V0Z" fill="white"/>
</mask>
<g mask="url(#mask0_551_119)">
<path d="M32.158 20.227C31.6027 18.7885 30.9077 17.4079 30.083 16.105C29.9186 15.9043 29.8023 15.6686 29.743 15.416C29.666 15.036 29.795 14.871 29.666 14.662C29.5616 14.5441 29.4284 14.4555 29.2793 14.4048C29.1303 14.3541 28.9706 14.3432 28.816 14.373C28.5789 14.4144 28.3591 14.5242 28.1835 14.6889C28.008 14.8536 27.8844 15.066 27.828 15.3C27.77 15.5945 27.8108 15.9 27.944 16.169C28.4718 17.3441 28.8861 18.567 29.181 19.821C29.3031 20.3401 29.3128 20.8793 29.2093 21.4024C29.1058 21.9256 28.8916 22.4205 28.581 22.854C28.0652 23.3988 27.3651 23.7321 26.617 23.789C26.5756 23.5257 26.5141 23.2659 26.433 23.012C26.416 22.966 26.401 22.92 26.386 22.871C26.2158 22.3444 26.1294 21.7944 26.13 21.241V21.075C26.1439 20.6061 26.2209 20.1413 26.359 19.693C26.3812 19.5564 26.4335 19.4265 26.5122 19.3126C26.5909 19.1988 26.694 19.104 26.814 19.035C26.935 18.97 26.984 18.983 27.077 18.9C27.1432 18.8411 27.1951 18.7679 27.229 18.686C27.2576 18.6151 27.2722 18.5394 27.272 18.463C27.2724 18.3361 27.2313 18.2125 27.155 18.111C27.1233 18.0694 27.0863 18.032 27.045 18C26.9808 17.9619 26.914 17.9285 26.845 17.9C26.6106 17.7996 26.3562 17.7546 26.1016 17.7685C25.8471 17.7824 25.5991 17.8548 25.377 17.98C25.1453 18.1749 24.932 18.3909 24.74 18.625C23.9859 19.5303 23.5739 20.6718 23.576 21.85C23.576 21.9727 23.58 22.093 23.588 22.211L23.572 22.205V22.316C23.573 22.5363 23.5337 22.7549 23.456 22.961C23.3551 23.2321 23.1913 23.4753 22.9781 23.6708C22.7649 23.8662 22.5084 24.0083 22.2296 24.0853C21.9508 24.1623 21.6577 24.1721 21.3744 24.1138C21.0911 24.0555 20.8257 23.9308 20.6 23.75C21.2187 23.7105 21.8067 23.4667 22.272 23.057C22.4842 22.8639 22.6633 22.6372 22.802 22.386C22.6678 22.2326 22.5545 22.0621 22.465 21.879C22.1703 21.1998 22.1559 20.4317 22.425 19.742L22.562 19.354L23.769 17.479L24.097 16.967L24.916 15.685L25.271 14.96C25.9376 13.4768 26.258 11.8614 26.208 10.236C26.024 5.016 21.798 0.076 16.207 0H16.198C10.598 0.076 6.37999 5.016 6.19799 10.239C6.14799 11.8644 6.46841 13.4798 7.13499 14.963L7.48999 15.688L8.30899 16.97L8.63699 17.482L9.82799 19.345L9.96499 19.733C10.2341 20.4227 10.2197 21.1908 9.92499 21.87C9.83549 22.0531 9.72217 22.2236 9.58799 22.377C9.72672 22.6282 9.90577 22.8549 10.118 23.048C10.5832 23.4577 11.1713 23.7015 11.79 23.741C11.5207 23.9557 11.1963 24.0901 10.8541 24.1287C10.5118 24.1673 10.1657 24.1086 9.85533 23.9592C9.54499 23.8098 9.28311 23.5759 9.09978 23.2844C8.91646 22.9928 8.81913 22.6554 8.81899 22.311C8.81899 22.273 8.81899 22.236 8.81899 22.2L8.80299 22.206C8.81099 22.0867 8.81499 21.9663 8.81499 21.845C8.81708 20.6668 8.40508 19.5253 7.65099 18.62C7.45896 18.3859 7.24572 18.1699 7.01399 17.975C6.7919 17.8498 6.54393 17.7774 6.28934 17.7635C6.03474 17.7496 5.78038 17.7946 5.54599 17.895C5.47701 17.9235 5.41017 17.9569 5.34599 17.995C5.305 18.0271 5.26836 18.0644 5.23699 18.106C5.16071 18.2075 5.11963 18.3311 5.11999 18.458C5.11985 18.5344 5.13445 18.6101 5.16299 18.681C5.19686 18.7629 5.24882 18.8361 5.31499 18.895C5.40699 18.978 5.45799 18.964 5.57799 19.03C5.69797 19.099 5.80106 19.1938 5.87977 19.3076C5.95848 19.4215 6.01082 19.5514 6.03299 19.688C6.17107 20.1363 6.2481 20.6011 6.26199 21.07C6.26199 21.125 6.26199 21.18 6.26199 21.236C6.26256 21.7894 6.17617 22.3394 6.00599 22.866C5.99199 22.914 5.97599 22.958 5.95899 23.007C5.87792 23.2609 5.81641 23.5207 5.77499 23.784C5.02956 23.7268 4.33187 23.3951 3.81699 22.853C3.50642 22.4195 3.2922 21.9246 3.18872 21.4014C3.08523 20.8783 3.09487 20.3391 3.21699 19.82C3.51193 18.566 3.92615 17.3431 4.45399 16.168C4.58723 15.899 4.62801 15.5935 4.56999 15.299C4.51316 15.0663 4.38988 14.8551 4.21517 14.6913C4.04045 14.5274 3.82185 14.4178 3.58599 14.376C3.43141 14.3462 3.27173 14.3571 3.12268 14.4078C2.97363 14.4585 2.84035 14.5471 2.73599 14.665C2.60699 14.873 2.73599 15.039 2.65899 15.419C2.60003 15.6717 2.48369 15.9075 2.31899 16.108C1.49657 17.4102 0.803602 18.7898 0.249993 20.227C-0.12247 21.5961 -0.0410676 23.0491 0.481993 24.368C0.648993 24.892 1.91599 28.693 5.27299 29.52C6.05139 29.7065 6.86042 29.7262 7.64699 29.578C7.19741 29.3965 6.78913 29.126 6.44664 28.7828C6.10415 28.4397 5.83451 28.0308 5.65389 27.5809C5.47328 27.1309 5.38542 26.6491 5.39557 26.1644C5.40573 25.6797 5.51369 25.202 5.71299 24.76C5.7374 26.0439 6.22992 27.2747 7.09799 28.221V28.227C7.55148 28.7211 8.09436 29.1248 8.69799 29.417C8.96233 29.5457 9.23695 29.652 9.51899 29.735C9.76202 29.7805 10.0087 29.8032 10.256 29.803C11.2109 29.8043 12.1336 29.4573 12.851 28.827C12.9123 28.7603 12.9763 28.6937 13.043 28.627C13.043 28.627 13.129 28.541 13.218 28.459C13.8896 27.7909 14.7281 27.3151 15.646 27.081C16.0102 27.0206 16.3818 27.0206 16.746 27.081C17.6639 27.3151 18.5024 27.7909 19.174 28.459C19.266 28.541 19.349 28.627 19.349 28.627C19.4157 28.6937 19.4797 28.7603 19.541 28.827C20.2584 29.4573 21.1811 29.8043 22.136 29.803C22.3832 29.8032 22.63 29.7805 22.873 29.735C23.155 29.652 23.4297 29.5457 23.694 29.417C24.2947 29.1242 24.8348 28.7209 25.286 28.228C25.286 28.228 25.286 28.228 25.286 28.222C26.1568 27.2765 26.6519 26.0452 26.678 24.76C26.8773 25.202 26.9852 25.6798 26.9953 26.1646C27.0054 26.6494 26.9174 27.1312 26.7367 27.5811C26.556 28.0311 26.2862 28.4399 25.9436 28.783C25.601 29.1262 25.1927 29.3966 24.743 29.578C25.5308 29.7271 26.3412 29.7077 27.121 29.521C30.478 28.692 31.745 24.894 31.912 24.369C32.4351 23.0501 32.5165 21.5971 32.144 20.228M14.787 18.495C14.69 18.495 14.5969 18.4568 14.5278 18.3887C14.4588 18.3206 14.4193 18.228 14.418 18.131C14.4221 18.0064 14.4011 17.8822 14.3562 17.7659C14.3113 17.6495 14.2435 17.5434 14.1568 17.4538C14.0701 17.3642 13.9662 17.2929 13.8514 17.2442C13.7366 17.1956 13.6132 17.1705 13.4885 17.1705C13.3638 17.1705 13.2404 17.1956 13.1256 17.2442C13.0108 17.2929 12.9069 17.3642 12.8202 17.4538C12.7335 17.5434 12.6657 17.6495 12.6208 17.7659C12.5759 17.8822 12.5549 18.0064 12.559 18.131C12.5447 18.2172 12.5002 18.2955 12.4336 18.352C12.3669 18.4085 12.2824 18.4395 12.195 18.4395C12.1076 18.4395 12.0231 18.4085 11.9564 18.352C11.8898 18.2955 11.8453 18.2172 11.831 18.131C11.8416 17.6982 12.021 17.2867 12.3309 16.9843C12.6408 16.682 13.0566 16.5127 13.4895 16.5127C13.9224 16.5127 14.3382 16.682 14.6481 16.9843C14.958 17.2867 15.1374 17.6982 15.148 18.131C15.1467 18.2271 15.1079 18.319 15.0399 18.387C14.972 18.4549 14.8801 18.4937 14.784 18.495M19.35 17.2C19.2278 17.1999 19.1068 17.2238 18.9939 17.2705C18.8811 17.3172 18.7785 17.3857 18.6921 17.4721C18.6057 17.5585 18.5372 17.6611 18.4905 17.7739C18.4438 17.8868 18.4199 18.0078 18.42 18.13C18.4057 18.2162 18.3612 18.2945 18.2946 18.351C18.2279 18.4075 18.1434 18.4385 18.056 18.4385C17.9686 18.4385 17.8841 18.4075 17.8174 18.351C17.7508 18.2945 17.7063 18.2162 17.692 18.13C17.7026 17.6972 17.882 17.2857 18.1919 16.9833C18.5018 16.681 18.9176 16.5117 19.3505 16.5117C19.7834 16.5117 20.1992 16.681 20.5091 16.9833C20.819 17.2857 20.9984 17.6972 21.009 18.13C20.9947 18.2162 20.9502 18.2945 20.8836 18.351C20.8169 18.4075 20.7324 18.4385 20.645 18.4385C20.5576 18.4385 20.4731 18.4075 20.4064 18.351C20.3398 18.2945 20.2953 18.2162 20.281 18.13C20.2811 18.0077 20.2571 17.8865 20.2103 17.7735C20.1635 17.6605 20.0948 17.5578 20.0082 17.4714C19.9216 17.385 19.8188 17.3165 19.7057 17.2699C19.5925 17.2234 19.4723 17.1996 19.35 17.2Z" fill="white"/>
</g>
<path d="M41.1999 25.281C41.846 25.2882 42.4887 25.1847 43.0999 24.975C43.6576 24.7805 44.1731 24.4815 44.6189 24.094C45.0577 23.71 45.4177 23.2443 45.6789 22.723H45.9129V25.032H49.2699V4.57299H45.9129V12.636H45.6799C45.4329 12.1066 45.0755 11.6361 44.6319 11.256C44.1758 10.8664 43.6521 10.5638 43.0869 10.363C42.4812 10.1479 41.8426 10.0406 41.1999 10.046C40.0548 10.0163 38.9282 10.3384 37.9719 10.969C37.0355 11.6236 36.3086 12.5353 35.8789 13.594C35.3592 14.8809 35.1084 16.2605 35.1419 17.648V17.675C35.1094 19.0587 35.3623 20.4343 35.8849 21.716C36.3186 22.7798 37.0502 23.6958 37.9919 24.354C38.9412 24.9839 40.0609 25.3074 41.1999 25.281ZM42.2489 22.45C41.5483 22.4683 40.8594 22.268 40.2779 21.877C39.7022 21.4643 39.26 20.8921 39.0059 20.231C38.6919 19.417 38.541 18.5492 38.5619 17.677V17.65C38.5402 16.7771 38.6911 15.9085 39.0059 15.094C39.2616 14.434 39.7044 13.863 40.2799 13.451C40.8603 13.0588 41.5486 12.8575 42.2489 12.875C42.9513 12.8574 43.6417 13.0595 44.2239 13.453C44.8009 13.8665 45.2463 14.4377 45.5069 15.098C45.8262 15.9107 45.9795 16.7791 45.9579 17.652V17.679C45.9798 18.5491 45.8286 19.4149 45.5129 20.226C45.2539 20.8886 44.8074 21.4613 44.2279 21.874C43.6439 22.2666 42.9523 22.4678 42.2489 22.45ZM58.3689 25.332C59.695 25.3685 61.0069 25.0502 62.1689 24.41C63.2291 23.7944 64.0804 22.8752 64.6129 21.771C65.2128 20.4894 65.5055 19.0855 65.4679 17.671V17.644C65.5054 16.2311 65.2105 14.8291 64.6069 13.551C64.0705 12.4486 63.2179 11.5309 62.1579 10.915C60.9993 10.2754 59.6908 9.95707 58.3679 9.99299C57.0474 9.95833 55.7416 10.2773 54.5859 10.917C53.5235 11.5335 52.6686 12.4521 52.1299 13.556C51.5248 14.8323 51.2289 16.2331 51.2659 17.645V17.672C51.2283 19.0868 51.5217 20.4907 52.1229 21.772C52.6572 22.8769 53.5107 23.7961 54.5729 24.411C55.7335 25.0501 57.0445 25.368 58.3689 25.332ZM58.3689 22.612C57.6616 22.6334 56.9661 22.4281 56.3839 22.026C55.8105 21.5977 55.3761 21.0098 55.1349 20.336C54.8277 19.4837 54.6816 18.5817 54.7039 17.676V17.649C54.6814 16.7437 54.8282 15.8423 55.1369 14.991C55.3801 14.318 55.815 13.7308 56.3879 13.302C56.968 12.8992 57.662 12.6931 58.3679 12.714C59.0745 12.6926 59.7692 12.8988 60.3499 13.302C60.9222 13.7322 61.3564 14.3203 61.5989 14.994C61.9076 15.8453 62.0545 16.7467 62.0319 17.652V17.679C62.0539 18.583 61.9078 19.4833 61.6009 20.334C61.3594 21.0069 60.9263 21.5944 60.3549 22.024C59.7729 22.4282 59.0772 22.6344 58.3689 22.612ZM73.8629 25.332C75.1891 25.3685 76.5009 25.0502 77.6629 24.41C78.7253 23.7954 79.5788 22.8761 80.1129 21.771C80.7128 20.4894 81.0055 19.0855 80.9679 17.671V17.644C81.0054 16.2311 80.7105 14.8291 80.1069 13.551C79.5705 12.4486 78.7179 11.5309 77.6579 10.915C76.4993 10.2754 75.1908 9.95707 73.8679 9.99299C72.5474 9.95833 71.2416 10.2773 70.0859 10.917C69.0235 11.5335 68.1686 12.4521 67.6299 13.556C67.0248 14.8323 66.7289 16.2331 66.7659 17.645V17.672C66.7283 19.0868 67.0217 20.4907 67.6229 21.772C68.1572 22.8769 69.0107 23.7961 70.0729 24.411C71.232 25.0492 72.5402 25.3671 73.8629 25.332ZM73.8629 22.612C73.1556 22.6334 72.4601 22.4281 71.8779 22.026C71.3045 21.5977 70.8701 21.0098 70.6289 20.336C70.3217 19.4837 70.1756 18.5817 70.1979 17.676V17.649C70.1754 16.7437 70.3222 15.8423 70.6309 14.991C70.8741 14.318 71.309 13.7308 71.8819 13.302C72.462 12.8992 73.156 12.6931 73.8619 12.714C74.5685 12.6926 75.2632 12.8988 75.8439 13.302C76.4166 13.7321 76.8511 14.3202 77.0939 14.994C77.4026 15.8453 77.5495 16.7467 77.5269 17.652V17.679C77.5489 18.583 77.4028 19.4833 77.0959 20.334C76.8544 21.0069 76.4213 21.5944 75.8499 22.024C75.2679 22.4282 74.5712 22.6344 73.8629 22.612ZM84.0679 25.037H87.4249V12.883H90.5779V10.294H87.3779V9.01999C87.3359 8.43951 87.5144 7.86455 87.8779 7.40999C88.1051 7.2066 88.3722 7.05267 88.6621 6.95799C88.952 6.86331 89.2584 6.82994 89.5619 6.85999C89.7999 6.85999 90.0179 6.86599 90.2159 6.87799C90.3805 6.88619 90.5444 6.90422 90.7069 6.93199V4.58199C90.4402 4.53732 90.1542 4.50199 89.8489 4.47599C89.5436 4.44999 89.2102 4.43732 88.8489 4.43799C87.9249 4.40657 87.0047 4.57118 86.1489 4.92099C85.474 5.21214 84.9194 5.7261 84.5779 6.37699C84.2135 7.14006 84.0388 7.9799 84.0689 8.82499V10.295H81.6609V12.888H84.0679V25.037ZM93.9579 30.224C94.9079 30.2477 95.854 30.0958 96.7489 29.776C97.5348 29.4646 98.2186 28.9407 98.7239 28.263C99.3617 27.3768 99.8555 26.3953 100.187 25.355L105.476 10.294H101.938L98.0509 23.345L98.9399 21.814H97.7909L98.7049 23.345L94.8129 10.294H91.1529L96.4279 25.046L96.2429 25.722C96.1221 26.2981 95.8038 26.8139 95.3429 27.18C94.8506 27.5017 94.2693 27.6595 93.6819 27.631C93.5086 27.631 93.3329 27.628 93.1549 27.622C92.9769 27.616 92.8172 27.6037 92.6759 27.585V30.169C92.8832 30.1877 93.0986 30.2013 93.3219 30.21C93.5452 30.2187 93.7575 30.2237 93.9589 30.225L93.9579 30.224Z" fill="white"/>
</g>
<defs>
<clipPath id="clip0_551_119">
<rect width="105.476" height="30.225" fill="white"/>
</clipPath>
</defs>
</svg>
