<svg width="85" height="48" viewBox="0 0 85 48" fill="none" xmlns="http://www.w3.org/2000/svg">
<g clip-path="url(#clip0_551_5)">
<mask id="mask0_551_5" style="mask-type:luminance" maskUnits="userSpaceOnUse" x="0" y="0" width="85" height="48">
<path d="M85 0H0V48H85V0Z" fill="white"/>
</mask>
<g mask="url(#mask0_551_5)">
<path d="M24.9517 17.1846C28.6608 17.1846 31.6756 20.1775 31.6756 23.8641C31.6756 27.5508 28.6608 30.5437 24.9517 30.5437C21.2427 30.5437 18.208 27.5508 18.208 23.8641C18.208 20.1775 21.2229 17.1846 24.9517 17.1846ZM24.9517 27.9075C27.074 27.9075 28.8393 26.2228 28.8393 23.8641C28.8393 21.5055 27.074 19.8207 24.9517 19.8207C22.8294 19.8207 21.0443 21.5055 21.0443 23.8641C21.0443 26.2228 22.8096 27.9075 24.9517 27.9075Z" fill="white"/>
<path d="M36.7734 22.4566V30.3452H33.8975V17.4023H36.0991L41.7916 25.2117V17.4023H44.6676V30.3452H42.4858L36.7734 22.4566Z" fill="white"/>
<path d="M16.7006 34.7656V37.1639H11.7816V47.7085H8.94529V37.1639H4.02637V34.7656H16.7006Z" fill="white"/>
<path d="M24.9517 34.5474C28.6608 34.5474 31.6756 37.5403 31.6756 41.2269C31.6756 44.9136 28.6608 47.9065 24.9517 47.9065C21.2427 47.9065 18.208 44.9136 18.208 41.2269C18.208 37.5403 21.2229 34.5474 24.9517 34.5474ZM24.9517 45.2902C27.074 45.2902 28.8393 43.6054 28.8393 41.2467C28.8393 38.8881 27.074 37.2033 24.9517 37.2033C22.8294 37.2033 21.0443 38.8881 21.0443 41.2467C21.0443 43.6054 22.8096 45.2902 24.9517 45.2902Z" fill="white"/>
<path d="M44.6279 34.7656V42.8128C44.6279 46.1427 42.1684 47.9265 39.2527 47.9265C36.3371 47.9265 33.8975 46.1427 33.8975 42.8128V34.7656H36.7734V42.8128C36.7734 44.6165 37.9238 45.5084 39.2527 45.5084C40.5817 45.5084 41.7519 44.5967 41.7519 42.8128V34.7656H44.6279Z" fill="white"/>
<path d="M54.5443 42.8919C54.8815 44.2595 55.3972 45.3695 56.6864 45.3695C57.1228 45.3695 57.6583 45.1514 57.9955 44.8145L59.0071 46.7966C58.1542 47.4705 57.46 47.9065 56.1112 47.9065C53.0369 47.9065 52.0848 44.4577 51.946 43.0901H50.2204V47.6885H47.3643V34.7456H53.1162C55.774 34.7456 57.2418 36.7277 57.2418 39.007C57.2418 40.8305 56.2104 42.3567 54.5046 42.8919H54.5443ZM52.7989 40.8107C53.8104 40.8107 54.4253 40.0774 54.4253 39.007C54.4253 37.9367 53.8104 37.1835 52.7989 37.1835H50.2601V40.8305H52.7989V40.8107Z" fill="white"/>
<path d="M62.002 43.6053C62.3392 44.7549 63.1524 45.3892 64.3623 45.3892C65.3738 45.3892 66.3061 45.0126 66.3061 44.0612C66.3061 43.5657 66.0284 43.09 64.7986 42.6737L63.3904 42.198C60.5144 41.2268 60.0979 39.4232 60.0979 38.3528C60.0979 36.014 61.9227 34.5869 64.4615 34.5869C66.4647 34.5869 68.0118 35.5581 68.7854 37.4213L66.4449 38.5907C65.8895 37.2825 64.9772 37.124 64.4416 37.124C63.5491 37.124 62.8747 37.4807 62.8747 38.333C62.8747 38.67 62.9739 39.2844 64.2631 39.7205L65.6317 40.1962C68.5473 41.1079 69.0631 42.8323 69.0829 44.0215C69.0829 46.737 66.7226 47.946 64.4416 47.946C61.9623 47.946 59.7012 46.5388 59.4434 44.1405L62.002 43.645V43.6053Z" fill="white"/>
<path d="M6.68458 8.82019H3.80859V0H6.68458V8.82019Z" fill="white"/>
<path d="M34.4917 7.92826L36.9115 0H39.8272L35.7611 12.9429H33.4802L31.0405 5.09391L28.6009 12.9429H26.32L22.2539 0H25.1696L27.5894 7.92826L29.9695 0.416234H32.0918L34.4521 7.92826H34.4917Z" fill="white"/>
<path d="M44.6865 12.9429H41.8105V0H44.6865V12.9429Z" fill="white"/>
<path d="M52.2835 30.3257H47.4241V17.3828H52.2835C56.5281 17.3828 59.166 20.2964 59.166 23.8642C59.166 27.4319 56.5281 30.3455 52.2835 30.3455V30.3257ZM52.2835 19.6622H50.3001V28.0661H52.2835C54.743 28.0661 56.2901 26.1832 56.2901 23.8642C56.2901 21.5452 54.7628 19.6622 52.2835 19.6622Z" fill="white"/>
<path d="M61.447 30.3257V17.3828H70.0552V19.6622H64.323V22.8533H69.3015V25.1327H64.323V28.0661H70.0552V30.3455H61.447V30.3257Z" fill="white"/>
<path d="M79.5951 25.5091C79.9323 26.8767 80.448 27.9867 81.7372 27.9867C82.1736 27.9867 82.7091 27.7686 83.0463 27.4317L84.0579 29.4137C83.205 30.0877 82.5108 30.5237 81.162 30.5237C78.0877 30.5237 77.1356 27.0749 76.9968 25.7073H75.2712V30.3057H72.415V17.3628H78.167C80.8249 17.3628 82.2926 19.3449 82.2926 21.6242C82.2926 23.4477 81.2612 24.9739 79.5554 25.5091H79.5951ZM77.8299 23.4279C78.8414 23.4279 79.4563 22.6945 79.4563 21.6242C79.4563 20.5539 78.8414 19.8007 77.8299 19.8007H75.291V23.4477H77.8299V23.4279Z" fill="white"/>
<path d="M14.6375 17.9181C16.0068 17.9181 17.1168 16.8088 17.1168 15.4405C17.1168 14.0721 16.0068 12.9629 14.6375 12.9629C13.2682 12.9629 12.1582 14.0721 12.1582 15.4405C12.1582 16.8088 13.2682 17.9181 14.6375 17.9181Z" fill="white"/>
<path d="M14.6382 17.9181C12.1391 17.9181 10.6515 16.0153 9.81841 14.4098L6.68457 8.82039L7.00193 8.24559L12.3175 0.0200195H15.7886L10.0961 8.84021L12.4564 12.9827C13.587 14.9648 14.1225 15.381 15.4514 15.381C15.7687 15.381 16.1456 15.2819 16.5621 15.0837V16.5504C15.6497 17.046 15.8282 17.9379 14.658 17.9379L14.6382 17.9181Z" fill="white"/>
<path d="M20.3103 12.9429H17.4343V0H20.3103V12.9429Z" fill="white"/>
<path d="M13.6659 20.4947L12.1982 25.3111L9.83786 17.799H7.71559L5.33546 25.3111L2.91566 17.3828H0L4.06606 30.3257H6.34701L8.78663 22.4767L11.2263 30.3257H13.5072L16.7403 20.0388C16.7403 20.0388 16.7006 19.9397 16.6609 19.9595C15.3915 20.3956 14.0229 20.4352 13.7651 20.4352C13.7453 20.4352 13.7056 20.4352 13.7056 20.4748L13.6659 20.4947Z" fill="white"/>
</g>
</g>
<defs>
<clipPath id="clip0_551_5">
<rect width="85" height="48" fill="white"/>
</clipPath>
</defs>
</svg>
