<svg width="93" height="28" viewBox="0 0 93 28" fill="none" xmlns="http://www.w3.org/2000/svg">
<g clip-path="url(#clip0_551_56)">
<mask id="mask0_551_56" style="mask-type:luminance" maskUnits="userSpaceOnUse" x="0" y="0" width="93" height="28">
<path d="M93 0H0V28H93V0Z" fill="white"/>
</mask>
<g mask="url(#mask0_551_56)">
<path d="M58.3484 -0.0185547L58.4337 23.0503L60.6837 23.0411L60.7022 27.82H50.199L50.1806 23.0803L52.668 23.0711L52.6519 18.449C52.6358 14.0253 52.6012 4.78112 52.6012 4.78112L50.1137 4.79034L50.0953 0.0114288L58.3461 -0.0185547M44.8737 7.26052L49.8878 7.24207L49.8993 10.4411C49.9016 11.2714 49.2331 11.9841 48.3663 11.9864L43.5504 12.0048L43.5919 23.1057L46.0794 23.0964L46.0978 27.8753L35.2788 27.9146L35.2604 23.1749L37.7478 23.1656L37.7386 20.4002C37.7294 17.7132 37.7086 12.0256 37.7086 12.0256L35.2212 12.0348L35.2027 7.29512L42.1902 7.26975L42.1948 8.77123L42.9418 8.01703C43.4536 7.46118 44.0437 7.26283 44.8737 7.25822M10.4179 12.1248L8.00886 12.134L13.1613 27.9953L7.0798 28.0183L1.92735 12.1548L0.0323588 12.1617L0.013916 7.42197L10.4364 7.38276L10.4133 12.1225M22.9775 12.081L22.959 7.34125L33.3423 7.30204L33.3608 12.0417C33.3608 12.0417 31.505 12.0487 31.4658 12.0487C31.4266 12.0879 26.4701 27.9468 26.4701 27.9468L25.405 27.9515C25.405 27.9515 23.9227 22.19 23.3602 19.7429C23.2403 19.3485 23.2772 18.8734 23.3947 18.4398C23.8627 16.8968 25.3843 12.0717 25.3843 12.0717L22.9752 12.081M59.2567 20.873C59.2567 20.8338 59.2406 16.7261 59.1968 15.0263C59.1968 14.5119 59.3904 14.0783 59.7455 13.7208C60.4532 13.0081 61.4768 11.938 61.4768 11.938L60.0152 11.9426L59.9967 7.20286L70.8157 7.16365L70.8342 11.9034H69.9651C69.1351 11.9103 68.6625 12.1086 68.0724 12.7037C59.4596 21.7034 59.2613 21.9017 59.2613 21.9017L59.2567 20.8754M19.5241 7.35278L14.7428 27.9907H13.8737C13.8737 27.9907 11.6767 20.9699 11.2363 19.5492C11.1165 19.194 11.1142 18.7996 11.1925 18.4444C11.6213 16.7445 13.136 10.418 13.5647 8.71818C13.7584 7.88787 14.3094 7.37123 15.2961 7.36893L19.5218 7.35278M69.9581 22.9996L71.9315 22.9926L71.95 27.7716L61.5275 27.8108L61.509 23.0319L62.7724 23.0272C62.4542 22.5152 62.1361 22.0424 61.8203 21.6088C61.4629 21.0968 61.4998 20.6609 61.9332 20.2249C62.6802 19.4707 65.3936 16.5785 65.3936 16.5785C65.3936 16.5785 68.6879 21.505 69.4832 22.7643C69.6423 22.9996 69.7207 23.0411 69.9581 22.9996ZM17.4377 19.2124C17.9057 17.3534 19.8468 8.81505 19.8468 8.81505L24.695 27.9561L18.8901 27.9768C18.8901 27.9768 17.8066 23.4378 17.4469 22.1762C17.168 21.189 17.1634 20.2411 17.4354 19.2147M83.0341 23.1956C83.1539 23.3132 83.2323 23.5116 83.2346 23.7468C83.1977 24.5772 83.2485 27.737 83.2485 27.737H82.6168C82.1419 27.7416 81.8653 27.5847 81.5886 27.3472C81.2705 27.0312 80.7172 26.5607 80.3991 26.2055C80.3991 26.2055 80.1639 26.4431 79.4147 27.1973C79.0205 27.594 78.6654 27.7139 77.9162 27.7162C77.3629 27.7162 74.1654 27.7693 74.1654 27.7693L74.1377 20.5409L79.9011 20.5202L79.9103 22.9696C79.9103 22.9696 81.8445 23.0019 82.3586 22.9996C82.5154 22.9604 82.792 22.9581 83.0295 23.1956M84.1752 11.6174C84.0553 11.4997 83.977 11.3014 83.9747 11.0661C83.9723 10.2358 83.9608 7.11522 83.9608 7.11522H84.4749C84.9498 7.1106 85.2265 7.22823 85.5031 7.46579C85.8604 7.77947 86.3745 8.29149 86.7318 8.60748C86.7318 8.60748 86.9278 8.40912 87.7162 7.61571C88.1104 7.21901 88.424 7.09907 89.1755 7.09677C89.7288 7.09677 92.9655 7.08293 92.9655 7.08293L92.9932 14.2721L87.1883 14.2928L87.1791 11.8434C87.1791 11.8434 85.3233 11.8503 84.8092 11.8526C84.6501 11.8526 84.3758 11.8526 84.1775 11.6174M87.2067 19.6645L78.7185 19.6968C78.3242 19.6968 77.9669 19.5814 77.6903 19.3047C76.699 18.3613 75.7492 17.4157 74.5204 16.1956C74.283 15.9604 74.1239 15.566 74.1216 15.1693L74.1101 11.8895C74.1078 11.2576 74.2645 10.9024 74.4605 10.6648C75.6016 9.51621 76.7036 8.40451 77.6465 7.45426C77.8816 7.25591 78.2366 7.13598 78.6724 7.13367L83.1724 7.11752L83.1908 11.8572L79.9126 11.8688L79.9242 15.1485L88.4124 15.1162C88.7675 15.1162 89.1248 15.2707 89.4014 15.5475C90.3927 16.4908 91.3425 17.3973 92.5713 18.6174C92.8087 18.8941 93.007 19.247 93.0093 19.6437L93.0208 22.9235C93.0208 23.5554 92.8664 23.9521 92.6312 24.1505C91.5293 25.2991 90.3881 26.4108 89.4452 27.361C89.2493 27.5594 88.8943 27.7185 88.4585 27.7208L84.0369 27.737L84.0185 22.9581L87.216 22.9465L87.2044 19.6668L87.2067 19.6645Z" fill="white"/>
</g>
</g>
<defs>
<clipPath id="clip0_551_56">
<rect width="93" height="28" fill="white"/>
</clipPath>
</defs>
</svg>
