<svg width="103" height="26" viewBox="0 0 103 26" fill="none" xmlns="http://www.w3.org/2000/svg">
<g clip-path="url(#clip0_382_15)">
<mask id="mask0_382_15" style="mask-type:luminance" maskUnits="userSpaceOnUse" x="0" y="0" width="103" height="26">
<path d="M103 0H0V26H103V0Z" fill="white"/>
</mask>
<g mask="url(#mask0_382_15)">
<mask id="mask1_382_15" style="mask-type:luminance" maskUnits="userSpaceOnUse" x="0" y="0" width="103" height="26">
<path d="M102.926 0H0V25.9314H102.926V0Z" fill="white"/>
</mask>
<g mask="url(#mask1_382_15)">
<path d="M2.11561 4.10069C2.85835 2.80934 3.89523 1.80305 5.22475 1.08183C6.55426 0.36061 8.06204 0 9.74808 0C11.8129 0 13.5807 0.523098 15.0513 1.5693C16.5219 2.61549 17.5053 4.04225 18 5.84958H13.3415C12.9939 5.15259 12.5022 4.62094 11.8664 4.25605C11.2306 3.89117 10.5072 3.70872 9.69757 3.70872C8.39182 3.70872 7.33563 4.14488 6.52604 5.01718C5.71644 5.88949 5.31239 7.05399 5.31239 8.51211C5.31239 9.97023 5.71644 11.1362 6.52604 12.0085C7.33563 12.8793 8.39182 13.3155 9.69757 13.3155C10.5072 13.3155 11.2306 13.1345 11.8664 12.7682C12.5022 12.4033 12.9939 11.8731 13.3415 11.1746H18C17.5038 12.982 16.5204 14.4045 15.0513 15.4421C13.5807 16.4812 11.8129 17 9.74808 17C8.06353 17 6.55426 16.6394 5.22475 15.9182C3.89523 15.1969 2.85835 14.1949 2.11561 12.9107C1.37286 11.6279 1 10.1612 1 8.51211C1 6.86299 1.37137 5.3949 2.11561 4.10212" fill="#B8BFC7"/>
<path d="M35 0V17H30.7804V10.0003H24.2181V17H20V0H24.2181V6.65861H30.7804V0H35Z" fill="#B8BFC7"/>
<path d="M48.1925 10.801L45.9748 4.57737L43.7815 10.801H48.1925ZM49.3143 13.9978H42.6352L41.5638 17H37L43.4758 0H48.5242L55 17H50.3857L49.3143 13.9978Z" fill="#B8BFC7"/>
<path d="M59.3368 17.3726C58.3397 16.9554 57.5426 16.3385 56.9456 15.5206C56.3485 14.7026 56.0338 13.718 56 12.5668H60.4647C60.5309 13.2182 60.7515 13.715 61.1265 14.0572C61.5015 14.3994 61.9926 14.5705 62.5985 14.5705C63.2044 14.5705 63.7103 14.4249 64.0706 14.1322C64.4309 13.8396 64.6103 13.4359 64.6103 12.918C64.6103 12.4843 64.4676 12.1256 64.1809 11.8419C63.8941 11.5583 63.5426 11.3241 63.1265 11.141C62.7088 10.9579 62.1162 10.7493 61.3485 10.5151C60.2353 10.1639 59.3279 9.81423 58.625 9.46453C57.9221 9.11333 57.3162 8.59702 56.8103 7.91262C56.3029 7.22822 56.05 6.3352 56.05 5.23356C56.05 3.5976 56.6309 2.31736 57.7912 1.38981C58.9515 0.463774 60.4647 0 62.3294 0C64.1941 0 65.7544 0.463774 66.9162 1.38981C68.0779 2.31586 68.6985 3.60511 68.7809 5.25757H64.2426C64.2088 4.69024 64.0044 4.24298 63.6294 3.91729C63.2529 3.5916 62.7721 3.42951 62.1823 3.42951C61.675 3.42951 61.2662 3.56759 60.9544 3.84225C60.6441 4.11841 60.4882 4.51314 60.4882 5.03094C60.4882 5.59827 60.75 6.04103 61.2735 6.35922C61.7971 6.6759 62.6132 7.0181 63.7265 7.38432C64.8382 7.76854 65.7412 8.13475 66.4368 8.48596C67.1309 8.83716 67.7323 9.34596 68.2397 10.0139C68.7471 10.6817 69 11.5417 69 12.5924C69 13.643 68.75 14.503 68.2515 15.3209C67.7529 16.1389 67.0279 16.7903 66.0794 17.2736C65.1309 17.7584 64.0118 18 62.7191 18C61.4265 18 60.3309 17.7914 59.3338 17.3741" fill="#B8BFC7"/>
<path d="M87 17H82.915L76.0851 6.51546V17H72V0H76.0851L82.915 10.5339V0H87V17Z" fill="#B8BFC7"/>
<path d="M90 0V3.38984H97.2574L90 13.8526V17H102V13.6102H94.6933L102 3.1474V0H90Z" fill="#B8BFC7"/>
<path d="M0.296533 20.8889C0.493819 20.5446 0.762515 20.2774 1.10504 20.0848C1.44636 19.8922 1.83004 19.7959 2.25486 19.7959C2.7511 19.7959 3.18683 19.9223 3.55961 20.1763C3.93361 20.4302 4.19383 20.7805 4.3427 21.2271H3.31875C3.21709 21.0153 3.07306 20.8576 2.88908 20.7516C2.70511 20.6469 2.49088 20.594 2.25002 20.594C1.99101 20.594 1.76105 20.6541 1.55892 20.7745C1.35679 20.8937 1.19945 21.0646 1.08689 21.2837C0.974324 21.5028 0.918649 21.7603 0.918649 22.0565C0.918649 22.3526 0.974324 22.6029 1.08689 22.8256C1.19945 23.0471 1.35679 23.218 1.55892 23.3384C1.75984 23.4576 1.9898 23.519 2.25002 23.519C2.49209 23.519 2.70511 23.466 2.88908 23.3577C3.07306 23.2505 3.21709 23.0916 3.31875 22.881H4.3427C4.19383 23.3324 3.93361 23.6827 3.56324 23.9354C3.19167 24.1858 2.75595 24.3122 2.25486 24.3122C1.83004 24.3122 1.44757 24.2159 1.10504 24.0233C0.763725 23.8307 0.493819 23.5647 0.296533 23.2228C0.099248 22.881 0 22.4922 0 22.0577C0 21.6231 0.099248 21.2331 0.296533 20.8889Z" fill="#B8BFC7"/>
<path d="M7.12655 23.4395C7.26937 23.3612 7.38193 23.2445 7.46787 23.088C7.55259 22.9327 7.59495 22.7425 7.59495 22.5186C7.59495 22.1852 7.5066 21.9288 7.32989 21.7495C7.15318 21.5701 6.93774 21.4798 6.68357 21.4798C6.42939 21.4798 6.21516 21.5701 6.04451 21.7495C5.87264 21.9288 5.7867 22.1852 5.7867 22.5186C5.7867 22.8521 5.87143 23.1085 6.03845 23.2878C6.20669 23.4684 6.41729 23.5574 6.67146 23.5574C6.83365 23.5574 6.98373 23.5189 7.12655 23.4407M5.75523 24.1051C5.48412 23.9559 5.26989 23.7428 5.11617 23.4696C4.96125 23.1951 4.88379 22.8785 4.88379 22.5198C4.88379 22.1611 4.96367 21.8446 5.12223 21.5701C5.28078 21.2957 5.49864 21.0838 5.7746 20.9346C6.05056 20.7853 6.35798 20.7095 6.69688 20.7095C7.03577 20.7095 7.34441 20.7841 7.62037 20.9346C7.89633 21.085 8.11298 21.2969 8.27274 21.5701C8.4313 21.8446 8.51118 22.1611 8.51118 22.5198C8.51118 22.8785 8.42888 23.1951 8.26548 23.4696C8.10208 23.744 7.8818 23.9559 7.60342 24.1051C7.32505 24.2544 7.01399 24.3302 6.67025 24.3302C6.32652 24.3302 6.02514 24.2556 5.75402 24.1051" fill="#B8BFC7"/>
<path d="M12.1398 21.1101C12.3988 21.3738 12.5283 21.7421 12.5283 22.2151V24.2735H11.6375V22.3367C11.6375 22.0575 11.5673 21.8444 11.4269 21.6939C11.2865 21.5447 11.0953 21.4688 10.8545 21.4688C10.6136 21.4688 10.4139 21.5435 10.2711 21.6939C10.1295 21.8444 10.058 22.0587 10.058 22.3367V24.2735H9.16724V20.7659H10.058V21.2028C10.1767 21.0512 10.3292 20.932 10.5131 20.8453C10.6971 20.7587 10.9004 20.7153 11.1207 20.7153C11.5407 20.7153 11.8796 20.8477 12.1386 21.1113" fill="#B8BFC7"/>
<path d="M13.9468 24.1749C13.7181 24.0714 13.5365 23.9306 13.4022 23.7536C13.269 23.5767 13.1952 23.3805 13.1831 23.165H14.08C14.0969 23.301 14.1635 23.4118 14.2809 23.5009C14.3983 23.5899 14.5435 23.6345 14.7178 23.6345C14.8921 23.6345 15.0204 23.6008 15.1148 23.5334C15.2104 23.4647 15.2588 23.3793 15.2588 23.2734C15.2588 23.159 15.1995 23.0735 15.0833 23.017C14.9659 22.9604 14.7808 22.8978 14.5266 22.8304C14.2639 22.7678 14.0485 22.7016 13.8803 22.6342C13.712 22.5668 13.568 22.4633 13.447 22.3236C13.3271 22.184 13.2654 21.9962 13.2654 21.7603C13.2654 21.5665 13.3211 21.3884 13.4336 21.2283C13.5462 21.0682 13.7072 20.9418 13.9166 20.8491C14.1272 20.7564 14.3741 20.7095 14.6585 20.7095C15.0797 20.7095 15.4138 20.8142 15.6643 21.0236C15.9148 21.2331 16.0528 21.5135 16.0782 21.8686H15.225C15.2128 21.7302 15.1535 21.6183 15.0507 21.5364C14.9466 21.4546 14.8074 21.4136 14.6343 21.4136C14.4721 21.4136 14.3487 21.4425 14.2615 21.5015C14.1744 21.5605 14.1308 21.6435 14.1308 21.7483C14.1308 21.8662 14.1901 21.9553 14.3087 22.0167C14.4273 22.0793 14.6113 22.1407 14.8618 22.2033C15.1172 22.2671 15.3266 22.3321 15.4924 22.3995C15.6583 22.4669 15.8023 22.5716 15.9233 22.7124C16.0431 22.8545 16.1061 23.041 16.1109 23.2734C16.1109 23.4756 16.0552 23.6573 15.9427 23.8174C15.8301 23.9775 15.6691 24.1027 15.4598 24.1942C15.2492 24.2845 15.0047 24.3302 14.7239 24.3302C14.4431 24.3302 14.1768 24.2772 13.9468 24.1749Z" fill="#B8BFC7"/>
<path d="M17.8815 21.4931V23.1903C17.8815 23.3083 17.9106 23.3937 17.9675 23.4467C18.0244 23.4997 18.1212 23.5261 18.2568 23.5261H18.6707V24.2724H18.1115C17.3599 24.2724 16.9847 23.9101 16.9847 23.1831V21.4931H16.5647V20.7648H16.9847V19.897H17.8828V20.7648H18.6719V21.4931H17.8828H17.8815Z" fill="#B8BFC7"/>
<path d="M20.6533 20.873C20.8373 20.7671 21.0491 20.7153 21.2863 20.7153V21.6458H21.0503C20.7695 21.6458 20.5589 21.7108 20.4173 21.842C20.2745 21.9732 20.2043 22.2007 20.2043 22.5257V24.2735H19.3135V20.7659H20.2043V21.31C20.3193 21.1234 20.4694 20.9789 20.6533 20.873Z" fill="#B8BFC7"/>
<path d="M25.2151 20.7651V24.2727H24.317V23.8298C24.2033 23.9814 24.0532 24.1006 23.8692 24.1873C23.6852 24.2739 23.4831 24.3161 23.2677 24.3161C22.9917 24.3161 22.7472 24.2583 22.5354 24.1427C22.3224 24.026 22.1566 23.8562 22.0356 23.63C21.9145 23.4049 21.854 23.1352 21.854 22.8235V20.7651H22.7448V22.6959C22.7448 22.9739 22.815 23.1882 22.9554 23.3387C23.0946 23.4879 23.287 23.5637 23.5279 23.5637C23.7688 23.5637 23.9673 23.4891 24.1064 23.3387C24.2468 23.1894 24.317 22.9739 24.317 22.6959V20.7651H25.2151Z" fill="#B8BFC7"/>
<path d="M26.0862 21.5667C26.2351 21.2947 26.4409 21.0841 26.7035 20.9336C26.9662 20.7831 27.2675 20.7085 27.6076 20.7085C28.0446 20.7085 28.4065 20.818 28.6933 21.0347C28.9802 21.2526 29.1714 21.5571 29.2694 21.9495H28.3096C28.2588 21.7978 28.1729 21.6787 28.0518 21.592C27.9308 21.5053 27.7807 21.462 27.6028 21.462C27.3486 21.462 27.1465 21.5547 26.9988 21.7377C26.85 21.9206 26.7761 22.1818 26.7761 22.5189C26.7761 22.8559 26.85 23.1111 26.9988 23.2953C27.1477 23.4782 27.3498 23.5709 27.6028 23.5709C27.9635 23.5709 28.1995 23.4108 28.3096 23.0894H29.2694C29.1714 23.4698 28.979 23.7719 28.6909 23.9946C28.4028 24.2197 28.0421 24.3304 27.6088 24.3304C27.2687 24.3304 26.9674 24.2558 26.7047 24.1053C26.4409 23.9561 26.2351 23.7442 26.0874 23.4722C25.9386 23.2002 25.8647 22.8824 25.8647 22.5189C25.8647 22.1553 25.9398 21.8388 26.0874 21.5667" fill="#B8BFC7"/>
<path d="M30.9628 21.4931V23.1903C30.9628 23.3083 30.9919 23.3937 31.0488 23.4467C31.1057 23.4997 31.2025 23.5261 31.3381 23.5261H31.752V24.2724H31.1928C30.4412 24.2724 30.066 23.9101 30.066 23.1831V21.4931H29.646V20.7648H30.066V19.897H30.9641V20.7648H31.7532V21.4931H30.9641H30.9628Z" fill="#B8BFC7"/>
<path d="M33.2867 24.2724H32.3959V20.7648H33.2867V24.2724ZM32.4552 20.1991C32.3511 20.1004 32.3003 19.9764 32.3003 19.8284C32.3003 19.6803 32.3523 19.5575 32.4552 19.4576C32.5593 19.3589 32.69 19.3096 32.8474 19.3096C33.0047 19.3096 33.1342 19.3589 33.2383 19.4576C33.3424 19.5575 33.3944 19.6803 33.3944 19.8284C33.3944 19.9764 33.3424 20.1004 33.2383 20.1991C33.1342 20.2978 33.0035 20.3472 32.8474 20.3472C32.6912 20.3472 32.5593 20.2978 32.4552 20.1991Z" fill="#B8BFC7"/>
<path d="M36.1854 23.4395C36.3282 23.3612 36.4408 23.2445 36.5267 23.088C36.6114 22.9327 36.6538 22.7425 36.6538 22.5186C36.6538 22.1852 36.5654 21.9288 36.3887 21.7495C36.212 21.5701 35.9966 21.4798 35.7424 21.4798C35.4882 21.4798 35.274 21.5701 35.1033 21.7495C34.9315 21.9288 34.8455 22.1852 34.8455 22.5186C34.8455 22.8521 34.9291 23.1085 35.0973 23.2878C35.2655 23.4684 35.4761 23.5574 35.7303 23.5574C35.8925 23.5574 36.0426 23.5189 36.1854 23.4407M34.8141 24.1051C34.543 23.9559 34.3287 23.7428 34.175 23.4696C34.0201 23.1951 33.9426 22.8785 33.9426 22.5198C33.9426 22.1611 34.0225 21.8446 34.1811 21.5701C34.3396 21.2957 34.5575 21.0838 34.8334 20.9346C35.1094 20.7853 35.4168 20.7095 35.7557 20.7095C36.0946 20.7095 36.4033 20.7841 36.6792 20.9346C36.9552 21.085 37.1718 21.2969 37.3316 21.5701C37.4901 21.8446 37.57 22.1611 37.57 22.5198C37.57 22.8785 37.4877 23.1951 37.3243 23.4696C37.1609 23.744 36.9406 23.9559 36.6623 24.1051C36.3839 24.2544 36.0728 24.3302 35.7291 24.3302C35.3854 24.3302 35.084 24.2556 34.8129 24.1051" fill="#B8BFC7"/>
<path d="M41.1987 21.1101C41.4577 21.3738 41.5872 21.7421 41.5872 22.2151V24.2735H40.6964V22.3367C40.6964 22.0575 40.6262 21.8444 40.4858 21.6939C40.3454 21.5447 40.1541 21.4688 39.9133 21.4688C39.6724 21.4688 39.4727 21.5435 39.3299 21.6939C39.1883 21.8444 39.1169 22.0587 39.1169 22.3367V24.2735H38.2261V20.7659H39.1169V21.2028C39.2355 21.0512 39.388 20.932 39.572 20.8453C39.7559 20.7587 39.9593 20.7153 40.1796 20.7153C40.5996 20.7153 40.9385 20.8477 41.1975 21.1113" fill="#B8BFC7"/>
<path d="M47.634 19.8535V24.2723H46.7432V22.3921H44.8405V24.2723H43.9485V19.8535H44.8405V21.6699H46.7432V19.8535H47.634Z" fill="#B8BFC7"/>
<path d="M50.8682 22.19C50.8646 21.9625 50.7823 21.7796 50.6201 21.6423C50.4579 21.5051 50.2619 21.4365 50.0283 21.4365C49.808 21.4365 49.6228 21.5027 49.4715 21.6363C49.3214 21.7687 49.2294 21.9541 49.1943 22.19H50.8682ZM51.7663 22.7847H49.1883C49.2089 23.0386 49.2984 23.236 49.4558 23.3793C49.6131 23.5225 49.8068 23.5948 50.0343 23.5948C50.366 23.5948 50.6008 23.4539 50.7412 23.171H51.701C51.6005 23.5081 51.4044 23.7861 51.1164 24.004C50.8283 24.2207 50.4737 24.3302 50.0537 24.3302C49.7148 24.3302 49.4098 24.2556 49.1399 24.1051C48.8712 23.9547 48.6606 23.7428 48.5093 23.4684C48.3592 23.1939 48.283 22.8773 48.283 22.5198C48.283 22.1623 48.3568 21.8385 48.5057 21.5641C48.6545 21.2897 48.8615 21.0778 49.129 20.931C49.3965 20.7829 49.7039 20.7095 50.0513 20.7095C50.3986 20.7095 50.6867 20.7817 50.9518 20.9249C51.2168 21.0682 51.4226 21.2716 51.569 21.5352C51.7155 21.7988 51.7881 22.101 51.7881 22.444C51.7881 22.5704 51.7796 22.6848 51.7627 22.7859" fill="#B8BFC7"/>
<path d="M54.8589 21.9652C54.7742 21.8111 54.6592 21.6931 54.5152 21.6101C54.3712 21.5282 54.215 21.4873 54.0504 21.4873C53.8858 21.4873 53.7321 21.527 53.5917 21.6077C53.4525 21.6871 53.3387 21.8051 53.2516 21.9591C53.1645 22.1132 53.1209 22.295 53.1209 22.5056C53.1209 22.7163 53.1645 22.9016 53.2516 23.0593C53.3387 23.2182 53.4525 23.3386 53.5953 23.4241C53.7382 23.5095 53.8882 23.5504 54.0504 23.5504C54.2126 23.5504 54.3712 23.5095 54.5152 23.4277C54.6592 23.3446 54.773 23.2266 54.8589 23.0726C54.9437 22.9185 54.986 22.7331 54.986 22.5189C54.986 22.3046 54.9437 22.1192 54.8589 21.9652ZM52.4249 21.5631C52.5678 21.2887 52.7602 21.078 53.0035 20.93C53.248 20.7819 53.5203 20.7085 53.8217 20.7085C54.0855 20.7085 54.3155 20.7615 54.5128 20.8662C54.7101 20.9721 54.8686 21.1045 54.9872 21.2646V20.7651H55.8853V24.2727H54.9872V23.7599C54.8735 23.9236 54.7149 24.0608 54.5128 24.1679C54.3119 24.2751 54.0783 24.3292 53.8156 24.3292C53.5191 24.3292 53.248 24.2534 53.0035 24.1017C52.759 23.9501 52.5665 23.7358 52.4249 23.459C52.2821 23.1833 52.2119 22.8643 52.2119 22.5056C52.2119 22.1469 52.2833 21.8376 52.4249 21.5631Z" fill="#B8BFC7"/>
<path d="M57.6474 19.5889H56.7566V24.2737H57.6474V19.5889Z" fill="#B8BFC7"/>
<path d="M59.5632 21.4931V23.1903C59.5632 23.3083 59.5922 23.3937 59.6491 23.4467C59.706 23.4997 59.8028 23.5261 59.9396 23.5261H60.3523V24.2724H59.7932C59.0415 24.2724 58.6663 23.9101 58.6663 23.1831V21.4931H58.2463V20.7648H58.6663V19.897H59.5644V20.7648H60.3535V21.4931H59.5644H59.5632Z" fill="#B8BFC7"/>
<path d="M63.6954 20.8891C63.9036 21.0059 64.0658 21.1756 64.1819 21.4019C64.2993 21.627 64.3562 21.899 64.3562 22.2156V24.2727H63.4654V22.3359C63.4654 22.0579 63.3964 21.8436 63.2548 21.6932C63.1156 21.5439 62.9232 21.4681 62.6823 21.4681C62.4415 21.4681 62.2418 21.5427 62.1002 21.6932C61.9573 21.8436 61.8871 22.0579 61.8871 22.3359V24.2727H60.9951V19.5879H61.8871V21.2033C62.0009 21.0516 62.1546 20.9312 62.3446 20.8446C62.5359 20.7579 62.7477 20.7158 62.9813 20.7158C63.2488 20.7158 63.486 20.7735 63.6942 20.8891" fill="#B8BFC7"/>
<path d="M69.0936 23.2471L67.9982 22.171C67.5867 22.3516 67.3809 22.6092 67.3809 22.9438C67.3809 23.134 67.4535 23.2929 67.5976 23.4217C67.7416 23.5505 67.9328 23.6143 68.1701 23.6143C68.5174 23.6143 68.8261 23.4915 69.0936 23.2459M70.1369 24.2727L69.6527 23.7984C69.2412 24.1655 68.7389 24.3485 68.1446 24.3485C67.8191 24.3485 67.531 24.2931 67.2829 24.1812C67.0348 24.0693 66.8423 23.9116 66.7068 23.7069C66.57 23.5011 66.5034 23.2652 66.5034 22.9943C66.5034 22.703 66.5869 22.4406 66.7515 22.2083C66.9161 21.9772 67.1606 21.7894 67.4838 21.645C67.37 21.5066 67.2865 21.373 67.2357 21.243C67.1848 21.1142 67.1606 20.9769 67.1606 20.8289C67.1606 20.6267 67.2139 20.4437 67.3192 20.2812C67.4245 20.1187 67.577 19.9911 67.7743 19.8984C67.9716 19.8057 68.2015 19.7588 68.4654 19.7588C68.7292 19.7588 68.9616 19.8093 69.1529 19.9105C69.3441 20.0116 69.4857 20.1476 69.5801 20.3161C69.6733 20.4846 69.7132 20.6724 69.6999 20.8794H68.8345C68.8394 20.7398 68.8043 20.6327 68.7329 20.5593C68.6602 20.4846 68.5634 20.4485 68.44 20.4485C68.3165 20.4485 68.2221 20.4834 68.1434 20.5532C68.0648 20.6218 68.026 20.7121 68.026 20.8229C68.026 20.9336 68.0575 21.0323 68.1204 21.1358C68.1846 21.2393 68.2887 21.3669 68.4327 21.5198L69.5535 22.6212C69.562 22.6128 69.568 22.6043 69.5716 22.5959C69.5765 22.5875 69.5801 22.5791 69.5849 22.5706L69.9481 21.97H70.8776L70.431 22.7488C70.3463 22.9125 70.2555 23.069 70.1574 23.217L71.2334 24.2739H70.1381L70.1369 24.2727Z" fill="#B8BFC7"/>
<path d="M73.883 24.158C73.6348 24.0521 73.4388 23.9004 73.2947 23.7018C73.1507 23.5032 73.0757 23.2697 73.072 22.9989H74.027C74.0391 23.1806 74.1044 23.3239 74.2206 23.4298C74.338 23.5357 74.4978 23.5875 74.7011 23.5875C74.9045 23.5875 75.0727 23.5381 75.1913 23.4394C75.3099 23.3395 75.3694 23.2107 75.3694 23.0494C75.3694 22.9182 75.3294 22.8111 75.2483 22.7268C75.1672 22.6426 75.0668 22.5751 74.9458 22.527C74.8247 22.4789 74.6589 22.4247 74.4459 22.3657C74.1578 22.2814 73.923 22.1984 73.7427 22.1153C73.5611 22.0323 73.4073 21.9083 73.2778 21.741C73.1483 21.5737 73.0842 21.3522 73.0842 21.0729C73.0842 20.8105 73.1496 20.583 73.2815 20.3892C73.4135 20.1954 73.5973 20.0462 73.8357 19.9439C74.073 19.8403 74.3442 19.7886 74.6504 19.7886C75.1091 19.7886 75.4806 19.8993 75.7675 20.1208C76.0531 20.3423 76.2116 20.6516 76.2407 21.0489H75.2603C75.2518 20.8972 75.1878 20.7708 75.0668 20.6721C74.947 20.5722 74.7859 20.5228 74.5874 20.5228C74.4131 20.5228 74.2739 20.5674 74.1698 20.6564C74.0657 20.7443 74.0137 20.8731 74.0137 21.0428C74.0137 21.1608 74.0536 21.2583 74.1311 21.3365C74.2097 21.4148 74.3079 21.4786 74.4241 21.5267C74.5403 21.5749 74.7048 21.6302 74.9166 21.694C75.2059 21.7783 75.4407 21.8626 75.6234 21.948C75.805 22.0323 75.9624 22.1587 76.0944 22.3272C76.2251 22.4957 76.2917 22.7184 76.2917 22.9916C76.2917 23.2276 76.2298 23.4478 76.1076 23.6501C75.9841 23.8523 75.8051 24.0148 75.5667 24.1351C75.3294 24.2543 75.0473 24.3157 74.7205 24.3157C74.3937 24.3157 74.1311 24.2627 73.883 24.158Z" fill="#B8BFC7"/>
<path d="M79.482 21.9652C79.3972 21.8111 79.2823 21.6931 79.1382 21.6101C78.9942 21.5282 78.8381 21.4873 78.6735 21.4873C78.5089 21.4873 78.3551 21.527 78.2147 21.6077C78.0756 21.6871 77.9618 21.8051 77.8746 21.9591C77.7875 22.1132 77.7439 22.295 77.7439 22.5056C77.7439 22.7163 77.7875 22.9016 77.8746 23.0593C77.9618 23.2182 78.0756 23.3386 78.2184 23.4241C78.3612 23.5083 78.5113 23.5504 78.6735 23.5504C78.8356 23.5504 78.9942 23.5095 79.1382 23.4277C79.2823 23.3446 79.3972 23.2266 79.482 23.0726C79.5667 22.9185 79.6091 22.7331 79.6091 22.5189C79.6091 22.3046 79.5667 22.1192 79.482 21.9652ZM77.0468 21.5631C77.1896 21.2887 77.382 21.078 77.6253 20.93C77.8698 20.7819 78.1421 20.7085 78.4435 20.7085C78.7074 20.7085 78.9373 20.7615 79.1346 20.8662C79.3319 20.9721 79.4904 21.1045 79.6091 21.2646V20.7651H80.5071V24.2727H79.6091V23.7599C79.4953 23.9236 79.3367 24.0608 79.1346 24.1679C78.9337 24.2751 78.7001 24.3292 78.4374 24.3292C78.1409 24.3292 77.8698 24.2534 77.6253 24.1017C77.3808 23.9501 77.1884 23.7358 77.0468 23.459C76.9039 23.1833 76.8337 22.8643 76.8337 22.5056C76.8337 22.1469 76.9052 21.8376 77.0468 21.5631Z" fill="#B8BFC7"/>
<path d="M82.9955 21.4933H82.3782V24.2726H81.4753V21.4933H81.0735V20.765H81.4753V20.5881C81.4753 20.1571 81.5988 19.8406 81.8445 19.6383C82.0902 19.4361 82.4617 19.341 82.9592 19.3531V20.1006C82.7425 20.0958 82.5925 20.1319 82.5065 20.2077C82.4218 20.2835 82.3794 20.4208 82.3794 20.6194V20.765H82.9967V21.4933H82.9955Z" fill="#B8BFC7"/>
<path d="M85.9293 22.19C85.9257 21.9625 85.8421 21.7796 85.6812 21.6423C85.519 21.5051 85.3229 21.4365 85.0893 21.4365C84.869 21.4365 84.6838 21.5027 84.5325 21.6363C84.3825 21.7687 84.2905 21.9541 84.2554 22.19H85.9293ZM86.8274 22.7847H84.2493C84.2699 23.0386 84.3595 23.236 84.5168 23.3793C84.6742 23.5225 84.8678 23.5948 85.0954 23.5948C85.427 23.5948 85.6618 23.4539 85.8022 23.171H86.762C86.6615 23.5081 86.4655 23.7861 86.1774 24.004C85.8893 24.2207 85.5347 24.3302 85.1147 24.3302C84.7758 24.3302 84.4708 24.2556 84.2009 24.1051C83.9322 23.9547 83.7216 23.7428 83.5703 23.4684C83.4202 23.1939 83.344 22.8773 83.344 22.5198C83.344 22.1623 83.4178 21.8385 83.5667 21.5641C83.7156 21.2897 83.9225 21.0778 84.19 20.931C84.4575 20.7829 84.7649 20.7095 85.1123 20.7095C85.4597 20.7095 85.7477 20.7817 86.0128 20.9249C86.2779 21.0682 86.4836 21.2716 86.6301 21.5352C86.7765 21.7988 86.8491 22.101 86.8491 22.444C86.8491 22.5704 86.8407 22.6848 86.8237 22.7859" fill="#B8BFC7"/>
<path d="M88.54 21.4931V23.1903C88.54 23.3083 88.569 23.3937 88.6259 23.4467C88.6828 23.4997 88.7796 23.5261 88.9164 23.5261H89.3291V24.2724H88.77C88.0183 24.2724 87.6431 23.9101 87.6431 23.1831V21.4931H87.2231V20.7648H87.6431V19.897H88.5412V20.7648H89.3303V21.4931H88.5412H88.54Z" fill="#B8BFC7"/>
<path d="M93.3463 20.7651L91.1628 25.9314H90.2139L90.9789 24.1837L89.5652 20.7651H90.5649L91.4751 23.2159L92.3974 20.7651H93.3463Z" fill="#B8BFC7"/>
<path d="M99.1389 24.2725H98.248L96.2292 21.2403V24.2725H95.3384V19.8477H96.2292L98.248 22.8858V19.8477H99.1389V24.2725Z" fill="#B8BFC7"/>
<path d="M99.8965 19.8535V20.5998H101.883L99.8965 23.5886V24.2723H102.926V23.5248H100.928L102.926 20.5372V19.8535H99.8965Z" fill="#B8BFC7"/>
</g>
</g>
</g>
<defs>
<clipPath id="clip0_382_15">
<rect width="103" height="26" fill="white"/>
</clipPath>
</defs>
</svg>
