<svg width="96" height="35" viewBox="0 0 96 35" fill="none" xmlns="http://www.w3.org/2000/svg">
<g clip-path="url(#clip0_382_237)">
<path d="M0.771092 34.7827L1.50444 30.8362H0L0.147388 30.0394H4.14125L3.99206 30.8362H2.45887L1.72552 34.7827H0.769294M5.01839 32.1715H6.01775C6.05729 32.1715 6.09324 32.1715 6.13278 32.1661C6.17233 32.1625 6.21007 32.1571 6.24962 32.1499C6.28916 32.1427 6.32691 32.1338 6.36465 32.123C6.40419 32.1122 6.44014 32.0997 6.47969 32.0853C6.51923 32.071 6.55338 32.0548 6.59292 32.0369C6.64145 32.0135 6.68279 31.9884 6.72413 31.9579C6.76727 31.9256 6.80322 31.8933 6.83917 31.8538C6.87512 31.8143 6.90388 31.7766 6.93263 31.7318C6.9596 31.6869 6.98116 31.6456 6.99914 31.5954C7.01711 31.5487 7.0279 31.5038 7.03509 31.4536C7.04587 31.3836 7.04407 31.319 7.03329 31.249C7.02251 31.1826 7.00094 31.1252 6.96679 31.0659C6.93443 31.0085 6.89489 30.9636 6.84456 30.9224C6.79244 30.8811 6.73851 30.8506 6.6756 30.829C6.6091 30.8075 6.54619 30.7967 6.47609 30.7967H5.27542L5.02018 32.1715M3.55529 34.7827L4.43602 30.0394H6.8895C7.0279 30.0376 7.15551 30.0555 7.28673 30.0986C7.41255 30.1399 7.52039 30.1973 7.62464 30.2799C7.72709 30.3606 7.80438 30.4521 7.87089 30.5652C7.93739 30.6801 7.97873 30.7967 8.0003 30.9277C8.02367 31.0659 8.02367 31.1951 8.0003 31.3333C7.98233 31.4446 7.95177 31.5433 7.90863 31.6474C7.8637 31.7551 7.80977 31.8484 7.74327 31.9417C7.67317 32.0387 7.60127 32.1194 7.5132 32.2002C7.42513 32.2809 7.33705 32.3438 7.2346 32.4048C7.13395 32.464 7.03688 32.5071 6.92545 32.5412C6.99195 32.5591 7.04947 32.5842 7.10878 32.6201C7.1663 32.6542 7.21303 32.6937 7.25976 32.7422C7.3047 32.7906 7.33885 32.8427 7.36941 32.9019C7.39996 32.9629 7.41973 33.0239 7.43232 33.0903C7.4449 33.1603 7.44849 33.2249 7.4431 33.2967L7.36222 34.3915C7.36042 34.4202 7.35862 34.4453 7.35862 34.4723C7.35862 34.4992 7.35862 34.5243 7.36042 34.553C7.36222 34.5799 7.36401 34.6051 7.36941 34.632C7.373 34.6589 7.37839 34.6822 7.38379 34.7091C7.38918 34.7343 7.39637 34.7594 7.40536 34.7845H6.44554C6.44014 34.7558 6.43655 34.7289 6.43295 34.7002C6.42936 34.6715 6.42756 34.6445 6.42576 34.614C6.42397 34.5835 6.42217 34.5566 6.42217 34.5279C6.42217 34.4974 6.42217 34.4705 6.42217 34.4399C6.42217 34.4094 6.42397 34.3825 6.42756 34.352L6.48148 33.5911C6.48688 33.5157 6.48148 33.4457 6.46171 33.3703C6.44374 33.3003 6.41678 33.2375 6.37723 33.1765C6.33769 33.1173 6.29096 33.0688 6.23344 33.0257C6.17413 32.9827 6.11301 32.9522 6.04291 32.9306C5.96922 32.9091 5.89912 32.8983 5.82183 32.9001H4.88538L4.53488 34.7809H3.55529M9.48317 33.0598H10.8186L10.5634 30.8721L9.48317 33.0598ZM7.6552 34.7809L10.1806 30.0376H11.2303L12.0463 34.7809H11.0433L10.9175 33.7741H9.13087L8.63119 34.7809H7.6552ZM12.359 34.7809L13.2398 30.0376H14.2499L15.6753 33.2447L16.272 30.0376H17.2462L16.3655 34.7809H15.3392L13.9318 31.5577L13.3332 34.7809H12.3608M17.0359 33.3434H17.9921C17.9796 33.417 17.976 33.4852 17.9832 33.5588C17.9903 33.6287 18.0047 33.6934 18.0317 33.758C18.0568 33.8208 18.091 33.8764 18.1359 33.9285C18.1809 33.9805 18.2294 34.0218 18.2869 34.0577C18.3462 34.0936 18.4073 34.1187 18.4756 34.1366C18.5475 34.1546 18.614 34.1672 18.6877 34.1761C18.7632 34.1851 18.8333 34.1869 18.9088 34.1851C18.9879 34.1833 19.058 34.1761 19.1353 34.1618C19.2144 34.1492 19.2863 34.1313 19.3618 34.1079C19.4409 34.0846 19.5092 34.0577 19.5846 34.0254C19.6116 34.0128 19.6368 34.002 19.6619 33.9877C19.6889 33.9733 19.7123 33.959 19.7374 33.941C19.7626 33.9231 19.7842 33.9069 19.8075 33.889C19.8309 33.8692 19.8525 33.8513 19.874 33.8298C19.8956 33.8082 19.9136 33.7885 19.9333 33.7651C19.9585 33.7364 19.9783 33.7077 19.9963 33.6754C20.0142 33.6431 20.0286 33.6126 20.0412 33.5785C20.052 33.5444 20.061 33.5121 20.0646 33.478C20.0682 33.4439 20.07 33.4116 20.0646 33.3775C20.061 33.3452 20.0556 33.3147 20.043 33.2842C20.0304 33.2483 20.0142 33.2178 19.9945 33.1855C19.9747 33.1532 19.9549 33.1262 19.928 33.0993C19.9028 33.0724 19.8758 33.0491 19.8471 33.0275C19.8165 33.006 19.786 32.988 19.7518 32.9719C19.7159 32.9557 19.6835 32.9432 19.6458 32.9342L18.2923 32.586C18.2456 32.5735 18.2042 32.5609 18.1593 32.543C18.1144 32.525 18.0766 32.5071 18.0353 32.4855C17.9939 32.464 17.958 32.4407 17.9202 32.4137C17.8825 32.3868 17.8501 32.3599 17.816 32.3276C17.7818 32.2953 17.7531 32.2648 17.7243 32.2289C17.6668 32.1589 17.6219 32.0871 17.5859 32.0046C17.5482 31.9202 17.523 31.8376 17.5068 31.7461C17.4907 31.651 17.4871 31.5631 17.4925 31.4661C17.4996 31.3656 17.5158 31.2759 17.5428 31.179C17.5715 31.0785 17.6075 30.9906 17.656 30.8972C17.6992 30.8201 17.7423 30.7519 17.7944 30.6801C17.8483 30.6083 17.9005 30.5455 17.9634 30.4809C18.0263 30.4163 18.0874 30.3606 18.1575 30.305C18.2276 30.2494 18.2959 30.2027 18.3732 30.1578C18.4487 30.113 18.5224 30.0771 18.6033 30.043C18.7309 29.9909 18.8495 29.9514 18.9825 29.9173C19.1119 29.8832 19.2324 29.8599 19.3654 29.842C19.4948 29.8258 19.6152 29.8168 19.7464 29.8186C19.874 29.8186 19.9909 29.8294 20.1167 29.8473C20.2407 29.8653 20.3503 29.8922 20.4708 29.9281C20.5301 29.946 20.5822 29.9658 20.6397 29.9909C20.6955 30.016 20.744 30.043 20.7943 30.0771C20.8446 30.1112 20.8878 30.1435 20.9327 30.1847C20.9776 30.226 21.0136 30.2655 21.0513 30.3122C21.0891 30.3588 21.1196 30.4055 21.1484 30.4575C21.1772 30.5078 21.2023 30.5562 21.2239 30.6101C21.2455 30.6657 21.2634 30.716 21.2778 30.7734C21.2922 30.8326 21.303 30.8865 21.3102 30.9457C21.3174 31.0067 21.3192 31.0641 21.3192 31.1252C21.3192 31.188 21.3138 31.2454 21.3048 31.3082H20.3593C20.3665 31.2544 20.3665 31.2041 20.3593 31.1485C20.3539 31.0964 20.3432 31.0498 20.3234 30.9995C20.3054 30.9511 20.2838 30.9098 20.2533 30.8685C20.2245 30.8272 20.1922 30.7931 20.1526 30.7608C20.1131 30.7285 20.0735 30.7034 20.0268 30.6819C19.9711 30.6567 19.919 30.637 19.8597 30.6208C19.7985 30.6047 19.7428 30.5939 19.6817 30.585C19.617 30.5778 19.5595 30.5742 19.4948 30.576C19.4283 30.576 19.369 30.5832 19.3043 30.5921C19.2377 30.6029 19.1766 30.6155 19.1119 30.6352C19.0796 30.6442 19.0508 30.655 19.0203 30.6675C18.9897 30.6801 18.9609 30.6926 18.9304 30.7088C18.8998 30.7249 18.8729 30.7393 18.8441 30.7572C18.8154 30.7752 18.7902 30.7931 18.7632 30.8147C18.7363 30.8362 18.7111 30.856 18.6859 30.8793C18.6464 30.9152 18.614 30.9529 18.5853 30.9959C18.5565 31.039 18.535 31.0821 18.517 31.1305C18.5008 31.1772 18.4918 31.2221 18.4882 31.2723C18.4846 31.319 18.4882 31.3621 18.5008 31.4087C18.5116 31.4518 18.5278 31.4913 18.5529 31.529C18.5709 31.5541 18.5871 31.5756 18.6087 31.5972C18.6302 31.6187 18.65 31.6384 18.6752 31.6564C18.7003 31.6743 18.7237 31.6905 18.7506 31.7048C18.7776 31.7192 18.8046 31.7318 18.8333 31.7425C18.8639 31.7533 18.8908 31.7623 18.9232 31.7677L20.0124 32.0063C20.0358 32.0117 20.0574 32.0171 20.0807 32.0225C20.1041 32.0279 20.1257 32.0333 20.149 32.0404C20.1724 32.0458 20.194 32.0512 20.2155 32.0584C20.2389 32.0656 20.2605 32.071 20.282 32.0781C20.3054 32.0853 20.3252 32.0907 20.3486 32.0979C20.4079 32.1158 20.46 32.1356 20.5157 32.1607C20.5696 32.1858 20.6182 32.2145 20.6667 32.2486C20.7152 32.2827 20.7566 32.3168 20.7997 32.3599C20.8428 32.4012 20.877 32.4425 20.9111 32.4909C20.9453 32.5394 20.9741 32.586 20.9992 32.6399C21.0226 32.6865 21.0406 32.7314 21.0567 32.7817C21.0729 32.8337 21.0855 32.8804 21.0945 32.9324C21.1035 32.9862 21.1089 33.0365 21.1125 33.0903C21.1142 33.146 21.1125 33.198 21.1089 33.2537C21.1035 33.3111 21.0963 33.3631 21.0855 33.4188C21.0729 33.478 21.0585 33.53 21.0406 33.5875C21.0208 33.6449 21.001 33.6969 20.9741 33.7526C20.9471 33.8082 20.9219 33.8585 20.8878 33.9123C20.8554 33.9661 20.8231 34.0128 20.7835 34.0631C20.744 34.1133 20.7062 34.1582 20.6631 34.203C20.6128 34.2569 20.5642 34.3053 20.5085 34.3538C20.4528 34.4023 20.4007 34.4453 20.3396 34.4884C20.2802 34.5315 20.2227 34.5692 20.158 34.6051C20.0951 34.6427 20.0358 34.6733 19.9675 34.702C19.901 34.7325 19.8399 34.7558 19.7716 34.7791C19.644 34.8222 19.5253 34.8545 19.3941 34.8832C19.2647 34.9119 19.1461 34.9299 19.0149 34.9407C18.8855 34.9532 18.7686 34.955 18.6392 34.9514C18.5134 34.9478 18.3984 34.9353 18.2743 34.9155C18.1521 34.8958 18.0425 34.8689 17.9256 34.8312C17.8717 34.815 17.8232 34.7953 17.7711 34.7738C17.7207 34.7504 17.6758 34.7271 17.6273 34.6984C17.5805 34.6697 17.5392 34.641 17.4961 34.6069C17.4529 34.5728 17.417 34.5387 17.3774 34.4992C17.3397 34.4597 17.3073 34.422 17.2732 34.3789C17.23 34.3215 17.1941 34.2659 17.1617 34.2013C17.1276 34.1366 17.1024 34.0738 17.0808 34.0038C17.0575 33.932 17.0431 33.8656 17.0323 33.7921C17.0215 33.7167 17.0161 33.6467 17.0179 33.5695C17.0179 33.4906 17.0251 33.4188 17.0359 33.3416M22.6492 32.3545H23.5192C23.5498 32.3545 23.5785 32.3545 23.6091 32.3509C23.6396 32.3491 23.6684 32.3455 23.6989 32.342C23.7295 32.3384 23.7583 32.333 23.7888 32.3258C23.8194 32.3186 23.8481 32.3114 23.8787 32.3025C23.9092 32.2935 23.938 32.2845 23.9667 32.2738C24.0297 32.2504 24.0854 32.2217 24.1411 32.1858C24.1986 32.1481 24.2471 32.1086 24.2957 32.0602C24.3442 32.0117 24.3838 31.9633 24.4197 31.9058C24.4556 31.8502 24.4826 31.7964 24.506 31.7336C24.5275 31.6743 24.5419 31.6169 24.5491 31.5523C24.5563 31.4967 24.5581 31.4446 24.5527 31.389C24.5473 31.3351 24.5383 31.2867 24.5222 31.2346C24.506 31.1844 24.4862 31.1413 24.4574 31.0964C24.4305 31.0516 24.3999 31.0157 24.3622 30.9798C24.3244 30.9439 24.2849 30.9152 24.24 30.8901C24.2166 30.8757 24.1932 30.8649 24.1681 30.8542C24.1429 30.8434 24.1177 30.8344 24.0908 30.8272C24.0638 30.8183 24.0386 30.8129 24.0099 30.8075C23.9811 30.8021 23.956 30.7985 23.9254 30.7967C23.8967 30.7949 23.8697 30.7931 23.8391 30.7931H22.9368L22.6456 32.3563M21.2257 34.7809L22.1064 30.0376H24.2705C24.3676 30.0376 24.4556 30.0483 24.5491 30.0681C24.6408 30.0878 24.7217 30.113 24.8061 30.1524C24.8888 30.1901 24.9607 30.2314 25.0326 30.287C25.1045 30.3409 25.1638 30.3983 25.2213 30.4665C25.2789 30.5365 25.3238 30.6047 25.3651 30.6855C25.4011 30.759 25.4263 30.829 25.4496 30.9062C25.473 30.987 25.4874 31.0605 25.4964 31.1431C25.5053 31.2275 25.5089 31.3064 25.5053 31.3926C25.5017 31.4805 25.491 31.5595 25.4748 31.6474C25.4568 31.7354 25.4352 31.8161 25.4065 31.9005C25.3669 32.0189 25.3184 32.1212 25.2555 32.2289C25.1908 32.3384 25.1207 32.4317 25.0344 32.525C24.9481 32.6201 24.8601 32.6973 24.7558 32.7745C24.6534 32.8499 24.5527 32.9091 24.4359 32.9611C24.3226 33.0132 24.2148 33.0491 24.0944 33.0742C24.0512 33.0832 24.0117 33.0903 23.9667 33.0975C23.9236 33.1047 23.8841 33.1101 23.8391 33.1155C23.796 33.1209 23.7565 33.1244 23.7115 33.128C23.6684 33.1316 23.6288 33.1334 23.5857 33.1352C23.5426 33.1352 23.503 33.137 23.4599 33.1352H22.5001L22.1945 34.7791H21.2239M26.5694 33.3488C26.5856 33.4098 26.6036 33.4636 26.6287 33.5229C26.6521 33.5803 26.6791 33.6305 26.7114 33.6826C26.7438 33.7346 26.7779 33.7795 26.8175 33.8262C26.857 33.8728 26.8983 33.9123 26.9451 33.9518C26.9918 33.9913 27.0385 34.0254 27.0907 34.0559C27.1482 34.09 27.2057 34.1151 27.2686 34.1366C27.3351 34.1582 27.3962 34.1725 27.4663 34.1797C27.5382 34.1887 27.6029 34.1887 27.6748 34.1833C27.7485 34.1779 27.815 34.1672 27.8887 34.1474C27.9624 34.1277 28.0289 34.1061 28.099 34.0738C28.1619 34.0451 28.2194 34.0164 28.2788 33.9805C28.3381 33.9446 28.392 33.9087 28.4477 33.8656C28.5034 33.8226 28.552 33.7795 28.6023 33.731C28.6526 33.6808 28.6958 33.6341 28.7389 33.5785C28.782 33.5247 28.8198 33.4726 28.8557 33.4134C28.933 33.2878 28.9959 33.1675 29.0552 33.0311C29.1128 32.8983 29.1559 32.7745 29.1936 32.6345C29.2296 32.4981 29.253 32.3725 29.2691 32.2325C29.2835 32.0961 29.2871 31.9723 29.2781 31.8359C29.2691 31.703 29.2512 31.5828 29.2206 31.4536C29.2062 31.3926 29.1882 31.3387 29.1631 31.2813C29.1397 31.2239 29.1146 31.1736 29.0822 31.1216C29.0498 31.0695 29.0175 31.0247 28.9779 30.978C28.9384 30.9313 28.8989 30.8936 28.8503 30.8542C28.8036 30.8147 28.7569 30.7824 28.7047 30.7519C28.6472 30.7178 28.5915 30.6944 28.5286 30.6747C28.4639 30.6549 28.4028 30.6424 28.3345 30.6352C28.2644 30.628 28.1997 30.628 28.1296 30.6352C28.0559 30.6424 27.9912 30.6549 27.9211 30.6747C27.8492 30.6944 27.7845 30.7196 27.7162 30.7519C27.6515 30.7824 27.5939 30.8147 27.531 30.8524C27.4699 30.8918 27.4142 30.9295 27.3585 30.9744C27.301 31.0193 27.2506 31.0641 27.2003 31.1162C27.1482 31.1682 27.105 31.2167 27.0583 31.2741C27.0134 31.3298 26.9756 31.3836 26.9361 31.4464C26.857 31.5684 26.7941 31.6833 26.7348 31.8161C26.6755 31.9453 26.6323 32.0656 26.5946 32.202C26.5586 32.3348 26.5335 32.4568 26.5191 32.595C26.5047 32.7278 26.5029 32.8499 26.5119 32.9827C26.5209 33.1119 26.5406 33.2285 26.573 33.3524M25.6258 33.8172C25.606 33.758 25.5898 33.7041 25.5754 33.6431C25.5611 33.5821 25.5485 33.5265 25.5395 33.4636C25.5287 33.4008 25.5215 33.3434 25.5161 33.2806C25.5107 33.216 25.5089 33.1585 25.5071 33.0939C25.5071 33.0293 25.5071 32.9701 25.5125 32.9037C25.5161 32.8355 25.5215 32.7745 25.5287 32.7063C25.5359 32.6381 25.5449 32.5771 25.5539 32.5089C25.5647 32.4407 25.5754 32.3778 25.5898 32.3114C25.6042 32.2432 25.6186 32.1804 25.6348 32.114C25.6527 32.0458 25.6689 31.9848 25.6887 31.9166C25.7102 31.8502 25.7318 31.791 25.757 31.7264C25.7821 31.6618 25.8073 31.6025 25.8379 31.5379C25.8684 31.4733 25.8972 31.4159 25.9313 31.3531C25.9655 31.2903 25.9996 31.2346 26.0374 31.1736C26.0751 31.1126 26.1129 31.0588 26.1542 30.9995C26.2225 30.9062 26.289 30.8237 26.3681 30.7393C26.4472 30.6532 26.5245 30.5814 26.6125 30.5042C26.7006 30.4288 26.7851 30.366 26.8822 30.3014C26.9792 30.2368 27.0691 30.1847 27.1733 30.1327C27.2758 30.0824 27.3711 30.0412 27.4789 30.0035C27.5975 29.9622 27.7072 29.9317 27.8294 29.9066C27.948 29.8814 28.0595 29.8653 28.1799 29.8581C28.2985 29.8491 28.4064 29.8491 28.525 29.8581C28.64 29.8671 28.7443 29.8814 28.8575 29.9066C28.9672 29.9317 29.066 29.9622 29.1703 30.0035C29.2655 30.0412 29.3482 30.0806 29.4363 30.1327C29.5226 30.1847 29.5981 30.2368 29.6735 30.3032C29.749 30.3678 29.8137 30.4324 29.8767 30.5096C29.9396 30.5868 29.9917 30.6621 30.042 30.7483C30.0923 30.8362 30.1301 30.9206 30.166 31.0157C30.1858 31.0713 30.2038 31.1234 30.2182 31.179C30.2343 31.2364 30.2469 31.2903 30.2577 31.3495C30.2685 31.4087 30.2757 31.4644 30.2829 31.5236C30.2883 31.5846 30.2919 31.6402 30.2937 31.7013C30.2937 31.7641 30.2937 31.8197 30.2901 31.8825C30.2865 31.9543 30.2811 32.0189 30.2739 32.0889C30.2667 32.1607 30.2577 32.2253 30.2469 32.2953C30.2361 32.3671 30.2236 32.4317 30.2092 32.5035C30.1948 32.5753 30.1786 32.6399 30.1606 32.7117C30.1427 32.7835 30.1229 32.8481 30.1013 32.9181C30.0816 32.9827 30.06 33.0419 30.0366 33.1047C30.0115 33.1693 29.9881 33.2267 29.9575 33.2896C29.9288 33.3524 29.9 33.4098 29.8659 33.4708C29.8317 33.5318 29.7994 33.5875 29.7616 33.6467C29.7239 33.7059 29.6879 33.7598 29.6466 33.8172C29.5783 33.9123 29.51 33.9949 29.4309 34.081C29.35 34.1672 29.2727 34.2425 29.1846 34.3179C29.0948 34.3951 29.0103 34.4597 28.9132 34.5243C28.8162 34.5889 28.7245 34.6427 28.6203 34.6966C28.5178 34.7486 28.4207 34.7917 28.3129 34.8312C28.1907 34.8743 28.0774 34.9066 27.9516 34.9335C27.8276 34.9604 27.7144 34.9766 27.5885 34.9837C27.4663 34.9927 27.3549 34.9909 27.2327 34.9819C27.114 34.9712 27.0062 34.955 26.8911 34.9263C26.7779 34.8976 26.6773 34.8653 26.5712 34.8186C26.4813 34.7791 26.4005 34.7379 26.3178 34.684C26.2351 34.632 26.165 34.5781 26.0931 34.5117C26.0212 34.4471 25.9601 34.3825 25.9008 34.3053C25.8397 34.2282 25.7911 34.1546 25.7444 34.0702C25.6977 33.9841 25.6599 33.9015 25.6276 33.81M31.692 32.1643H32.6914C32.731 32.1643 32.7669 32.1643 32.8064 32.1589C32.846 32.1553 32.8837 32.1499 32.9233 32.1427C32.9628 32.1356 33.0006 32.1266 33.0401 32.1158C33.0797 32.1051 33.1156 32.0925 33.1551 32.0781C33.1947 32.0638 33.2288 32.0476 33.2666 32.0297C33.3151 32.0063 33.3565 31.9812 33.3996 31.9507C33.4427 31.9184 33.4787 31.8861 33.5146 31.8466C33.5506 31.8071 33.5793 31.7695 33.6081 31.7246C33.6351 31.6797 33.6566 31.6384 33.6746 31.5882C33.6926 31.5415 33.7034 31.4967 33.7105 31.4464C33.7213 31.3764 33.7195 31.3118 33.7087 31.2418C33.698 31.1754 33.6764 31.118 33.6422 31.0588C33.6099 31.0013 33.5703 30.9565 33.52 30.9152C33.4679 30.8739 33.414 30.8434 33.3511 30.8219C33.2846 30.8003 33.2216 30.7896 33.1515 30.7896H31.9509L31.6956 32.1643M30.2307 34.7756L31.1115 30.0322H33.565C33.7034 30.0304 33.831 30.0483 33.9622 30.0914C34.088 30.1327 34.1958 30.1901 34.3001 30.2727C34.4025 30.3534 34.4798 30.445 34.5463 30.558C34.6128 30.6729 34.6542 30.7895 34.6758 30.9206C34.6991 31.0588 34.6991 31.188 34.6758 31.3262C34.6578 31.4374 34.6272 31.5361 34.5841 31.6402C34.5392 31.7479 34.4852 31.8412 34.4187 31.9346C34.3486 32.0315 34.2767 32.1122 34.1887 32.193C34.1006 32.2738 34.0125 32.3366 33.9101 32.3976C33.8094 32.4568 33.7123 32.4999 33.6009 32.534C33.6674 32.5519 33.7249 32.5771 33.7842 32.613C33.8418 32.6471 33.8885 32.6865 33.9352 32.735C33.9802 32.7834 34.0161 32.8355 34.0449 32.8947C34.0754 32.9557 34.0952 33.0168 34.1078 33.0832C34.1204 33.1532 34.124 33.2178 34.1186 33.2896L34.0377 34.3843C34.0359 34.413 34.0341 34.4382 34.0341 34.4651C34.0341 34.492 34.0341 34.5171 34.0359 34.5458C34.0377 34.5728 34.0413 34.5979 34.0449 34.6248C34.0485 34.6517 34.0539 34.6751 34.0592 34.702C34.0646 34.7271 34.0718 34.7522 34.0808 34.7773H33.121C33.1156 34.7486 33.112 34.7217 33.1084 34.693C33.1048 34.6643 33.103 34.6374 33.1012 34.6069C33.0994 34.5763 33.0976 34.5494 33.0976 34.5207C33.0976 34.4902 33.0976 34.4633 33.0976 34.4328C33.0976 34.4023 33.0994 34.3753 33.103 34.3448L33.1569 33.5839C33.1623 33.5085 33.1569 33.4385 33.1372 33.3631C33.1192 33.2931 33.0922 33.2303 33.0527 33.1693C33.0131 33.1101 32.9664 33.0616 32.9089 33.0186C32.8496 32.9755 32.7885 32.945 32.7184 32.9234C32.6447 32.9019 32.5746 32.8911 32.4973 32.8929H31.5608L31.2103 34.7738H30.2307M35.6949 34.7738L36.4282 30.8272H34.9238L35.0712 30.0304H39.065L38.9177 30.8272H37.3845L36.6511 34.7738H35.6949ZM41.0889 33.3362H42.0452C42.0326 33.4098 42.029 33.478 42.0362 33.5516C42.0434 33.6216 42.0577 33.6862 42.0847 33.7508C42.1099 33.8136 42.144 33.8692 42.189 33.9213C42.2339 33.9733 42.2824 34.0146 42.3399 34.0505C42.3993 34.0864 42.4604 34.1115 42.5287 34.1295C42.6006 34.1492 42.6671 34.16 42.7408 34.1689C42.8163 34.1779 42.8864 34.1797 42.9618 34.1779C43.0409 34.1761 43.111 34.1689 43.1883 34.1546C43.2674 34.142 43.3393 34.1241 43.4148 34.1007C43.4939 34.0774 43.5622 34.0505 43.6377 34.0182C43.6646 34.0056 43.6898 33.9949 43.715 33.9805C43.7419 33.9661 43.7653 33.9518 43.7905 33.9338C43.8156 33.9159 43.8372 33.8997 43.8606 33.8818C43.8839 33.8621 43.9055 33.8441 43.9271 33.8226C43.9486 33.801 43.9666 33.7813 43.9864 33.758C44.0115 33.7293 44.0313 33.7005 44.0493 33.6682C44.0673 33.6359 44.0816 33.6054 44.0942 33.5713C44.105 33.5372 44.114 33.5049 44.1176 33.4708C44.1212 33.4367 44.123 33.4044 44.1176 33.3703C44.114 33.338 44.1086 33.3075 44.096 33.277C44.0834 33.2411 44.0673 33.2106 44.0475 33.1783C44.0277 33.146 44.0079 33.1191 43.981 33.0921C43.9558 33.0652 43.9307 33.0419 43.9001 33.0203C43.8695 32.9988 43.839 32.9809 43.8048 32.9647C43.7689 32.9486 43.7365 32.936 43.6988 32.927L42.3453 32.5789C42.2986 32.5663 42.2573 32.5537 42.2123 32.5358C42.1674 32.5178 42.1296 32.4999 42.0883 32.4784C42.047 32.4568 42.011 32.4335 41.9733 32.4066C41.9355 32.3796 41.9032 32.3527 41.869 32.3204C41.8349 32.2881 41.8061 32.2576 41.7773 32.2217C41.7198 32.1517 41.6749 32.0799 41.6389 31.9974C41.6012 31.913 41.576 31.8305 41.5599 31.7389C41.5437 31.6438 41.5401 31.5559 41.5455 31.459C41.5527 31.3585 41.5688 31.2687 41.5958 31.1718C41.6246 31.0713 41.6605 30.9834 41.709 30.8901C41.7522 30.8129 41.7953 30.7447 41.8474 30.6729C41.9014 30.6011 41.9535 30.5383 42.0164 30.4737C42.0793 30.4091 42.1404 30.3534 42.2105 30.2978C42.2806 30.2422 42.3489 30.1955 42.4262 30.1506C42.5017 30.1058 42.5754 30.0699 42.6563 30.0358C42.7839 29.9837 42.9025 29.9443 43.0355 29.9102C43.165 29.8761 43.2854 29.8527 43.4184 29.8348C43.5478 29.8186 43.6682 29.8097 43.7994 29.8114C43.9271 29.8114 44.0439 29.8222 44.1697 29.8402C44.2937 29.8581 44.4034 29.885 44.5238 29.9209C44.5831 29.9389 44.637 29.9586 44.6928 29.9837C44.7485 30.0089 44.797 30.0358 44.8473 30.0699C44.8977 30.104 44.9408 30.1363 44.9857 30.1776C45.0307 30.2188 45.0666 30.2583 45.1044 30.305C45.1421 30.3516 45.1727 30.3983 45.2014 30.4504C45.2302 30.5006 45.2553 30.5491 45.2769 30.6029C45.2985 30.6585 45.3165 30.7088 45.3308 30.7662C45.3452 30.8254 45.356 30.8793 45.3632 30.9385C45.3704 30.9995 45.3722 31.057 45.3722 31.118C45.3722 31.1808 45.3668 31.2382 45.3578 31.301H44.4124C44.4195 31.2472 44.4195 31.1969 44.4124 31.1413C44.407 31.0893 44.3962 31.0426 44.3764 30.9924C44.3584 30.9439 44.3369 30.9026 44.3063 30.8613C44.2776 30.8201 44.2452 30.786 44.2057 30.7537C44.1661 30.7214 44.1266 30.6962 44.0798 30.6747C44.0241 30.6496 43.972 30.6298 43.9127 30.6137C43.8516 30.5975 43.7958 30.5868 43.7329 30.5778C43.6682 30.5706 43.6107 30.567 43.546 30.5688C43.4795 30.5688 43.4202 30.576 43.3555 30.585C43.289 30.5957 43.2279 30.6083 43.1632 30.628C43.1308 30.637 43.102 30.6478 43.0715 30.6603C43.0409 30.6729 43.0122 30.6855 42.9816 30.7016C42.9511 30.7178 42.9241 30.7321 42.8953 30.7501C42.8666 30.768 42.8414 30.786 42.8127 30.8075C42.7857 30.829 42.7605 30.8488 42.7354 30.8721C42.6958 30.908 42.6635 30.9457 42.6347 30.9888C42.606 31.0318 42.5844 31.0749 42.5664 31.1234C42.5502 31.17 42.5413 31.2149 42.5377 31.2651C42.5341 31.3118 42.5377 31.3549 42.5502 31.4015C42.561 31.4446 42.5772 31.4841 42.6024 31.5218C42.6203 31.5469 42.6365 31.5684 42.6581 31.59C42.6797 31.6115 42.6994 31.6313 42.7246 31.6492C42.7498 31.6672 42.7731 31.6833 42.8001 31.6977C42.827 31.712 42.854 31.7246 42.8828 31.7354C42.9133 31.7461 42.9403 31.7551 42.9708 31.7605L44.0601 31.9992C44.0834 32.0046 44.105 32.0099 44.1284 32.0153C44.1517 32.0207 44.1733 32.0261 44.1967 32.0333C44.22 32.0387 44.2416 32.044 44.2632 32.0512C44.2865 32.0584 44.3063 32.0638 44.3297 32.071C44.353 32.0781 44.3728 32.0835 44.3962 32.0907C44.4555 32.1086 44.5076 32.1284 44.5633 32.1535C44.6173 32.1786 44.6658 32.2074 44.7143 32.2415C44.7629 32.2756 44.806 32.3097 44.8473 32.3527C44.8905 32.394 44.9246 32.4353 44.9606 32.4837C44.9947 32.5322 45.0235 32.5789 45.0486 32.6327C45.072 32.6794 45.09 32.7242 45.1062 32.7745C45.1223 32.8265 45.1349 32.8732 45.1439 32.9252C45.1529 32.9791 45.1583 33.0293 45.1619 33.0832C45.1637 33.1388 45.1619 33.1908 45.1583 33.2465C45.1529 33.3039 45.1457 33.356 45.1349 33.4116C45.1223 33.4708 45.1098 33.5229 45.09 33.5803C45.0702 33.6377 45.0504 33.6898 45.0235 33.7454C44.9965 33.801 44.9714 33.8513 44.9372 33.9051C44.9049 33.959 44.8725 34.0056 44.833 34.0559C44.7934 34.1061 44.7575 34.151 44.7125 34.1959C44.6622 34.2497 44.6137 34.2982 44.558 34.3466C44.5022 34.3951 44.4483 34.4382 44.389 34.4812C44.3297 34.5243 44.2722 34.562 44.2075 34.5979C44.1445 34.6356 44.0852 34.6661 44.0169 34.6948C43.9504 34.7253 43.8893 34.7486 43.821 34.772C43.6934 34.815 43.5748 34.8473 43.4436 34.8761C43.3141 34.9048 43.1955 34.9227 43.0643 34.9335C42.9349 34.946 42.8181 34.9478 42.6886 34.9443C42.5628 34.9407 42.4478 34.9281 42.3238 34.9084C42.2015 34.8886 42.0919 34.8617 41.9751 34.824C41.9211 34.8079 41.8726 34.7881 41.8205 34.7666C41.7702 34.7432 41.7252 34.7199 41.6767 34.6912C41.63 34.6625 41.5886 34.6338 41.5455 34.5997C41.5023 34.5656 41.4646 34.5315 41.4269 34.492C41.3891 34.4525 41.3568 34.4148 41.3226 34.3717C41.2795 34.3143 41.2435 34.2587 41.2112 34.1941C41.177 34.1295 41.1518 34.0666 41.1303 33.9967C41.1069 33.9249 41.0925 33.8585 41.0817 33.7849C41.071 33.7095 41.0656 33.6395 41.0674 33.5623C41.0674 33.4834 41.0746 33.4116 41.0853 33.3344M46.5495 33.3398C46.5657 33.4008 46.5836 33.4547 46.6088 33.5139C46.6322 33.5713 46.6591 33.6216 46.6915 33.6736C46.7238 33.7257 46.758 33.7705 46.7975 33.8172C46.8371 33.8638 46.8784 33.9033 46.9252 33.9428C46.9719 33.9823 47.0186 34.0164 47.0707 34.0487C47.1283 34.0828 47.1858 34.1079 47.2487 34.1295C47.3152 34.151 47.3763 34.1654 47.4464 34.1725C47.5183 34.1815 47.583 34.1815 47.6549 34.1761C47.7286 34.1707 47.7969 34.16 47.8688 34.1402C47.9425 34.1205 48.009 34.099 48.0791 34.0667C48.142 34.0379 48.1995 34.0092 48.2588 33.9733C48.3199 33.9374 48.3721 33.9015 48.4278 33.8585C48.4835 33.8154 48.532 33.7723 48.5824 33.7239C48.6327 33.6754 48.6758 33.627 48.719 33.5713C48.7621 33.5175 48.7999 33.4654 48.8358 33.4062C48.9131 33.2806 48.976 33.1603 49.0353 33.0239C49.0928 32.8911 49.1378 32.7673 49.1737 32.6273C49.2097 32.4909 49.233 32.3653 49.2492 32.2253C49.2636 32.0889 49.2672 31.9651 49.2582 31.8287C49.2492 31.6959 49.2312 31.5756 49.2007 31.4464C49.1863 31.3854 49.1683 31.3315 49.145 31.2741C49.1216 31.2167 49.0964 31.1664 49.0641 31.1144C49.0317 31.0623 48.9994 31.0175 48.9598 30.9708C48.9203 30.9242 48.8807 30.8865 48.8322 30.847C48.7855 30.8075 48.7387 30.7752 48.6866 30.7447C48.6291 30.7106 48.5734 30.6873 48.5105 30.6675C48.4458 30.6478 48.3847 30.6352 48.3163 30.628C48.2462 30.6209 48.1815 30.6209 48.1114 30.628C48.0378 30.6352 47.973 30.6478 47.9029 30.6675C47.831 30.6873 47.7663 30.7124 47.698 30.7447C47.6333 30.7752 47.5758 30.8075 47.5129 30.8452C47.4518 30.8829 47.3961 30.9224 47.3404 30.9672C47.2828 31.0121 47.2325 31.057 47.1822 31.109C47.1301 31.1611 47.0869 31.2095 47.0402 31.2669C46.9952 31.3244 46.9557 31.3764 46.918 31.4392C46.8389 31.5613 46.776 31.6761 46.7166 31.8089C46.6573 31.9382 46.6142 32.0584 46.5765 32.1948C46.5405 32.3276 46.5171 32.4496 46.501 32.5878C46.4866 32.7206 46.4848 32.8427 46.4938 32.9755C46.5028 33.1047 46.5225 33.2214 46.5549 33.3452M45.6076 33.81C45.5879 33.7508 45.5717 33.6969 45.5573 33.6359C45.5429 33.5749 45.5304 33.5193 45.5214 33.4565C45.5106 33.3936 45.5034 33.3362 45.498 33.2734C45.4926 33.2088 45.4908 33.1514 45.489 33.0868C45.489 33.0221 45.489 32.9629 45.4944 32.8965C45.498 32.8283 45.5034 32.7673 45.5106 32.6991C45.5178 32.6309 45.5268 32.5699 45.5375 32.5017C45.5483 32.4335 45.5591 32.3707 45.5735 32.3043C45.5879 32.2361 45.6023 32.1733 45.6184 32.1069C45.6364 32.0387 45.6526 31.9776 45.6724 31.9094C45.6939 31.843 45.7155 31.7838 45.7407 31.7192C45.7658 31.6546 45.791 31.5954 45.8215 31.5308C45.8521 31.4661 45.8808 31.4087 45.915 31.3459C45.9492 31.2831 45.9833 31.2275 46.021 31.1664C46.0588 31.1054 46.0965 31.0516 46.1379 30.9924C46.2062 30.899 46.2727 30.8165 46.3518 30.7321C46.4309 30.646 46.5081 30.5724 46.5962 30.497C46.6843 30.4216 46.7688 30.3588 46.8658 30.2942C46.9629 30.2296 47.0528 30.1776 47.157 30.1255C47.2595 30.0753 47.3547 30.034 47.4608 29.9963C47.5794 29.955 47.6891 29.9245 47.8113 29.8994C47.9299 29.8743 48.0413 29.8581 48.1618 29.8509C48.2804 29.842 48.3882 29.842 48.5069 29.8509C48.6219 29.8599 48.7262 29.8743 48.8394 29.8994C48.949 29.9245 49.0479 29.955 49.1521 29.9963C49.2474 30.034 49.3301 30.0735 49.4182 30.1255C49.5044 30.1776 49.5799 30.2296 49.6554 30.296C49.7309 30.3606 49.7956 30.4252 49.8585 30.5024C49.9214 30.5796 49.9736 30.6549 50.0239 30.7411C50.0742 30.829 50.112 30.9134 50.1479 31.0085C50.1677 31.0641 50.1857 31.1162 50.2 31.1718C50.2162 31.2293 50.2288 31.2831 50.2396 31.3423C50.2504 31.4015 50.2576 31.4572 50.2647 31.5164C50.2701 31.5774 50.2737 31.6331 50.2755 31.6941C50.2755 31.7569 50.2755 31.8125 50.2719 31.8753C50.2683 31.9471 50.263 32.0117 50.2558 32.0817C50.2486 32.1535 50.2396 32.2181 50.2288 32.2899C50.218 32.3617 50.2054 32.4263 50.1893 32.4981C50.1749 32.5699 50.1587 32.6345 50.1407 32.7063C50.1228 32.7781 50.103 32.8427 50.0814 32.9127C50.0616 32.9773 50.0401 33.0365 50.0167 33.0993C49.9915 33.1639 49.9682 33.2214 49.9376 33.2842C49.9089 33.347 49.8801 33.4044 49.846 33.4654C49.8118 33.5265 49.7794 33.5821 49.7417 33.6413C49.704 33.7005 49.668 33.7544 49.6267 33.8118C49.5584 33.9069 49.4901 33.9895 49.411 34.0756C49.3301 34.1618 49.2528 34.2371 49.1647 34.3125C49.0749 34.3897 48.9904 34.4543 48.8933 34.5189C48.7963 34.5835 48.7046 34.6374 48.6003 34.6912C48.4979 34.7432 48.4008 34.7863 48.293 34.8258C48.1708 34.8689 48.0593 34.9012 47.9317 34.9281C47.8077 34.955 47.6944 34.9694 47.5686 34.9784C47.4464 34.9873 47.335 34.9855 47.2127 34.9766C47.0941 34.9658 46.9863 34.9496 46.8712 34.9209C46.758 34.894 46.6573 34.8599 46.5513 34.8132C46.4614 34.7738 46.3805 34.7325 46.2978 34.6786C46.2152 34.6266 46.1451 34.5728 46.0732 34.5064C46.0013 34.4417 45.9402 34.3771 45.8808 34.3C45.8197 34.2228 45.7712 34.1492 45.7245 34.0649C45.6777 33.9787 45.64 33.8962 45.6076 33.8028M50.2054 34.7684L51.0862 30.025H52.055L51.3252 33.9554H53.7158L53.5648 34.7684H50.2072M54.6181 30.025H55.5617L54.9596 33.2608C54.9506 33.3075 54.947 33.3524 54.9452 33.4008C54.9452 33.4475 54.9452 33.4906 54.9524 33.5372C54.9578 33.5821 54.9668 33.6234 54.9794 33.6682C54.992 33.7113 55.0081 33.749 55.0279 33.7903C55.0477 33.8298 55.0692 33.8639 55.0944 33.8997C55.1537 33.9805 55.222 34.0433 55.3083 34.0954C55.3982 34.1492 55.488 34.1815 55.5905 34.1995C55.6983 34.2174 55.8008 34.2174 55.9086 34.1995C56.0237 34.1797 56.1243 34.1474 56.2286 34.0954C56.3364 34.0415 56.4263 33.9805 56.5162 33.8997C56.5539 33.8639 56.5863 33.8298 56.6204 33.7903C56.6528 33.7508 56.6815 33.7131 56.7103 33.67C56.7372 33.627 56.7606 33.5875 56.7822 33.5408C56.8037 33.4959 56.8199 33.4547 56.8361 33.4062C56.8505 33.3595 56.8613 33.3165 56.8703 33.2698L57.4742 30.0232H58.4466L57.8247 33.3667C57.8139 33.4277 57.8013 33.4834 57.7833 33.5426C57.7654 33.6036 57.7456 33.6575 57.7222 33.7167C57.6971 33.7759 57.6719 33.8298 57.6413 33.8872C57.6108 33.9446 57.5784 33.9949 57.5425 34.0505C57.5047 34.1061 57.4688 34.1528 57.4257 34.2048C57.3645 34.2784 57.3034 34.3394 57.2333 34.4041C57.1632 34.4687 57.0949 34.5225 57.0176 34.5763C56.9404 34.6302 56.8667 34.675 56.7822 34.7181C56.6995 34.7612 56.6222 34.7935 56.5341 34.8258C56.4479 34.8563 56.367 34.8779 56.2789 34.8958C56.1854 34.9137 56.0992 34.9263 56.0039 34.9353C55.9104 34.946 55.826 34.9514 55.7307 34.955C55.6372 34.9586 55.5527 34.9586 55.4611 34.955C55.3694 34.9514 55.2867 34.9443 55.1969 34.9335C55.107 34.9227 55.0261 34.9084 54.938 34.8904C54.8589 34.8743 54.7888 34.8527 54.7152 34.8222C54.6433 34.7935 54.5785 34.7594 54.5138 34.7163C54.4491 34.6733 54.3934 34.6302 54.3395 34.5763C54.2838 34.5225 54.2388 34.4687 54.1957 34.4041C54.1526 34.3394 54.1184 34.2766 54.0879 34.2048C54.0645 34.151 54.0465 34.1008 54.0303 34.0433C54.0142 33.9859 54.0016 33.9321 53.9926 33.8728C53.9836 33.8118 53.9782 33.758 53.9764 33.6969C53.9746 33.6341 53.9764 33.5785 53.98 33.5157C53.9854 33.4529 53.9926 33.3954 54.0052 33.3326L54.6199 30.0232M59.3561 34.7666L60.0894 30.8201H58.585L58.7324 30.0232H62.7262L62.577 30.8201H61.0439L60.3105 34.7666H59.3525M62.1367 34.7666L63.0174 30.0232H63.997L63.1163 34.7666H62.1367ZM64.9946 33.3362C65.0108 33.3972 65.0287 33.4511 65.0539 33.5103C65.0791 33.5677 65.1042 33.618 65.1366 33.67C65.1689 33.7221 65.2013 33.7669 65.2426 33.8136C65.2822 33.8603 65.3235 33.8997 65.3702 33.9392C65.417 33.9787 65.4637 34.0128 65.5158 34.0451C65.5733 34.0792 65.6309 34.1043 65.6938 34.1259C65.7603 34.1474 65.8214 34.1618 65.8915 34.1689C65.9634 34.1779 66.0281 34.1779 66.1 34.1725C66.1737 34.1672 66.2402 34.1564 66.3139 34.1366C66.3876 34.1169 66.4541 34.0954 66.5242 34.0631C66.5871 34.0343 66.6446 34.0056 66.7039 33.9697C66.7632 33.9338 66.8172 33.898 66.8729 33.8549C66.9286 33.8118 66.9771 33.7687 67.0275 33.7203C67.0778 33.6718 67.1209 33.6234 67.1641 33.5677C67.2072 33.5139 67.2449 33.4618 67.2809 33.4026C67.3582 33.277 67.4211 33.1567 67.4804 33.0203C67.5379 32.8875 67.5811 32.7637 67.6188 32.6237C67.6548 32.4873 67.6781 32.3617 67.6943 32.2217C67.7087 32.0853 67.7123 31.9615 67.7033 31.8251C67.6943 31.6923 67.6781 31.572 67.6458 31.4428C67.6314 31.3818 67.6134 31.328 67.59 31.2705C67.5667 31.2131 67.5415 31.1628 67.5092 31.1108C67.4768 31.0588 67.4445 31.0139 67.4049 30.9672C67.3654 30.9206 67.3258 30.8829 67.2773 30.8434C67.2306 30.8039 67.1838 30.7716 67.1317 30.7411C67.0742 30.7088 67.0185 30.6837 66.9556 30.6639C66.8909 30.6442 66.8297 30.6316 66.7614 30.6244C66.6913 30.6173 66.6266 30.6173 66.5565 30.6244C66.4828 30.6316 66.4181 30.6442 66.348 30.6639C66.2761 30.6837 66.2114 30.7088 66.1431 30.7411C66.0784 30.7716 66.0209 30.8039 65.958 30.8416C65.8969 30.8811 65.8412 30.9188 65.7854 30.9636C65.7279 31.0085 65.6776 31.0534 65.6273 31.1054C65.5751 31.1575 65.532 31.2059 65.4853 31.2633C65.4403 31.319 65.4008 31.3728 65.363 31.4356C65.284 31.5577 65.221 31.6725 65.1617 31.8053C65.1024 31.9346 65.0593 32.0548 65.0215 32.1912C64.9838 32.324 64.9622 32.446 64.946 32.5842C64.9317 32.717 64.9299 32.8391 64.9389 32.9719C64.9478 33.1011 64.9676 33.2178 65 33.3416M64.0527 33.8064C64.033 33.7472 64.0168 33.6934 64.0024 33.6323C63.988 33.5713 63.9754 33.5157 63.9665 33.4529C63.9557 33.3901 63.9485 33.3326 63.9431 33.2698C63.9377 33.2052 63.9359 33.1478 63.9341 33.0832C63.9341 33.0186 63.9341 32.9593 63.9395 32.8929C63.9431 32.8247 63.9485 32.7637 63.9557 32.6955C63.9629 32.6273 63.9718 32.5663 63.9826 32.4981C63.9934 32.4299 64.0042 32.3671 64.0186 32.3007C64.033 32.2325 64.0473 32.1697 64.0635 32.1033C64.0815 32.0351 64.0977 31.974 64.1174 31.9058C64.139 31.8394 64.1606 31.7802 64.1857 31.7156C64.2109 31.651 64.2361 31.5918 64.2666 31.5272C64.2972 31.4626 64.3259 31.4051 64.3601 31.3423C64.3942 31.2795 64.4284 31.2239 64.4661 31.1628C64.5039 31.1018 64.5416 31.048 64.583 30.9888C64.6513 30.8954 64.7178 30.8129 64.7969 30.7285C64.8759 30.6424 64.9532 30.5688 65.0413 30.4934C65.1294 30.4181 65.2139 30.3552 65.3109 30.2906C65.408 30.226 65.4979 30.174 65.6021 30.1219C65.7046 30.0717 65.7998 30.0304 65.9059 29.9927C66.0245 29.9514 66.1341 29.9209 66.2564 29.8958C66.375 29.8707 66.4864 29.8545 66.6069 29.8473C66.7255 29.8384 66.8333 29.8384 66.952 29.8473C67.067 29.8563 67.1712 29.8707 67.2845 29.8958C67.3941 29.9209 67.493 29.9514 67.599 29.9927C67.6943 30.0304 67.777 30.0699 67.8651 30.1219C67.9513 30.174 68.0268 30.226 68.1023 30.2924C68.1778 30.357 68.2425 30.4216 68.3054 30.4988C68.3683 30.576 68.4205 30.6514 68.4708 30.7375C68.5211 30.8254 68.5607 30.9098 68.5948 31.0049C68.6146 31.0605 68.6325 31.1126 68.6469 31.1682C68.6631 31.2257 68.6757 31.2795 68.6865 31.3387C68.6973 31.3979 68.7044 31.4536 68.7116 31.5128C68.717 31.5738 68.7206 31.6295 68.7224 31.6905C68.7224 31.7533 68.7224 31.8089 68.7188 31.8717C68.7152 31.9435 68.7098 32.0081 68.7026 32.0781C68.6955 32.1499 68.6865 32.2145 68.6757 32.2863C68.6649 32.3581 68.6523 32.4227 68.6361 32.4945C68.6218 32.5663 68.6056 32.6309 68.5876 32.7027C68.5696 32.7745 68.5499 32.8391 68.5283 32.9091C68.5085 32.9737 68.487 33.0329 68.4636 33.0957C68.4384 33.1603 68.4133 33.2178 68.3845 33.2806C68.3557 33.3434 68.327 33.4008 68.2928 33.4618C68.2587 33.5229 68.2263 33.5785 68.1886 33.6377C68.1508 33.6969 68.1149 33.7508 68.0736 33.8082C68.0052 33.9033 67.9369 33.9859 67.8579 34.072C67.777 34.1582 67.6997 34.2336 67.6116 34.3089C67.5217 34.3861 67.4373 34.4507 67.3402 34.5153C67.2431 34.5799 67.1515 34.6338 67.0472 34.6876C66.9448 34.7397 66.8477 34.7827 66.7399 34.8222C66.6176 34.8653 66.5062 34.8976 66.3786 34.9245C66.2546 34.9514 66.1413 34.9658 66.0155 34.9748C65.8933 34.9837 65.7818 34.9819 65.6596 34.973C65.541 34.9622 65.4331 34.946 65.3181 34.9173C65.2049 34.8904 65.1042 34.8563 64.9982 34.8097C64.9083 34.7702 64.8274 34.7289 64.7447 34.6751C64.6621 34.623 64.592 34.5692 64.5201 34.5028C64.4482 34.4382 64.3871 34.3735 64.3277 34.2964C64.2666 34.2192 64.2181 34.1456 64.1714 34.0613C64.1246 33.9751 64.0869 33.8926 64.0545 33.7992M68.6541 34.7648L69.5348 30.0214H70.545L71.9703 33.2285L72.5671 30.0214H73.5413L72.6606 34.7648H71.6342L70.2269 31.5415L69.6283 34.7648H68.6559M73.331 33.3272H74.2872C74.2746 33.4008 74.271 33.469 74.2782 33.5426C74.2854 33.6126 74.2998 33.6772 74.3268 33.7418C74.3519 33.8046 74.3861 33.8603 74.431 33.9123C74.4759 33.9644 74.5245 34.0056 74.582 34.0415C74.6431 34.0774 74.7024 34.1025 74.7707 34.1205C74.8426 34.1402 74.9091 34.151 74.9828 34.16C75.0583 34.1689 75.1284 34.1707 75.2039 34.1689C75.283 34.1672 75.3531 34.16 75.4304 34.1456C75.5095 34.1331 75.5814 34.1151 75.6569 34.0918C75.7341 34.0684 75.8042 34.0415 75.8797 34.0092C75.9067 33.9967 75.9319 33.9859 75.957 33.9715C75.984 33.9572 76.0073 33.9428 76.0325 33.9249C76.0577 33.9069 76.0792 33.8908 76.1026 33.8728C76.126 33.8531 76.1457 33.8351 76.1673 33.8136C76.1889 33.7921 76.2069 33.7723 76.2266 33.749C76.2518 33.7203 76.2716 33.6916 76.2895 33.6593C76.3075 33.627 76.3219 33.5964 76.3345 33.5623C76.3453 33.5282 76.3542 33.4959 76.3578 33.4618C76.3614 33.4277 76.3632 33.3954 76.3578 33.3613C76.3542 33.329 76.3471 33.2985 76.3363 33.268C76.3237 33.2321 76.3075 33.2016 76.2877 33.1693C76.268 33.137 76.2482 33.1101 76.2212 33.0832C76.1961 33.0562 76.1691 33.0329 76.1404 33.0114C76.1098 32.9898 76.0792 32.9719 76.0451 32.9557C76.0091 32.9396 75.9768 32.927 75.939 32.9181L74.5856 32.5699C74.5389 32.5573 74.4975 32.5448 74.4526 32.5268C74.4076 32.5089 74.3699 32.4909 74.3286 32.4694C74.2872 32.4478 74.2513 32.4245 74.2135 32.3976C74.1758 32.3707 74.1434 32.3437 74.1093 32.3114C74.0751 32.2791 74.0464 32.2486 74.0176 32.2127C73.9601 32.1427 73.9152 32.071 73.8792 31.9884C73.8415 31.9041 73.8163 31.8215 73.8001 31.73C73.7839 31.6348 73.7803 31.5469 73.7857 31.45C73.7929 31.3495 73.8091 31.2598 73.8361 31.1628C73.8648 31.0623 73.9008 30.9744 73.9493 30.8811C73.9924 30.8039 74.0356 30.7357 74.0877 30.6639C74.1416 30.5921 74.1938 30.5293 74.2567 30.4647C74.3196 30.4001 74.3807 30.3445 74.4508 30.2888C74.5209 30.2332 74.5892 30.1865 74.6665 30.1417C74.742 30.0968 74.8157 30.0609 74.8965 30.0268C75.0242 29.9748 75.1428 29.9353 75.2758 29.9012C75.4052 29.8671 75.5256 29.8438 75.6586 29.8258C75.7881 29.8097 75.9085 29.8007 76.0397 29.8025C76.1673 29.8025 76.2841 29.8132 76.41 29.8312C76.534 29.8491 76.6436 29.8761 76.7641 29.9119C76.8234 29.9299 76.8773 29.9496 76.933 29.9748C76.9887 29.9999 77.0373 30.0268 77.0876 30.0609C77.1379 30.095 77.1811 30.1273 77.226 30.1686C77.2709 30.2099 77.3069 30.2493 77.3446 30.296C77.3824 30.3427 77.4129 30.3893 77.4417 30.4414C77.4704 30.4916 77.4956 30.5401 77.5172 30.5939C77.5387 30.6496 77.5567 30.6998 77.5711 30.7572C77.5855 30.8165 77.5963 30.8703 77.6035 30.9295C77.6106 30.9906 77.6124 31.048 77.6124 31.109C77.6124 31.1718 77.607 31.2292 77.5981 31.2921H76.6526C76.6598 31.2382 76.6598 31.188 76.6526 31.1323C76.6472 31.0803 76.6364 31.0336 76.6167 30.9834C76.5987 30.9349 76.5771 30.8936 76.5466 30.8524C76.5178 30.8111 76.4855 30.777 76.4459 30.7447C76.4064 30.7124 76.3668 30.6873 76.3201 30.6657C76.2644 30.6406 76.2122 30.6209 76.1529 30.6047C76.0918 30.5885 76.0361 30.5778 75.975 30.5688C75.9103 30.5616 75.8528 30.558 75.7881 30.5598C75.7216 30.5598 75.6622 30.567 75.5975 30.576C75.531 30.5868 75.4699 30.5993 75.4052 30.6191C75.3729 30.628 75.3441 30.6388 75.3135 30.6514C75.283 30.6639 75.2542 30.6765 75.2237 30.6926C75.1931 30.7088 75.1662 30.7231 75.1374 30.7411C75.1086 30.759 75.0835 30.777 75.0565 30.7985C75.0295 30.8201 75.0044 30.8398 74.9792 30.8631C74.9397 30.899 74.9073 30.9367 74.8786 30.9798C74.8498 31.0229 74.8282 31.0659 74.8103 31.1144C74.7941 31.1611 74.7851 31.2059 74.7815 31.2562C74.7779 31.3028 74.7815 31.3459 74.7941 31.3926C74.8049 31.4356 74.8211 31.4751 74.8462 31.5128C74.8642 31.5379 74.8804 31.5595 74.9019 31.581C74.9235 31.6025 74.9433 31.6223 74.9684 31.6402C74.9936 31.6582 75.017 31.6743 75.0439 31.6887C75.0709 31.703 75.0979 31.7156 75.1266 31.7264C75.1572 31.7371 75.1841 31.7461 75.2147 31.7515L76.3039 31.9902C76.3273 31.9956 76.3489 32.001 76.3722 32.0063C76.3956 32.0117 76.4172 32.0171 76.4405 32.0243C76.4639 32.0297 76.4855 32.0351 76.507 32.0422C76.5304 32.0494 76.552 32.0548 76.5735 32.062C76.5969 32.0692 76.6167 32.0745 76.64 32.0817C76.6994 32.0997 76.7515 32.1194 76.8072 32.1445C76.8611 32.1697 76.9096 32.1984 76.9582 32.2325C77.0067 32.2666 77.0498 32.3007 77.0912 32.3438C77.1343 32.385 77.1685 32.4263 77.2026 32.4748C77.2368 32.5232 77.2655 32.5699 77.2907 32.6237C77.3141 32.6704 77.332 32.7153 77.3482 32.7655C77.3644 32.8175 77.377 32.8642 77.386 32.9163C77.395 32.9701 77.4003 33.0203 77.4039 33.0742C77.4057 33.1298 77.4039 33.1819 77.4003 33.2375C77.395 33.2949 77.3878 33.347 77.377 33.4026C77.3644 33.4618 77.3518 33.5139 77.332 33.5713C77.3123 33.6287 77.2925 33.6808 77.2655 33.7364C77.2386 33.7921 77.2134 33.8423 77.1793 33.8962C77.1469 33.95 77.1146 33.9967 77.075 34.0469C77.0373 34.0972 76.9995 34.142 76.9546 34.1869C76.9043 34.2407 76.8557 34.2892 76.8 34.3376C76.7443 34.3861 76.6904 34.4292 76.631 34.4723C76.5717 34.5153 76.5142 34.553 76.4495 34.5889C76.3866 34.6266 76.3273 34.6571 76.259 34.6858C76.1925 34.7163 76.1314 34.7397 76.0631 34.763C75.9354 34.8061 75.8168 34.8384 75.6856 34.8671C75.5562 34.8958 75.4376 34.9137 75.3064 34.9245C75.1769 34.9371 75.0601 34.9389 74.9307 34.9353C74.8049 34.9317 74.6898 34.9191 74.5658 34.8994C74.4436 34.8796 74.334 34.8527 74.2171 34.815C74.1632 34.7989 74.1147 34.7791 74.0625 34.7576C74.0122 34.7343 73.9673 34.7109 73.9187 34.6822C73.872 34.6535 73.8307 34.6248 73.7875 34.5907C73.7444 34.5566 73.7067 34.5225 73.6689 34.483C73.6312 34.4435 73.5988 34.4058 73.5647 34.3628C73.5215 34.3053 73.4856 34.2497 73.4532 34.1851C73.4191 34.1205 73.3939 34.0577 73.3723 33.9877C73.349 33.9159 73.3346 33.8495 73.3238 33.7759C73.313 33.7005 73.3076 33.6305 73.3094 33.5534C73.3094 33.4744 73.3166 33.4026 73.3274 33.3254L73.331 33.3272Z" fill="#B8BFC7"/>
<path d="M6.97212 20.1867C5.04349 20.1867 3.33774 19.4743 2.13527 18.1623C0.62544 16.5023 -0.0180351 13.961 0.274944 10.8221C0.83394 5.07009 4.93025 3.53563 7.25072 3.53563C8.95647 3.53563 10.4232 4.24813 11.1781 5.44698C11.7514 6.35329 12.1846 7.9739 10.9678 10.5421C10.7719 10.919 10.5616 11.0033 10.4088 11.0033C9.93426 11.0033 9.5568 10.2639 9.47232 9.55143C9.19193 7.12322 8.73179 5.78258 7.1231 5.99256C5.94939 6.14691 5.0399 6.66198 4.4108 7.54138C3.433 8.90893 3.18137 11.0733 3.7116 13.7941C4.18612 16.2654 5.69595 17.7442 7.72344 17.7442C8.56283 17.7442 9.42919 17.4929 10.2111 17.0048C10.6442 16.7392 10.9929 16.3479 11.2877 16.0285C11.5807 15.6803 11.791 15.456 12.0139 15.456C12.3356 15.456 12.4057 15.9172 12.4327 16.111C12.6555 17.6185 11.5519 18.4692 10.8258 19.0417C9.76351 19.8511 8.19796 20.1724 7.09434 20.1867H6.96852M18.5978 20.0055C15.6339 20.0055 13.7466 14.4922 13.5237 11.3946C13.3691 9.20326 13.4536 5.92257 13.5093 5.32314C13.6064 4.4581 14.3757 3.80125 15.411 3.68998H15.4667C15.8028 3.68998 16.8507 3.68998 16.8651 11.5058C16.8795 15.9585 18.1503 18.0241 19.004 18.0241H19.0885C21.1016 17.6329 22.234 8.60204 21.9536 5.22444L21.9392 4.90319C21.8979 4.47067 21.8691 4.00943 21.7846 3.59127C21.7559 3.38129 21.8134 3.15875 21.9518 2.97749C22.0632 2.8375 22.2322 2.76751 22.385 2.76751C22.5377 2.76751 22.7624 2.8375 22.9853 3.15875C23.334 3.70254 23.5856 4.33068 23.7402 5.75566C24.0206 8.21259 23.6 15.6785 21.001 18.7492C20.3305 19.5317 19.5756 19.9498 18.7218 20.0055H18.596M22.3562 18.5392C22.3562 17.7711 22.748 17.256 23.7258 17.1573C24.4951 17.0873 25.1098 17.7711 25.1098 18.5392C25.1098 19.3486 24.4951 19.9211 23.7258 19.9211C22.9565 19.9211 22.3562 19.4886 22.3562 18.5392ZM13.2145 19.8224C12.4596 19.5425 12.1379 18.7474 12.4183 18.0367C12.6843 17.3242 13.3134 16.9061 14.1941 17.2417C14.9077 17.5216 15.2564 18.0654 14.9904 19.0274C14.7945 19.7668 13.9281 20.1024 13.2145 19.8224ZM90.7263 11.8522V12.5504H88.8804V9.54963H89.7054V11.8522H90.7263ZM90.7263 10.2478V9.54963H92.8922V10.2478H92.2218V12.5504H91.3968V10.2478H90.7263ZM94.2493 11.8809C94.864 11.8809 95.1713 11.644 95.1713 11.0572C95.1713 10.4703 94.864 10.2191 94.2493 10.2191H94.0947V11.8791H94.2493M95.423 9.82781C95.8004 10.0934 95.9964 10.5116 95.9964 11.0554C95.9964 11.5992 95.8004 12.0048 95.423 12.2704C95.0455 12.536 94.6267 12.5504 94.1234 12.5504H93.2984V9.54963H94.012C94.571 9.54963 95.0186 9.54963 95.423 9.8296M73.6868 17.9667C74.3716 17.9667 74.9864 17.3386 75.1967 15.9297H75.0852C73.534 15.9297 72.5275 15.1203 72.7935 14.6178C73.1566 13.9341 73.9403 14.4635 75.2398 14.2266C75.114 12.4678 74.4435 11.2959 73.8144 11.3102C72.7108 11.3246 72.1231 12.999 72.1231 14.7165C72.1231 16.9491 72.7522 17.9685 73.6886 17.9685M38.9931 11.3102C37.8895 11.3246 37.3017 12.999 37.3017 14.7165C37.3017 16.9491 37.9308 17.9685 38.8817 17.9685C39.5952 17.9685 40.2513 17.2435 40.4184 15.6372C40.2926 15.6516 40.1812 15.6516 40.0554 15.6516C38.4898 15.6516 37.5677 14.8135 37.832 14.3109C38.2094 13.5859 39.0057 14.2822 40.4041 13.9897C40.2369 12.3565 39.5934 11.2959 38.9931 11.3102ZM60.2134 11.199C59.5555 11.1433 58.4106 12.5521 58.3962 14.5909C58.3818 16.6422 59.0253 17.5073 59.8773 17.5916C60.7293 17.6885 61.61 16.7822 61.5974 14.4796C61.583 12.1627 60.9683 11.2564 60.2134 11.199ZM89.6802 15.359C90.1548 14.6609 91.0085 15.0234 91.0085 15.9728C91.0085 16.9222 89.3315 20.3698 86.3532 20.3698C83.3749 20.3698 83.4881 16.7122 83.4881 15.6247C83.4881 14.5371 83.4738 13.489 83.4738 12.8465C83.4738 12.344 80.9861 14.5766 80.9861 18.5123C80.9861 19.2374 80.1899 19.6017 79.6866 19.6017C79.1833 19.6017 78.7789 19.0148 78.7789 18.4854V14.424C78.4428 14.8565 77.758 15.3034 76.9473 15.5959C76.8071 18.0941 75.7592 19.9786 73.4675 19.9642C71.9991 19.9642 70.8541 19.3217 70.1405 18.2054C70.1118 18.2341 70.0992 18.2754 70.0704 18.3023C69.3299 19.2517 68.0016 20.3393 66.5888 19.6555C65.1779 18.9574 64.6746 16.7948 64.5901 14.3379C64.5056 11.9796 64.7573 7.9039 64.8004 7.30268C63.7094 7.19141 62.577 7.06579 61.3889 6.89888C45.2571 4.65193 38.0728 4.67885 34.9831 7.19141C35.0244 7.34576 35.0532 7.51266 35.0675 7.67957C35.2904 9.17275 34.913 10.2765 34.0322 10.7916C33.5289 11.0841 32.8999 11.0015 32.4667 10.6103C31.9922 10.1634 31.6974 9.2571 32.2995 8.01338C32.4541 7.70649 32.6213 7.3996 32.8172 7.09271C32.6914 6.87016 32.5512 6.67454 32.384 6.5202C32.0065 6.15767 31.5446 5.98897 31 6.00333C30.0078 6.04461 29.2116 6.45021 28.6094 7.20398C27.5184 8.55717 27.1984 10.9585 27.7287 13.7923C28.1061 15.8292 29.0983 17.1699 30.538 17.588C31.852 17.9506 33.4031 17.4911 34.6056 16.373C34.4798 15.7305 34.4241 15.0198 34.4654 14.2374C34.6326 11.4035 35.9051 8.83535 38.5887 8.83535C40.9936 8.83535 41.7611 10.9854 42.0128 13.1067C43.2709 11.6692 43.5495 8.72408 44.8778 8.72408C45.6741 8.72408 46.1073 9.10096 46.1073 10.106V11.041C46.429 10.4542 47.1138 9.24095 47.9802 8.62716C49.224 7.76212 50.1604 9.24095 50.0634 10.6928C50.0634 10.6928 51.5588 8.65588 52.7613 8.66844C54.397 8.6828 54.2855 11.1254 54.2424 11.9348C54.201 12.7442 54.0465 15.5224 54.0465 16.3587C54.0465 17.195 54.3269 17.9775 54.7313 18.0475C54.8984 18.0888 55.053 18.0331 55.1788 17.9631C55.1932 15.3393 55.2202 12.8824 55.2202 12.3799C54.8427 11.6261 54.8014 10.2998 55.053 9.71474C55.2903 9.12788 55.7378 8.70972 56.6743 8.54281C58.1428 8.29156 58.1841 9.64475 58.2398 9.92472C58.5472 9.4922 59.7497 8.75279 60.7005 8.75279C62.2247 8.75279 63.021 9.65911 63.6501 11.3353C64.2648 13.0241 64.502 16.6243 63.021 18.3275C61.5525 20.0306 59.0091 19.3181 58.6173 19.0956C58.2398 18.873 58.0583 18.9412 58.0169 19.2912C57.9756 19.8206 57.9469 20.4488 57.9469 21.1056C58.3513 21.1056 58.7575 21.0913 59.1637 21.0913C71.2837 21.0913 80.5224 23.3113 88.2243 28.0834H88.28L88.3915 28.2503L88.3358 28.3615C88.3214 28.3903 86.2813 31.2366 83.9051 31.2366C83.1916 31.2366 82.5355 30.9854 81.9334 30.4685C76.09 25.4577 69.5761 23.4064 59.4423 23.4064C58.9534 23.4064 58.4645 23.4064 57.9612 23.4208C58.0169 25.3196 58.1158 26.9796 58.1284 27.1609C58.1571 27.4965 58.3243 28.4728 57.5694 28.2072C56.8289 27.9416 55.5563 26.574 55.319 24.914C55.2777 24.6483 55.2489 24.1458 55.2345 23.5051C50.5379 23.7151 45.2391 24.2033 39.3418 24.747C37.5803 24.914 35.7631 25.0827 33.8615 25.2496C28.1852 25.7664 23.4329 26.0177 19.324 26.0177C8.1692 26.0177 2.48037 24.2176 0.285728 19.9875C0.174288 19.7776 0.174288 19.485 0.285728 19.3038C0.438509 19.0669 0.760246 19.0812 1.02626 19.4007C3.54265 22.5557 8.37949 23.9089 17.185 23.9089C21.4072 23.9089 26.7599 23.5877 33.5685 22.9183C34.7979 22.807 36.0148 22.6814 37.2442 22.5701C43.1721 21.9707 49.2797 21.3694 55.1932 21.1738C55.1788 20.63 55.1788 20.0575 55.1788 19.485C54.9272 19.555 54.6486 19.5963 54.2981 19.5963C51.9776 19.5676 51.6972 17.1537 51.6972 16.5112C51.6972 15.8687 51.6559 13.5105 51.6415 12.798C51.6271 12.073 51.4186 12.2668 51.2083 12.4768C50.998 12.6724 50.0903 14.1099 50.0903 15.0862C50.0903 16.0626 50.1317 17.2488 50.2719 17.8501C50.3977 18.4638 50.3276 19.5945 49.4756 19.5945C47.7843 19.5945 47.6171 18.3526 47.6171 16.9563C47.6171 15.8669 47.6027 13.4674 47.6027 12.8249C47.6027 12.3224 46.0659 14.2338 46.0929 18.5051C46.0929 19.2302 45.7855 19.5945 45.1277 19.5945C44.5399 19.5801 44.1355 19.0507 43.9953 18.4082C43.8695 17.8913 43.7293 15.5331 43.7293 13.8587C43.4219 14.2499 42.8486 14.7381 42.135 15.1006C42.1206 17.8231 41.1015 19.9714 38.6534 19.957C37.228 19.957 36.1226 19.3702 35.3965 18.3382C33.9567 19.4402 32.224 20.167 30.8957 20.1939H30.7699C29.0642 20.1939 27.5274 19.5371 26.4094 18.3651C24.8582 16.7051 24.186 14.0938 24.4664 10.8149C24.9409 5.05035 28.7712 3.51589 30.9532 3.51589C32.5601 3.51589 33.6925 4.14403 34.3773 5.42724C37.5641 3.01338 44.5399 1.71403 61.8454 3.83535C62.9077 3.96098 63.9143 4.07225 64.8921 4.17095C64.9478 2.59342 65.0035 0.933338 65.0035 0.653366C65.0179 0.122139 65.6326 -0.267308 66.7362 0.206489C67.8398 0.667724 67.7697 2.69034 67.6583 4.40785C78.5758 5.17598 83.7056 3.62537 86.1106 2.0622C86.5581 1.76966 86.7684 1.92221 86.8367 2.00656C87.0183 2.20218 86.9338 2.55035 86.6264 2.91288C85.397 4.37914 81.9298 8.49615 67.5594 7.5324C67.475 10.6588 67.4049 15.0001 67.475 16.4933C67.5037 17.247 67.6152 17.8465 68.2442 17.9452C68.6918 18.0008 69.2652 17.3583 69.5582 16.9689C69.3209 16.1738 69.222 15.2657 69.2778 14.2338C69.4449 11.4 70.7031 8.83176 73.3867 8.83176C76.0702 8.83176 76.658 11.26 76.8665 13.4926C78.3619 12.1806 78.964 9.0543 80.3606 9.0543C81.1569 9.0543 81.3528 9.6968 81.3528 10.7018V11.9994C81.6889 11.4125 82.7368 9.98933 83.6032 9.37555C84.8326 8.51051 86.204 9.38991 86.204 10.5349C86.204 11.6799 85.9812 13.41 85.9812 15.1401C85.9812 16.8702 86.3173 18.0008 87.1692 18.0008C88.4274 18.0008 89.1967 16.0608 89.6713 15.3483L89.6802 15.359Z" fill="#B8BFC7"/>
</g>
<defs>
<clipPath id="clip0_382_237">
<rect width="96" height="35" fill="white"/>
</clipPath>
</defs>
</svg>
