<svg xmlns="http://www.w3.org/2000/svg" xmlns:xlink="http://www.w3.org/1999/xlink" width="116.641" height="32.802" viewBox="0 0 116.641 32.802"><defs><clipPath id="a"><rect width="35.172" height="32.344" fill="#b8bfc7"/></clipPath></defs><g transform="translate(3806.88 1546.172)"><g transform="translate(-3806.88 -1546.172)"><g clip-path="url(#a)"><path d="M34.9,21.952a25.6,25.6,0,0,0-2.252-4.473,1.839,1.839,0,0,1-.369-.748c-.084-.412.056-.592-.084-.818a.983.983,0,0,0-.923-.314A1.34,1.34,0,0,0,30.2,16.6a1.48,1.48,0,0,0,.126.943,21.917,21.917,0,0,1,1.342,3.963,4.057,4.057,0,0,1-.65,3.292,3.277,3.277,0,0,1-2.131,1.015,5.669,5.669,0,0,0-.2-.843c-.018-.05-.035-.1-.051-.153a5.733,5.733,0,0,1-.278-1.769v-.18a5.664,5.664,0,0,1,.248-1.5h0a1.01,1.01,0,0,1,.494-.714c.131-.071.184-.056.285-.146a.637.637,0,0,0,.165-.232.644.644,0,0,0,.047-.242.633.633,0,0,0-.127-.382.647.647,0,0,0-.119-.121,1.675,1.675,0,0,0-.214-.108,1.8,1.8,0,0,0-1.593.087,5.341,5.341,0,0,0-.691.7,5.454,5.454,0,0,0-1.263,3.5q0,.2.013.392l-.017-.007v.121a1.96,1.96,0,0,1-.126.7,1.984,1.984,0,0,1-3.1.856,3.041,3.041,0,0,0,1.815-.752,2.843,2.843,0,0,0,.575-.728,2.51,2.51,0,0,1-.366-.55,3.045,3.045,0,0,1-.043-2.319l.149-.421,1.31-2.035.356-.556.889-1.391.385-.787a11.634,11.634,0,0,0,1.017-5.127C28.244,5.444,23.662.083,17.589,0h-.006C11.51.083,6.928,5.444,6.729,11.112a11.634,11.634,0,0,0,1.017,5.127l.385.787.889,1.391.356.556L10.669,21l.149.421a3.045,3.045,0,0,1-.043,2.319,2.51,2.51,0,0,1-.366.55,2.843,2.843,0,0,0,.575.728,3.041,3.041,0,0,0,1.815.752,1.986,1.986,0,0,1-3.224-1.552c0-.041,0-.081,0-.121l-.017.007q.013-.194.013-.392a5.454,5.454,0,0,0-1.263-3.5,5.341,5.341,0,0,0-.691-.7,1.8,1.8,0,0,0-1.593-.087,1.687,1.687,0,0,0-.214.108.651.651,0,0,0-.118.121.633.633,0,0,0-.127.382.645.645,0,0,0,.047.242.637.637,0,0,0,.165.232c.1.09.155.075.285.146a1.01,1.01,0,0,1,.494.714h0a5.665,5.665,0,0,1,.248,1.5c0,.06,0,.119,0,.18a5.733,5.733,0,0,1-.278,1.769c-.015.052-.033.1-.051.153a5.668,5.668,0,0,0-.2.843A3.277,3.277,0,0,1,4.15,24.8a4.057,4.057,0,0,1-.65-3.292,21.917,21.917,0,0,1,1.342-3.963,1.48,1.48,0,0,0,.126-.943,1.34,1.34,0,0,0-1.068-1,.983.983,0,0,0-.923.314c-.14.226,0,.406-.084.818a1.835,1.835,0,0,1-.369.748A25.615,25.615,0,0,0,.272,21.952a7.121,7.121,0,0,0,.252,4.494c.181.569,1.556,4.694,5.2,5.591A6.161,6.161,0,0,0,8.3,32.1a3.912,3.912,0,0,1-2.1-5.229h0a5.717,5.717,0,0,0,1.507,3.757l.005.007a5.768,5.768,0,0,0,1.728,1.29h0a5.731,5.731,0,0,0,.891.345,4.327,4.327,0,0,0,.8.074,4.259,4.259,0,0,0,2.816-1.059q.1-.111.208-.217s.093-.093.19-.182a5.748,5.748,0,0,1,2.635-1.5,3.648,3.648,0,0,1,1.193,0,5.748,5.748,0,0,1,2.635,1.5c.1.089.19.182.19.182q.106.106.208.217a4.259,4.259,0,0,0,2.816,1.059,4.329,4.329,0,0,0,.8-.074,5.731,5.731,0,0,0,.891-.345h0a5.77,5.77,0,0,0,1.728-1.29s.005,0,.005-.007a5.717,5.717,0,0,0,1.507-3.757h0a3.912,3.912,0,0,1-2.1,5.229,6.161,6.161,0,0,0,2.581-.062c3.643-.9,5.018-5.022,5.2-5.591a7.121,7.121,0,0,0,.252-4.494M16.048,20.072a.4.4,0,0,1-.4-.4,1.009,1.009,0,1,0-2.017,0,.4.4,0,0,1-.79,0,1.8,1.8,0,0,1,3.6,0,.4.4,0,0,1-.4.4M21,18.669a1.008,1.008,0,0,0-1.009,1.009.4.4,0,0,1-.79,0,1.8,1.8,0,0,1,3.6,0,.4.4,0,0,1-.79,0A1.008,1.008,0,0,0,21,18.669" fill="#b8bfc7"/></g></g><path d="M8,.264a6.141,6.141,0,0,0,2.064-.332,5.043,5.043,0,0,0,1.647-.95,4.881,4.881,0,0,0,1.151-1.488h.253V0h3.644V-22.209H13.118v8.751h-.253a4.454,4.454,0,0,0-1.137-1.5,5.328,5.328,0,0,0-1.676-.969A5.968,5.968,0,0,0,8-16.269a6.079,6.079,0,0,0-3.5,1,6.424,6.424,0,0,0-2.272,2.851,11.038,11.038,0,0,0-.8,4.4v.029A10.937,10.937,0,0,0,2.235-3.6,6.475,6.475,0,0,0,4.522-.742,6.044,6.044,0,0,0,8,.264ZM9.142-2.808A3.662,3.662,0,0,1,7-3.43a3.935,3.935,0,0,1-1.38-1.786A7.22,7.22,0,0,1,5.14-7.988v-.029a7.2,7.2,0,0,1,.482-2.772,3.947,3.947,0,0,1,1.383-1.783A3.655,3.655,0,0,1,9.142-13.2a3.663,3.663,0,0,1,2.144.627,4,4,0,0,1,1.393,1.786,7.1,7.1,0,0,1,.489,2.771v.029a7.126,7.126,0,0,1-.487,2.762,3.97,3.97,0,0,1-1.39,1.788A3.682,3.682,0,0,1,9.142-2.808ZM26.636.32a8.085,8.085,0,0,0,4.128-1,6.654,6.654,0,0,0,2.651-2.864,9.879,9.879,0,0,0,.928-4.448v-.029a9.794,9.794,0,0,0-.935-4.442,6.7,6.7,0,0,0-2.658-2.861,8.058,8.058,0,0,0-4.114-1,8.041,8.041,0,0,0-4.1,1,6.718,6.718,0,0,0-2.666,2.864,9.762,9.762,0,0,0-.937,4.437v.029a9.859,9.859,0,0,0,.93,4.448A6.659,6.659,0,0,0,22.518-.68,8.083,8.083,0,0,0,26.636.32Zm0-2.951a3.6,3.6,0,0,1-2.154-.636A3.951,3.951,0,0,1,23.127-5.1a7.938,7.938,0,0,1-.468-2.886v-.029a7.886,7.886,0,0,1,.47-2.885,3.979,3.979,0,0,1,1.357-1.833,3.583,3.583,0,0,1,2.149-.638,3.58,3.58,0,0,1,2.151.638A3.987,3.987,0,0,1,30.143-10.9a7.885,7.885,0,0,1,.47,2.885v.029a7.921,7.921,0,0,1-.468,2.882A3.974,3.974,0,0,1,28.792-3.27,3.587,3.587,0,0,1,26.636-2.631ZM43.452.32a8.085,8.085,0,0,0,4.128-1,6.654,6.654,0,0,0,2.651-2.864,9.879,9.879,0,0,0,.928-4.448v-.029a9.794,9.794,0,0,0-.935-4.442,6.7,6.7,0,0,0-2.658-2.861,8.058,8.058,0,0,0-4.114-1,8.041,8.041,0,0,0-4.1,1,6.718,6.718,0,0,0-2.666,2.864,9.762,9.762,0,0,0-.937,4.437v.029a9.859,9.859,0,0,0,.93,4.448A6.659,6.659,0,0,0,39.334-.68,8.083,8.083,0,0,0,43.452.32Zm0-2.951A3.6,3.6,0,0,1,41.3-3.267,3.951,3.951,0,0,1,39.943-5.1a7.938,7.938,0,0,1-.468-2.886v-.029a7.886,7.886,0,0,1,.47-2.885A3.979,3.979,0,0,1,41.3-12.735a3.583,3.583,0,0,1,2.149-.638,3.58,3.58,0,0,1,2.151.638A3.987,3.987,0,0,1,46.959-10.9a7.885,7.885,0,0,1,.47,2.885v.029a7.921,7.921,0,0,1-.468,2.882A3.974,3.974,0,0,1,45.608-3.27,3.587,3.587,0,0,1,43.452-2.631ZM54.528,0h3.644V-13.19h3.422V-16H58.116v-1.383a2.508,2.508,0,0,1,.545-1.747,2.383,2.383,0,0,1,1.828-.6q.388,0,.709.019a4.488,4.488,0,0,1,.533.058V-22.2q-.437-.073-.931-.115t-1.083-.041a7.106,7.106,0,0,0-2.93.524,3.484,3.484,0,0,0-1.705,1.58,5.7,5.7,0,0,0-.553,2.657V-16H51.915v2.814h2.613ZM65.261,5.63a8.38,8.38,0,0,0,3.029-.486A4.946,4.946,0,0,0,70.433,3.5,11.247,11.247,0,0,0,72.021.345L77.761-16h-3.84L69.7-1.837,70.667-3.5H69.42l.992,1.662L66.184-16H62.212L67.941.01l-.2.733a2.738,2.738,0,0,1-.977,1.583,3.027,3.027,0,0,1-1.8.489q-.282,0-.572-.01t-.52-.04v2.8q.338.03.7.045T65.261,5.63Z" transform="translate(-3768 -1519)" fill="#b8bfc7"/></g></svg>