<svg xmlns="http://www.w3.org/2000/svg" xmlns:xlink="http://www.w3.org/1999/xlink" width="118.88" height="36" viewBox="0 0 118.88 36">
  <defs>
    <clipPath id="clip-path">
      <rect id="Rectangle_110" data-name="Rectangle 110" width="35.172" height="32.344" fill="#b8bfc7"/>
    </clipPath>
  </defs>
  <g id="Group_2975" data-name="Group 2975" transform="translate(3806.88 1548)">
    <g id="Group_2974" data-name="Group 2974" transform="translate(-3806.88 -1546.172)">
      <g id="Group_136" data-name="Group 136" clip-path="url(#clip-path)">
        <path id="Path_112" data-name="Path 112" d="M34.9,21.952a25.6,25.6,0,0,0-2.252-4.473,1.839,1.839,0,0,1-.369-.748c-.084-.412.056-.592-.084-.818a.983.983,0,0,0-.923-.314A1.34,1.34,0,0,0,30.2,16.605a1.48,1.48,0,0,0,.126.943,21.917,21.917,0,0,1,1.342,3.963,4.057,4.057,0,0,1-.65,3.292,3.277,3.277,0,0,1-2.131,1.015,5.669,5.669,0,0,0-.2-.843c-.018-.05-.035-.1-.051-.153a5.733,5.733,0,0,1-.278-1.769c0-.061,0-.121,0-.18a5.664,5.664,0,0,1,.248-1.5s0,0,0,0a1.01,1.01,0,0,1,.494-.714c.131-.071.184-.056.285-.146a.637.637,0,0,0,.165-.232.644.644,0,0,0,.047-.242.633.633,0,0,0-.127-.382.647.647,0,0,0-.119-.121,1.675,1.675,0,0,0-.214-.108,1.8,1.8,0,0,0-1.593.087,5.341,5.341,0,0,0-.691.7,5.454,5.454,0,0,0-1.263,3.5q0,.2.013.392l-.017-.007c0,.04,0,.08,0,.121a1.96,1.96,0,0,1-.126.7,1.984,1.984,0,0,1-3.1.856,3.041,3.041,0,0,0,1.815-.752,2.843,2.843,0,0,0,.575-.728,2.51,2.51,0,0,1-.366-.55,3.045,3.045,0,0,1-.043-2.319l.149-.421L25.8,18.972l.356-.556.889-1.391.385-.787a11.634,11.634,0,0,0,1.017-5.127C28.244,5.444,23.662.083,17.589,0h-.006C11.51.083,6.928,5.444,6.729,11.112a11.634,11.634,0,0,0,1.017,5.127l.385.787.889,1.391.356.556,1.293,2.022.149.421a3.045,3.045,0,0,1-.043,2.319,2.51,2.51,0,0,1-.366.55,2.843,2.843,0,0,0,.575.728,3.041,3.041,0,0,0,1.815.752,1.986,1.986,0,0,1-3.224-1.552c0-.041,0-.081,0-.121l-.017.007q.013-.194.013-.392a5.454,5.454,0,0,0-1.263-3.5,5.341,5.341,0,0,0-.691-.7,1.8,1.8,0,0,0-1.593-.087,1.687,1.687,0,0,0-.214.108.651.651,0,0,0-.118.121.633.633,0,0,0-.127.382.645.645,0,0,0,.047.242.637.637,0,0,0,.165.232c.1.09.155.075.285.146a1.01,1.01,0,0,1,.494.714s0,0,0,0a5.665,5.665,0,0,1,.248,1.5c0,.06,0,.119,0,.18a5.733,5.733,0,0,1-.278,1.769c-.015.052-.033.1-.051.153a5.668,5.668,0,0,0-.2.843A3.277,3.277,0,0,1,4.15,24.8a4.057,4.057,0,0,1-.65-3.292,21.917,21.917,0,0,1,1.342-3.963,1.48,1.48,0,0,0,.126-.943A1.34,1.34,0,0,0,3.9,15.6a.983.983,0,0,0-.923.314c-.14.226,0,.406-.084.818a1.835,1.835,0,0,1-.369.748A25.615,25.615,0,0,0,.272,21.952a7.121,7.121,0,0,0,.252,4.494c.181.569,1.556,4.694,5.2,5.591A6.161,6.161,0,0,0,8.3,32.1a3.912,3.912,0,0,1-2.1-5.229v0a5.717,5.717,0,0,0,1.507,3.757s0,0,.005.007a5.768,5.768,0,0,0,1.728,1.29h0a5.731,5.731,0,0,0,.891.345,4.327,4.327,0,0,0,.8.074,4.259,4.259,0,0,0,2.816-1.059q.1-.111.208-.217s.093-.093.19-.182a5.748,5.748,0,0,1,2.635-1.495,3.648,3.648,0,0,1,1.193,0,5.748,5.748,0,0,1,2.635,1.495c.1.089.19.182.19.182q.106.106.208.217a4.259,4.259,0,0,0,2.816,1.059,4.329,4.329,0,0,0,.8-.074,5.731,5.731,0,0,0,.891-.345h0a5.77,5.77,0,0,0,1.728-1.29s.005,0,.005-.007a5.717,5.717,0,0,0,1.507-3.757v0a3.912,3.912,0,0,1-2.1,5.229,6.161,6.161,0,0,0,2.581-.062c3.643-.9,5.018-5.022,5.2-5.591a7.121,7.121,0,0,0,.252-4.494M16.048,20.072a.4.4,0,0,1-.4-.395,1.009,1.009,0,1,0-2.017,0,.4.4,0,0,1-.79,0,1.8,1.8,0,0,1,3.6,0,.4.4,0,0,1-.395.395M21,18.669a1.008,1.008,0,0,0-1.009,1.009.4.4,0,0,1-.79,0,1.8,1.8,0,0,1,3.6,0,.4.4,0,0,1-.79,0A1.008,1.008,0,0,0,21,18.669" transform="translate(0)" fill="#b8bfc7"/>
      </g>
    </g>
    <text id="doofy" transform="translate(-3768 -1519)" fill="#b8bfc7" font-size="30" font-family="SF Pro" font-weight="700" letter-spacing="-0.01em"><tspan x="0" y="0">doofy</tspan></text>
  </g>
</svg>
