<svg xmlns="http://www.w3.org/2000/svg" xmlns:xlink="http://www.w3.org/1999/xlink" width="105.476" height="30.225" viewBox="0 0 105.476 30.225">
  <defs>
    <clipPath id="clip-path">
      <rect id="Rectangle_110" data-name="Rectangle 110" width="32.408" height="29.803" fill="#b8bfc7"/>
    </clipPath>
  </defs>
  <g id="Group_2975" data-name="Group 2975" transform="translate(3806.88 1546.172)">
    <g id="Group_2974" data-name="Group 2974" transform="translate(-3806.88 -1546.172)">
      <g id="Group_136" data-name="Group 136" clip-path="url(#clip-path)">
        <path id="Path_112" data-name="Path 112" d="M32.16,20.227a23.588,23.588,0,0,0-2.075-4.122,1.7,1.7,0,0,1-.34-.689c-.077-.38.052-.545-.077-.754a.906.906,0,0,0-.85-.289,1.235,1.235,0,0,0-.988.927,1.364,1.364,0,0,0,.116.869,20.2,20.2,0,0,1,1.237,3.652,3.738,3.738,0,0,1-.6,3.033,3.02,3.02,0,0,1-1.964.935,5.224,5.224,0,0,0-.184-.777c-.017-.046-.032-.092-.047-.141a5.283,5.283,0,0,1-.256-1.63v-.166a5.219,5.219,0,0,1,.229-1.382h0a.931.931,0,0,1,.455-.658c.121-.065.17-.052.263-.135a.587.587,0,0,0,.152-.214.593.593,0,0,0,.043-.223.583.583,0,0,0-.117-.352.6.6,0,0,0-.11-.111,1.544,1.544,0,0,0-.2-.1,1.659,1.659,0,0,0-1.468.08,4.921,4.921,0,0,0-.637.645,5.025,5.025,0,0,0-1.164,3.225q0,.184.012.361l-.016-.006v.111a1.806,1.806,0,0,1-.116.645,1.828,1.828,0,0,1-2.856.789,2.8,2.8,0,0,0,1.672-.693,2.62,2.62,0,0,0,.53-.671,2.313,2.313,0,0,1-.337-.507,2.806,2.806,0,0,1-.04-2.137l.137-.388,1.207-1.875.328-.512.819-1.282.355-.725a10.72,10.72,0,0,0,.937-4.724C26.026,5.016,21.8.076,16.209,0H16.2c-5.6.076-9.818,5.016-10,10.239a10.72,10.72,0,0,0,.937,4.724l.355.725.819,1.282.328.512,1.191,1.863.137.388a2.806,2.806,0,0,1-.04,2.137,2.313,2.313,0,0,1-.337.507,2.62,2.62,0,0,0,.53.671,2.8,2.8,0,0,0,1.672.693,1.83,1.83,0,0,1-2.971-1.43c0-.038,0-.075,0-.111l-.016.006q.012-.179.012-.361a5.025,5.025,0,0,0-1.164-3.225,4.921,4.921,0,0,0-.637-.645,1.659,1.659,0,0,0-1.468-.08,1.554,1.554,0,0,0-.2.1.6.6,0,0,0-.109.111.583.583,0,0,0-.117.352.594.594,0,0,0,.043.223.587.587,0,0,0,.152.214c.092.083.143.069.263.135a.931.931,0,0,1,.455.658h0a5.22,5.22,0,0,1,.229,1.382c0,.055,0,.11,0,.166a5.283,5.283,0,0,1-.256,1.63c-.014.048-.03.092-.047.141a5.223,5.223,0,0,0-.184.777,3.019,3.019,0,0,1-1.958-.931,3.738,3.738,0,0,1-.6-3.033,20.2,20.2,0,0,1,1.237-3.652,1.364,1.364,0,0,0,.116-.869,1.235,1.235,0,0,0-.984-.923.906.906,0,0,0-.85.289c-.129.208,0,.374-.077.754a1.691,1.691,0,0,1-.34.689A23.6,23.6,0,0,0,.252,20.227a6.561,6.561,0,0,0,.232,4.141c.167.524,1.434,4.325,4.791,5.152a5.677,5.677,0,0,0,2.374.058A3.6,3.6,0,0,1,5.715,24.76h0A5.268,5.268,0,0,0,7.1,28.221l0,.006A5.315,5.315,0,0,0,8.7,29.417h0a5.281,5.281,0,0,0,.821.318,3.987,3.987,0,0,0,.737.068,3.924,3.924,0,0,0,2.595-.976q.092-.1.192-.2s.086-.086.175-.168a5.3,5.3,0,0,1,2.428-1.378,3.361,3.361,0,0,1,1.1,0,5.3,5.3,0,0,1,2.428,1.378c.092.082.175.168.175.168q.1.1.192.2a3.924,3.924,0,0,0,2.595.976,3.989,3.989,0,0,0,.737-.068,5.281,5.281,0,0,0,.821-.318h0a5.317,5.317,0,0,0,1.592-1.189s0,0,0-.006A5.268,5.268,0,0,0,26.68,24.76h0a3.6,3.6,0,0,1-1.935,4.818,5.677,5.677,0,0,0,2.378-.057c3.357-.829,4.624-4.627,4.791-5.152a6.561,6.561,0,0,0,.232-4.141M14.789,18.495a.369.369,0,0,1-.369-.364.93.93,0,1,0-1.859,0,.369.369,0,0,1-.728,0,1.659,1.659,0,0,1,3.317,0,.369.369,0,0,1-.364.364M19.352,17.2a.929.929,0,0,0-.93.93.369.369,0,0,1-.728,0,1.659,1.659,0,0,1,3.317,0,.369.369,0,0,1-.728,0,.929.929,0,0,0-.932-.93" transform="translate(-0.002)" fill="#b8bfc7"/>
      </g>
    </g>
    <path id="doofy" d="M7.487-1.513a5.659,5.659,0,0,0,1.9-.306A4.647,4.647,0,0,0,10.906-2.7a4.5,4.5,0,0,0,1.06-1.371H12.2v2.309h3.357V-22.221H12.2v8.063h-.233a4.1,4.1,0,0,0-1.048-1.38,4.909,4.909,0,0,0-1.545-.893,5.5,5.5,0,0,0-1.887-.317,5.6,5.6,0,0,0-3.228.923A5.919,5.919,0,0,0,2.166-13.2a10.17,10.17,0,0,0-.737,4.054v.027a10.077,10.077,0,0,0,.743,4.041A5.967,5.967,0,0,0,4.279-2.44,5.569,5.569,0,0,0,7.487-1.513ZM8.536-4.344a3.374,3.374,0,0,1-1.971-.573A3.626,3.626,0,0,1,5.293-6.563a6.653,6.653,0,0,1-.444-2.554v-.027A6.632,6.632,0,0,1,5.293-11.7a3.637,3.637,0,0,1,1.274-1.643,3.367,3.367,0,0,1,1.969-.576,3.376,3.376,0,0,1,1.975.578,3.69,3.69,0,0,1,1.283,1.645,6.541,6.541,0,0,1,.451,2.554v.027A6.566,6.566,0,0,1,11.8-6.568,3.658,3.658,0,0,1,10.515-4.92,3.393,3.393,0,0,1,8.536-4.344Zm16.12,2.882a7.45,7.45,0,0,0,3.8-.922A6.131,6.131,0,0,0,30.9-5.023a9.1,9.1,0,0,0,.855-4.1v-.027a9.024,9.024,0,0,0-.861-4.093,6.172,6.172,0,0,0-2.449-2.636,7.425,7.425,0,0,0-3.79-.922,7.409,7.409,0,0,0-3.782.924,6.19,6.19,0,0,0-2.456,2.639,8.995,8.995,0,0,0-.864,4.089v.027a9.084,9.084,0,0,0,.857,4.1,6.136,6.136,0,0,0,2.45,2.639A7.448,7.448,0,0,0,24.655-1.462Zm0-2.72a3.316,3.316,0,0,1-1.985-.586,3.641,3.641,0,0,1-1.249-1.69,7.314,7.314,0,0,1-.431-2.66v-.027a7.267,7.267,0,0,1,.433-2.658,3.666,3.666,0,0,1,1.251-1.689,3.3,3.3,0,0,1,1.98-.588,3.3,3.3,0,0,1,1.982.588A3.673,3.673,0,0,1,27.886-11.8a7.265,7.265,0,0,1,.433,2.658v.027a7.3,7.3,0,0,1-.431,2.655A3.662,3.662,0,0,1,26.642-4.77,3.3,3.3,0,0,1,24.655-4.182ZM40.15-1.462a7.45,7.45,0,0,0,3.8-.922A6.131,6.131,0,0,0,46.4-5.023a9.1,9.1,0,0,0,.855-4.1v-.027a9.024,9.024,0,0,0-.861-4.093,6.172,6.172,0,0,0-2.449-2.636,7.425,7.425,0,0,0-3.79-.922,7.409,7.409,0,0,0-3.782.924,6.19,6.19,0,0,0-2.456,2.639,8.995,8.995,0,0,0-.864,4.089v.027a9.084,9.084,0,0,0,.857,4.1,6.136,6.136,0,0,0,2.45,2.639A7.448,7.448,0,0,0,40.15-1.462Zm0-2.72a3.316,3.316,0,0,1-1.985-.586,3.641,3.641,0,0,1-1.249-1.69,7.314,7.314,0,0,1-.431-2.66v-.027a7.267,7.267,0,0,1,.433-2.658,3.666,3.666,0,0,1,1.251-1.689,3.3,3.3,0,0,1,1.98-.588,3.3,3.3,0,0,1,1.982.588A3.673,3.673,0,0,1,43.381-11.8a7.265,7.265,0,0,1,.433,2.658v.027a7.3,7.3,0,0,1-.431,2.655A3.662,3.662,0,0,1,42.137-4.77,3.3,3.3,0,0,1,40.15-4.182ZM50.355-1.757h3.357V-13.911h3.153V-16.5h-3.2v-1.274a2.311,2.311,0,0,1,.5-1.61,2.2,2.2,0,0,1,1.684-.55q.357,0,.654.018a4.136,4.136,0,0,1,.491.054v-2.35q-.4-.067-.858-.106t-1-.038a6.548,6.548,0,0,0-2.7.483,3.21,3.21,0,0,0-1.571,1.456,5.248,5.248,0,0,0-.509,2.448v1.47H47.948v2.593h2.407Zm9.89,5.187a7.722,7.722,0,0,0,2.791-.448,4.557,4.557,0,0,0,1.975-1.513,10.363,10.363,0,0,0,1.463-2.908L71.763-16.5H68.225L64.338-3.449l.889-1.531H64.078l.914,1.531L61.1-16.5h-3.66L62.715-1.748l-.185.676a2.523,2.523,0,0,1-.9,1.458,2.789,2.789,0,0,1-1.661.451q-.26,0-.527-.009T58.963.791V3.375q.311.028.646.041T60.246,3.431Z" transform="translate(-3773.167 -1519.378)" fill="#b8bfc7"/>
  </g>
</svg>
