<svg width="100" height="19" viewBox="0 0 100 19" fill="none" xmlns="http://www.w3.org/2000/svg">
<g clip-path="url(#clip0_382_261)">
<path fill-rule="evenodd" clip-rule="evenodd" d="M51.3879 3.23828C53.122 3.23828 54.3818 3.64794 55.3524 4.22118L53.9276 6.61704C53.1636 6.20738 52.2192 5.94694 51.5734 5.94138C51.3248 5.93906 51.0473 5.95482 50.9519 6.06835C50.5487 6.63928 51.6561 7.16989 52.2963 7.53831C53.7211 8.37801 54.6917 9.09492 54.6917 10.4875C54.6706 12.5756 52.916 13.825 49.8804 13.825C48.208 13.825 46.7417 13.4153 45.6267 12.6576L46.9487 10.3234C47.7122 10.7739 48.7342 11.1307 49.7155 11.1423C50.2524 11.1488 50.5047 11.1381 50.6239 10.9583C50.9029 10.5366 50.3085 10.0621 49.5445 9.61162C48.2646 8.87433 46.7833 8.05038 46.7833 6.49423C46.7833 4.26196 48.8482 3.23828 51.3879 3.23828Z" fill="#B8BFC7"/>
<path fill-rule="evenodd" clip-rule="evenodd" d="M95.7878 3.23828C97.5219 3.23828 98.7817 3.64794 99.7523 4.22118L98.3275 6.61704C97.5635 6.20738 96.6191 5.94694 95.9733 5.94138C95.7247 5.93906 95.4472 5.95482 95.3518 6.06835C94.9486 6.63928 96.056 7.16989 96.6962 7.53831C98.121 8.37801 99.0916 9.09492 99.0916 10.4875C99.0705 12.5756 97.3159 13.825 94.2803 13.825C92.6079 13.825 91.1416 13.4153 90.0266 12.6576L91.3486 10.3234C92.1121 10.7739 93.1341 11.1307 94.1154 11.1423C94.6523 11.1488 94.9046 11.1381 95.0238 10.9583C95.3028 10.5366 94.7084 10.0621 93.9444 9.61162C92.6645 8.87433 91.1831 8.05038 91.1831 6.49423C91.1831 4.26196 93.2481 3.23828 95.7878 3.23828Z" fill="#B8BFC7"/>
<path fill-rule="evenodd" clip-rule="evenodd" d="M69.9569 5.688C69.5232 5.688 69.1957 5.87893 68.9527 6.18525C68.3952 6.8609 68.105 8.31649 68.105 9.64788C68.105 10.5075 68.4901 11.3755 69.2751 11.3755C69.9952 11.3755 70.3821 10.8175 70.3821 10.8175C70.8429 10.2156 71.1821 8.76739 71.1821 7.41561C71.1821 6.53512 70.9069 5.688 69.9569 5.688ZM70.6247 3.17676C73.7424 3.17676 75.2083 5.10178 75.2083 7.49764C75.2083 10.1595 73.4532 13.8863 68.6625 13.8863C65.5859 13.8863 64.0789 12.0433 64.0789 9.56586C64.0789 6.92393 65.834 3.17676 70.6247 3.17676Z" fill="#B8BFC7"/>
<path fill-rule="evenodd" clip-rule="evenodd" d="M15.3685 5.688C14.9349 5.688 14.6073 5.87893 14.3643 6.18525C13.8068 6.8609 13.5166 8.31649 13.5166 9.64788C13.5166 10.5075 13.9017 11.3755 14.6867 11.3755C15.4068 11.3755 15.7937 10.8175 15.7937 10.8175C16.2545 10.2156 16.5938 8.76739 16.5938 7.41561C16.5938 6.53512 16.3185 5.688 15.3685 5.688ZM16.0363 3.17676C19.154 3.17676 20.6199 5.10178 20.6199 7.49764C20.6199 10.1595 18.8648 13.8863 14.0741 13.8863C10.9975 13.8863 9.49048 12.0433 9.49048 9.56586C9.49048 6.92393 11.2456 3.17676 16.0363 3.17676Z" fill="#B8BFC7"/>
<path fill-rule="evenodd" clip-rule="evenodd" d="M37.9537 3.29956L38.5318 5.24498C39.8533 3.91405 41.3608 3.17676 42.7439 3.17676C44.9949 3.17676 45.3664 4.75329 45.057 7.08798L44.1897 13.579H40.2042L40.9893 7.76364C41.0921 7.06712 41.1299 6.46144 40.8397 6.30944C39.8808 5.89654 38.6098 7.3132 38.6098 7.3132L37.7678 13.579H33.7827L35.0963 3.69903L37.9537 3.29956Z" fill="#B8BFC7"/>
<path fill-rule="evenodd" clip-rule="evenodd" d="M80.1727 3.29956L80.7508 5.24498C82.0723 3.91405 83.5797 3.17676 84.9629 3.17676C87.2134 3.17676 87.5854 4.75329 87.276 7.08798L86.4087 13.579H82.4232L83.2082 7.76364C83.3111 7.06712 83.3489 6.46144 83.0587 6.30944C82.0998 5.89654 80.8288 7.3132 80.8288 7.3132L79.9868 13.579H76.0017L77.3153 3.69903L80.1727 3.29956Z" fill="#B8BFC7"/>
<path fill-rule="evenodd" clip-rule="evenodd" d="M89.4458 0.459961C89.2145 1.38447 88.7925 2.0643 88.0439 2.94711L89.1192 4.71318C90.8799 3.82621 92.1967 2.2923 92.751 0.459961H89.4458Z" fill="#B8BFC7"/>
<path fill-rule="evenodd" clip-rule="evenodd" d="M30.2676 3.1765C28.9872 3.1765 27.6863 3.77013 26.4891 4.91708L27.0764 0.459961H24.7115C23.2049 0.465058 22.8755 2.0453 22.8348 2.27979L21.3269 13.5792H25.333L26.1587 7.31294C26.1587 7.31294 27.4339 5.90369 28.3886 6.30918C28.6778 6.45284 28.6362 7.06733 28.554 7.74299L27.769 13.5792H31.7545L32.6213 6.9853C32.9311 4.67147 32.4358 3.1765 30.2676 3.1765Z" fill="#B8BFC7"/>
<path fill-rule="evenodd" clip-rule="evenodd" d="M60.4441 6.10481H63.4796L63.8301 3.48374H60.7955L61.2081 0.432617H58.8516C57.2577 0.440032 56.9824 2.21213 56.9726 2.27932L55.9221 10.3233C55.5918 12.6575 56.7689 13.8248 58.7922 13.8248C60.3824 13.8248 61.9516 13.2924 63.1488 12.4527L62.4885 10.4053C61.8072 10.5893 60.924 10.9753 60.2792 10.7737C59.945 10.6694 59.9072 10.0981 60.0105 9.31998L60.4441 6.10481Z" fill="#B8BFC7"/>
<path fill-rule="evenodd" clip-rule="evenodd" d="M6.53248 0.459961C4.90537 0.465522 4.6507 2.30991 4.6507 2.30991C4.34743 4.50881 3.82266 8.29769 3.35911 11.6204C3.13294 13.2419 2.75537 13.9356 2.58014 14.1817C2.48388 14.3031 2.37453 14.4222 2.2479 14.5366C1.69696 15.0334 1.08341 15.2169 0.65584 15.2832L0.168457 18.6332C0.799765 18.6397 2.89649 18.7018 5.01098 16.9047C6.96285 15.2461 7.22827 13.1483 7.35163 12.5143L9.02593 0.459961H6.53248Z" fill="#B8BFC7"/>
</g>
<defs>
<clipPath id="clip0_382_261">
<rect width="100" height="19" fill="white"/>
</clipPath>
</defs>
</svg>
