<svg width="68" height="39" viewBox="0 0 68 39" fill="none" xmlns="http://www.w3.org/2000/svg">
<path d="M20.1678 13.8901C23.1658 13.8901 25.6026 16.3092 25.6026 19.2891C25.6026 22.2689 23.1658 24.688 20.1678 24.688C17.1699 24.688 14.717 22.2689 14.717 19.2891C14.717 16.3092 17.1539 13.8901 20.1678 13.8901ZM20.1678 22.5573C21.8832 22.5573 23.31 21.1955 23.31 19.2891C23.31 17.3826 21.8832 16.0209 20.1678 16.0209C18.4524 16.0209 17.0096 17.3826 17.0096 19.2891C17.0096 21.1955 18.4364 22.5573 20.1678 22.5573Z" fill="#B8BFC7"/>
<path d="M29.7233 18.1512V24.5274H27.3987V14.0659H29.1782L33.7793 20.378V14.0659H36.1039V24.5274H34.3404L29.7233 18.1512Z" fill="#B8BFC7"/>
<path d="M13.4987 28.1001V30.0386H9.52281V38.5616H7.23026V30.0386H3.25439V28.1001H13.4987Z" fill="#B8BFC7"/>
<path d="M20.1678 27.9238C23.1658 27.9238 25.6026 30.3429 25.6026 33.3228C25.6026 36.3026 23.1658 38.7217 20.1678 38.7217C17.1699 38.7217 14.717 36.3026 14.717 33.3228C14.717 30.3429 17.1539 27.9238 20.1678 27.9238ZM20.1678 36.607C21.8832 36.607 23.31 35.2452 23.31 33.3388C23.31 31.4323 21.8832 30.0706 20.1678 30.0706C18.4524 30.0706 17.0096 31.4323 17.0096 33.3388C17.0096 35.2452 18.4364 36.607 20.1678 36.607Z" fill="#B8BFC7"/>
<path d="M36.0719 28.1001V34.6045C36.0719 37.2959 34.0839 38.7378 31.7272 38.7378C29.3706 38.7378 27.3987 37.2959 27.3987 34.6045V28.1001H29.7233V34.6045C29.7233 36.0623 30.6531 36.7833 31.7272 36.7833C32.8014 36.7833 33.7473 36.0463 33.7473 34.6045V28.1001H36.0719Z" fill="#B8BFC7"/>
<path d="M44.0869 34.6685C44.3595 35.7739 44.7763 36.671 45.8184 36.671C46.1711 36.671 46.6039 36.4948 46.8765 36.2225L47.6941 37.8245C47.0047 38.3692 46.4436 38.7217 45.3534 38.7217C42.8685 38.7217 42.099 35.9341 41.9868 34.8287H40.592V38.5454H38.2834V28.084H42.9326C45.0809 28.084 46.2672 29.686 46.2672 31.5284C46.2672 33.0023 45.4336 34.2359 44.0549 34.6685H44.0869ZM42.6761 32.9863C43.4937 32.9863 43.9907 32.3935 43.9907 31.5284C43.9907 30.6633 43.4937 30.0545 42.6761 30.0545H40.6241V33.0023H42.6761V32.9863Z" fill="#B8BFC7"/>
<path d="M50.115 35.2454C50.3875 36.1746 51.0448 36.6873 52.0227 36.6873C52.8404 36.6873 53.5938 36.3829 53.5938 35.6139C53.5938 35.2134 53.3694 34.8289 52.3754 34.4925L51.2372 34.108C48.9126 33.323 48.5759 31.8651 48.5759 31C48.5759 29.1095 50.0508 27.9561 52.1029 27.9561C53.7221 27.9561 54.9726 28.7411 55.5978 30.247L53.7061 31.1922C53.2572 30.1349 52.5197 30.0067 52.0869 30.0067C51.3654 30.0067 50.8204 30.2951 50.8204 30.9839C50.8204 31.2563 50.9005 31.7529 51.9426 32.1054L53.0488 32.4899C55.4054 33.2268 55.8223 34.6206 55.8383 35.5819C55.8383 37.7767 53.9305 38.7539 52.0869 38.7539C50.0829 38.7539 48.2553 37.6165 48.0469 35.678L50.115 35.2775V35.2454Z" fill="#B8BFC7"/>
<path d="M5.40296 7.12917H3.07837V0H5.40296V7.12917Z" fill="#B8BFC7"/>
<path d="M27.8789 6.40824L29.8347 0H32.1914L28.9049 10.4615H27.0613L25.0893 4.11729L23.1175 10.4615H21.2738L17.9873 0H20.344L22.2998 6.40824L24.2236 0.336433H25.939L27.8468 6.40824H27.8789Z" fill="#B8BFC7"/>
<path d="M36.119 10.4615H33.7944V0H36.119V10.4615Z" fill="#B8BFC7"/>
<path d="M42.2596 24.5117H38.3318V14.0503H42.2596C45.6903 14.0503 47.8226 16.4053 47.8226 19.289C47.8226 22.1727 45.6903 24.5278 42.2596 24.5278V24.5117ZM42.2596 15.8927H40.6564V22.6854H42.2596C44.2475 22.6854 45.498 21.1634 45.498 19.289C45.498 17.4146 44.2635 15.8927 42.2596 15.8927Z" fill="#B8BFC7"/>
<path d="M49.6663 24.5117V14.0503H56.624V15.8927H51.9909V18.472H56.0148V20.3143H51.9909V22.6854H56.624V24.5278H49.6663V24.5117Z" fill="#B8BFC7"/>
<path d="M64.335 20.6186C64.6075 21.7241 65.0243 22.6212 66.0664 22.6212C66.4191 22.6212 66.852 22.445 67.1245 22.1726L67.9421 23.7747C67.2528 24.3194 66.6916 24.6719 65.6015 24.6719C63.1166 24.6719 62.347 21.8843 62.2348 20.7789H60.8401V24.4956H58.5315V14.0342H63.1807C65.329 14.0342 66.5153 15.6362 66.5153 17.4786C66.5153 18.9525 65.6817 20.1861 64.3029 20.6186H64.335ZM62.9082 18.9365C63.7258 18.9365 64.2228 18.3437 64.2228 17.4786C64.2228 16.6135 63.7258 16.0047 62.9082 16.0047H60.8561V18.9525H62.9082V18.9365Z" fill="#B8BFC7"/>
<path d="M11.8311 14.4827C12.9379 14.4827 13.8351 13.5861 13.8351 12.4801C13.8351 11.3741 12.9379 10.4775 11.8311 10.4775C10.7244 10.4775 9.82715 11.3741 9.82715 12.4801C9.82715 13.5861 10.7244 14.4827 11.8311 14.4827Z" fill="#B8BFC7"/>
<path d="M11.8318 14.4827C9.81182 14.4827 8.60942 12.9447 7.93609 11.6471L5.40308 7.12926L5.65959 6.66466L9.95608 0.0161133H12.7616L8.16054 7.14528L10.0683 10.4936C10.9821 12.0956 11.415 12.4321 12.4891 12.4321C12.7456 12.4321 13.0502 12.352 13.3869 12.1918V13.3773C12.6494 13.7778 12.7937 14.4987 11.8478 14.4987L11.8318 14.4827Z" fill="#B8BFC7"/>
<path d="M16.4164 10.4615H14.0918V0H16.4164V10.4615Z" fill="#B8BFC7"/>
<path d="M11.0459 16.5655L9.8595 20.4585L7.95172 14.3867H6.23634L4.31254 20.4585L2.35667 14.0503H0L3.28651 24.5117H5.13015L7.10204 18.1676L9.07396 24.5117H10.9176L13.5308 16.1971C13.5308 16.1971 13.4987 16.117 13.4666 16.133C12.4406 16.4854 11.3344 16.5175 11.126 16.5175C11.11 16.5175 11.0779 16.5175 11.0779 16.5495L11.0459 16.5655Z" fill="#B8BFC7"/>
</svg>
