<svg xmlns="http://www.w3.org/2000/svg" xmlns:xlink="http://www.w3.org/1999/xlink" width="1672" height="1180" viewBox="0 0 1672 1180"><defs><clipPath id="a"><rect width="1672" height="1180" fill="none"/></clipPath></defs><g opacity="0.602" clip-path="url(#a)"><g transform="translate(-261 -0.5)"><line y2="1180" transform="translate(261.5 0.5)" fill="none" stroke="rgba(255,255,255,0.11)" stroke-width="1" stroke-dasharray="6"/></g><g transform="translate(-183 -0.5)"><line y2="1180" transform="translate(261.5 0.5)" fill="none" stroke="rgba(255,255,255,0.11)" stroke-width="1" stroke-dasharray="6"/></g><g transform="translate(-105 -0.5)"><line y2="1180" transform="translate(261.5 0.5)" fill="none" stroke="rgba(255,255,255,0.11)" stroke-width="1" stroke-dasharray="6"/></g><g transform="translate(-27 -0.5)"><line y2="1180" transform="translate(261.5 0.5)" fill="none" stroke="rgba(255,255,255,0.11)" stroke-width="1" stroke-dasharray="6"/></g><g transform="translate(51 -0.5)"><line y2="1180" transform="translate(261.5 0.5)" fill="none" stroke="rgba(255,255,255,0.11)" stroke-width="1" stroke-dasharray="6"/></g><g transform="translate(129 -0.5)"><line y2="1180" transform="translate(261.5 0.5)" fill="none" stroke="rgba(255,255,255,0.11)" stroke-width="1" stroke-dasharray="6"/></g><g transform="translate(207 -0.5)"><line y2="1180" transform="translate(261.5 0.5)" fill="none" stroke="rgba(255,255,255,0.11)" stroke-width="1" stroke-dasharray="6"/></g><g transform="translate(285 -0.5)"><line y2="1180" transform="translate(261.5 0.5)" fill="none" stroke="rgba(255,255,255,0.11)" stroke-width="1" stroke-dasharray="6"/></g><g transform="translate(363 -0.5)"><line y2="1180" transform="translate(261.5 0.5)" fill="none" stroke="rgba(255,255,255,0.11)" stroke-width="1" stroke-dasharray="6"/></g><g transform="translate(441 -0.5)"><line y2="1180" transform="translate(261.5 0.5)" fill="none" stroke="rgba(255,255,255,0.11)" stroke-width="1" stroke-dasharray="6"/></g><g transform="translate(519 -0.5)"><line y2="1180" transform="translate(261.5 0.5)" fill="none" stroke="rgba(255,255,255,0.11)" stroke-width="1" stroke-dasharray="6"/></g><g transform="translate(597 -0.5)"><line y2="1180" transform="translate(261.5 0.5)" fill="none" stroke="rgba(255,255,255,0.11)" stroke-width="1" stroke-dasharray="6"/></g><g transform="translate(675 -0.5)"><line y2="1180" transform="translate(261.5 0.5)" fill="none" stroke="rgba(255,255,255,0.11)" stroke-width="1" stroke-dasharray="6"/></g><g transform="translate(753 -0.5)"><line y2="1180" transform="translate(261.5 0.5)" fill="none" stroke="rgba(255,255,255,0.11)" stroke-width="1" stroke-dasharray="6"/></g><g transform="translate(831 -0.5)"><line y2="1180" transform="translate(261.5 0.5)" fill="none" stroke="rgba(255,255,255,0.11)" stroke-width="1" stroke-dasharray="6"/></g><g transform="translate(909 -0.5)"><line y2="1180" transform="translate(261.5 0.5)" fill="none" stroke="rgba(255,255,255,0.11)" stroke-width="1" stroke-dasharray="6"/></g><g transform="translate(987 -0.5)"><line y2="1180" transform="translate(261.5 0.5)" fill="none" stroke="rgba(255,255,255,0.11)" stroke-width="1" stroke-dasharray="6"/></g><g transform="translate(1065 -0.5)"><line y2="1180" transform="translate(261.5 0.5)" fill="none" stroke="rgba(255,255,255,0.11)" stroke-width="1" stroke-dasharray="6"/></g><g transform="translate(1143 -0.5)"><line y2="1180" transform="translate(261.5 0.5)" fill="none" stroke="rgba(255,255,255,0.11)" stroke-width="1" stroke-dasharray="6"/></g><g transform="translate(1221 -0.5)"><line y2="1180" transform="translate(261.5 0.5)" fill="none" stroke="rgba(255,255,255,0.11)" stroke-width="1" stroke-dasharray="6"/></g><g transform="translate(1299 -0.5)"><line y2="1180" transform="translate(261.5 0.5)" fill="none" stroke="rgba(255,255,255,0.11)" stroke-width="1" stroke-dasharray="6"/></g><g transform="translate(1377 -0.5)"><line y2="1180" transform="translate(261.5 0.5)" fill="none" stroke="rgba(255,255,255,0.11)" stroke-width="1" stroke-dasharray="6"/></g></g></svg>