<svg width="371" height="120" viewBox="0 0 371 120" fill="none" xmlns="http://www.w3.org/2000/svg">
<path d="M355.791 65.7175C355.149 68.5861 348.899 63.153 347.739 62.0015L344.952 64.1692C344.737 61.3115 344.242 54.7002 344.023 51.7826C354.862 46.2087 356.72 62.6208 355.791 65.7175Z" fill="#7A4AFF"/>
<path d="M349.709 63.7262C348.572 62.8004 347.739 62.0013 347.739 62.0013L344.952 64.169L344.593 59.3877C347.544 59.4094 348.359 58.595 348.359 58.595C348.359 58.595 348.359 61.1344 349.709 63.7262Z" fill="#4518C0"/>
<path d="M304.288 51.7826C304.135 53.8219 303.499 62.3078 303.359 64.1692L300.572 62.0015C299.917 62.6903 293.138 68.7142 292.521 65.7173C291.591 62.6208 293.449 46.2087 304.288 51.7826Z" fill="#7A4AFF"/>
<path d="M303.566 61.4129L303.359 64.169L300.572 62.0013C300.572 62.0013 299.324 63.1966 297.803 64.3578C299.887 61.8185 299.742 59.2144 299.742 59.2144C299.742 59.2144 300.46 60.7966 303.566 61.4129Z" fill="#4518C0"/>
<path d="M350.009 84.5945C350.115 90.3756 342.368 89.8928 338.013 87.3627C334.752 85.5853 333.777 87.2328 331.048 88.6417C329.531 89.4221 327.472 90.1312 324.174 90.1312C316.632 90.6212 314.94 84.6208 310.332 87.3626C309.307 87.9203 308.205 88.3662 307.102 88.6759C302.742 89.9052 298.335 89.0133 298.335 84.5945C298.335 79.0577 302.949 74.9051 302.488 65.2157C302.027 55.5294 299.258 26.4614 324.174 26C349.086 26.4614 346.318 55.5294 345.856 65.2157C345.395 74.9051 350.009 79.0576 350.009 84.5945Z" fill="#7A4AFF"/>
<path d="M340.926 48.9957C340.851 68.8292 307.555 68.8272 307.483 48.9947C307.558 29.1621 340.855 29.164 340.926 48.9957Z" fill="#4518C0"/>
<path d="M313.986 79.9619C313.986 79.9619 314.698 85.0961 317.575 88.7812C312.037 85.2348 312.719 86.7059 307.102 88.6758C311.248 85.7928 313.986 79.9619 313.986 79.9619Z" fill="#D3D6E2"/>
<path d="M340.066 88.2948C335.513 86.0752 335.224 85.9828 331.049 88.6417C333.854 85.2787 335.353 80.8909 335.353 80.8909C335.353 80.8909 336.548 85.2695 340.066 88.2948Z" fill="#D3D6E2"/>
<path d="M328.539 38.7687C325.117 39.4892 325.429 49.7944 332.779 48.9462C340.13 48.098 333.91 37.6379 328.539 38.7687Z" fill="white"/>
<path d="M320.403 39.4245C323.382 40.0517 323.11 49.0237 316.711 48.2853C310.311 47.5469 315.726 38.4398 320.403 39.4245Z" fill="white"/>
<path d="M331.544 52.4786C332.113 54.4846 330.926 54.9385 329.509 55.1345C328.129 55.3252 327.76 53.7717 327.672 53.224C325.426 53.5001 322.936 53.4977 320.691 53.2176C319.765 55.6816 318.478 55.2257 317.19 54.3668C316.418 53.8521 316.496 53.0552 316.722 52.4416C315.218 52.025 313.82 51.4923 312.571 50.8535C312.898 54.1597 314.602 57.0605 317.101 58.9756C317.322 58.6583 317.66 58.4186 318.178 58.4917C319.283 58.6479 320.21 59.0011 319.806 60.524C321.851 61.3759 324.361 61.6151 326.576 61.1389C326.225 59.4039 328.909 58.9251 329.488 60.1227C332.963 58.3594 335.438 54.9114 335.839 50.8535C334.55 51.5124 333.102 52.0568 331.544 52.4786Z" fill="white"/>
<path d="M100.458 88.8473V25.1998H119.798C125.159 24.7825 130.496 26.3361 135.043 29.6371C136.77 31.1447 138.148 33.1202 139.054 35.3886C139.961 37.6571 140.367 40.1483 140.239 42.6414C140.287 45.5689 139.559 48.4438 138.152 50.8815C136.733 53.2815 134.698 55.1083 132.331 56.105C134.995 56.797 137.363 58.5451 139.023 61.0444C140.696 63.6754 141.557 66.8764 141.468 70.1369C141.622 72.7484 141.244 75.3652 140.364 77.7785C139.485 80.1918 138.129 82.3348 136.403 84.0364C132.185 87.4806 127.08 89.1764 121.919 88.8473H100.458ZM111.833 61.1339V78.3147H121.578C123.832 78.4718 126.06 77.6884 127.854 76.1077C128.607 75.355 129.201 74.4146 129.592 73.3578C129.983 72.3011 130.16 71.1557 130.11 70.0084C130.238 68.7922 130.121 67.5584 129.77 66.4023C129.418 65.2462 128.841 64.1988 128.082 63.341C127.323 62.4832 126.403 61.8381 125.394 61.4554C124.384 61.0727 123.312 60.9627 122.26 61.1339H111.833ZM111.833 51.8662H120.251C125.988 51.7495 128.857 49.1118 128.857 43.9531C128.952 42.7896 128.803 41.617 128.424 40.5334C128.044 39.4498 127.445 38.4869 126.676 37.7254C124.613 36.2714 122.205 35.6053 119.795 35.822H111.833V51.8662ZM173.091 84.0403C171.729 85.9243 170.007 87.4181 168.059 88.4042C166.112 89.3904 163.992 89.8419 161.868 89.7231C160.015 89.8671 158.158 89.5506 156.421 88.7951C154.684 88.0396 153.108 86.8628 151.799 85.3442C149.278 81.7306 148.014 77.164 148.254 72.5345V41.5438H159.214V72.1103C159.214 77.0406 161.16 79.5057 165.052 79.5057C166.567 79.6892 168.095 79.3649 169.454 78.5716C170.813 77.7783 171.944 76.5497 172.713 75.0334V41.5593H183.709V88.8473H173.395L173.091 84.0403ZM202.762 88.8473H191.755V41.5515H202.762V88.8473ZM191.121 29.2946C191.098 28.4263 191.233 27.5623 191.518 26.7579C191.802 25.9535 192.229 25.2265 192.772 24.6238C193.378 23.9905 194.088 23.5022 194.859 23.1868C195.631 22.8715 196.448 22.7355 197.266 22.7866C198.909 22.6914 200.518 23.3522 201.739 24.6238C202.287 25.2232 202.718 25.9491 203.006 26.7539C203.293 27.5588 203.43 28.4246 203.407 29.2946C203.433 30.1746 203.295 31.0508 203.004 31.8649C202.713 32.679 202.275 33.4123 201.719 34.016C200.501 35.2809 198.9 35.941 197.262 35.8532C195.625 35.941 194.023 35.2809 192.805 34.016C192.25 33.412 191.812 32.6785 191.522 31.8644C191.231 31.0504 191.095 30.1743 191.121 29.2946ZM222.575 88.8473H211.581V21.7045H222.578L222.575 88.8473ZM243.944 29.9212V41.5476H250.96V50.8153H243.944V74.4184C243.838 75.7513 244.147 77.0841 244.815 78.1784C245.274 78.6199 245.807 78.9485 246.381 79.1439C246.955 79.3394 247.557 79.3976 248.151 79.315C249.232 79.3277 250.311 79.2247 251.375 79.0075V88.5865C249.225 89.3444 246.989 89.7275 244.741 89.7231C237.056 89.7231 233.138 85.2495 232.988 76.3023V50.8153H226.994V41.5476H232.984V29.9212H243.944ZM259.283 88.8473V50.8153H253.178V41.5476H259.283V37.5269C259.164 35.2639 259.456 32.9974 260.138 30.8712C260.821 28.745 261.879 26.8057 263.246 25.1765C266.293 22.0765 270.282 20.4961 274.338 20.782C276.218 20.8371 278.088 21.1308 279.912 21.6578L279.797 31.4509C278.703 31.1673 277.583 31.0366 276.462 31.0617C272.34 31.0617 270.279 33.2907 270.279 37.7487V41.5515H278.433V50.8192H270.279V88.8473H259.283ZM295.747 88.8473H284.764V21.7045H295.747V88.8473ZM362.841 29.9212V41.5476H369.858V50.8153H362.841V74.4184C362.735 75.7513 363.044 77.0841 363.713 78.1784C364.172 78.6199 364.705 78.9485 365.279 79.1439C365.852 79.3394 366.455 79.3976 367.048 79.315C368.129 79.3277 369.209 79.2247 370.273 79.0075V88.5865C368.123 89.3444 365.887 89.7275 363.638 89.7231C355.954 89.7231 352.036 85.2495 351.885 76.3023V50.8153H345.892V41.5476H351.882V29.9212H362.841Z" fill="white"/>
<mask id="mask0_465_490" style="mask-type:luminance" maskUnits="userSpaceOnUse" x="5" y="0" width="59" height="52">
<path d="M7.33416 22.0335L5.32178 28.3553L60.1591 51.6929L62.1575 45.368C64.8425 36.9886 64.5305 27.7229 61.2903 19.6086C58.0501 11.4943 52.1469 5.19586 44.879 2.09838C41.2787 0.559823 37.4505 -0.144856 33.6137 0.024701C29.7768 0.194258 26.0066 1.23472 22.5191 3.0865C19.0315 4.93828 15.8951 7.565 13.2894 10.8162C10.6838 14.0675 8.66004 17.8793 7.33416 22.0335Z" fill="white"/>
</mask>
<g mask="url(#mask0_465_490)">
<path d="M12.1083 -17.1248L-12.9375 46.0703L60.9728 68.8119L86.0185 5.61683L12.1083 -17.1248Z" fill="url(#paint0_linear_465_490)"/>
</g>
<mask id="mask1_465_490" style="mask-type:luminance" maskUnits="userSpaceOnUse" x="0" y="18" width="85" height="102">
<path d="M7.34519 22.0272L6.90917 23.3901L5.31045 28.3361L3.25055 34.7803C1.11176 41.4503 0.0113485 48.5032 0 55.6144L0 55.8302C0.0239843 68.1886 3.32631 80.2429 9.46382 90.3754C15.6013 100.508 24.2804 108.234 34.3362 112.517L45.4071 117.224C48.6239 118.596 52.0253 119.302 55.4551 119.312H55.5724C61.5396 119.296 67.3595 117.175 72.2504 113.234C77.1413 109.293 80.8689 103.721 82.9324 97.2664C83.0927 96.7638 83.2427 96.2579 83.3824 95.7488C85.5488 87.3387 84.8379 78.2914 81.396 70.4669C77.954 62.6425 72.0425 56.6355 64.8769 53.6811L16.2975 33.0178C13.7574 31.9396 11.6206 29.8788 10.2515 27.187C8.88243 24.4952 8.36595 21.3392 8.79019 18.2573C8.24188 19.4786 7.7593 20.7376 7.34519 22.0272Z" fill="white"/>
</mask>
<g mask="url(#mask1_465_490)">
<path d="M122.669 40.0032L18.9136 -24.8738L-34.7778 97.566L68.9772 162.44L122.669 40.0032Z" fill="url(#paint1_linear_465_490)"/>
</g>
<path d="M343.28 67.0194C343.28 67.0194 344.364 66.1861 345.852 67.1468C345.852 67.1468 355.145 67.2011 355.602 78.7789C355.602 78.7789 354.827 88.6465 349.871 88.039C349.871 88.039 349.634 90.6216 345.178 90.0188C345.178 90.0188 343.912 92.328 340.36 90.7653C340.36 90.7653 338.03 91.9148 336.044 89.8925C336.044 89.8925 330.651 90.9979 328.751 78.8998C328.751 78.8998 328.796 70.6083 336.185 67.7977C336.185 67.7977 336.953 67.1462 338.578 67.2673L343.28 67.0194Z" fill="#B7630B"/>
<path d="M337.078 68.7778C337.078 68.7778 340.097 67.3022 340.027 60.4683C340.027 60.4683 341.909 59.7761 341.647 61.2627C341.647 61.2627 340.88 66.3883 343.963 67.5758C343.963 67.5758 345.027 68.0099 345.142 68.2067C345.142 68.2067 343.155 68.2421 343.371 69.1377C343.371 69.1377 340.577 67.5037 339.408 69.5415C339.408 69.5415 338.485 68.259 337.078 68.7778Z" fill="#02562C"/>
<path d="M349.871 88.0392C354.827 88.6468 355.602 78.7791 355.602 78.7791C355.146 67.2164 345.876 67.1471 345.852 67.147C345.511 67.1447 345.049 67.5096 345.107 67.8565C345.169 68.233 345.798 68.5486 346.069 68.7426C348.429 70.4311 350.229 72.7836 351.077 75.5833C351.36 76.5189 351.48 77.515 351.457 78.4922C351.457 78.4922 352.079 82.7058 350.667 86.5151C350.572 86.7731 350.461 87.0185 350.323 87.2567L349.871 88.0392Z" fill="#F08400"/>
<path d="M345.179 90.0193C349.634 90.6221 349.871 88.0395 349.871 88.0395L350.324 87.2569C350.461 87.0187 350.572 86.7734 350.668 86.5153C352.079 82.706 351.457 78.4924 351.457 78.4924C351.481 77.5152 351.361 76.519 351.077 75.5836C350.282 72.9586 348.651 70.7271 346.505 69.067C346.23 68.9619 345.959 68.8388 345.672 68.7666C345.349 68.685 345.197 68.6587 344.926 68.6356C343.035 68.4752 344.332 72.3165 344.64 73.1917C345.454 75.5107 345.738 77.9439 345.924 80.38C346.093 82.5966 346.378 84.8199 346.232 87.0463C346.167 88.037 345.823 89.2366 345.179 90.0193Z" fill="#FD9C0F"/>
<path d="M340.36 90.7656C343.912 92.3282 345.178 90.0191 345.178 90.0191C345.823 89.2365 346.167 88.0368 346.232 87.0461C346.378 84.8196 346.093 82.5964 345.924 80.3797C345.738 77.9436 345.454 75.5104 344.639 73.1914L343.896 71.4205C343.505 70.717 343.203 69.9205 342.572 69.3875C341.272 68.2898 340.04 69.718 339.495 70.8775C338.761 72.4405 338.458 74.3503 338.263 76.0551C338.045 77.9676 338.095 79.8987 338.24 81.8146C338.323 82.9024 338.443 83.9869 338.568 85.0704C338.693 86.1415 338.826 87.2134 339.156 88.2443C339.306 88.7104 339.664 89.6696 340.119 90.2426L340.36 90.7656Z" fill="#F08400"/>
<path d="M336.044 89.8926C336.044 89.8926 330.651 90.9981 328.751 78.9C328.751 78.9 328.794 71.018 335.644 68.0189L335.57 68.0518C336.201 67.7469 336.735 68.0729 336.735 68.0729C337.241 68.7413 335.532 70.3356 335.532 70.3356C334.215 71.6706 333.337 73.7998 333.029 75.3363C332.309 78.9242 332.84 82.6882 334.142 86.0812C334.607 87.2928 335.232 88.4661 335.953 89.5449L336.044 89.8926Z" fill="#F08400"/>
<path d="M340.36 90.7654C340.36 90.7654 338.03 91.9149 336.044 89.8926L335.953 89.5448C335.232 88.4659 334.607 87.2927 334.142 86.0811C332.84 82.6881 332.308 78.924 333.029 75.3362C333.438 73.3003 334.846 70.2235 336.951 69.3328C339.375 68.3073 339.221 71.5277 339.221 71.5277C338.681 72.9517 338.432 74.58 338.263 76.0548C338.045 77.9673 338.095 79.8985 338.241 81.8143C338.323 82.9021 338.443 83.9866 338.568 85.0701C338.693 86.1412 338.826 87.2131 339.156 88.244C339.306 88.7101 339.664 89.6693 340.119 90.2423L340.36 90.7654Z" fill="#FD9C0F"/>
<path d="M340.373 90.758C340.373 90.758 338.03 91.9152 336.045 89.893C336.045 89.893 333.538 90.4053 331.341 86.8996C331.969 87.6263 333.697 89.3326 335.156 89.1495C335.156 89.1495 333.736 86.5257 333.237 83.1428C333.237 83.1428 335.098 91.4454 339.768 90.3067C339.768 90.3067 338.763 88.1268 338.627 85.4718C338.627 85.4718 339.172 88.4997 340.373 90.758Z" fill="#B7630B"/>
<path d="M350.052 87.3913C349.637 88.2572 348.778 89.1932 347.721 89.2849C346.021 89.4324 346.428 87.5108 346.327 86.4559C346.296 86.1347 346.311 85.6883 346.267 85.2439C346.314 86.2691 346.283 87.3206 346.015 88.3167C345.939 88.6016 345.839 88.8808 345.715 89.1486C345.574 89.4533 345.393 89.7594 345.179 90.0191C349.634 90.6219 349.872 88.0393 349.872 88.0393C352.27 88.3333 353.656 86.1096 354.404 84.1676C354.603 83.6502 354.761 83.1189 354.915 82.5866C354.584 83.4474 354.33 84.0206 353.935 84.757C353.524 85.5259 352.699 86.922 351.79 87.2073C350.734 87.5382 350.989 86.1659 351.081 85.5535C351.268 84.3066 351.484 83.0706 351.586 81.8103C351.618 81.4101 351.635 81.0118 351.593 80.5915C351.593 80.5915 351.601 84.1658 350.052 87.3913Z" fill="#B7630B"/>
<path d="M349.987 68.906C350.487 69.4176 350.632 70.0881 350.309 70.4035C349.987 70.7186 349.32 70.559 348.819 70.0471C348.319 69.5353 348.174 68.8647 348.497 68.5497C348.819 68.2345 349.486 68.394 349.987 68.906Z" fill="#FBB040"/>
<path d="M351.329 70.9398C351.54 71.2141 351.571 71.5444 351.398 71.6773C351.225 71.8102 350.914 71.6953 350.703 71.421C350.492 71.1465 350.461 70.8162 350.634 70.6835C350.806 70.5504 351.118 70.6653 351.329 70.9398Z" fill="#FBB040"/>
<path d="M346.341 69.8477C346.583 70.1625 346.619 70.5414 346.42 70.6941C346.222 70.8465 345.865 70.7147 345.623 70.3999C345.38 70.0849 345.345 69.706 345.543 69.5536C345.741 69.4009 346.098 69.5327 346.341 69.8477Z" fill="#FBB040"/>
<path d="M343.176 80.5234C343.176 80.5234 343.849 80.0927 343.979 81.1645C343.979 81.1645 344.252 81.933 343.673 81.9812C343.673 81.9812 342.721 81.5607 343.176 80.5234Z" fill="#231F20"/>
<path d="M343.694 77.7321C343.694 77.7321 345.599 78.1148 347.081 73.9104C347.081 73.9104 347.633 72.5318 348.432 73.1316C349.512 73.9416 349.91 75.6763 349.747 76.9366C349.513 78.7486 346.827 80.6622 344.91 79.5406C344.333 79.2031 343.864 78.3601 343.694 77.7321Z" fill="#231F20"/>
<path d="M340.933 77.9619C340.933 77.9619 339.117 78.6546 336.96 74.7533C336.96 74.7533 336.188 73.485 335.499 74.2087C334.568 75.186 334.462 76.9627 334.831 78.1786C335.362 79.927 338.328 81.3699 340.033 79.9466C340.546 79.5183 340.869 78.6096 340.933 77.9619Z" fill="#231F20"/>
<path d="M341.904 80.6296C341.904 80.6296 341.17 80.3159 341.218 81.3947C341.218 81.3947 341.077 82.1976 341.656 82.1494C341.656 82.1494 342.525 81.5774 341.904 80.6296Z" fill="#231F20"/>
<path d="M353.791 76.4748C353.791 76.4748 353.336 78.0118 353.078 78.4082L352.416 78.4633L351.748 78.9353L352.311 79.7002L351.138 81.1099L350.493 80.3723L349.69 81.2305L350.266 81.9737L349.008 83.0362L348.017 82.4524L347.23 82.8511L347.705 83.8943L346.302 84.5525L346.002 83.4532L344.782 83.8046L344.889 85.0866L343.417 85.4591L343.317 84.2598L342.081 84.3627L342.18 85.562L341.064 85.6551L340.957 84.373L339.871 84.3386L339.971 85.538L338.004 85.4103L338.314 84.1352L337.156 83.7319L336.642 85.0655L335.123 84.3176L335.702 83.2699L334.988 82.7047L334.027 83.6591L332.435 82.5425L332.856 82.1011L332.309 81.0388L331.459 81.8325C331.459 81.8325 330.577 80.2402 330.557 79.4924C330.557 79.4924 330.574 81.698 331.146 82.0668L330.779 82.4512L331.284 83.2212L331.804 82.9697L333.692 84.145L333.107 85.11L333.775 85.6373L334.437 85.0824L336.484 85.6615L336.211 86.8919L337.066 87.1539L337.649 86.1476L339.42 86.4167L339.685 87.602L340.695 87.7262L340.836 86.9233L342.115 86.7752L342.391 87.585L343.599 87.651L343.506 86.5343L345.437 86.1653L345.844 87.0475L346.86 86.7546L346.254 85.4726L348.203 84.6856L349.025 85.2418L349.766 84.6387L349.283 83.8461L351.044 82.4919L351.499 82.9537L352.206 82.4368L351.654 81.8165L352.83 79.928L353.55 80.0761L354.186 79.217L353.436 78.7114C353.436 78.7114 353.826 76.8884 353.791 76.4748Z" fill="#231F20"/>
<path d="M309.838 63.8938C309.838 63.8938 311.162 63.0745 312.737 64.335C312.737 64.335 323.263 65.4695 322.444 78.6431C322.444 78.6431 320.427 89.7366 314.88 88.4758C314.88 88.4758 314.313 91.3753 309.334 90.1779C309.334 90.1779 307.632 92.6487 303.787 90.4676C303.787 90.4676 301.014 91.5014 298.997 88.9803C298.997 88.9803 292.756 89.6104 292 75.6805C292 75.6805 293.009 66.289 301.707 63.9568C301.707 63.9568 302.652 63.3071 304.48 63.632L309.838 63.8938Z" fill="#B7630B"/>
<path d="M302.605 65.1704C302.605 65.1704 306.198 63.8468 306.907 56.0939C306.907 56.0939 309.119 55.5266 308.651 57.1812C308.651 57.1812 307.19 62.9014 310.547 64.603C310.547 64.603 311.702 65.2178 311.81 65.4541C311.81 65.4541 309.554 65.2648 309.696 66.3049C309.696 66.3049 306.718 64.1305 305.158 66.3049C305.158 66.3049 304.259 64.7449 302.605 65.1704Z" fill="#02562C"/>
<path d="M314.88 88.4759C320.427 89.7367 322.444 78.6432 322.444 78.6432C323.262 65.4867 312.764 64.338 312.737 64.3351C312.351 64.2931 311.786 64.6534 311.811 65.0532C311.838 65.4871 312.514 65.9173 312.799 66.1685C315.279 68.3545 317.047 71.2283 317.685 74.4991C317.898 75.592 317.919 76.7347 317.78 77.8396C317.78 77.8396 317.998 82.6866 315.959 86.8406C315.821 87.1221 315.667 87.3873 315.483 87.6414L314.88 88.4759Z" fill="#F08400"/>
<path d="M309.333 90.178C314.313 91.3753 314.88 88.4759 314.88 88.4759L315.483 87.6413C315.667 87.3873 315.821 87.1221 315.959 86.8406C317.998 82.6865 317.78 77.8395 317.78 77.8395C317.919 76.7347 317.898 75.5919 317.685 74.4991C317.087 71.4324 315.495 68.7152 313.255 66.5861C312.956 66.4352 312.662 66.2644 312.346 66.1495C311.99 66.0198 311.82 65.9724 311.516 65.915C309.391 65.515 310.418 70.0179 310.665 71.0452C311.32 73.7673 311.362 76.5577 311.291 79.34C311.227 81.8715 311.293 84.424 310.871 86.9303C310.683 88.0455 310.155 89.3653 309.333 90.178Z" fill="#FD9C0F"/>
<path d="M303.787 90.4676C307.632 92.6486 309.334 90.1779 309.334 90.1779C310.155 89.3653 310.683 88.0455 310.871 86.9302C311.293 84.4239 311.227 81.8714 311.291 79.3399C311.362 76.5576 311.321 73.7671 310.665 71.0451L310.027 68.9523C309.665 68.1099 309.415 67.1725 308.762 66.4956C307.415 65.1015 305.854 66.5778 305.103 67.829C304.09 69.5155 303.526 71.6449 303.109 73.5545C302.64 75.6967 302.474 77.891 302.418 80.0791C302.386 81.3213 302.396 82.5643 302.414 83.8066C302.431 85.0348 302.458 86.265 302.714 87.4715C302.829 88.017 303.125 89.1455 303.574 89.8472L303.787 90.4676Z" fill="#F08400"/>
<path d="M298.997 88.9804C298.997 88.9804 292.756 89.6105 292 75.6806C292 75.6806 292.959 66.7531 301.068 64.1449L300.981 64.1737C301.731 63.901 302.298 64.332 302.298 64.332C302.794 65.148 300.674 66.7575 300.674 66.7575C299.027 68.1184 297.787 70.4301 297.26 72.1358C296.029 76.1187 296.197 80.4459 297.28 84.4413C297.667 85.8681 298.24 87.2699 298.934 88.576L298.997 88.9804Z" fill="#F08400"/>
<path d="M303.787 90.4677C303.787 90.4677 301.014 91.5015 298.997 88.9804L298.934 88.5759C298.24 87.2698 297.668 85.868 297.28 84.4412C296.197 80.4458 296.029 76.1186 297.26 72.1357C297.958 69.8757 299.909 66.5513 302.398 65.7849C305.263 64.9025 304.717 68.5344 304.717 68.5344C303.94 70.0859 303.47 71.9024 303.109 73.5544C302.641 75.6966 302.474 77.8909 302.418 80.0789C302.386 81.3212 302.397 82.5641 302.414 83.8065C302.431 85.0347 302.458 86.2649 302.714 87.4714C302.829 88.0169 303.125 89.1454 303.574 89.847L303.787 90.4677Z" fill="#FD9C0F"/>
<path d="M303.802 90.4602C303.802 90.4602 301.014 91.5014 298.997 88.9803C298.997 88.9803 296.097 89.2715 294.011 85.045C294.639 85.9411 296.401 88.0743 298.076 88.0352C298.076 88.0352 296.769 84.8977 296.594 81.0063C296.594 81.0063 297.745 90.6304 303.168 89.8791C303.168 89.8791 302.281 87.2925 302.433 84.268C302.433 84.268 302.702 87.7623 303.802 90.4602Z" fill="#B7630B"/>
<path d="M315.16 87.7623C314.589 88.6956 313.507 89.6571 312.299 89.6392C310.355 89.6101 311.039 87.4794 311.046 86.2723C311.048 85.9047 311.116 85.4006 311.117 84.8918C311.053 86.0591 310.896 87.2472 310.478 88.345C310.358 88.6591 310.213 88.964 310.041 89.2531C309.846 89.5823 309.606 89.9081 309.333 90.1779C314.313 91.3753 314.88 88.4758 314.88 88.4758C317.565 89.0861 319.392 86.7257 320.464 84.6113C320.749 84.048 320.99 83.4641 321.225 82.8786C320.75 83.8159 320.396 84.4362 319.864 85.2252C319.309 86.049 318.214 87.5361 317.15 87.7544C315.916 88.0076 316.363 86.4818 316.538 85.7984C316.893 84.4068 317.281 83.0311 317.542 81.6146C317.625 81.1648 317.69 80.7153 317.691 80.2341C317.691 80.2341 317.287 84.2857 315.16 87.7623Z" fill="#B7630B"/>
<path d="M301.297 67.2891C300.789 67.9269 300.702 68.7033 301.104 69.0235C301.505 69.3434 302.243 69.0855 302.751 68.4476C303.259 67.8097 303.346 67.0331 302.944 66.7134C302.543 66.3934 301.805 66.6512 301.297 67.2891Z" fill="#FBB040"/>
<path d="M300.011 69.7492C299.804 70.0844 299.807 70.4623 300.018 70.5929C300.229 70.7236 300.568 70.5575 300.776 70.2223C300.983 69.8868 300.981 69.5089 300.769 69.3785C300.558 69.2476 300.219 69.4137 300.011 69.7492Z" fill="#FBB040"/>
<path d="M306.575 68.2605C306.337 68.6451 306.341 69.0787 306.583 69.2288C306.825 69.3787 307.215 69.1881 307.453 68.8034C307.691 68.4184 307.688 67.9849 307.445 67.835C307.203 67.6848 306.814 67.8755 306.575 68.2605Z" fill="#FBB040"/>
<path d="M309.276 71.8539C309.276 71.8539 309.52 72.6342 310.252 72.5854C310.252 72.5854 313.726 71.4998 314.691 71.7872C314.749 71.8044 314.797 71.8264 314.836 71.8539C315.519 72.3416 314.836 73.2681 314.836 73.2681L316.006 74.2922L316.299 75.9991L315.373 76.9257L313.861 77.4134H312.007L310.106 75.4139L310.203 73.7558L309.276 72.8292V71.8539Z" fill="#231F20"/>
<path d="M305.57 71.8539C305.57 71.8539 305.326 72.6342 304.594 72.5854C304.594 72.5854 301.12 71.4998 300.155 71.7872C300.097 71.8044 300.049 71.8264 300.01 71.8539C299.327 72.3416 300.01 73.2681 300.01 73.2681L298.839 74.2922L298.547 75.9991L299.474 76.9257L300.985 77.4134H302.839L304.74 75.4139L304.643 73.7558L305.57 72.8292V71.8539Z" fill="#231F20"/>
<path d="M307.228 76.2917C307.223 76.2968 305.816 77.8499 305.813 77.8532C305.525 78.1697 305.234 79.1957 305.947 79.1448C306.525 79.1035 307.157 78.5404 307.293 77.9842C307.368 77.6813 307.303 77.371 307.256 77.0697C307.232 76.9181 307.109 76.424 307.228 76.2917Z" fill="#231F20"/>
<path d="M307.748 76.2917C307.752 76.2968 309.16 77.8499 309.162 77.8532C309.45 78.1697 309.742 79.1957 309.029 79.1448C308.45 79.1035 307.819 78.5404 307.682 77.9842C307.608 77.6813 307.673 77.371 307.72 77.0697C307.744 76.9181 307.867 76.424 307.748 76.2917Z" fill="#231F20"/>
<path d="M318.103 75.219H318.639V75.9993L319.468 76.2918L318.786 76.5357V77.4135L319.468 77.95H318.786L318.103 79.3641L318.786 79.9982H317.615L316.981 81.9001L318.225 84.1435L316.981 82.9243L315.616 83.6559L315.323 85.509L314.738 84.0947L313.372 84.6313L313.616 86.143L312.787 85.3628L309.276 86.5332V88.3376L308.301 86.5332L306.837 86.4357L306.415 88.3376L306.203 86.4357L304.789 86.2406L304.448 87.8499L304.155 86.0941L302.058 85.2651L300.644 87.0696L301.083 85.07L298.547 82.6803L297.377 83.2168L298.059 82.2416L297.133 81.0224L295.377 80.9735L296.596 80.3396L296.352 78.779L295.084 79.1466L295.718 78.4864L295.474 77.4136L294.646 77.121L295.231 76.7795L295.133 75.4628L294.646 75.219L295.621 74.9264L295.913 74.2437H296.352L296.206 75.8042L296.743 75.6579L296.108 76.5845L296.499 77.7192L297.523 77.4135L296.889 78.1451L297.425 79.1466L298.547 78.3888L297.669 79.7056L298.888 80.7785L299.571 79.1466V80.8273L301.376 81.9002L302.058 80.0471L301.717 81.949L302.4 82.1929L302.643 79.9983L302.79 82.4854H303.863L304.253 80.4372L304.692 82.4854L307.057 82.8268L307.327 79.9983L308.105 82.7293L311.178 82.0466L310.934 79.4617L312.105 81.51L313.958 81.0224L313.763 78.8765L314.543 80.681L315.469 80.2422L315.079 78.4864L316.299 79.9495L317.371 79.1466L317.225 78.3888L317.713 78.5839C317.713 78.5839 318.396 76.5845 318.103 75.219Z" fill="#231F20"/>
<defs>
<linearGradient id="paint0_linear_465_490" x1="0.0257362" y1="119.343" x2="0.718428" y2="119.343" gradientUnits="userSpaceOnUse">
<stop stop-color="#7A4AFF"/>
<stop offset="1" stop-color="#5232C6"/>
</linearGradient>
<linearGradient id="paint1_linear_465_490" x1="0.0178282" y1="119.358" x2="0.647614" y2="119.358" gradientUnits="userSpaceOnUse">
<stop stop-color="#8C62FF"/>
<stop offset="0.585" stop-color="#7A4AFF"/>
<stop offset="1" stop-color="#6F4AFF"/>
</linearGradient>
</defs>
</svg>
