<svg width="116" height="44" viewBox="0 0 116 44" fill="none" xmlns="http://www.w3.org/2000/svg">
<path d="M36.3125 30.4349V11.584H42.0405C43.6282 11.4604 45.209 11.9205 46.5555 12.8982C47.0671 13.3447 47.4752 13.9298 47.7436 14.6017C48.0121 15.2735 48.1326 16.0114 48.0945 16.7498C48.1089 17.6169 47.8933 18.4683 47.4765 19.1903C47.0563 19.9011 46.4534 20.4422 45.7525 20.7374C46.5414 20.9423 47.2429 21.4601 47.7345 22.2003C48.23 22.9796 48.4848 23.9276 48.4585 24.8933C48.504 25.6668 48.3921 26.4418 48.1317 27.1566C47.8712 27.8714 47.4695 28.506 46.9585 29.01C45.7092 30.0301 44.1971 30.5324 42.6685 30.4349H36.3125ZM39.6815 22.2268V27.3154H42.5675C43.2351 27.3619 43.895 27.1299 44.4265 26.6617C44.6494 26.4388 44.8254 26.1603 44.9412 25.8473C45.0569 25.5343 45.1093 25.1951 45.0945 24.8553C45.1324 24.4951 45.0979 24.1296 44.9938 23.7872C44.8896 23.4448 44.7186 23.1346 44.4939 22.8805C44.2691 22.6265 43.9968 22.4354 43.6978 22.322C43.3988 22.2087 43.0812 22.1761 42.7695 22.2268H39.6815ZM39.6815 19.482H42.1745C43.8738 19.4474 44.7235 18.6662 44.7235 17.1383C44.7516 16.7937 44.7075 16.4464 44.5951 16.1254C44.4827 15.8045 44.3052 15.5193 44.0775 15.2938C43.4666 14.8632 42.7534 14.6659 42.0395 14.73H39.6815V19.482ZM57.8245 29.0112C57.4212 29.5692 56.9111 30.0116 56.3343 30.3037C55.7575 30.5957 55.1298 30.7295 54.5005 30.6943C53.9519 30.7369 53.4017 30.6432 52.8872 30.4194C52.3728 30.1957 51.906 29.8471 51.5185 29.3974C50.7717 28.3271 50.3974 26.9746 50.4685 25.6034V16.4247H53.7145V25.4778C53.7145 26.938 54.2908 27.6681 55.4435 27.6681C55.8922 27.7225 56.3449 27.6264 56.7474 27.3915C57.1499 27.1565 57.485 26.7926 57.7125 26.3436V16.4293H60.9695V30.4349H57.9145L57.8245 29.0112ZM66.6125 30.4349H63.3525V16.427H66.6125V30.4349ZM63.1645 12.7968C63.1578 12.5396 63.1979 12.2837 63.2821 12.0455C63.3663 11.8072 63.4928 11.5919 63.6535 11.4134C63.8332 11.2258 64.0433 11.0812 64.2718 10.9878C64.5002 10.8944 64.7425 10.8541 64.9845 10.8693C65.4713 10.8411 65.9478 11.0368 66.3095 11.4134C66.4716 11.5909 66.5995 11.8059 66.6846 12.0443C66.7697 12.2827 66.8102 12.5391 66.8035 12.7968C66.8111 13.0574 66.7704 13.3169 66.6842 13.5581C66.598 13.7992 66.4682 14.0163 66.3035 14.1951C65.9428 14.5698 65.4685 14.7653 64.9835 14.7393C64.4985 14.7653 64.0242 14.5698 63.6635 14.1951C63.499 14.0162 63.3694 13.799 63.2834 13.5579C63.1973 13.3168 63.1568 13.0573 63.1645 12.7968ZM72.4805 30.4349H69.2245V10.5488H72.4815L72.4805 30.4349ZM78.8095 12.9824V16.4258H80.8875V19.1707H78.8095V26.1614C78.7781 26.5562 78.8695 26.9509 79.0675 27.275C79.2036 27.4058 79.3614 27.5031 79.5313 27.561C79.7012 27.6189 79.8796 27.6361 80.0555 27.6117C80.3756 27.6154 80.6953 27.5849 81.0105 27.5206V30.3577C80.3737 30.5821 79.7114 30.6956 79.0455 30.6943C76.7695 30.6943 75.6092 29.3693 75.5645 26.7194V19.1707H73.7895V16.4258H75.5635V12.9824H78.8095ZM83.3525 30.4349V19.1707H81.5445V16.4258H83.3525V15.235C83.3175 14.5648 83.4038 13.8935 83.6059 13.2637C83.808 12.634 84.1215 12.0596 84.5265 11.5771C85.4288 10.6589 86.6102 10.1909 87.8115 10.2756C88.3684 10.2919 88.9221 10.3789 89.4625 10.5349L89.4285 13.4354C89.1044 13.3514 88.7727 13.3127 88.4405 13.3201C87.2198 13.3201 86.6095 13.9803 86.6095 15.3007V16.427H89.0245V19.1719H86.6095V30.4349H83.3525ZM94.1525 30.4349H90.8995V10.5488H94.1525V30.4349ZM103.89 30.4349C103.724 30.039 103.614 29.6152 103.563 29.1795C103.181 29.6752 102.708 30.0678 102.179 30.3296C101.65 30.5914 101.078 30.7159 100.503 30.6943C99.4214 30.7387 98.3653 30.3133 97.5435 29.5023C97.1664 29.1339 96.8653 28.6731 96.6622 28.1536C96.4591 27.6341 96.3591 27.0689 96.3695 26.4992C96.3407 25.8368 96.4567 25.1766 96.707 24.5794C96.9572 23.9821 97.3335 23.4669 97.8015 23.0811C99.0402 22.1977 100.486 21.7774 101.939 21.8775H103.434V21.0706C103.459 20.5092 103.305 19.9565 103.002 19.5166C102.826 19.3091 102.612 19.1492 102.376 19.0486C102.14 18.9479 101.887 18.9089 101.636 18.9344C101.175 18.9048 100.719 19.0667 100.353 19.3909C100.197 19.5434 100.074 19.7349 99.993 19.9507C99.9119 20.1666 99.8748 20.401 99.8845 20.6359H96.6395C96.6396 19.8237 96.868 19.0334 97.2905 18.3833C97.7641 17.6579 98.4012 17.0961 99.1325 16.759C99.9793 16.3543 100.889 16.1538 101.806 16.1699C103.092 16.0897 104.36 16.5524 105.371 17.4715C105.816 17.927 106.166 18.4927 106.395 19.1261C106.623 19.7596 106.725 20.4444 106.691 21.1293V27.2013C106.648 28.2364 106.813 29.2692 107.174 30.2182V30.4349H103.89ZM101.21 27.833C101.671 27.8377 102.126 27.711 102.535 27.4641C102.914 27.2464 103.228 26.9011 103.435 26.4738V24.0656H102.22C100.596 24.0656 99.7312 24.7131 99.6265 26.0081L99.6155 26.2283C99.6103 26.4446 99.6457 26.6596 99.7194 26.8586C99.7931 27.0576 99.9034 27.2359 100.043 27.3811C100.367 27.6988 100.785 27.8606 101.21 27.833ZM112.84 12.9824V16.4258H114.918V19.1707H112.84V26.1614C112.808 26.5562 112.9 26.9509 113.098 27.275C113.234 27.4058 113.391 27.5031 113.561 27.561C113.731 27.6189 113.91 27.6361 114.086 27.6117C114.406 27.6154 114.725 27.5849 115.041 27.5206V30.3577C114.404 30.5821 113.741 30.6956 113.076 30.6943C110.799 30.6943 109.639 29.3693 109.594 26.7194V19.1707H107.82V16.4258H109.593V12.9824H112.84Z" fill="white"/>
<mask id="mask0_5_4" style="maskType:luminance" maskUnits="userSpaceOnUse" x="1" y="0" width="22" height="19">
<path d="M2.62399 8.32839L1.90399 10.5902L21.524 18.9401L22.239 16.6771C23.1996 13.6791 23.088 10.364 21.9287 7.46079C20.7694 4.55762 18.6573 2.30413 16.057 1.1959C14.7689 0.645426 13.3992 0.393302 12.0264 0.453967C10.6536 0.514632 9.30472 0.886894 8.05693 1.54943C6.80913 2.21197 5.68697 3.15177 4.7547 4.31501C3.82243 5.47826 3.09837 6.84208 2.62399 8.32839Z" fill="white"/>
</mask>
<g mask="url(#mask0_5_4)">
<path d="M4.33197 -5.68182L-4.62903 16.9284L21.815 25.065L30.776 2.45478L4.33197 -5.68182Z" fill="url(#paint0_linear_5_4)"/>
</g>
<mask id="mask1_5_4" style="maskType:luminance" maskUnits="userSpaceOnUse" x="0" y="6" width="31" height="38">
<path d="M2.628 8.32609L2.472 8.81374L1.9 10.5833L1.163 12.889C0.397771 15.2754 0.00406034 17.7988 0 20.3431L0 20.4203C0.00858121 24.842 1.1901 29.1548 3.38601 32.7801C5.58192 36.4054 8.68715 39.1696 12.285 40.7019L16.246 42.3862C17.3969 42.8769 18.6139 43.1297 19.841 43.1332H19.883C22.0179 43.1274 24.1002 42.3685 25.8501 40.9585C27.6 39.5485 28.9337 37.5549 29.672 35.2456C29.7293 35.0657 29.783 34.8848 29.833 34.7026C30.6081 31.6936 30.3538 28.4566 29.1223 25.6571C27.8908 22.8576 25.7757 20.7084 23.212 19.6514L5.831 12.2584C4.92221 11.8726 4.15767 11.1353 3.66784 10.1722C3.178 9.20912 2.99321 8.07993 3.145 6.97729C2.94882 7.41424 2.77616 7.86469 2.628 8.32609Z" fill="white"/>
</mask>
<g mask="url(#mask1_5_4)">
<path d="M43.889 14.7577L6.76701 -8.45435L-12.443 35.3528L24.679 58.5637L43.889 14.7577Z" fill="url(#paint1_linear_5_4)"/>
</g>
<defs>
<linearGradient id="paint0_linear_5_4" x1="0.00902618" y1="43.1442" x2="0.256861" y2="43.1442" gradientUnits="userSpaceOnUse">
<stop stopColor="#7A4AFF"/>
<stop offset="1" stopColor="#5232C6"/>
</linearGradient>
<linearGradient id="paint1_linear_5_4" x1="0.006379" y1="43.1495" x2="0.231707" y2="43.1495" gradientUnits="userSpaceOnUse">
<stop stopColor="#8C62FF"/>
<stop offset="0.585" stopColor="#7A4AFF"/>
<stop offset="1" stopColor="#6F4AFF"/>
</linearGradient>
</defs>
</svg>
