<svg xmlns="http://www.w3.org/2000/svg" xmlns:xlink="http://www.w3.org/1999/xlink" width="1672" height="4562.5" viewBox="0 0 1672 4562.5"><defs><clipPath id="a"><rect width="1672" height="4562.5" fill="none"/></clipPath></defs><g clip-path="url(#a)"><g transform="translate(-261 -0.5)"><line y2="1180" transform="translate(261.5 0.5)" fill="none" stroke="#efefef" stroke-width="1" stroke-dasharray="6"/></g><g transform="translate(-183 -0.5)"><line y2="1180" transform="translate(261.5 0.5)" fill="none" stroke="#efefef" stroke-width="1" stroke-dasharray="6"/></g><g transform="translate(-105 -0.5)"><line y2="1180" transform="translate(261.5 0.5)" fill="none" stroke="#efefef" stroke-width="1" stroke-dasharray="6"/></g><g transform="translate(-27 -0.5)"><line y2="1180" transform="translate(261.5 0.5)" fill="none" stroke="#efefef" stroke-width="1" stroke-dasharray="6"/></g><g transform="translate(51 -0.5)"><line y2="1180" transform="translate(261.5 0.5)" fill="none" stroke="#efefef" stroke-width="1" stroke-dasharray="6"/></g><g transform="translate(129 -0.5)"><line y2="1180" transform="translate(261.5 0.5)" fill="none" stroke="#efefef" stroke-width="1" stroke-dasharray="6"/></g><g transform="translate(207 -0.5)"><line y2="1180" transform="translate(261.5 0.5)" fill="none" stroke="#efefef" stroke-width="1" stroke-dasharray="6"/></g><g transform="translate(285 -0.5)"><line y2="1180" transform="translate(261.5 0.5)" fill="none" stroke="#efefef" stroke-width="1" stroke-dasharray="6"/></g><g transform="translate(363 -0.5)"><line y2="1180" transform="translate(261.5 0.5)" fill="none" stroke="#efefef" stroke-width="1" stroke-dasharray="6"/></g><g transform="translate(441 -0.5)"><line y2="1180" transform="translate(261.5 0.5)" fill="none" stroke="#efefef" stroke-width="1" stroke-dasharray="6"/></g><g transform="translate(519 -0.5)"><line y2="1180" transform="translate(261.5 0.5)" fill="none" stroke="#efefef" stroke-width="1" stroke-dasharray="6"/></g><g transform="translate(597 -0.5)"><line y2="1180" transform="translate(261.5 0.5)" fill="none" stroke="#efefef" stroke-width="1" stroke-dasharray="6"/></g><g transform="translate(675 -0.5)"><line y2="1180" transform="translate(261.5 0.5)" fill="none" stroke="#efefef" stroke-width="1" stroke-dasharray="6"/></g><g transform="translate(753 -0.5)"><line y2="1180" transform="translate(261.5 0.5)" fill="none" stroke="#efefef" stroke-width="1" stroke-dasharray="6"/></g><g transform="translate(831 -0.5)"><line y2="1180" transform="translate(261.5 0.5)" fill="none" stroke="#efefef" stroke-width="1" stroke-dasharray="6"/></g><g transform="translate(909 -0.5)"><line y2="1180" transform="translate(261.5 0.5)" fill="none" stroke="#efefef" stroke-width="1" stroke-dasharray="6"/></g><g transform="translate(987 -0.5)"><line y2="1180" transform="translate(261.5 0.5)" fill="none" stroke="#efefef" stroke-width="1" stroke-dasharray="6"/></g><g transform="translate(1065 -0.5)"><line y2="1180" transform="translate(261.5 0.5)" fill="none" stroke="#efefef" stroke-width="1" stroke-dasharray="6"/></g><g transform="translate(1143 -0.5)"><line y2="1180" transform="translate(261.5 0.5)" fill="none" stroke="#efefef" stroke-width="1" stroke-dasharray="6"/></g><g transform="translate(1221 -0.5)"><line y2="1180" transform="translate(261.5 0.5)" fill="none" stroke="#efefef" stroke-width="1" stroke-dasharray="6"/></g><g transform="translate(1299 -0.5)"><line y2="1180" transform="translate(261.5 0.5)" fill="none" stroke="#efefef" stroke-width="1" stroke-dasharray="6"/></g><g transform="translate(1377 -0.5)"><line y2="1180" transform="translate(261.5 0.5)" fill="none" stroke="#efefef" stroke-width="1" stroke-dasharray="6"/></g><g transform="translate(-261 1199.5)"><line y2="1180" transform="translate(261.5 0.5)" fill="none" stroke="#efefef" stroke-width="1" stroke-dasharray="6"/></g><g transform="translate(-183 1199.5)"><line y2="1180" transform="translate(261.5 0.5)" fill="none" stroke="#efefef" stroke-width="1" stroke-dasharray="6"/></g><g transform="translate(-105 1199.5)"><line y2="1180" transform="translate(261.5 0.5)" fill="none" stroke="#efefef" stroke-width="1" stroke-dasharray="6"/></g><g transform="translate(-27 1199.5)"><line y2="1180" transform="translate(261.5 0.5)" fill="none" stroke="#efefef" stroke-width="1" stroke-dasharray="6"/></g><g transform="translate(51 1199.5)"><line y2="1180" transform="translate(261.5 0.5)" fill="none" stroke="#efefef" stroke-width="1" stroke-dasharray="6"/></g><g transform="translate(129 1199.5)"><line y2="1180" transform="translate(261.5 0.5)" fill="none" stroke="#efefef" stroke-width="1" stroke-dasharray="6"/></g><g transform="translate(207 1199.5)"><line y2="1180" transform="translate(261.5 0.5)" fill="none" stroke="#efefef" stroke-width="1" stroke-dasharray="6"/></g><g transform="translate(285 1199.5)"><line y2="1180" transform="translate(261.5 0.5)" fill="none" stroke="#efefef" stroke-width="1" stroke-dasharray="6"/></g><g transform="translate(363 1199.5)"><line y2="1180" transform="translate(261.5 0.5)" fill="none" stroke="#efefef" stroke-width="1" stroke-dasharray="6"/></g><g transform="translate(441 1199.5)"><line y2="1180" transform="translate(261.5 0.5)" fill="none" stroke="#efefef" stroke-width="1" stroke-dasharray="6"/></g><g transform="translate(519 1199.5)"><line y2="1180" transform="translate(261.5 0.5)" fill="none" stroke="#efefef" stroke-width="1" stroke-dasharray="6"/></g><g transform="translate(597 1199.5)"><line y2="1180" transform="translate(261.5 0.5)" fill="none" stroke="#efefef" stroke-width="1" stroke-dasharray="6"/></g><g transform="translate(675 1199.5)"><line y2="1180" transform="translate(261.5 0.5)" fill="none" stroke="#efefef" stroke-width="1" stroke-dasharray="6"/></g><g transform="translate(753 1199.5)"><line y2="1180" transform="translate(261.5 0.5)" fill="none" stroke="#efefef" stroke-width="1" stroke-dasharray="6"/></g><g transform="translate(831 1199.5)"><line y2="1180" transform="translate(261.5 0.5)" fill="none" stroke="#efefef" stroke-width="1" stroke-dasharray="6"/></g><g transform="translate(909 1199.5)"><line y2="1180" transform="translate(261.5 0.5)" fill="none" stroke="#efefef" stroke-width="1" stroke-dasharray="6"/></g><g transform="translate(987 1199.5)"><line y2="1180" transform="translate(261.5 0.5)" fill="none" stroke="#efefef" stroke-width="1" stroke-dasharray="6"/></g><g transform="translate(1065 1199.5)"><line y2="1180" transform="translate(261.5 0.5)" fill="none" stroke="#efefef" stroke-width="1" stroke-dasharray="6"/></g><g transform="translate(1143 1199.5)"><line y2="1180" transform="translate(261.5 0.5)" fill="none" stroke="#efefef" stroke-width="1" stroke-dasharray="6"/></g><g transform="translate(1221 1199.5)"><line y2="1180" transform="translate(261.5 0.5)" fill="none" stroke="#efefef" stroke-width="1" stroke-dasharray="6"/></g><g transform="translate(1299 1199.5)"><line y2="1180" transform="translate(261.5 0.5)" fill="none" stroke="#efefef" stroke-width="1" stroke-dasharray="6"/></g><g transform="translate(1377 1199.5)"><line y2="1180" transform="translate(261.5 0.5)" fill="none" stroke="#efefef" stroke-width="1" stroke-dasharray="6"/></g><g transform="translate(-261 2399.5)"><line y2="1180" transform="translate(261.5 0.5)" fill="none" stroke="#efefef" stroke-width="1" stroke-dasharray="6"/></g><g transform="translate(-183 2399.5)"><line y2="1180" transform="translate(261.5 0.5)" fill="none" stroke="#efefef" stroke-width="1" stroke-dasharray="6"/></g><g transform="translate(-105 2399.5)"><line y2="1180" transform="translate(261.5 0.5)" fill="none" stroke="#efefef" stroke-width="1" stroke-dasharray="6"/></g><g transform="translate(-27 2399.5)"><line y2="1180" transform="translate(261.5 0.5)" fill="none" stroke="#efefef" stroke-width="1" stroke-dasharray="6"/></g><g transform="translate(51 2399.5)"><line y2="1180" transform="translate(261.5 0.5)" fill="none" stroke="#efefef" stroke-width="1" stroke-dasharray="6"/></g><g transform="translate(129 2399.5)"><line y2="1180" transform="translate(261.5 0.5)" fill="none" stroke="#efefef" stroke-width="1" stroke-dasharray="6"/></g><g transform="translate(207 2399.5)"><line y2="1180" transform="translate(261.5 0.5)" fill="none" stroke="#efefef" stroke-width="1" stroke-dasharray="6"/></g><g transform="translate(285 2399.5)"><line y2="1180" transform="translate(261.5 0.5)" fill="none" stroke="#efefef" stroke-width="1" stroke-dasharray="6"/></g><g transform="translate(363 2399.5)"><line y2="1180" transform="translate(261.5 0.5)" fill="none" stroke="#efefef" stroke-width="1" stroke-dasharray="6"/></g><g transform="translate(441 2399.5)"><line y2="1180" transform="translate(261.5 0.5)" fill="none" stroke="#efefef" stroke-width="1" stroke-dasharray="6"/></g><g transform="translate(519 2399.5)"><line y2="1180" transform="translate(261.5 0.5)" fill="none" stroke="#efefef" stroke-width="1" stroke-dasharray="6"/></g><g transform="translate(597 2399.5)"><line y2="1180" transform="translate(261.5 0.5)" fill="none" stroke="#efefef" stroke-width="1" stroke-dasharray="6"/></g><g transform="translate(675 2399.5)"><line y2="1180" transform="translate(261.5 0.5)" fill="none" stroke="#efefef" stroke-width="1" stroke-dasharray="6"/></g><g transform="translate(753 2399.5)"><line y2="1180" transform="translate(261.5 0.5)" fill="none" stroke="#efefef" stroke-width="1" stroke-dasharray="6"/></g><g transform="translate(831 2399.5)"><line y2="1180" transform="translate(261.5 0.5)" fill="none" stroke="#efefef" stroke-width="1" stroke-dasharray="6"/></g><g transform="translate(909 2399.5)"><line y2="1180" transform="translate(261.5 0.5)" fill="none" stroke="#efefef" stroke-width="1" stroke-dasharray="6"/></g><g transform="translate(987 2399.5)"><line y2="1180" transform="translate(261.5 0.5)" fill="none" stroke="#efefef" stroke-width="1" stroke-dasharray="6"/></g><g transform="translate(1065 2399.5)"><line y2="1180" transform="translate(261.5 0.5)" fill="none" stroke="#efefef" stroke-width="1" stroke-dasharray="6"/></g><g transform="translate(1143 2399.5)"><line y2="1180" transform="translate(261.5 0.5)" fill="none" stroke="#efefef" stroke-width="1" stroke-dasharray="6"/></g><g transform="translate(1221 2399.5)"><line y2="1180" transform="translate(261.5 0.5)" fill="none" stroke="#efefef" stroke-width="1" stroke-dasharray="6"/></g><g transform="translate(1299 2399.5)"><line y2="1180" transform="translate(261.5 0.5)" fill="none" stroke="#efefef" stroke-width="1" stroke-dasharray="6"/></g><g transform="translate(1377 2399.5)"><line y2="1180" transform="translate(261.5 0.5)" fill="none" stroke="#efefef" stroke-width="1" stroke-dasharray="6"/></g><g transform="translate(-261 3599.5)"><line y2="1180" transform="translate(261.5 0.5)" fill="none" stroke="#efefef" stroke-width="1" stroke-dasharray="6"/></g><g transform="translate(-183 3599.5)"><line y2="1180" transform="translate(261.5 0.5)" fill="none" stroke="#efefef" stroke-width="1" stroke-dasharray="6"/></g><g transform="translate(-105 3599.5)"><line y2="1180" transform="translate(261.5 0.5)" fill="none" stroke="#efefef" stroke-width="1" stroke-dasharray="6"/></g><g transform="translate(-27 3599.5)"><line y2="1180" transform="translate(261.5 0.5)" fill="none" stroke="#efefef" stroke-width="1" stroke-dasharray="6"/></g><g transform="translate(51 3599.5)"><line y2="1180" transform="translate(261.5 0.5)" fill="none" stroke="#efefef" stroke-width="1" stroke-dasharray="6"/></g><g transform="translate(129 3599.5)"><line y2="1180" transform="translate(261.5 0.5)" fill="none" stroke="#efefef" stroke-width="1" stroke-dasharray="6"/></g><g transform="translate(207 3599.5)"><line y2="1180" transform="translate(261.5 0.5)" fill="none" stroke="#efefef" stroke-width="1" stroke-dasharray="6"/></g><g transform="translate(285 3599.5)"><line y2="1180" transform="translate(261.5 0.5)" fill="none" stroke="#efefef" stroke-width="1" stroke-dasharray="6"/></g><g transform="translate(363 3599.5)"><line y2="1180" transform="translate(261.5 0.5)" fill="none" stroke="#efefef" stroke-width="1" stroke-dasharray="6"/></g><g transform="translate(441 3599.5)"><line y2="1180" transform="translate(261.5 0.5)" fill="none" stroke="#efefef" stroke-width="1" stroke-dasharray="6"/></g><g transform="translate(519 3599.5)"><line y2="1180" transform="translate(261.5 0.5)" fill="none" stroke="#efefef" stroke-width="1" stroke-dasharray="6"/></g><g transform="translate(597 3599.5)"><line y2="1180" transform="translate(261.5 0.5)" fill="none" stroke="#efefef" stroke-width="1" stroke-dasharray="6"/></g><g transform="translate(675 3599.5)"><line y2="1180" transform="translate(261.5 0.5)" fill="none" stroke="#efefef" stroke-width="1" stroke-dasharray="6"/></g><g transform="translate(753 3599.5)"><line y2="1180" transform="translate(261.5 0.5)" fill="none" stroke="#efefef" stroke-width="1" stroke-dasharray="6"/></g><g transform="translate(831 3599.5)"><line y2="1180" transform="translate(261.5 0.5)" fill="none" stroke="#efefef" stroke-width="1" stroke-dasharray="6"/></g><g transform="translate(909 3599.5)"><line y2="1180" transform="translate(261.5 0.5)" fill="none" stroke="#efefef" stroke-width="1" stroke-dasharray="6"/></g><g transform="translate(987 3599.5)"><line y2="1180" transform="translate(261.5 0.5)" fill="none" stroke="#efefef" stroke-width="1" stroke-dasharray="6"/></g><g transform="translate(1065 3599.5)"><line y2="1180" transform="translate(261.5 0.5)" fill="none" stroke="#efefef" stroke-width="1" stroke-dasharray="6"/></g><g transform="translate(1143 3599.5)"><line y2="1180" transform="translate(261.5 0.5)" fill="none" stroke="#efefef" stroke-width="1" stroke-dasharray="6"/></g><g transform="translate(1221 3599.5)"><line y2="1180" transform="translate(261.5 0.5)" fill="none" stroke="#efefef" stroke-width="1" stroke-dasharray="6"/></g><g transform="translate(1299 3599.5)"><line y2="1180" transform="translate(261.5 0.5)" fill="none" stroke="#efefef" stroke-width="1" stroke-dasharray="6"/></g><g transform="translate(1377 3599.5)"><line y2="1180" transform="translate(261.5 0.5)" fill="none" stroke="#efefef" stroke-width="1" stroke-dasharray="6"/></g></g></svg>