<svg width="394" height="331" viewBox="0 0 394 331" fill="none" xmlns="http://www.w3.org/2000/svg">
<path d="M-5.43893e-08 8.00001C-2.43509e-08 3.58173 3.58172 2.43509e-08 8 5.43892e-08L386 2.62428e-06C390.418 2.65432e-06 394 3.58172 394 8L394 331L-2.25035e-06 331L-5.43893e-08 8.00001Z" fill="white"/>
<path d="M27.453 51.0771L23.664 38.1171L25.941 38.1171L28.524 47.4771L31.098 38.1351L33.375 38.1171L35.958 47.4771L38.532 38.1171L40.809 38.1171L37.029 51.0771L34.887 51.0771L32.232 41.8611L29.595 51.0771L27.453 51.0771ZM45.6243 51.3471C44.6403 51.3471 43.7763 51.1341 43.0323 50.7081C42.2883 50.2821 41.7063 49.6911 41.2863 48.9351C40.8723 48.1791 40.6653 47.3091 40.6653 46.3251C40.6653 45.2631 40.8693 44.3421 41.2773 43.5621C41.6853 42.7761 42.2523 42.1671 42.9783 41.7351C43.7043 41.3031 44.5443 41.0871 45.4983 41.0871C46.5063 41.0871 47.3613 41.3241 48.0633 41.7981C48.7713 42.2661 49.2963 42.9291 49.6383 43.7871C49.9803 44.6451 50.1093 45.6561 50.0253 46.8201L47.8743 46.8201L47.8743 46.0281C47.8683 44.9721 47.6823 44.2011 47.3163 43.7151C46.9503 43.2291 46.3743 42.9861 45.5883 42.9861C44.7003 42.9861 44.0403 43.2621 43.6083 43.8141C43.1763 44.3601 42.9603 45.1611 42.9603 46.2171C42.9603 47.2011 43.1763 47.9631 43.6083 48.5031C44.0403 49.0431 44.6703 49.3131 45.4983 49.3131C46.0323 49.3131 46.4913 49.1961 46.8753 48.9621C47.2653 48.7221 47.5653 48.3771 47.7753 47.9271L49.9173 48.5751C49.5453 49.4511 48.9693 50.1321 48.1893 50.6181C47.4153 51.1041 46.5603 51.3471 45.6243 51.3471ZM42.2763 46.8201L42.2763 45.1821L48.9633 45.1821L48.9633 46.8201L42.2763 46.8201ZM56.7044 51.3471C55.7564 51.3471 54.9614 51.1221 54.3194 50.6721C53.6774 50.2221 53.1944 49.6101 52.8704 48.8361C52.5464 48.0561 52.3844 47.1831 52.3844 46.2171C52.3844 45.2391 52.5464 44.3631 52.8704 43.5891C53.1944 42.8151 53.6684 42.2061 54.2924 41.7621C54.9224 41.3121 55.6994 41.0871 56.6234 41.0871C57.5414 41.0871 58.3364 41.3121 59.0084 41.7621C59.6864 42.2061 60.2114 42.8151 60.5834 43.5891C60.9554 44.3571 61.1414 45.2331 61.1414 46.2171C61.1414 47.1891 60.9584 48.0621 60.5924 48.8361C60.2264 49.6101 59.7104 50.2221 59.0444 50.6721C58.3784 51.1221 57.5984 51.3471 56.7044 51.3471ZM52.0154 51.0771L52.0154 38.1171L54.2024 38.1171L54.2024 44.2551L53.9324 44.2551L53.9324 51.0771L52.0154 51.0771ZM56.3714 49.4031C56.9354 49.4031 57.4004 49.2621 57.7664 48.9801C58.1324 48.6981 58.4024 48.3171 58.5764 47.8371C58.7564 47.3511 58.8464 46.8111 58.8464 46.2171C58.8464 45.6291 58.7564 45.0951 58.5764 44.6151C58.3964 44.1291 58.1174 43.7451 57.7394 43.4631C57.3614 43.1751 56.8814 43.0311 56.2994 43.0311C55.7474 43.0311 55.2974 43.1661 54.9494 43.4361C54.6014 43.7001 54.3434 44.0721 54.1754 44.5521C54.0134 45.0261 53.9324 45.5811 53.9324 46.2171C53.9324 46.8471 54.0134 47.4021 54.1754 47.8821C54.3434 48.3621 54.6044 48.7371 54.9584 49.0071C55.3184 49.2711 55.7894 49.4031 56.3714 49.4031ZM66.6497 51.3471C65.4497 51.3471 64.4747 51.0771 63.7247 50.5371C62.9747 49.9971 62.5187 49.2381 62.3567 48.2601L64.5707 47.9181C64.6847 48.3981 64.9367 48.7761 65.3267 49.0521C65.7167 49.3281 66.2087 49.4661 66.8027 49.4661C67.3247 49.4661 67.7267 49.3641 68.0087 49.1601C68.2967 48.9501 68.4407 48.6651 68.4407 48.3051C68.4407 48.0831 68.3867 47.9061 68.2787 47.7741C68.1767 47.6361 67.9487 47.5041 67.5947 47.3781C67.2407 47.2521 66.6977 47.0931 65.9657 46.9011C65.1497 46.6851 64.5017 46.4541 64.0217 46.2081C63.5417 45.9561 63.1967 45.6591 62.9867 45.3171C62.7767 44.9751 62.6717 44.5611 62.6717 44.0751C62.6717 43.4691 62.8307 42.9411 63.1487 42.4911C63.4667 42.0411 63.9107 41.6961 64.4807 41.4561C65.0507 41.2101 65.7227 41.0871 66.4967 41.0871C67.2527 41.0871 67.9217 41.2041 68.5037 41.4381C69.0917 41.6721 69.5657 42.0051 69.9257 42.4371C70.2857 42.8691 70.5077 43.3761 70.5917 43.9581L68.3777 44.3541C68.3237 43.9401 68.1347 43.6131 67.8107 43.3731C67.4927 43.1331 67.0667 42.9981 66.5327 42.9681C66.0227 42.9381 65.6117 43.0161 65.2997 43.2021C64.9877 43.3821 64.8317 43.6371 64.8317 43.9671C64.8317 44.1531 64.8947 44.3121 65.0207 44.4441C65.1467 44.5761 65.3987 44.7081 65.7767 44.8401C66.1607 44.9721 66.7307 45.1341 67.4867 45.3261C68.2607 45.5241 68.8787 45.7521 69.3407 46.0101C69.8087 46.2621 70.1447 46.5651 70.3487 46.9191C70.5587 47.2731 70.6637 47.7021 70.6637 48.2061C70.6637 49.1841 70.3067 49.9521 69.5927 50.5101C68.8847 51.0681 67.9037 51.3471 66.6497 51.3471ZM72.815 39.8811L72.815 37.8921L74.984 37.8921L74.984 39.8811L72.815 39.8811ZM72.815 51.0771L72.815 41.3571L74.984 41.3571L74.984 51.0771L72.815 51.0771ZM83.3769 51.0771C82.7349 51.1971 82.1049 51.2481 81.4869 51.2301C80.8749 51.2181 80.3259 51.1071 79.8399 50.8971C79.3539 50.6811 78.9849 50.3421 78.7329 49.8801C78.5109 49.4601 78.3939 49.0311 78.3819 48.5931C78.3699 48.1551 78.3639 47.6601 78.3639 47.1081L78.3639 38.6571L80.5239 38.6571L80.5239 46.9821C80.5239 47.3721 80.5269 47.7141 80.5329 48.0081C80.5449 48.3021 80.6079 48.5421 80.7219 48.7281C80.9379 49.0881 81.2829 49.2891 81.7569 49.3311C82.2309 49.3731 82.7709 49.3491 83.3769 49.2591L83.3769 51.0771ZM76.5999 43.0581L76.5999 41.3571L83.3769 41.3571L83.3769 43.0581L76.5999 43.0581ZM89.3938 51.3471C88.4098 51.3471 87.5458 51.1341 86.8018 50.7081C86.0578 50.2821 85.4758 49.6911 85.0558 48.9351C84.6418 48.1791 84.4348 47.3091 84.4348 46.3251C84.4348 45.2631 84.6388 44.3421 85.0468 43.5621C85.4548 42.7761 86.0218 42.1671 86.7478 41.7351C87.4738 41.3031 88.3138 41.0871 89.2678 41.0871C90.2758 41.0871 91.1308 41.3241 91.8328 41.7981C92.5408 42.2661 93.0658 42.9291 93.4078 43.7871C93.7498 44.6451 93.8788 45.6561 93.7948 46.8201L91.6438 46.8201L91.6438 46.0281C91.6378 44.9721 91.4518 44.2011 91.0858 43.7151C90.7198 43.2291 90.1438 42.9861 89.3578 42.9861C88.4698 42.9861 87.8098 43.2621 87.3778 43.8141C86.9458 44.3601 86.7298 45.1611 86.7298 46.2171C86.7298 47.2011 86.9458 47.9631 87.3778 48.5031C87.8098 49.0431 88.4398 49.3131 89.2678 49.3131C89.8018 49.3131 90.2608 49.1961 90.6448 48.9621C91.0348 48.7221 91.3348 48.3771 91.5448 47.9271L93.6868 48.5751C93.3148 49.4511 92.7388 50.1321 91.9588 50.6181C91.1848 51.1041 90.3298 51.3471 89.3938 51.3471ZM86.0458 46.8201L86.0458 45.1821L92.7328 45.1821L92.7328 46.8201L86.0458 46.8201ZM99.4065 51.0771L99.4065 38.1171L101.575 38.1171L101.575 43.5711L107.713 43.5711L107.713 38.1171L109.873 38.1171L109.873 51.0771L107.713 51.0771L107.713 45.6051L101.575 45.6051L101.575 51.0771L99.4065 51.0771ZM116.816 51.3471C115.832 51.3471 114.968 51.1341 114.224 50.7081C113.48 50.2821 112.898 49.6911 112.478 48.9351C112.064 48.1791 111.857 47.3091 111.857 46.3251C111.857 45.2631 112.061 44.3421 112.469 43.5621C112.877 42.7761 113.444 42.1671 114.17 41.7351C114.896 41.3031 115.736 41.0871 116.69 41.0871C117.698 41.0871 118.553 41.3241 119.255 41.7981C119.963 42.2661 120.488 42.9291 120.83 43.7871C121.172 44.6451 121.301 45.6561 121.217 46.8201L119.066 46.8201L119.066 46.0281C119.06 44.9721 118.874 44.2011 118.508 43.7151C118.142 43.2291 117.566 42.9861 116.78 42.9861C115.892 42.9861 115.232 43.2621 114.8 43.8141C114.368 44.3601 114.152 45.1611 114.152 46.2171C114.152 47.2011 114.368 47.9631 114.8 48.5031C115.232 49.0431 115.862 49.3131 116.69 49.3131C117.224 49.3131 117.683 49.1961 118.067 48.9621C118.457 48.7221 118.757 48.3771 118.967 47.9271L121.109 48.5751C120.737 49.4511 120.161 50.1321 119.381 50.6181C118.607 51.1041 117.752 51.3471 116.816 51.3471ZM113.468 46.8201L113.468 45.1821L120.155 45.1821L120.155 46.8201L113.468 46.8201ZM125.767 51.3471C125.065 51.3471 124.471 51.2151 123.985 50.9511C123.499 50.6811 123.13 50.3241 122.878 49.8801C122.632 49.4361 122.509 48.9471 122.509 48.4131C122.509 47.9451 122.587 47.5251 122.743 47.1531C122.899 46.7751 123.139 46.4511 123.463 46.1811C123.787 45.9051 124.207 45.6801 124.723 45.5061C125.113 45.3801 125.569 45.2661 126.091 45.1641C126.619 45.0621 127.189 44.9691 127.801 44.8851C128.419 44.7951 129.064 44.6991 129.736 44.5971L128.962 45.0381C128.968 44.3661 128.818 43.8711 128.512 43.5531C128.206 43.2351 127.69 43.0761 126.964 43.0761C126.526 43.0761 126.103 43.1781 125.695 43.3821C125.287 43.5861 125.002 43.9371 124.84 44.4351L122.86 43.8141C123.1 42.9921 123.556 42.3321 124.228 41.8341C124.906 41.3361 125.818 41.0871 126.964 41.0871C127.828 41.0871 128.587 41.2281 129.241 41.5101C129.901 41.7921 130.39 42.2541 130.708 42.8961C130.882 43.2381 130.987 43.5891 131.023 43.9491C131.059 44.3031 131.077 44.6901 131.077 45.1101L131.077 51.0771L129.178 51.0771L129.178 48.9711L129.493 49.3131C129.055 50.0151 128.542 50.5311 127.954 50.8611C127.372 51.1851 126.643 51.3471 125.767 51.3471ZM126.199 49.6191C126.691 49.6191 127.111 49.5321 127.459 49.3581C127.807 49.1841 128.083 48.9711 128.287 48.7191C128.497 48.4671 128.638 48.2301 128.71 48.0081C128.824 47.7321 128.887 47.4171 128.899 47.0631C128.917 46.7031 128.926 46.4121 128.926 46.1901L129.592 46.3881C128.938 46.4901 128.377 46.5801 127.909 46.6581C127.441 46.7361 127.039 46.8111 126.703 46.8831C126.367 46.9491 126.07 47.0241 125.812 47.1081C125.56 47.1981 125.347 47.3031 125.173 47.4231C124.999 47.5431 124.864 47.6811 124.768 47.8371C124.678 47.9931 124.633 48.1761 124.633 48.3861C124.633 48.6261 124.693 48.8391 124.813 49.0251C124.933 49.2051 125.107 49.3491 125.335 49.4571C125.569 49.5651 125.857 49.6191 126.199 49.6191ZM133.6 51.0771L133.6 37.8471L135.769 37.8471L135.769 51.0771L133.6 51.0771ZM144.162 51.0771C143.52 51.1971 142.89 51.2481 142.272 51.2301C141.66 51.2181 141.111 51.1071 140.625 50.8971C140.139 50.6811 139.77 50.3421 139.518 49.8801C139.296 49.4601 139.179 49.0311 139.167 48.5931C139.155 48.1551 139.149 47.6601 139.149 47.1081L139.149 38.6571L141.309 38.6571L141.309 46.9821C141.309 47.3721 141.312 47.7141 141.318 48.0081C141.33 48.3021 141.393 48.5421 141.507 48.7281C141.723 49.0881 142.068 49.2891 142.542 49.3311C143.016 49.3731 143.556 49.3491 144.162 49.2591L144.162 51.0771ZM137.385 43.0581L137.385 41.3571L144.162 41.3571L144.162 43.0581L137.385 43.0581ZM152.975 51.0771L152.975 46.3971C152.975 46.0911 152.954 45.7521 152.912 45.3801C152.87 45.0081 152.771 44.6511 152.615 44.3091C152.465 43.9611 152.237 43.6761 151.931 43.4541C151.631 43.2321 151.223 43.1211 150.707 43.1211C150.431 43.1211 150.158 43.1661 149.888 43.2561C149.618 43.3461 149.372 43.5021 149.15 43.7241C148.934 43.9401 148.76 44.2401 148.628 44.6241C148.496 45.0021 148.43 45.4881 148.43 46.0821L147.143 45.5331C147.143 44.7051 147.302 43.9551 147.62 43.2831C147.944 42.6111 148.418 42.0771 149.042 41.6811C149.666 41.2791 150.434 41.0781 151.346 41.0781C152.066 41.0781 152.66 41.1981 153.128 41.4381C153.596 41.6781 153.968 41.9841 154.244 42.3561C154.52 42.7281 154.724 43.1241 154.856 43.5441C154.988 43.9641 155.072 44.3631 155.108 44.7411C155.15 45.1131 155.171 45.4161 155.171 45.6501L155.171 51.0771L152.975 51.0771ZM146.234 51.0771L146.234 38.1171L148.169 38.1171L148.169 44.9391L148.43 44.9391L148.43 51.0771L146.234 51.0771Z" fill="#222222"/>
<path d="M232.962 33V32.1832L236.029 28.8254C236.389 28.4322 236.686 28.0904 236.919 27.8C237.152 27.5065 237.324 27.2312 237.436 26.9741C237.551 26.714 237.608 26.4417 237.608 26.1574C237.608 25.8307 237.53 25.5478 237.372 25.3088C237.218 25.0699 237.006 24.8853 236.737 24.7552C236.468 24.6252 236.165 24.5601 235.83 24.5601C235.473 24.5601 235.161 24.6342 234.895 24.7825C234.632 24.9277 234.428 25.1319 234.282 25.395C234.14 25.6582 234.069 25.9668 234.069 26.3207H232.998C232.998 25.7762 233.124 25.2982 233.375 24.8868C233.626 24.4754 233.968 24.1548 234.4 23.9249C234.836 23.695 235.325 23.58 235.866 23.58C236.411 23.58 236.893 23.695 237.313 23.9249C237.734 24.1548 238.064 24.4648 238.303 24.8551C238.542 25.2453 238.661 25.6794 238.661 26.1574C238.661 26.4992 238.599 26.8335 238.475 27.1602C238.354 27.4838 238.142 27.8453 237.84 28.2446C237.54 28.6409 237.124 29.1249 236.592 29.6967L234.505 31.9291V32.0017H238.824V33H232.962ZM243.274 23.58C243.655 23.583 244.036 23.6556 244.417 23.7978C244.798 23.94 245.146 24.176 245.461 24.5057C245.775 24.8324 246.028 25.2786 246.219 25.8443C246.409 26.4099 246.504 27.1193 246.504 27.9724C246.504 28.7982 246.426 29.5318 246.268 30.1731C246.114 30.8114 245.89 31.3498 245.597 31.7885C245.306 32.2271 244.953 32.5599 244.535 32.7867C244.121 33.0136 243.652 33.1271 243.128 33.1271C242.608 33.1271 242.144 33.0242 241.735 32.8185C241.33 32.6098 240.997 32.3209 240.737 31.9518C240.48 31.5797 240.315 31.1487 240.243 30.6586H241.35C241.45 31.0851 241.648 31.4376 241.944 31.7159C242.244 31.9911 242.638 32.1288 243.128 32.1288C243.845 32.1288 244.411 31.8157 244.826 31.1895C245.243 30.5633 245.452 29.6785 245.452 28.535H245.379C245.21 28.7891 245.009 29.0085 244.776 29.193C244.543 29.3775 244.284 29.5197 244 29.6195C243.715 29.7193 243.413 29.7693 243.092 29.7693C242.56 29.7693 242.071 29.6377 241.627 29.3745C241.185 29.1083 240.831 28.7438 240.565 28.2809C240.302 27.8151 240.17 27.2827 240.17 26.6837C240.17 26.115 240.297 25.5947 240.551 25.1228C240.808 24.6479 241.168 24.2697 241.631 23.9884C242.097 23.7071 242.644 23.5709 243.274 23.58ZM243.274 24.5783C242.893 24.5783 242.549 24.6736 242.244 24.8641C241.941 25.0517 241.701 25.3058 241.522 25.6265C241.347 25.9441 241.259 26.2965 241.259 26.6837C241.259 27.0709 241.344 27.4233 241.513 27.741C241.686 28.0556 241.92 28.3066 242.216 28.4942C242.516 28.6787 242.856 28.771 243.237 28.771C243.525 28.771 243.792 28.715 244.041 28.6031C244.289 28.4881 244.505 28.3324 244.689 28.1357C244.877 27.9361 245.024 27.7107 245.13 27.4596C245.235 27.2055 245.288 26.9408 245.288 26.6656C245.288 26.3026 245.201 25.9622 245.025 25.6446C244.853 25.327 244.614 25.0699 244.308 24.8732C244.006 24.6766 243.661 24.5783 243.274 24.5783ZM251.279 23.7071H252.622L255.781 31.4209H255.889L259.048 23.7071H260.391V33H259.338V25.9396H259.247L256.343 33H255.327L252.423 25.9396H252.332V33H251.279V23.7071ZM264.169 33.1634C263.728 33.1634 263.327 33.0802 262.967 32.9138C262.607 32.7444 262.321 32.5009 262.109 32.1832C261.898 31.8626 261.792 31.4754 261.792 31.0216C261.792 30.6223 261.87 30.2986 262.028 30.0506C262.185 29.7995 262.395 29.6029 262.658 29.4607C262.922 29.3185 263.212 29.2126 263.53 29.1431C263.85 29.0705 264.172 29.013 264.496 28.9706C264.92 28.9162 265.263 28.8754 265.526 28.8481C265.792 28.8179 265.986 28.768 266.107 28.6984C266.231 28.6288 266.293 28.5078 266.293 28.3354V28.2991C266.293 27.8514 266.17 27.5035 265.925 27.2554C265.683 27.0074 265.316 26.8834 264.823 26.8834C264.312 26.8834 263.911 26.9953 263.62 27.2191C263.33 27.443 263.126 27.682 263.008 27.9361L261.991 27.5731C262.173 27.1496 262.415 26.8198 262.717 26.5839C263.023 26.3449 263.356 26.1785 263.716 26.0848C264.079 25.988 264.436 25.9396 264.787 25.9396C265.01 25.9396 265.268 25.9668 265.558 26.0212C265.851 26.0727 266.134 26.18 266.406 26.3434C266.682 26.5067 266.91 26.7533 267.092 27.083C267.273 27.4127 267.364 27.8544 267.364 28.408V33H266.293V32.0562H266.239C266.166 32.2074 266.045 32.3693 265.876 32.5417C265.706 32.7141 265.481 32.8608 265.199 32.9818C264.918 33.1029 264.575 33.1634 264.169 33.1634ZM264.333 32.2014C264.756 32.2014 265.113 32.1182 265.404 31.9518C265.697 31.7854 265.918 31.5707 266.066 31.3075C266.217 31.0443 266.293 30.7675 266.293 30.4771V29.497C266.248 29.5515 266.148 29.6014 265.994 29.6467C265.842 29.6891 265.667 29.7269 265.467 29.7602C265.271 29.7904 265.078 29.8177 264.891 29.8419C264.706 29.863 264.557 29.8812 264.442 29.8963C264.163 29.9326 263.903 29.9916 263.661 30.0733C263.422 30.1519 263.229 30.2714 263.08 30.4317C262.935 30.589 262.863 30.8038 262.863 31.0761C262.863 31.4482 263 31.7295 263.276 31.9201C263.554 32.1076 263.906 32.2014 264.333 32.2014ZM269.375 35.6136C269.194 35.6136 269.032 35.5985 268.89 35.5683C268.748 35.541 268.649 35.5138 268.595 35.4866L268.867 34.5428C269.127 34.6093 269.357 34.6335 269.557 34.6154C269.756 34.5972 269.933 34.508 270.088 34.3477C270.245 34.1904 270.389 33.9347 270.519 33.5808L270.718 33.0363L268.141 26.0303H269.303L271.227 31.5843H271.299L273.223 26.0303H274.385L271.426 34.0164C271.293 34.3764 271.128 34.6744 270.932 34.9103C270.735 35.1493 270.507 35.3263 270.246 35.4412C269.989 35.5562 269.699 35.6136 269.375 35.6136ZM281.638 33.1271C280.955 33.1271 280.372 32.941 279.891 32.5689C279.41 32.1938 279.043 31.6508 278.789 30.9399C278.534 30.226 278.407 29.3639 278.407 28.3535C278.407 27.3492 278.534 26.4916 278.789 25.7807C279.046 25.0668 279.415 24.5223 279.896 24.1472C280.38 23.7691 280.961 23.58 281.638 23.58C282.316 23.58 282.895 23.7691 283.376 24.1472C283.86 24.5223 284.229 25.0668 284.483 25.7807C284.74 26.4916 284.869 27.3492 284.869 28.3535C284.869 29.3639 284.742 30.226 284.488 30.9399C284.234 31.6508 283.866 32.1938 283.385 32.5689C282.904 32.941 282.322 33.1271 281.638 33.1271ZM281.638 32.1288C282.316 32.1288 282.842 31.8021 283.217 31.1487C283.592 30.4953 283.78 29.5636 283.78 28.3535C283.78 27.5489 283.694 26.8637 283.521 26.298C283.352 25.7323 283.107 25.3013 282.786 25.0048C282.469 24.7084 282.086 24.5601 281.638 24.5601C280.967 24.5601 280.442 24.8914 280.064 25.5539C279.686 26.2133 279.496 27.1465 279.496 28.3535C279.496 29.1582 279.581 29.8419 279.751 30.4045C279.92 30.9672 280.163 31.3952 280.481 31.6886C280.802 31.9821 281.187 32.1288 281.638 32.1288ZM289.241 33.1271C288.557 33.1271 287.975 32.941 287.494 32.5689C287.013 32.1938 286.645 31.6508 286.391 30.9399C286.137 30.226 286.01 29.3639 286.01 28.3535C286.01 27.3492 286.137 26.4916 286.391 25.7807C286.648 25.0668 287.018 24.5223 287.499 24.1472C287.983 23.7691 288.563 23.58 289.241 23.58C289.919 23.58 290.498 23.7691 290.979 24.1472C291.463 24.5223 291.832 25.0668 292.086 25.7807C292.343 26.4916 292.472 27.3492 292.472 28.3535C292.472 29.3639 292.345 30.226 292.091 30.9399C291.836 31.6508 291.469 32.1938 290.988 32.5689C290.507 32.941 289.925 33.1271 289.241 33.1271ZM289.241 32.1288C289.919 32.1288 290.445 31.8021 290.82 31.1487C291.195 30.4953 291.383 29.5636 291.383 28.3535C291.383 27.5489 291.296 26.8637 291.124 26.298C290.955 25.7323 290.71 25.3013 290.389 25.0048C290.071 24.7084 289.689 24.5601 289.241 24.5601C288.569 24.5601 288.045 24.8914 287.666 25.5539C287.288 26.2133 287.099 27.1465 287.099 28.3535C287.099 29.1582 287.184 29.8419 287.353 30.4045C287.523 30.9672 287.766 31.3952 288.084 31.6886C288.405 31.9821 288.79 32.1288 289.241 32.1288ZM294.611 31.8112C294.387 31.8112 294.195 31.731 294.035 31.5707C293.875 31.4103 293.794 31.2183 293.794 30.9944C293.794 30.7705 293.875 30.5785 294.035 30.4181C294.195 30.2578 294.387 30.1776 294.611 30.1776C294.835 30.1776 295.027 30.2578 295.188 30.4181C295.348 30.5785 295.428 30.7705 295.428 30.9944C295.428 31.1426 295.39 31.2788 295.315 31.4028C295.242 31.5268 295.144 31.6266 295.02 31.7023C294.899 31.7749 294.763 31.8112 294.611 31.8112ZM294.611 27.1102C294.387 27.1102 294.195 27.0301 294.035 26.8698C293.875 26.7094 293.794 26.5173 293.794 26.2935C293.794 26.0696 293.875 25.8775 294.035 25.7172C294.195 25.5569 294.387 25.4767 294.611 25.4767C294.835 25.4767 295.027 25.5569 295.188 25.7172C295.348 25.8775 295.428 26.0696 295.428 26.2935C295.428 26.4417 295.39 26.5778 295.315 26.7019C295.242 26.8259 295.144 26.9257 295.02 27.0013C294.899 27.0739 294.763 27.1102 294.611 27.1102ZM299.979 33.1271C299.296 33.1271 298.713 32.941 298.232 32.5689C297.751 32.1938 297.384 31.6508 297.13 30.9399C296.876 30.226 296.749 29.3639 296.749 28.3535C296.749 27.3492 296.876 26.4916 297.13 25.7807C297.387 25.0668 297.756 24.5223 298.237 24.1472C298.721 23.7691 299.302 23.58 299.979 23.58C300.657 23.58 301.236 23.7691 301.717 24.1472C302.201 24.5223 302.57 25.0668 302.824 25.7807C303.081 26.4916 303.21 27.3492 303.21 28.3535C303.21 29.3639 303.083 30.226 302.829 30.9399C302.575 31.6508 302.207 32.1938 301.726 32.5689C301.245 32.941 300.663 33.1271 299.979 33.1271ZM299.979 32.1288C300.657 32.1288 301.183 31.8021 301.558 31.1487C301.933 30.4953 302.121 29.5636 302.121 28.3535C302.121 27.5489 302.035 26.8637 301.862 26.298C301.693 25.7323 301.448 25.3013 301.127 25.0048C300.81 24.7084 300.427 24.5601 299.979 24.5601C299.308 24.5601 298.783 24.8914 298.405 25.5539C298.027 26.2133 297.838 27.1465 297.838 28.3535C297.838 29.1582 297.922 29.8419 298.092 30.4045C298.261 30.9672 298.505 31.3952 298.822 31.6886C299.143 31.9821 299.529 32.1288 299.979 32.1288ZM307.582 33.1271C306.898 33.1271 306.316 32.941 305.835 32.5689C305.354 32.1938 304.987 31.6508 304.732 30.9399C304.478 30.226 304.351 29.3639 304.351 28.3535C304.351 27.3492 304.478 26.4916 304.732 25.7807C304.99 25.0668 305.359 24.5223 305.84 24.1472C306.324 23.7691 306.904 23.58 307.582 23.58C308.26 23.58 308.839 23.7691 309.32 24.1472C309.804 24.5223 310.173 25.0668 310.427 25.7807C310.684 26.4916 310.813 27.3492 310.813 28.3535C310.813 29.3639 310.686 30.226 310.432 30.9399C310.178 31.6508 309.81 32.1938 309.329 32.5689C308.848 32.941 308.266 33.1271 307.582 33.1271ZM307.582 32.1288C308.26 32.1288 308.786 31.8021 309.161 31.1487C309.536 30.4953 309.724 29.5636 309.724 28.3535C309.724 27.5489 309.638 26.8637 309.465 26.298C309.296 25.7323 309.051 25.3013 308.73 25.0048C308.412 24.7084 308.03 24.5601 307.582 24.5601C306.91 24.5601 306.386 24.8914 306.008 25.5539C305.629 26.2133 305.44 27.1465 305.44 28.3535C305.44 29.1582 305.525 29.8419 305.694 30.4045C305.864 30.9672 306.107 31.3952 306.425 31.6886C306.746 31.9821 307.131 32.1288 307.582 32.1288Z" fill="#7A7A7A"/>
<path d="M238.374 46.928C239.037 46.9329 239.691 47.0539 240.335 47.291C240.978 47.5282 241.559 47.9154 242.077 48.4527C242.6 48.9899 243.016 49.7159 243.326 50.6307C243.64 51.5406 243.8 52.6732 243.805 54.0284C243.805 55.3304 243.674 56.4896 243.413 57.506C243.152 58.5176 242.776 59.3718 242.288 60.0688C241.804 60.7658 241.215 61.2958 240.523 61.6588C239.831 62.0218 239.052 62.2033 238.186 62.2033C237.3 62.2033 236.513 62.029 235.826 61.6806C235.139 61.3321 234.58 60.8505 234.149 60.2358C233.718 59.6163 233.45 58.9048 233.343 58.1013H235.557C235.703 58.7402 235.998 59.2581 236.443 59.655C236.893 60.047 237.474 60.2431 238.186 60.2431C239.275 60.2431 240.124 59.7687 240.734 58.8201C241.344 57.8666 241.651 56.5356 241.656 54.827H241.54C241.288 55.2433 240.973 55.6014 240.596 55.9015C240.223 56.2016 239.805 56.4339 239.34 56.5985C238.875 56.763 238.379 56.8453 237.852 56.8453C236.995 56.8453 236.216 56.6348 235.514 56.2137C234.812 55.7926 234.253 55.2142 233.837 54.4785C233.421 53.7428 233.212 52.9031 233.212 51.9593C233.212 51.0203 233.425 50.1685 233.851 49.4037C234.282 48.639 234.882 48.034 235.652 47.5887C236.426 47.1386 237.334 46.9183 238.374 46.928ZM238.382 48.8157C237.815 48.8157 237.305 48.956 236.85 49.2367C236.4 49.5126 236.044 49.8877 235.783 50.3621C235.521 50.8315 235.39 51.3543 235.39 51.9302C235.39 52.5062 235.516 53.0289 235.768 53.4984C236.025 53.9631 236.373 54.3333 236.813 54.6092C237.259 54.8803 237.767 55.0158 238.338 55.0158C238.764 55.0158 239.161 54.9335 239.529 54.7689C239.897 54.6044 240.218 54.3769 240.494 54.0865C240.77 53.7912 240.986 53.4573 241.14 53.0846C241.295 52.7119 241.373 52.3199 241.373 51.9085C241.373 51.3615 241.242 50.8533 240.981 50.3838C240.724 49.9144 240.371 49.5368 239.921 49.2513C239.471 48.9609 238.958 48.8157 238.382 48.8157ZM251.604 62.2033C250.607 62.2033 249.716 62.0315 248.932 61.6878C248.153 61.3442 247.536 60.8674 247.081 60.2576C246.631 59.6429 246.389 58.9314 246.355 58.1231H248.635C248.664 58.5636 248.811 58.9459 249.078 59.2702C249.349 59.5896 249.702 59.8365 250.138 60.0107C250.573 60.185 251.057 60.2721 251.59 60.2721C252.175 60.2721 252.693 60.1705 253.143 59.9672C253.598 59.7639 253.954 59.4807 254.21 59.1177C254.467 58.7499 254.595 58.3264 254.595 57.8472C254.595 57.3487 254.467 56.9107 254.21 56.5331C253.959 56.1508 253.589 55.8507 253.1 55.6329C252.616 55.4151 252.03 55.3062 251.343 55.3062H250.087V53.4766H251.343C251.894 53.4766 252.378 53.3774 252.795 53.179C253.216 52.9805 253.545 52.7047 253.782 52.3513C254.019 51.9932 254.138 51.5745 254.138 51.0953C254.138 50.6355 254.034 50.2362 253.826 49.8974C253.622 49.5538 253.332 49.2851 252.954 49.0915C252.582 48.8979 252.141 48.8011 251.633 48.8011C251.149 48.8011 250.697 48.8907 250.275 49.0698C249.859 49.244 249.52 49.4957 249.259 49.8248C248.998 50.1491 248.857 50.5387 248.838 50.9937H246.667C246.691 50.1902 246.929 49.4836 247.379 48.8737C247.834 48.2639 248.434 47.7871 249.179 47.4435C249.925 47.0999 250.752 46.928 251.662 46.928C252.616 46.928 253.438 47.1144 254.131 47.4871C254.828 47.8549 255.365 48.3462 255.742 48.9609C256.125 49.5755 256.313 50.2483 256.309 50.9792C256.313 51.8117 256.081 52.5183 255.612 53.0991C255.147 53.6799 254.527 54.0695 253.753 54.268V54.3842C254.74 54.5342 255.505 54.9262 256.047 55.5603C256.594 56.1943 256.865 56.9809 256.86 57.9198C256.865 58.7378 256.638 59.4711 256.178 60.1196C255.723 60.7682 255.101 61.2788 254.312 61.6515C253.523 62.0194 252.621 62.2033 251.604 62.2033ZM260.625 62.1379C260.228 62.1379 259.887 61.9976 259.601 61.7169C259.316 61.4313 259.173 61.0876 259.173 60.6859C259.173 60.289 259.316 59.9502 259.601 59.6695C259.887 59.3839 260.228 59.2412 260.625 59.2412C261.022 59.2412 261.363 59.3839 261.648 59.6695C261.934 59.9502 262.077 60.289 262.077 60.6859C262.077 60.9521 262.009 61.1965 261.874 61.4192C261.743 61.637 261.569 61.8112 261.351 61.9419C261.133 62.0726 260.891 62.1379 260.625 62.1379ZM269.593 62.2033C268.596 62.2033 267.705 62.0315 266.921 61.6878C266.142 61.3442 265.525 60.8674 265.07 60.2576C264.62 59.6429 264.378 58.9314 264.344 58.1231H266.623C266.652 58.5636 266.8 58.9459 267.066 59.2702C267.337 59.5896 267.691 59.8365 268.126 60.0107C268.562 60.185 269.046 60.2721 269.578 60.2721C270.164 60.2721 270.682 60.1705 271.132 59.9672C271.587 59.7639 271.943 59.4807 272.199 59.1177C272.456 58.7499 272.584 58.3264 272.584 57.8472C272.584 57.3487 272.456 56.9107 272.199 56.5331C271.947 56.1508 271.577 55.8507 271.088 55.6329C270.604 55.4151 270.019 55.3062 269.331 55.3062H268.075V53.4766H269.331C269.883 53.4766 270.367 53.3774 270.783 53.179C271.205 52.9805 271.534 52.7047 271.771 52.3513C272.008 51.9932 272.127 51.5745 272.127 51.0953C272.127 50.6355 272.023 50.2362 271.814 49.8974C271.611 49.5538 271.321 49.2851 270.943 49.0915C270.57 48.8979 270.13 48.8011 269.622 48.8011C269.138 48.8011 268.685 48.8907 268.264 49.0698C267.848 49.244 267.509 49.4957 267.248 49.8248C266.986 50.1491 266.846 50.5387 266.827 50.9937H264.656C264.68 50.1902 264.917 49.4836 265.367 48.8737C265.822 48.2639 266.423 47.7871 267.168 47.4435C267.913 47.0999 268.741 46.928 269.651 46.928C270.604 46.928 271.427 47.1144 272.119 47.4871C272.816 47.8549 273.354 48.3462 273.731 48.9609C274.113 49.5755 274.302 50.2483 274.297 50.9792C274.302 51.8117 274.07 52.5183 273.6 53.0991C273.136 53.6799 272.516 54.0695 271.742 54.268V54.3842C272.729 54.5342 273.494 54.9262 274.036 55.5603C274.583 56.1943 274.854 56.9809 274.849 57.9198C274.854 58.7378 274.626 59.4711 274.167 60.1196C273.712 60.7682 273.09 61.2788 272.301 61.6515C271.512 62.0194 270.609 62.2033 269.593 62.2033ZM282.77 62.2468C281.623 62.242 280.643 61.9395 279.83 61.3393C279.016 60.7392 278.394 59.8655 277.964 58.7184C277.533 57.5713 277.318 56.1895 277.318 54.5729C277.318 52.9612 277.533 51.5842 277.964 50.4419C278.399 49.2997 279.024 48.4285 279.837 47.8283C280.655 47.2281 281.632 46.928 282.77 46.928C283.907 46.928 284.883 47.2305 285.696 47.8355C286.509 48.4357 287.131 49.3069 287.562 50.4492C287.997 51.5866 288.215 52.9612 288.215 54.5729C288.215 56.1943 288 57.5786 287.569 58.7257C287.138 59.868 286.516 60.7416 285.703 61.3466C284.89 61.9468 283.912 62.2468 282.77 62.2468ZM282.77 60.3084C283.777 60.3084 284.563 59.8171 285.129 58.8346C285.701 57.8521 285.986 56.4315 285.986 54.5729C285.986 53.3387 285.855 52.2957 285.594 51.4438C285.338 50.5871 284.967 49.9386 284.483 49.4981C284.004 49.0528 283.433 48.8302 282.77 48.8302C281.768 48.8302 280.981 49.3239 280.41 50.3112C279.839 51.2986 279.551 52.7192 279.546 54.5729C279.546 55.812 279.675 56.8598 279.931 57.7165C280.193 58.5684 280.563 59.2145 281.042 59.655C281.521 60.0906 282.097 60.3084 282.77 60.3084ZM298.552 59.2121V58.428C298.552 57.8666 298.668 57.3535 298.9 56.8889C299.137 56.4194 299.481 56.0443 299.931 55.7636C300.386 55.478 300.935 55.3352 301.579 55.3352C302.237 55.3352 302.789 55.4756 303.234 55.7563C303.68 56.037 304.016 56.4121 304.243 56.8816C304.476 57.3511 304.592 57.8666 304.592 58.428V59.2121C304.592 59.7736 304.476 60.289 304.243 60.7585C304.011 61.2232 303.67 61.5983 303.22 61.8838C302.774 62.1646 302.228 62.3049 301.579 62.3049C300.926 62.3049 300.374 62.1646 299.924 61.8838C299.474 61.5983 299.132 61.2232 298.9 60.7585C298.668 60.289 298.552 59.7736 298.552 59.2121ZM300.243 58.428V59.2121C300.243 59.6284 300.342 60.0059 300.541 60.3447C300.739 60.6835 301.085 60.8529 301.579 60.8529C302.068 60.8529 302.409 60.6835 302.603 60.3447C302.796 60.0059 302.893 59.6284 302.893 59.2121V58.428C302.893 58.0118 302.799 57.6343 302.61 57.2955C302.426 56.9566 302.082 56.7872 301.579 56.7872C301.095 56.7872 300.751 56.9566 300.548 57.2955C300.345 57.6343 300.243 58.0118 300.243 58.428ZM291.074 50.7033V49.9192C291.074 49.3577 291.19 48.8423 291.422 48.3728C291.659 47.9033 292.003 47.5282 292.453 47.2475C292.908 46.9668 293.457 46.8264 294.101 46.8264C294.759 46.8264 295.311 46.9668 295.756 47.2475C296.202 47.5282 296.538 47.9033 296.766 48.3728C296.993 48.8423 297.107 49.3577 297.107 49.9192V50.7033C297.107 51.2647 296.991 51.7802 296.758 52.2497C296.531 52.7143 296.192 53.0894 295.742 53.375C295.297 53.6557 294.75 53.7961 294.101 53.7961C293.443 53.7961 292.889 53.6557 292.439 53.375C291.993 53.0894 291.654 52.7143 291.422 52.2497C291.19 51.7802 291.074 51.2647 291.074 50.7033ZM292.772 49.9192V50.7033C292.772 51.1195 292.869 51.4971 293.063 51.8359C293.261 52.1747 293.607 52.3441 294.101 52.3441C294.585 52.3441 294.924 52.1747 295.118 51.8359C295.316 51.4971 295.415 51.1195 295.415 50.7033V49.9192C295.415 49.5029 295.321 49.1254 295.132 48.7866C294.943 48.4478 294.6 48.2784 294.101 48.2784C293.617 48.2784 293.273 48.4478 293.07 48.7866C292.872 49.1254 292.772 49.5029 292.772 49.9192ZM291.763 62L301.986 47.1313H303.721L293.499 62H291.763Z" fill="#242424"/>
<rect x="309.667" y="42" width="57.2222" height="26.1111" rx="5.11111" fill="#E0F0E4"/>
<path d="M319.206 58.6824V51.3207H320.671V58.6824H319.206ZM316.261 55.7312V54.2719H323.622V55.7312H316.261ZM330.35 49.404V60.5555H328.662V51.092H328.596L325.928 52.8344V51.2227L328.711 49.404H330.35ZM333.817 60.659C333.519 60.659 333.263 60.5537 333.049 60.3432C332.835 60.129 332.728 59.8713 332.728 59.57C332.728 59.2723 332.835 59.0182 333.049 58.8077C333.263 58.5935 333.519 58.4864 333.817 58.4864C334.115 58.4864 334.37 58.5935 334.585 58.8077C334.799 59.0182 334.906 59.2723 334.906 59.57C334.906 59.7696 334.855 59.953 334.753 60.1199C334.655 60.2833 334.525 60.414 334.361 60.512C334.198 60.61 334.017 60.659 333.817 60.659ZM336.831 58.3775V57.0162L341.65 49.404H342.722V51.4078H342.042L338.595 56.8638V56.9509H345.2V58.3775H336.831ZM342.118 60.5555V57.9637L342.129 57.3429V49.404H343.724V60.5555H342.118ZM352.918 58.4646V57.8766C352.918 57.4555 353.005 57.0707 353.18 56.7222C353.357 56.3701 353.615 56.0888 353.953 55.8782C354.294 55.664 354.706 55.557 355.189 55.557C355.682 55.557 356.096 55.6622 356.43 55.8728C356.764 56.0833 357.017 56.3646 357.187 56.7168C357.361 57.0689 357.449 57.4555 357.449 57.8766V58.4646C357.449 58.8857 357.361 59.2723 357.187 59.6244C357.013 59.9729 356.757 60.2542 356.419 60.4684C356.085 60.679 355.675 60.7842 355.189 60.7842C354.699 60.7842 354.285 60.679 353.947 60.4684C353.61 60.2542 353.354 59.9729 353.18 59.6244C353.005 59.2723 352.918 58.8857 352.918 58.4646ZM354.187 57.8766V58.4646C354.187 58.7768 354.261 59.06 354.41 59.3141C354.559 59.5682 354.819 59.6952 355.189 59.6952C355.555 59.6952 355.811 59.5682 355.957 59.3141C356.102 59.06 356.174 58.7768 356.174 58.4646V57.8766C356.174 57.5644 356.104 57.2812 355.962 57.0271C355.824 56.773 355.566 56.646 355.189 56.646C354.826 56.646 354.568 56.773 354.416 57.0271C354.263 57.2812 354.187 57.5644 354.187 57.8766ZM347.31 52.083V51.4949C347.31 51.0738 347.397 50.6872 347.571 50.3351C347.749 49.983 348.007 49.7017 348.344 49.4911C348.686 49.2806 349.098 49.1753 349.58 49.1753C350.074 49.1753 350.488 49.2806 350.822 49.4911C351.156 49.7017 351.408 49.983 351.579 50.3351C351.749 50.6872 351.835 51.0738 351.835 51.4949V52.083C351.835 52.5041 351.748 52.8907 351.573 53.2428C351.403 53.5913 351.149 53.8726 350.811 54.0868C350.477 54.2973 350.067 54.4026 349.58 54.4026C349.087 54.4026 348.671 54.2973 348.333 54.0868C347.999 53.8726 347.745 53.5913 347.571 53.2428C347.397 52.8907 347.31 52.5041 347.31 52.083ZM348.584 51.4949V52.083C348.584 52.3952 348.657 52.6783 348.802 52.9324C348.951 53.1865 349.21 53.3136 349.58 53.3136C349.943 53.3136 350.197 53.1865 350.343 52.9324C350.492 52.6783 350.566 52.3952 350.566 52.083V51.4949C350.566 51.1828 350.495 50.8996 350.354 50.6455C350.212 50.3914 349.954 50.2643 349.58 50.2643C349.217 50.2643 348.96 50.3914 348.807 50.6455C348.658 50.8996 348.584 51.1828 348.584 51.4949ZM347.827 60.5555L355.494 49.404H356.795L349.128 60.5555H347.827Z" fill="#377E36"/>
<circle cx="197" cy="195" r="86" fill="#C2ACFF"/>
<circle cx="197" cy="195" r="66" fill="white"/>
<path d="M138.488 145.903C134.419 142.488 128.301 142.994 125.362 147.419C116.427 160.871 111.423 176.628 111.026 192.901C110.55 212.393 116.712 231.469 128.501 246.999C140.29 262.529 157.007 273.592 175.91 278.374C194.812 283.155 214.779 281.372 232.535 273.315C250.29 265.259 264.781 251.408 273.631 234.034C282.481 216.66 285.164 196.794 281.241 177.695C277.318 158.596 267.02 141.397 252.038 128.918C239.53 118.501 224.377 111.89 208.37 109.755C203.104 109.053 198.695 113.324 198.585 118.635V118.635C198.475 123.946 202.714 128.27 207.954 129.142C219.593 131.078 230.573 136.076 239.727 143.7C251.358 153.387 259.352 166.739 262.397 181.566C265.443 196.393 263.36 211.815 256.49 225.303C249.62 238.79 238.37 249.543 224.586 255.797C210.802 262.052 195.302 263.436 180.627 259.724C165.953 256.012 152.975 247.424 143.823 235.367C134.671 223.311 129.887 208.503 130.257 193.37C130.548 181.461 134.017 169.907 140.225 159.873C143.02 155.356 142.558 149.318 138.488 145.903V145.903Z" fill="#7A4AFF"/>
<path d="M171.629 182.672C172.863 182.672 174.051 182.879 175.191 183.293C176.34 183.707 177.363 184.367 178.262 185.273C179.168 186.18 179.883 187.383 180.406 188.883C180.938 190.375 181.207 192.207 181.215 194.379C181.215 196.418 180.984 198.238 180.523 199.84C180.07 201.434 179.418 202.789 178.566 203.906C177.715 205.023 176.688 205.875 175.484 206.461C174.281 207.039 172.938 207.328 171.453 207.328C169.852 207.328 168.438 207.02 167.211 206.402C165.984 205.777 164.996 204.93 164.246 203.859C163.504 202.781 163.055 201.57 162.898 200.227H167.902C168.098 201.102 168.508 201.781 169.133 202.266C169.758 202.742 170.531 202.98 171.453 202.98C173.016 202.98 174.203 202.301 175.016 200.941C175.828 199.574 176.238 197.703 176.246 195.328H176.082C175.723 196.031 175.238 196.637 174.629 197.145C174.02 197.645 173.32 198.031 172.531 198.305C171.75 198.578 170.918 198.715 170.035 198.715C168.621 198.715 167.359 198.383 166.25 197.719C165.141 197.055 164.266 196.141 163.625 194.977C162.984 193.812 162.664 192.484 162.664 190.992C162.656 189.383 163.027 187.949 163.777 186.691C164.527 185.434 165.574 184.449 166.918 183.738C168.27 183.02 169.84 182.664 171.629 182.672ZM171.664 186.656C170.875 186.656 170.172 186.844 169.555 187.219C168.945 187.594 168.461 188.098 168.102 188.73C167.75 189.363 167.578 190.07 167.586 190.852C167.586 191.641 167.758 192.352 168.102 192.984C168.453 193.609 168.93 194.109 169.531 194.484C170.141 194.852 170.836 195.035 171.617 195.035C172.203 195.035 172.746 194.926 173.246 194.707C173.746 194.488 174.18 194.187 174.547 193.805C174.922 193.414 175.215 192.965 175.426 192.457C175.637 191.949 175.742 191.41 175.742 190.84C175.734 190.082 175.555 189.387 175.203 188.754C174.852 188.121 174.367 187.613 173.75 187.23C173.133 186.848 172.437 186.656 171.664 186.656ZM193.602 207.328C191.852 207.328 190.293 207.027 188.926 206.426C187.566 205.816 186.492 204.98 185.703 203.918C184.922 202.848 184.52 201.613 184.496 200.215H189.605C189.637 200.801 189.828 201.316 190.18 201.762C190.539 202.199 191.016 202.539 191.609 202.781C192.203 203.023 192.871 203.145 193.613 203.145C194.387 203.145 195.07 203.008 195.664 202.734C196.258 202.461 196.723 202.082 197.059 201.598C197.395 201.113 197.563 200.555 197.563 199.922C197.563 199.281 197.383 198.715 197.023 198.223C196.672 197.723 196.164 197.332 195.5 197.051C194.844 196.77 194.062 196.629 193.156 196.629H190.918V192.902H193.156C193.922 192.902 194.598 192.77 195.184 192.504C195.777 192.238 196.238 191.871 196.566 191.402C196.895 190.926 197.059 190.371 197.059 189.738C197.059 189.137 196.914 188.609 196.625 188.156C196.344 187.695 195.945 187.336 195.43 187.078C194.922 186.82 194.328 186.691 193.648 186.691C192.961 186.691 192.332 186.816 191.762 187.066C191.191 187.309 190.734 187.656 190.391 188.109C190.047 188.562 189.863 189.094 189.84 189.703H184.977C185 188.32 185.395 187.102 186.16 186.047C186.926 184.992 187.957 184.168 189.254 183.574C190.559 182.973 192.031 182.672 193.672 182.672C195.328 182.672 196.777 182.973 198.02 183.574C199.262 184.176 200.227 184.988 200.914 186.012C201.609 187.027 201.953 188.168 201.945 189.434C201.953 190.777 201.535 191.898 200.691 192.797C199.855 193.695 198.766 194.266 197.422 194.508V194.695C199.188 194.922 200.531 195.535 201.453 196.535C202.383 197.527 202.844 198.77 202.836 200.262C202.844 201.629 202.449 202.844 201.652 203.906C200.863 204.969 199.773 205.805 198.383 206.414C196.992 207.023 195.398 207.328 193.602 207.328ZM219.62 202.5V201.234C219.62 200.273 219.823 199.391 220.229 198.586C220.644 197.773 221.241 197.125 222.022 196.641C222.812 196.148 223.772 195.902 224.905 195.902C226.054 195.902 227.019 196.145 227.8 196.629C228.589 197.113 229.183 197.762 229.581 198.574C229.987 199.379 230.19 200.266 230.19 201.234V202.5C230.19 203.461 229.987 204.348 229.581 205.16C229.175 205.965 228.577 206.609 227.788 207.094C226.999 207.586 226.038 207.832 224.905 207.832C223.757 207.832 222.792 207.586 222.011 207.094C221.229 206.609 220.636 205.965 220.229 205.16C219.823 204.348 219.62 203.461 219.62 202.5ZM223.03 201.234V202.5C223.03 203.055 223.163 203.578 223.429 204.07C223.702 204.562 224.194 204.809 224.905 204.809C225.616 204.809 226.101 204.566 226.358 204.082C226.624 203.598 226.757 203.07 226.757 202.5V201.234C226.757 200.664 226.632 200.133 226.382 199.641C226.132 199.148 225.64 198.902 224.905 198.902C224.202 198.902 223.714 199.148 223.44 199.641C223.167 200.133 223.03 200.664 223.03 201.234ZM207.304 188.766V187.5C207.304 186.531 207.511 185.645 207.925 184.84C208.339 184.027 208.937 183.379 209.718 182.895C210.507 182.41 211.46 182.168 212.577 182.168C213.733 182.168 214.702 182.41 215.483 182.895C216.265 183.379 216.858 184.027 217.265 184.84C217.671 185.645 217.874 186.531 217.874 187.5V188.766C217.874 189.734 217.667 190.621 217.253 191.426C216.847 192.23 216.249 192.875 215.46 193.359C214.679 193.836 213.718 194.074 212.577 194.074C211.437 194.074 210.472 193.832 209.683 193.348C208.901 192.855 208.308 192.211 207.901 191.414C207.503 190.609 207.304 189.727 207.304 188.766ZM210.737 187.5V188.766C210.737 189.336 210.87 189.863 211.136 190.348C211.409 190.832 211.89 191.074 212.577 191.074C213.296 191.074 213.784 190.832 214.042 190.348C214.308 189.863 214.44 189.336 214.44 188.766V187.5C214.44 186.93 214.315 186.398 214.065 185.906C213.815 185.414 213.319 185.168 212.577 185.168C211.882 185.168 211.401 185.418 211.136 185.918C210.87 186.418 210.737 186.945 210.737 187.5ZM208.851 207L225.351 183H228.421L211.921 207H208.851Z" fill="black"/>
</svg>
