<svg width="394" height="331" viewBox="0 0 394 331" fill="none" xmlns="http://www.w3.org/2000/svg">
<path d="M-5.43893e-08 8.00001C-2.43509e-08 3.58173 3.58172 2.43509e-08 8 5.43892e-08L386 2.62428e-06C390.418 2.65432e-06 394 3.58172 394 8L394 331L-2.25035e-06 331L-5.43893e-08 8.00001Z" fill="white"/>
<path d="M27.453 51.0771L23.664 38.1171L25.941 38.1171L28.524 47.4771L31.098 38.1351L33.375 38.1171L35.958 47.4771L38.532 38.1171L40.809 38.1171L37.029 51.0771L34.887 51.0771L32.232 41.8611L29.595 51.0771L27.453 51.0771ZM45.6243 51.3471C44.6403 51.3471 43.7763 51.1341 43.0323 50.7081C42.2883 50.2821 41.7063 49.6911 41.2863 48.9351C40.8723 48.1791 40.6653 47.3091 40.6653 46.3251C40.6653 45.2631 40.8693 44.3421 41.2773 43.5621C41.6853 42.7761 42.2523 42.1671 42.9783 41.7351C43.7043 41.3031 44.5443 41.0871 45.4983 41.0871C46.5063 41.0871 47.3613 41.3241 48.0633 41.7981C48.7713 42.2661 49.2963 42.9291 49.6383 43.7871C49.9803 44.6451 50.1093 45.6561 50.0253 46.8201L47.8743 46.8201L47.8743 46.0281C47.8683 44.9721 47.6823 44.2011 47.3163 43.7151C46.9503 43.2291 46.3743 42.9861 45.5883 42.9861C44.7003 42.9861 44.0403 43.2621 43.6083 43.8141C43.1763 44.3601 42.9603 45.1611 42.9603 46.2171C42.9603 47.2011 43.1763 47.9631 43.6083 48.5031C44.0403 49.0431 44.6703 49.3131 45.4983 49.3131C46.0323 49.3131 46.4913 49.1961 46.8753 48.9621C47.2653 48.7221 47.5653 48.3771 47.7753 47.9271L49.9173 48.5751C49.5453 49.4511 48.9693 50.1321 48.1893 50.6181C47.4153 51.1041 46.5603 51.3471 45.6243 51.3471ZM42.2763 46.8201L42.2763 45.1821L48.9633 45.1821L48.9633 46.8201L42.2763 46.8201ZM56.7044 51.3471C55.7564 51.3471 54.9614 51.1221 54.3194 50.6721C53.6774 50.2221 53.1944 49.6101 52.8704 48.8361C52.5464 48.0561 52.3844 47.1831 52.3844 46.2171C52.3844 45.2391 52.5464 44.3631 52.8704 43.5891C53.1944 42.8151 53.6684 42.2061 54.2924 41.7621C54.9224 41.3121 55.6994 41.0871 56.6234 41.0871C57.5414 41.0871 58.3364 41.3121 59.0084 41.7621C59.6864 42.2061 60.2114 42.8151 60.5834 43.5891C60.9554 44.3571 61.1414 45.2331 61.1414 46.2171C61.1414 47.1891 60.9584 48.0621 60.5924 48.8361C60.2264 49.6101 59.7104 50.2221 59.0444 50.6721C58.3784 51.1221 57.5984 51.3471 56.7044 51.3471ZM52.0154 51.0771L52.0154 38.1171L54.2024 38.1171L54.2024 44.2551L53.9324 44.2551L53.9324 51.0771L52.0154 51.0771ZM56.3714 49.4031C56.9354 49.4031 57.4004 49.2621 57.7664 48.9801C58.1324 48.6981 58.4024 48.3171 58.5764 47.8371C58.7564 47.3511 58.8464 46.8111 58.8464 46.2171C58.8464 45.6291 58.7564 45.0951 58.5764 44.6151C58.3964 44.1291 58.1174 43.7451 57.7394 43.4631C57.3614 43.1751 56.8814 43.0311 56.2994 43.0311C55.7474 43.0311 55.2974 43.1661 54.9494 43.4361C54.6014 43.7001 54.3434 44.0721 54.1754 44.5521C54.0134 45.0261 53.9324 45.5811 53.9324 46.2171C53.9324 46.8471 54.0134 47.4021 54.1754 47.8821C54.3434 48.3621 54.6044 48.7371 54.9584 49.0071C55.3184 49.2711 55.7894 49.4031 56.3714 49.4031ZM66.6497 51.3471C65.4497 51.3471 64.4747 51.0771 63.7247 50.5371C62.9747 49.9971 62.5187 49.2381 62.3567 48.2601L64.5707 47.9181C64.6847 48.3981 64.9367 48.7761 65.3267 49.0521C65.7167 49.3281 66.2087 49.4661 66.8027 49.4661C67.3247 49.4661 67.7267 49.3641 68.0087 49.1601C68.2967 48.9501 68.4407 48.6651 68.4407 48.3051C68.4407 48.0831 68.3867 47.9061 68.2787 47.7741C68.1767 47.6361 67.9487 47.5041 67.5947 47.3781C67.2407 47.2521 66.6977 47.0931 65.9657 46.9011C65.1497 46.6851 64.5017 46.4541 64.0217 46.2081C63.5417 45.9561 63.1967 45.6591 62.9867 45.3171C62.7767 44.9751 62.6717 44.5611 62.6717 44.0751C62.6717 43.4691 62.8307 42.9411 63.1487 42.4911C63.4667 42.0411 63.9107 41.6961 64.4807 41.4561C65.0507 41.2101 65.7227 41.0871 66.4967 41.0871C67.2527 41.0871 67.9217 41.2041 68.5037 41.4381C69.0917 41.6721 69.5657 42.0051 69.9257 42.4371C70.2857 42.8691 70.5077 43.3761 70.5917 43.9581L68.3777 44.3541C68.3237 43.9401 68.1347 43.6131 67.8107 43.3731C67.4927 43.1331 67.0667 42.9981 66.5327 42.9681C66.0227 42.9381 65.6117 43.0161 65.2997 43.2021C64.9877 43.3821 64.8317 43.6371 64.8317 43.9671C64.8317 44.1531 64.8947 44.3121 65.0207 44.4441C65.1467 44.5761 65.3987 44.7081 65.7767 44.8401C66.1607 44.9721 66.7307 45.1341 67.4867 45.3261C68.2607 45.5241 68.8787 45.7521 69.3407 46.0101C69.8087 46.2621 70.1447 46.5651 70.3487 46.9191C70.5587 47.2731 70.6637 47.7021 70.6637 48.2061C70.6637 49.1841 70.3067 49.9521 69.5927 50.5101C68.8847 51.0681 67.9037 51.3471 66.6497 51.3471ZM72.815 39.8811L72.815 37.8921L74.984 37.8921L74.984 39.8811L72.815 39.8811ZM72.815 51.0771L72.815 41.3571L74.984 41.3571L74.984 51.0771L72.815 51.0771ZM83.3769 51.0771C82.7349 51.1971 82.1049 51.2481 81.4869 51.2301C80.8749 51.2181 80.3259 51.1071 79.8399 50.8971C79.3539 50.6811 78.9849 50.3421 78.7329 49.8801C78.5109 49.4601 78.3939 49.0311 78.3819 48.5931C78.3699 48.1551 78.3639 47.6601 78.3639 47.1081L78.3639 38.6571L80.5239 38.6571L80.5239 46.9821C80.5239 47.3721 80.5269 47.7141 80.5329 48.0081C80.5449 48.3021 80.6079 48.5421 80.7219 48.7281C80.9379 49.0881 81.2829 49.2891 81.7569 49.3311C82.2309 49.3731 82.7709 49.3491 83.3769 49.2591L83.3769 51.0771ZM76.5999 43.0581L76.5999 41.3571L83.3769 41.3571L83.3769 43.0581L76.5999 43.0581ZM89.3938 51.3471C88.4098 51.3471 87.5458 51.1341 86.8018 50.7081C86.0578 50.2821 85.4758 49.6911 85.0558 48.9351C84.6418 48.1791 84.4348 47.3091 84.4348 46.3251C84.4348 45.2631 84.6388 44.3421 85.0468 43.5621C85.4548 42.7761 86.0218 42.1671 86.7478 41.7351C87.4738 41.3031 88.3138 41.0871 89.2678 41.0871C90.2758 41.0871 91.1308 41.3241 91.8328 41.7981C92.5408 42.2661 93.0658 42.9291 93.4078 43.7871C93.7498 44.6451 93.8788 45.6561 93.7948 46.8201L91.6438 46.8201L91.6438 46.0281C91.6378 44.9721 91.4518 44.2011 91.0858 43.7151C90.7198 43.2291 90.1438 42.9861 89.3578 42.9861C88.4698 42.9861 87.8098 43.2621 87.3778 43.8141C86.9458 44.3601 86.7298 45.1611 86.7298 46.2171C86.7298 47.2011 86.9458 47.9631 87.3778 48.5031C87.8098 49.0431 88.4398 49.3131 89.2678 49.3131C89.8018 49.3131 90.2608 49.1961 90.6448 48.9621C91.0348 48.7221 91.3348 48.3771 91.5448 47.9271L93.6868 48.5751C93.3148 49.4511 92.7388 50.1321 91.9588 50.6181C91.1848 51.1041 90.3298 51.3471 89.3938 51.3471ZM86.0458 46.8201L86.0458 45.1821L92.7328 45.1821L92.7328 46.8201L86.0458 46.8201ZM102.322 51.0771L98.2365 38.1171L100.468 38.1171L103.888 48.9711L107.353 38.1171L109.585 38.1171L105.499 51.0771L102.322 51.0771ZM110.766 39.8811L110.766 37.8921L112.935 37.8921L112.935 39.8811L110.766 39.8811ZM110.766 51.0771L110.766 41.3571L112.935 41.3571L112.935 51.0771L110.766 51.0771ZM120.05 51.3471C119.066 51.3471 118.202 51.1341 117.458 50.7081C116.714 50.2821 116.132 49.6911 115.712 48.9351C115.298 48.1791 115.091 47.3091 115.091 46.3251C115.091 45.2631 115.295 44.3421 115.703 43.5621C116.111 42.7761 116.678 42.1671 117.404 41.7351C118.13 41.3031 118.97 41.0871 119.924 41.0871C120.932 41.0871 121.787 41.3241 122.489 41.7981C123.197 42.2661 123.722 42.9291 124.064 43.7871C124.406 44.6451 124.535 45.6561 124.451 46.8201L122.3 46.8201L122.3 46.0281C122.294 44.9721 122.108 44.2011 121.742 43.7151C121.376 43.2291 120.8 42.9861 120.014 42.9861C119.126 42.9861 118.466 43.2621 118.034 43.8141C117.602 44.3601 117.386 45.1611 117.386 46.2171C117.386 47.2011 117.602 47.9631 118.034 48.5031C118.466 49.0431 119.096 49.3131 119.924 49.3131C120.458 49.3131 120.917 49.1961 121.301 48.9621C121.691 48.7221 121.991 48.3771 122.201 47.9271L124.343 48.5751C123.971 49.4511 123.395 50.1321 122.615 50.6181C121.841 51.1041 120.986 51.3471 120.05 51.3471ZM116.702 46.8201L116.702 45.1821L123.389 45.1821L123.389 46.8201L116.702 46.8201ZM128.178 51.0771L125.208 41.3391L127.332 41.3571L129.231 47.5941L131.157 41.3571L132.984 41.3571L134.901 47.5941L136.809 41.3571L138.933 41.3571L135.963 51.0771L134.271 51.0771L132.066 44.3901L129.87 51.0771L128.178 51.0771ZM143.958 51.3471C142.758 51.3471 141.783 51.0771 141.033 50.5371C140.283 49.9971 139.827 49.2381 139.665 48.2601L141.879 47.9181C141.993 48.3981 142.245 48.7761 142.635 49.0521C143.025 49.3281 143.517 49.4661 144.111 49.4661C144.633 49.4661 145.035 49.3641 145.317 49.1601C145.605 48.9501 145.749 48.6651 145.749 48.3051C145.749 48.0831 145.695 47.9061 145.587 47.7741C145.485 47.6361 145.257 47.5041 144.903 47.3781C144.549 47.2521 144.006 47.0931 143.274 46.9011C142.458 46.6851 141.81 46.4541 141.33 46.2081C140.85 45.9561 140.505 45.6591 140.295 45.3171C140.085 44.9751 139.98 44.5611 139.98 44.0751C139.98 43.4691 140.139 42.9411 140.457 42.4911C140.775 42.0411 141.219 41.6961 141.789 41.4561C142.359 41.2101 143.031 41.0871 143.805 41.0871C144.561 41.0871 145.23 41.2041 145.812 41.4381C146.4 41.6721 146.874 42.0051 147.234 42.4371C147.594 42.8691 147.816 43.3761 147.9 43.9581L145.686 44.3541C145.632 43.9401 145.443 43.6131 145.119 43.3731C144.801 43.1331 144.375 42.9981 143.841 42.9681C143.331 42.9381 142.92 43.0161 142.608 43.2021C142.296 43.3821 142.14 43.6371 142.14 43.9671C142.14 44.1531 142.203 44.3121 142.329 44.4441C142.455 44.5761 142.707 44.7081 143.085 44.8401C143.469 44.9721 144.039 45.1341 144.795 45.3261C145.569 45.5241 146.187 45.7521 146.649 46.0101C147.117 46.2621 147.453 46.5651 147.657 46.9191C147.867 47.2731 147.972 47.7021 147.972 48.2061C147.972 49.1841 147.615 49.9521 146.901 50.5101C146.193 51.0681 145.212 51.3471 143.958 51.3471Z" fill="#222222"/>
<path d="M24.9359 103.071L24.9419 102.267L28.8479 98.7391C29.1839 98.4351 29.4059 98.1471 29.5139 97.8751C29.6259 97.5991 29.6819 97.3111 29.6819 97.0111C29.6819 96.6551 29.5979 96.3331 29.4299 96.0451C29.2619 95.7571 29.0359 95.5291 28.7519 95.3611C28.4679 95.1891 28.1499 95.1031 27.7979 95.1031C27.4299 95.1031 27.1019 95.1911 26.8139 95.3671C26.5259 95.5431 26.2979 95.7751 26.1299 96.0631C25.9659 96.3511 25.8859 96.6651 25.8899 97.0051L24.9899 97.0051C24.9899 96.4811 25.1139 96.0111 25.3619 95.5951C25.6099 95.1791 25.9459 94.8531 26.3699 94.6171C26.7939 94.3771 27.2739 94.2571 27.8099 94.2571C28.3339 94.2571 28.8039 94.3811 29.2199 94.6291C29.6399 94.8731 29.9699 95.2051 30.2099 95.6251C30.4539 96.0411 30.5759 96.5051 30.5759 97.0171C30.5759 97.3771 30.5319 97.6951 30.4439 97.9711C30.3599 98.2431 30.2259 98.4971 30.0419 98.7331C29.8619 98.9651 29.6319 99.2051 29.3519 99.4531L25.8839 102.585L25.7459 102.225L30.5759 102.225L30.5759 103.071L24.9359 103.071ZM34.8397 103.257C34.3077 103.257 33.8277 103.133 33.3997 102.885C32.9757 102.637 32.6397 102.301 32.3917 101.877C32.1437 101.449 32.0197 100.969 32.0197 100.437L32.0197 97.0771C32.0197 96.5451 32.1437 96.0671 32.3917 95.6431C32.6397 95.2151 32.9757 94.8771 33.3997 94.6291C33.8277 94.3811 34.3077 94.2571 34.8397 94.2571C35.3717 94.2571 35.8497 94.3811 36.2737 94.6291C36.7017 94.8771 37.0397 95.2151 37.2877 95.6431C37.5357 96.0671 37.6597 96.5451 37.6597 97.0771L37.6597 100.437C37.6597 100.969 37.5357 101.449 37.2877 101.877C37.0397 102.301 36.7017 102.637 36.2737 102.885C35.8497 103.133 35.3717 103.257 34.8397 103.257ZM34.8397 102.405C35.1957 102.405 35.5197 102.319 35.8117 102.147C36.1037 101.971 36.3357 101.737 36.5077 101.445C36.6797 101.153 36.7657 100.831 36.7657 100.479L36.7657 97.0351C36.7657 96.6791 36.6797 96.3551 36.5077 96.0631C36.3357 95.7711 36.1037 95.5391 35.8117 95.3671C35.5197 95.1911 35.1957 95.1031 34.8397 95.1031C34.4837 95.1031 34.1597 95.1911 33.8677 95.3671C33.5757 95.5391 33.3437 95.7711 33.1717 96.0631C32.9997 96.3551 32.9137 96.6791 32.9137 97.0351L32.9137 100.479C32.9137 100.831 32.9997 101.153 33.1717 101.445C33.3437 101.737 33.5757 101.971 33.8677 102.147C34.1597 102.319 34.4837 102.405 34.8397 102.405ZM39.3379 103.077L39.3439 94.4371L40.2319 94.4371L40.2319 99.7171L43.1239 96.5971L44.2999 96.5971L41.2639 99.8371L44.6959 103.077L43.4119 103.077L40.2319 99.9571L40.2319 103.077L39.3379 103.077Z" fill="#858585"/>
<path d="M28.8499 145.077L28.8499 137.421L27.2239 138.399L27.2239 137.409L28.8499 136.437L29.7439 136.437L29.7439 145.077L28.8499 145.077ZM34.8397 145.257C34.3077 145.257 33.8277 145.133 33.3997 144.885C32.9757 144.637 32.6397 144.301 32.3917 143.877C32.1437 143.449 32.0197 142.969 32.0197 142.437L32.0197 139.077C32.0197 138.545 32.1437 138.067 32.3917 137.643C32.6397 137.215 32.9757 136.877 33.3997 136.629C33.8277 136.381 34.3077 136.257 34.8397 136.257C35.3717 136.257 35.8497 136.381 36.2737 136.629C36.7017 136.877 37.0397 137.215 37.2877 137.643C37.5357 138.067 37.6597 138.545 37.6597 139.077L37.6597 142.437C37.6597 142.969 37.5357 143.449 37.2877 143.877C37.0397 144.301 36.7017 144.637 36.2737 144.885C35.8497 145.133 35.3717 145.257 34.8397 145.257ZM34.8397 144.405C35.1957 144.405 35.5197 144.319 35.8117 144.147C36.1037 143.971 36.3357 143.737 36.5077 143.445C36.6797 143.153 36.7657 142.831 36.7657 142.479L36.7657 139.035C36.7657 138.679 36.6797 138.355 36.5077 138.063C36.3357 137.771 36.1037 137.539 35.8117 137.367C35.5197 137.191 35.1957 137.103 34.8397 137.103C34.4837 137.103 34.1597 137.191 33.8677 137.367C33.5757 137.539 33.3437 137.771 33.1717 138.063C32.9997 138.355 32.9137 138.679 32.9137 139.035L32.9137 142.479C32.9137 142.831 32.9997 143.153 33.1717 143.445C33.3437 143.737 33.5757 143.971 33.8677 144.147C34.1597 144.319 34.4837 144.405 34.8397 144.405ZM39.3379 145.077L39.3439 136.437L40.2319 136.437L40.2319 141.717L43.1239 138.597L44.2999 138.597L41.2639 141.837L44.6959 145.077L43.4119 145.077L40.2319 141.957L40.2319 145.077L39.3379 145.077Z" fill="#858585"/>
<path d="M34.9681 187.257C34.5201 187.257 34.1061 187.165 33.7261 186.981C33.3461 186.797 33.0221 186.543 32.7541 186.219C32.4861 185.895 32.2941 185.523 32.1781 185.103L33.0241 184.875C33.1001 185.187 33.2381 185.457 33.4381 185.685C33.6381 185.909 33.8721 186.083 34.1401 186.207C34.4121 186.331 34.6961 186.393 34.9921 186.393C35.3761 186.393 35.7201 186.301 36.0241 186.117C36.3321 185.929 36.5761 185.681 36.7561 185.373C36.9361 185.065 37.0261 184.727 37.0261 184.359C37.0261 183.979 36.9321 183.637 36.7441 183.333C36.5561 183.025 36.3081 182.781 36.0001 182.601C35.6921 182.421 35.3561 182.331 34.9921 182.331C34.5841 182.331 34.2321 182.421 33.9361 182.601C33.6401 182.777 33.4041 182.999 33.2281 183.267L32.4241 182.931L32.6881 178.437L37.3021 178.437L37.3021 179.283L33.0781 179.283L33.5161 178.869L33.2821 182.703L33.0601 182.409C33.3081 182.125 33.6081 181.903 33.9601 181.743C34.3121 181.583 34.6821 181.503 35.0701 181.503C35.6021 181.503 36.0821 181.631 36.5101 181.887C36.9381 182.139 37.2781 182.481 37.5301 182.913C37.7821 183.345 37.9081 183.827 37.9081 184.359C37.9081 184.887 37.7741 185.371 37.5061 185.811C37.2381 186.247 36.8821 186.597 36.4381 186.861C35.9941 187.125 35.5041 187.257 34.9681 187.257ZM39.3379 187.077L39.3439 178.437L40.2319 178.437L40.2319 183.717L43.1239 180.597L44.2999 180.597L41.2639 183.837L44.6959 187.077L43.4119 187.077L40.2319 183.957L40.2319 187.077L39.3379 187.077Z" fill="#858585"/>
<path d="M36.1741 229.077L36.1741 221.421L34.5481 222.399L34.5481 221.409L36.1741 220.437L37.0681 220.437L37.0681 229.077L36.1741 229.077ZM39.3379 229.077L39.3439 220.437L40.2319 220.437L40.2319 225.717L43.1239 222.597L44.2999 222.597L41.2639 225.837L44.6959 229.077L43.4119 229.077L40.2319 225.957L40.2319 229.077L39.3379 229.077Z" fill="#858585"/>
<path d="M40.7928 271.257C40.2608 271.257 39.7808 271.133 39.3528 270.885C38.9288 270.637 38.5928 270.301 38.3448 269.877C38.0968 269.449 37.9728 268.969 37.9728 268.437L37.9728 265.077C37.9728 264.545 38.0968 264.067 38.3448 263.643C38.5928 263.215 38.9288 262.877 39.3528 262.629C39.7808 262.381 40.2608 262.257 40.7928 262.257C41.3248 262.257 41.8028 262.381 42.2268 262.629C42.6548 262.877 42.9928 263.215 43.2408 263.643C43.4888 264.067 43.6128 264.545 43.6128 265.077L43.6128 268.437C43.6128 268.969 43.4888 269.449 43.2408 269.877C42.9928 270.301 42.6548 270.637 42.2268 270.885C41.8028 271.133 41.3248 271.257 40.7928 271.257ZM40.7928 270.405C41.1488 270.405 41.4728 270.319 41.7648 270.147C42.0568 269.971 42.2888 269.737 42.4608 269.445C42.6328 269.153 42.7188 268.831 42.7188 268.479L42.7188 265.035C42.7188 264.679 42.6328 264.355 42.4608 264.063C42.2888 263.771 42.0568 263.539 41.7648 263.367C41.4728 263.191 41.1488 263.103 40.7928 263.103C40.4368 263.103 40.1128 263.191 39.8208 263.367C39.5288 263.539 39.2968 263.771 39.1248 264.063C38.9528 264.355 38.8668 264.679 38.8668 265.035L38.8668 268.479C38.8668 268.831 38.9528 269.153 39.1248 269.445C39.2968 269.737 39.5288 269.971 39.8208 270.147C40.1128 270.319 40.4368 270.405 40.7928 270.405Z" fill="#858585"/>
<line x1="45" y1="99.5" x2="367" y2="99.5" stroke="#F3F4F6"/>
<line x1="45" y1="141.5" x2="367" y2="141.5" stroke="#F3F4F6"/>
<line x1="45" y1="183.5" x2="367" y2="183.5" stroke="#F3F4F6"/>
<line x1="45" y1="225.5" x2="367" y2="225.5" stroke="#F3F4F6"/>
<line x1="45" y1="267.5" x2="367" y2="267.5" stroke="#F3F4F6"/>
<path d="M46.297 296.077L46.297 287.437L47.107 287.437L50.503 294.703L53.881 287.437L54.703 287.437L54.703 296.071L53.863 296.071L53.863 289.405L50.785 296.077L50.215 296.077L47.143 289.405L47.143 296.077L46.297 296.077ZM58.2409 296.257C57.7529 296.257 57.3429 296.169 57.0109 295.993C56.6829 295.817 56.4369 295.583 56.2729 295.291C56.1089 294.999 56.0269 294.681 56.0269 294.337C56.0269 293.985 56.0969 293.685 56.2369 293.437C56.3809 293.185 56.5749 292.979 56.8189 292.819C57.0669 292.659 57.3529 292.537 57.6769 292.453C58.0049 292.373 58.3669 292.303 58.7629 292.243C59.1629 292.179 59.5529 292.125 59.9329 292.081C60.3169 292.033 60.6529 291.987 60.9409 291.943L60.6289 292.135C60.6409 291.495 60.5169 291.021 60.2569 290.713C59.9969 290.405 59.5449 290.251 58.9009 290.251C58.4569 290.251 58.0809 290.351 57.7729 290.551C57.4689 290.751 57.2549 291.067 57.1309 291.499L56.2729 291.247C56.4209 290.667 56.7189 290.217 57.1669 289.897C57.6149 289.577 58.1969 289.417 58.9129 289.417C59.5049 289.417 60.0069 289.529 60.4189 289.753C60.8349 289.973 61.1289 290.293 61.3009 290.713C61.3809 290.901 61.4329 291.111 61.4569 291.343C61.4809 291.575 61.4929 291.811 61.4929 292.051L61.4929 296.077L60.7069 296.077L60.7069 294.451L60.9349 294.547C60.7149 295.103 60.3729 295.527 59.9089 295.819C59.4449 296.111 58.8889 296.257 58.2409 296.257ZM58.3429 295.495C58.7549 295.495 59.1149 295.421 59.4229 295.273C59.7309 295.125 59.9789 294.923 60.1669 294.667C60.3549 294.407 60.4769 294.115 60.5329 293.791C60.5809 293.583 60.6069 293.355 60.6109 293.107C60.6149 292.855 60.6169 292.667 60.6169 292.543L60.9529 292.717C60.6529 292.757 60.3269 292.797 59.9749 292.837C59.6269 292.877 59.2829 292.923 58.9429 292.975C58.6069 293.027 58.3029 293.089 58.0309 293.161C57.8469 293.213 57.6689 293.287 57.4969 293.383C57.3249 293.475 57.1829 293.599 57.0709 293.755C56.9629 293.911 56.9089 294.105 56.9089 294.337C56.9089 294.525 56.9549 294.707 57.0469 294.883C57.1429 295.059 57.2949 295.205 57.5029 295.321C57.7149 295.437 57.9949 295.495 58.3429 295.495ZM63.0548 296.077L63.0548 289.597L63.8468 289.597L63.8468 291.157L63.6908 290.953C63.7628 290.761 63.8568 290.585 63.9728 290.425C64.0888 290.261 64.2148 290.127 64.3508 290.023C64.5188 289.875 64.7148 289.763 64.9388 289.687C65.1628 289.607 65.3888 289.561 65.6168 289.549C65.8448 289.533 66.0528 289.549 66.2408 289.597L66.2408 290.425C66.0048 290.365 65.7468 290.351 65.4668 290.383C65.1868 290.415 64.9288 290.527 64.6928 290.719C64.4768 290.887 64.3148 291.089 64.2068 291.325C64.0988 291.557 64.0268 291.805 63.9908 292.069C63.9548 292.329 63.9368 292.587 63.9368 292.843L63.9368 296.077L63.0548 296.077ZM69.9499 296.257C69.2979 296.257 68.7459 296.111 68.2939 295.819C67.8419 295.527 67.4979 295.125 67.2619 294.613C67.0299 294.097 66.9099 293.505 66.9019 292.837C66.9099 292.157 67.0339 291.561 67.2739 291.049C67.5139 290.533 67.8599 290.133 68.3119 289.849C68.7639 289.561 69.3119 289.417 69.9559 289.417C70.6119 289.417 71.1819 289.577 71.6659 289.897C72.1539 290.217 72.4879 290.655 72.6679 291.211L71.8039 291.487C71.6519 291.099 71.4099 290.799 71.0779 290.587C70.7499 290.371 70.3739 290.263 69.9499 290.263C69.4739 290.263 69.0799 290.373 68.7679 290.593C68.4559 290.809 68.2239 291.111 68.0719 291.499C67.9199 291.887 67.8419 292.333 67.8379 292.837C67.8459 293.613 68.0259 294.237 68.3779 294.709C68.7299 295.177 69.2539 295.411 69.9499 295.411C70.3899 295.411 70.7639 295.311 71.0719 295.111C71.3839 294.907 71.6199 294.611 71.7799 294.223L72.6679 294.487C72.4279 295.063 72.0759 295.503 71.6119 295.807C71.1479 296.107 70.5939 296.257 69.9499 296.257ZM78.5864 296.077L78.5864 292.771C78.5864 292.411 78.5524 292.081 78.4844 291.781C78.4164 291.477 78.3064 291.213 78.1544 290.989C78.0064 290.761 77.8124 290.585 77.5724 290.461C77.3364 290.337 77.0484 290.275 76.7084 290.275C76.3964 290.275 76.1204 290.329 75.8804 290.437C75.6444 290.545 75.4444 290.701 75.2804 290.905C75.1204 291.105 74.9984 291.349 74.9144 291.637C74.8304 291.925 74.7884 292.253 74.7884 292.621L74.1644 292.483C74.1644 291.819 74.2804 291.261 74.5124 290.809C74.7444 290.357 75.0644 290.015 75.4724 289.783C75.8804 289.551 76.3484 289.435 76.8764 289.435C77.2644 289.435 77.6024 289.495 77.8904 289.615C78.1824 289.735 78.4284 289.897 78.6284 290.101C78.8324 290.305 78.9964 290.539 79.1204 290.803C79.2444 291.063 79.3344 291.341 79.3904 291.637C79.4464 291.929 79.4744 292.221 79.4744 292.513L79.4744 296.077L78.5864 296.077ZM73.9004 296.077L73.9004 287.437L74.6984 287.437L74.6984 292.315L74.7884 292.315L74.7884 296.077L73.9004 296.077Z" fill="#858585"/>
<path d="M232.962 33V32.1832L236.029 28.8254C236.389 28.4322 236.686 28.0904 236.919 27.8C237.152 27.5065 237.324 27.2312 237.436 26.9741C237.551 26.714 237.608 26.4417 237.608 26.1574C237.608 25.8307 237.53 25.5478 237.372 25.3088C237.218 25.0699 237.006 24.8853 236.737 24.7552C236.468 24.6252 236.165 24.5601 235.83 24.5601C235.473 24.5601 235.161 24.6342 234.895 24.7825C234.632 24.9277 234.428 25.1319 234.282 25.395C234.14 25.6582 234.069 25.9668 234.069 26.3207H232.998C232.998 25.7762 233.124 25.2982 233.375 24.8868C233.626 24.4754 233.968 24.1548 234.4 23.9249C234.836 23.695 235.325 23.58 235.866 23.58C236.411 23.58 236.893 23.695 237.313 23.9249C237.734 24.1548 238.064 24.4648 238.303 24.8551C238.542 25.2453 238.661 25.6794 238.661 26.1574C238.661 26.4992 238.599 26.8335 238.475 27.1602C238.354 27.4838 238.142 27.8453 237.84 28.2446C237.54 28.6409 237.124 29.1249 236.592 29.6967L234.505 31.9291V32.0017H238.824V33H232.962ZM243.274 23.58C243.655 23.583 244.036 23.6556 244.417 23.7978C244.798 23.94 245.146 24.176 245.461 24.5057C245.775 24.8324 246.028 25.2786 246.219 25.8443C246.409 26.4099 246.504 27.1193 246.504 27.9724C246.504 28.7982 246.426 29.5318 246.268 30.1731C246.114 30.8114 245.89 31.3498 245.597 31.7885C245.306 32.2271 244.953 32.5599 244.535 32.7867C244.121 33.0136 243.652 33.1271 243.128 33.1271C242.608 33.1271 242.144 33.0242 241.735 32.8185C241.33 32.6098 240.997 32.3209 240.737 31.9518C240.48 31.5797 240.315 31.1487 240.243 30.6586H241.35C241.45 31.0851 241.648 31.4376 241.944 31.7159C242.244 31.9911 242.638 32.1288 243.128 32.1288C243.845 32.1288 244.411 31.8157 244.826 31.1895C245.243 30.5633 245.452 29.6785 245.452 28.535H245.379C245.21 28.7891 245.009 29.0085 244.776 29.193C244.543 29.3775 244.284 29.5197 244 29.6195C243.715 29.7193 243.413 29.7693 243.092 29.7693C242.56 29.7693 242.071 29.6377 241.627 29.3745C241.185 29.1083 240.831 28.7438 240.565 28.2809C240.302 27.8151 240.17 27.2827 240.17 26.6837C240.17 26.115 240.297 25.5947 240.551 25.1228C240.808 24.6479 241.168 24.2697 241.631 23.9884C242.097 23.7071 242.644 23.5709 243.274 23.58ZM243.274 24.5783C242.893 24.5783 242.549 24.6736 242.244 24.8641C241.941 25.0517 241.701 25.3058 241.522 25.6265C241.347 25.9441 241.259 26.2965 241.259 26.6837C241.259 27.0709 241.344 27.4233 241.513 27.741C241.686 28.0556 241.92 28.3066 242.216 28.4942C242.516 28.6787 242.856 28.771 243.237 28.771C243.525 28.771 243.792 28.715 244.041 28.6031C244.289 28.4881 244.505 28.3324 244.689 28.1357C244.877 27.9361 245.024 27.7107 245.13 27.4596C245.235 27.2055 245.288 26.9408 245.288 26.6656C245.288 26.3026 245.201 25.9622 245.025 25.6446C244.853 25.327 244.614 25.0699 244.308 24.8732C244.006 24.6766 243.661 24.5783 243.274 24.5783ZM251.279 23.7071H252.622L255.781 31.4209H255.889L259.048 23.7071H260.391V33H259.338V25.9396H259.247L256.343 33H255.327L252.423 25.9396H252.332V33H251.279V23.7071ZM264.169 33.1634C263.728 33.1634 263.327 33.0802 262.967 32.9138C262.607 32.7444 262.321 32.5009 262.109 32.1832C261.898 31.8626 261.792 31.4754 261.792 31.0216C261.792 30.6223 261.87 30.2986 262.028 30.0506C262.185 29.7995 262.395 29.6029 262.658 29.4607C262.922 29.3185 263.212 29.2126 263.53 29.1431C263.85 29.0705 264.172 29.013 264.496 28.9706C264.92 28.9162 265.263 28.8754 265.526 28.8481C265.792 28.8179 265.986 28.768 266.107 28.6984C266.231 28.6288 266.293 28.5078 266.293 28.3354V28.2991C266.293 27.8514 266.17 27.5035 265.925 27.2554C265.683 27.0074 265.316 26.8834 264.823 26.8834C264.312 26.8834 263.911 26.9953 263.62 27.2191C263.33 27.443 263.126 27.682 263.008 27.9361L261.991 27.5731C262.173 27.1496 262.415 26.8198 262.717 26.5839C263.023 26.3449 263.356 26.1785 263.716 26.0848C264.079 25.988 264.436 25.9396 264.787 25.9396C265.01 25.9396 265.268 25.9668 265.558 26.0212C265.851 26.0727 266.134 26.18 266.406 26.3434C266.682 26.5067 266.91 26.7533 267.092 27.083C267.273 27.4127 267.364 27.8544 267.364 28.408V33H266.293V32.0562H266.239C266.166 32.2074 266.045 32.3693 265.876 32.5417C265.706 32.7141 265.481 32.8608 265.199 32.9818C264.918 33.1029 264.575 33.1634 264.169 33.1634ZM264.333 32.2014C264.756 32.2014 265.113 32.1182 265.404 31.9518C265.697 31.7854 265.918 31.5707 266.066 31.3075C266.217 31.0443 266.293 30.7675 266.293 30.4771V29.497C266.248 29.5515 266.148 29.6014 265.994 29.6467C265.842 29.6891 265.667 29.7269 265.467 29.7602C265.271 29.7904 265.078 29.8177 264.891 29.8419C264.706 29.863 264.557 29.8812 264.442 29.8963C264.163 29.9326 263.903 29.9916 263.661 30.0733C263.422 30.1519 263.229 30.2714 263.08 30.4317C262.935 30.589 262.863 30.8038 262.863 31.0761C262.863 31.4482 263 31.7295 263.276 31.9201C263.554 32.1076 263.906 32.2014 264.333 32.2014ZM269.375 35.6136C269.194 35.6136 269.032 35.5985 268.89 35.5683C268.748 35.541 268.649 35.5138 268.595 35.4866L268.867 34.5428C269.127 34.6093 269.357 34.6335 269.557 34.6154C269.756 34.5972 269.933 34.508 270.088 34.3477C270.245 34.1904 270.389 33.9347 270.519 33.5808L270.718 33.0363L268.141 26.0303H269.303L271.227 31.5843H271.299L273.223 26.0303H274.385L271.426 34.0164C271.293 34.3764 271.128 34.6744 270.932 34.9103C270.735 35.1493 270.507 35.3263 270.246 35.4412C269.989 35.5562 269.699 35.6136 269.375 35.6136ZM281.638 33.1271C280.955 33.1271 280.372 32.941 279.891 32.5689C279.41 32.1938 279.043 31.6508 278.789 30.9399C278.534 30.226 278.407 29.3639 278.407 28.3535C278.407 27.3492 278.534 26.4916 278.789 25.7807C279.046 25.0668 279.415 24.5223 279.896 24.1472C280.38 23.7691 280.961 23.58 281.638 23.58C282.316 23.58 282.895 23.7691 283.376 24.1472C283.86 24.5223 284.229 25.0668 284.483 25.7807C284.74 26.4916 284.869 27.3492 284.869 28.3535C284.869 29.3639 284.742 30.226 284.488 30.9399C284.234 31.6508 283.866 32.1938 283.385 32.5689C282.904 32.941 282.322 33.1271 281.638 33.1271ZM281.638 32.1288C282.316 32.1288 282.842 31.8021 283.217 31.1487C283.592 30.4953 283.78 29.5636 283.78 28.3535C283.78 27.5489 283.694 26.8637 283.521 26.298C283.352 25.7323 283.107 25.3013 282.786 25.0048C282.469 24.7084 282.086 24.5601 281.638 24.5601C280.967 24.5601 280.442 24.8914 280.064 25.5539C279.686 26.2133 279.496 27.1465 279.496 28.3535C279.496 29.1582 279.581 29.8419 279.751 30.4045C279.92 30.9672 280.163 31.3952 280.481 31.6886C280.802 31.9821 281.187 32.1288 281.638 32.1288ZM289.241 33.1271C288.557 33.1271 287.975 32.941 287.494 32.5689C287.013 32.1938 286.645 31.6508 286.391 30.9399C286.137 30.226 286.01 29.3639 286.01 28.3535C286.01 27.3492 286.137 26.4916 286.391 25.7807C286.648 25.0668 287.018 24.5223 287.499 24.1472C287.983 23.7691 288.563 23.58 289.241 23.58C289.919 23.58 290.498 23.7691 290.979 24.1472C291.463 24.5223 291.832 25.0668 292.086 25.7807C292.343 26.4916 292.472 27.3492 292.472 28.3535C292.472 29.3639 292.345 30.226 292.091 30.9399C291.836 31.6508 291.469 32.1938 290.988 32.5689C290.507 32.941 289.925 33.1271 289.241 33.1271ZM289.241 32.1288C289.919 32.1288 290.445 31.8021 290.82 31.1487C291.195 30.4953 291.383 29.5636 291.383 28.3535C291.383 27.5489 291.296 26.8637 291.124 26.298C290.955 25.7323 290.71 25.3013 290.389 25.0048C290.071 24.7084 289.689 24.5601 289.241 24.5601C288.569 24.5601 288.045 24.8914 287.666 25.5539C287.288 26.2133 287.099 27.1465 287.099 28.3535C287.099 29.1582 287.184 29.8419 287.353 30.4045C287.523 30.9672 287.766 31.3952 288.084 31.6886C288.405 31.9821 288.79 32.1288 289.241 32.1288ZM294.611 31.8112C294.387 31.8112 294.195 31.731 294.035 31.5707C293.875 31.4103 293.794 31.2183 293.794 30.9944C293.794 30.7705 293.875 30.5785 294.035 30.4181C294.195 30.2578 294.387 30.1776 294.611 30.1776C294.835 30.1776 295.027 30.2578 295.188 30.4181C295.348 30.5785 295.428 30.7705 295.428 30.9944C295.428 31.1426 295.39 31.2788 295.315 31.4028C295.242 31.5268 295.144 31.6266 295.02 31.7023C294.899 31.7749 294.763 31.8112 294.611 31.8112ZM294.611 27.1102C294.387 27.1102 294.195 27.0301 294.035 26.8698C293.875 26.7094 293.794 26.5173 293.794 26.2935C293.794 26.0696 293.875 25.8775 294.035 25.7172C294.195 25.5569 294.387 25.4767 294.611 25.4767C294.835 25.4767 295.027 25.5569 295.188 25.7172C295.348 25.8775 295.428 26.0696 295.428 26.2935C295.428 26.4417 295.39 26.5778 295.315 26.7019C295.242 26.8259 295.144 26.9257 295.02 27.0013C294.899 27.0739 294.763 27.1102 294.611 27.1102ZM299.979 33.1271C299.296 33.1271 298.713 32.941 298.232 32.5689C297.751 32.1938 297.384 31.6508 297.13 30.9399C296.876 30.226 296.749 29.3639 296.749 28.3535C296.749 27.3492 296.876 26.4916 297.13 25.7807C297.387 25.0668 297.756 24.5223 298.237 24.1472C298.721 23.7691 299.302 23.58 299.979 23.58C300.657 23.58 301.236 23.7691 301.717 24.1472C302.201 24.5223 302.57 25.0668 302.824 25.7807C303.081 26.4916 303.21 27.3492 303.21 28.3535C303.21 29.3639 303.083 30.226 302.829 30.9399C302.575 31.6508 302.207 32.1938 301.726 32.5689C301.245 32.941 300.663 33.1271 299.979 33.1271ZM299.979 32.1288C300.657 32.1288 301.183 31.8021 301.558 31.1487C301.933 30.4953 302.121 29.5636 302.121 28.3535C302.121 27.5489 302.035 26.8637 301.862 26.298C301.693 25.7323 301.448 25.3013 301.127 25.0048C300.81 24.7084 300.427 24.5601 299.979 24.5601C299.308 24.5601 298.783 24.8914 298.405 25.5539C298.027 26.2133 297.838 27.1465 297.838 28.3535C297.838 29.1582 297.922 29.8419 298.092 30.4045C298.261 30.9672 298.505 31.3952 298.822 31.6886C299.143 31.9821 299.529 32.1288 299.979 32.1288ZM307.582 33.1271C306.898 33.1271 306.316 32.941 305.835 32.5689C305.354 32.1938 304.987 31.6508 304.732 30.9399C304.478 30.226 304.351 29.3639 304.351 28.3535C304.351 27.3492 304.478 26.4916 304.732 25.7807C304.99 25.0668 305.359 24.5223 305.84 24.1472C306.324 23.7691 306.904 23.58 307.582 23.58C308.26 23.58 308.839 23.7691 309.32 24.1472C309.804 24.5223 310.173 25.0668 310.427 25.7807C310.684 26.4916 310.813 27.3492 310.813 28.3535C310.813 29.3639 310.686 30.226 310.432 30.9399C310.178 31.6508 309.81 32.1938 309.329 32.5689C308.848 32.941 308.266 33.1271 307.582 33.1271ZM307.582 32.1288C308.26 32.1288 308.786 31.8021 309.161 31.1487C309.536 30.4953 309.724 29.5636 309.724 28.3535C309.724 27.5489 309.638 26.8637 309.465 26.298C309.296 25.7323 309.051 25.3013 308.73 25.0048C308.412 24.7084 308.03 24.5601 307.582 24.5601C306.91 24.5601 306.386 24.8914 306.008 25.5539C305.629 26.2133 305.44 27.1465 305.44 28.3535C305.44 29.1582 305.525 29.8419 305.694 30.4045C305.864 30.9672 306.107 31.3952 306.425 31.6886C306.746 31.9821 307.131 32.1288 307.582 32.1288Z" fill="#7A7A7A"/>
<path d="M233.43 62V60.3737L238.461 55.161C238.999 54.5947 239.442 54.0986 239.79 53.6727C240.143 53.2419 240.407 52.8329 240.581 52.4457C240.756 52.0585 240.843 51.6471 240.843 51.2115C240.843 50.7178 240.727 50.2919 240.494 49.9337C240.262 49.5707 239.945 49.2924 239.543 49.0988C239.142 48.9004 238.689 48.8011 238.186 48.8011C237.653 48.8011 237.189 48.91 236.792 49.1278C236.395 49.3456 236.09 49.653 235.877 50.0499C235.664 50.4468 235.557 50.9114 235.557 51.4438H233.416C233.416 50.5387 233.624 49.7474 234.04 49.0698C234.456 48.3922 235.027 47.867 235.753 47.4943C236.479 47.1168 237.305 46.928 238.229 46.928C239.163 46.928 239.986 47.1144 240.698 47.4871C241.414 47.8549 241.973 48.3583 242.375 48.9972C242.776 49.6312 242.977 50.3475 242.977 51.1461C242.977 51.6979 242.873 52.2376 242.665 52.7652C242.462 53.2927 242.106 53.8808 241.598 54.5294C241.09 55.1731 240.383 55.9548 239.478 56.8744L236.523 59.9672V60.0761H243.217V62H233.43ZM245.968 62V60.3737L251 55.161C251.537 54.5947 251.98 54.0986 252.328 53.6727C252.682 53.2419 252.945 52.8329 253.12 52.4457C253.294 52.0585 253.381 51.6471 253.381 51.2115C253.381 50.7178 253.265 50.2919 253.033 49.9337C252.8 49.5707 252.483 49.2924 252.081 49.0988C251.68 48.9004 251.227 48.8011 250.724 48.8011C250.191 48.8011 249.727 48.91 249.33 49.1278C248.933 49.3456 248.628 49.653 248.415 50.0499C248.202 50.4468 248.096 50.9114 248.096 51.4438H245.954C245.954 50.5387 246.162 49.7474 246.578 49.0698C246.995 48.3922 247.566 47.867 248.292 47.4943C249.018 47.1168 249.843 46.928 250.767 46.928C251.701 46.928 252.524 47.1144 253.236 47.4871C253.952 47.8549 254.511 48.3583 254.913 48.9972C255.315 49.6312 255.515 50.3475 255.515 51.1461C255.515 51.6979 255.411 52.2376 255.203 52.7652C255 53.2927 254.644 53.8808 254.136 54.5294C253.628 55.1731 252.921 55.9548 252.016 56.8744L249.061 59.9672V60.0761H255.755V62H245.968ZM261.36 59.9672L261.251 60.7585C261.178 61.3393 261.055 61.9443 260.881 62.5735C260.711 63.2076 260.535 63.7957 260.351 64.3378C260.172 64.8798 260.024 65.3106 259.908 65.6301H258.369C258.432 65.33 258.519 64.9234 258.63 64.4104C258.741 63.9021 258.85 63.3334 258.957 62.7042C259.063 62.075 259.143 61.4337 259.196 60.7803L259.269 59.9672H261.36ZM269.034 62.2033C268.037 62.2033 267.146 62.0315 266.362 61.6878C265.583 61.3442 264.966 60.8674 264.511 60.2576C264.061 59.6429 263.819 58.9314 263.785 58.1231H266.064C266.093 58.5636 266.241 58.9459 266.507 59.2702C266.778 59.5896 267.132 59.8365 267.567 60.0107C268.003 60.185 268.487 60.2721 269.019 60.2721C269.605 60.2721 270.123 60.1705 270.573 59.9672C271.028 59.7639 271.384 59.4807 271.64 59.1177C271.897 58.7499 272.025 58.3264 272.025 57.8472C272.025 57.3487 271.897 56.9107 271.64 56.5331C271.388 56.1508 271.018 55.8507 270.529 55.6329C270.045 55.4151 269.46 55.3062 268.772 55.3062H267.516V53.4766H268.772C269.324 53.4766 269.808 53.3774 270.224 53.179C270.646 52.9805 270.975 52.7047 271.212 52.3513C271.449 51.9932 271.568 51.5745 271.568 51.0953C271.568 50.6355 271.463 50.2362 271.255 49.8974C271.052 49.5538 270.762 49.2851 270.384 49.0915C270.011 48.8979 269.571 48.8011 269.063 48.8011C268.579 48.8011 268.126 48.8907 267.705 49.0698C267.289 49.244 266.95 49.4957 266.689 49.8248C266.427 50.1491 266.287 50.5387 266.268 50.9937H264.097C264.121 50.1902 264.358 49.4836 264.808 48.8737C265.263 48.2639 265.864 47.7871 266.609 47.4435C267.354 47.0999 268.182 46.928 269.092 46.928C270.045 46.928 270.868 47.1144 271.56 47.4871C272.257 47.8549 272.795 48.3462 273.172 48.9609C273.554 49.5755 273.743 50.2483 273.738 50.9792C273.743 51.8117 273.511 52.5183 273.041 53.0991C272.577 53.6799 271.957 54.0695 271.183 54.268V54.3842C272.17 54.5342 272.935 54.9262 273.477 55.5603C274.024 56.1943 274.295 56.9809 274.29 57.9198C274.295 58.7378 274.067 59.4711 273.608 60.1196C273.153 60.7682 272.531 61.2788 271.742 61.6515C270.953 62.0194 270.05 62.2033 269.034 62.2033ZM276.722 59.096V57.2809L283.147 47.1313H284.578V49.803H283.67L279.074 57.0777V57.1938H287.881V59.096H276.722ZM283.772 62V58.5442L283.786 57.7165V47.1313H285.914V62H283.772ZM290.411 62V60.3737L295.442 55.161C295.98 54.5947 296.423 54.0986 296.771 53.6727C297.124 53.2419 297.388 52.8329 297.562 52.4457C297.737 52.0585 297.824 51.6471 297.824 51.2115C297.824 50.7178 297.708 50.2919 297.475 49.9337C297.243 49.5707 296.926 49.2924 296.524 49.0988C296.122 48.9004 295.67 48.8011 295.167 48.8011C294.634 48.8011 294.169 48.91 293.773 49.1278C293.376 49.3456 293.071 49.653 292.858 50.0499C292.645 50.4468 292.538 50.9114 292.538 51.4438H290.397C290.397 50.5387 290.605 49.7474 291.021 49.0698C291.437 48.3922 292.008 47.867 292.734 47.4943C293.46 47.1168 294.286 46.928 295.21 46.928C296.144 46.928 296.967 47.1144 297.679 47.4871C298.395 47.8549 298.954 48.3583 299.356 48.9972C299.757 49.6312 299.958 50.3475 299.958 51.1461C299.958 51.6979 299.854 52.2376 299.646 52.7652C299.443 53.2927 299.087 53.8808 298.579 54.5294C298.071 55.1731 297.364 55.9548 296.459 56.8744L293.504 59.9672V60.0761H300.198V62H290.411Z" fill="#242424"/>
<rect x="309.667" y="42" width="57.2222" height="26.1111" rx="5.11111" fill="#E0F0E4"/>
<path d="M319.306 58.6824V51.3207H320.771V58.6824H319.306ZM316.361 55.7312V54.2719H323.722V55.7312H316.361ZM329.951 60.708C329.204 60.708 328.536 60.5791 327.948 60.3214C327.363 60.0637 326.9 59.7061 326.559 59.2487C326.222 58.7877 326.04 58.2541 326.015 57.6479H327.724C327.746 57.9782 327.857 58.265 328.057 58.5082C328.26 58.7478 328.525 58.9329 328.852 59.0636C329.178 59.1943 329.541 59.2596 329.941 59.2596C330.38 59.2596 330.768 59.1834 331.106 59.0309C331.447 58.8785 331.714 58.6661 331.906 58.3938C332.099 58.118 332.195 57.8003 332.195 57.441C332.195 57.0671 332.099 56.7385 331.906 56.4554C331.717 56.1686 331.44 55.9436 331.073 55.7802C330.71 55.6169 330.271 55.5352 329.755 55.5352H328.813V54.163H329.755C330.169 54.163 330.532 54.0886 330.844 53.9398C331.16 53.7909 331.407 53.584 331.585 53.319C331.763 53.0504 331.852 52.7364 331.852 52.377C331.852 52.0322 331.774 51.7327 331.618 51.4786C331.465 51.2209 331.247 51.0194 330.964 50.8742C330.685 50.729 330.354 50.6564 329.973 50.6564C329.61 50.6564 329.271 50.7235 328.955 50.8579C328.643 50.9885 328.389 51.1773 328.193 51.4241C327.997 51.6674 327.891 51.9596 327.877 52.3008H326.249C326.267 51.6982 326.445 51.1682 326.782 50.7108C327.124 50.2535 327.574 49.8959 328.133 49.6382C328.692 49.3804 329.313 49.2516 329.995 49.2516C330.71 49.2516 331.327 49.3913 331.846 49.6708C332.369 49.9467 332.772 50.3152 333.055 50.7762C333.342 51.2372 333.483 51.7418 333.48 52.2899C333.483 52.9143 333.309 53.4443 332.957 53.8799C332.609 54.3155 332.144 54.6077 331.563 54.7565V54.8437C332.304 54.9562 332.877 55.2502 333.284 55.7258C333.694 56.2013 333.897 56.7912 333.894 57.4954C333.897 58.1089 333.727 58.6588 333.382 59.1453C333.041 59.6317 332.574 60.0147 331.982 60.2942C331.391 60.5701 330.714 60.708 329.951 60.708ZM336.717 60.659C336.419 60.659 336.163 60.5537 335.949 60.3432C335.735 60.129 335.628 59.8713 335.628 59.57C335.628 59.2723 335.735 59.0182 335.949 58.8077C336.163 58.5935 336.419 58.4864 336.717 58.4864C337.015 58.4864 337.271 58.5935 337.485 58.8077C337.699 59.0182 337.806 59.2723 337.806 59.57C337.806 59.7696 337.755 59.953 337.653 60.1199C337.555 60.2833 337.425 60.414 337.261 60.512C337.098 60.61 336.917 60.659 336.717 60.659ZM339.731 58.3775V57.0162L344.55 49.404H345.622V51.4078H344.942L341.495 56.8638V56.9509H348.1V58.3775H339.731ZM345.018 60.5555V57.9637L345.029 57.3429V49.404H346.624V60.5555H345.018ZM355.818 58.4646V57.8766C355.818 57.4555 355.905 57.0707 356.08 56.7222C356.258 56.3701 356.515 56.0888 356.853 55.8782C357.194 55.664 357.606 55.557 358.089 55.557C358.583 55.557 358.996 55.6622 359.33 55.8728C359.664 56.0833 359.917 56.3646 360.087 56.7168C360.261 57.0689 360.349 57.4555 360.349 57.8766V58.4646C360.349 58.8857 360.261 59.2723 360.087 59.6244C359.913 59.9729 359.657 60.2542 359.319 60.4684C358.985 60.679 358.575 60.7842 358.089 60.7842C357.599 60.7842 357.185 60.679 356.847 60.4684C356.51 60.2542 356.254 59.9729 356.08 59.6244C355.905 59.2723 355.818 58.8857 355.818 58.4646ZM357.087 57.8766V58.4646C357.087 58.7768 357.161 59.06 357.31 59.3141C357.459 59.5682 357.719 59.6952 358.089 59.6952C358.456 59.6952 358.711 59.5682 358.857 59.3141C359.002 59.06 359.074 58.7768 359.074 58.4646V57.8766C359.074 57.5644 359.004 57.2812 358.862 57.0271C358.724 56.773 358.466 56.646 358.089 56.646C357.726 56.646 357.468 56.773 357.316 57.0271C357.163 57.2812 357.087 57.5644 357.087 57.8766ZM350.21 52.083V51.4949C350.21 51.0738 350.297 50.6872 350.471 50.3351C350.649 49.983 350.907 49.7017 351.244 49.4911C351.586 49.2806 351.998 49.1753 352.48 49.1753C352.974 49.1753 353.388 49.2806 353.722 49.4911C354.056 49.7017 354.308 49.983 354.479 50.3351C354.649 50.6872 354.735 51.0738 354.735 51.4949V52.083C354.735 52.5041 354.648 52.8907 354.473 53.2428C354.303 53.5913 354.049 53.8726 353.711 54.0868C353.377 54.2973 352.967 54.4026 352.48 54.4026C351.987 54.4026 351.571 54.2973 351.234 54.0868C350.9 53.8726 350.645 53.5913 350.471 53.2428C350.297 52.8907 350.21 52.5041 350.21 52.083ZM351.484 51.4949V52.083C351.484 52.3952 351.557 52.6783 351.702 52.9324C351.851 53.1865 352.11 53.3136 352.48 53.3136C352.843 53.3136 353.098 53.1865 353.243 52.9324C353.392 52.6783 353.466 52.3952 353.466 52.083V51.4949C353.466 51.1828 353.395 50.8996 353.254 50.6455C353.112 50.3914 352.854 50.2643 352.48 50.2643C352.117 50.2643 351.86 50.3914 351.707 50.6455C351.558 50.8996 351.484 51.1828 351.484 51.4949ZM350.727 60.5555L358.394 49.404H359.695L352.028 60.5555H350.727Z" fill="#377E36"/>
<path d="M151.24 296.077L154.216 287.437L155.386 287.437L158.362 296.077L157.444 296.077L154.618 287.929L154.966 287.929L152.158 296.077L151.24 296.077ZM152.566 293.983L152.566 293.155L157.03 293.155L157.03 293.983L152.566 293.983ZM162.355 296.257C161.759 296.257 161.255 296.107 160.843 295.807C160.431 295.503 160.119 295.093 159.907 294.577C159.695 294.057 159.589 293.475 159.589 292.831C159.589 292.175 159.695 291.591 159.907 291.079C160.123 290.563 160.439 290.157 160.855 289.861C161.271 289.565 161.783 289.417 162.391 289.417C162.983 289.417 163.491 289.567 163.915 289.867C164.339 290.167 164.663 290.575 164.887 291.091C165.115 291.607 165.229 292.187 165.229 292.831C165.229 293.479 165.115 294.061 164.887 294.577C164.659 295.093 164.331 295.503 163.903 295.807C163.475 296.107 162.959 296.257 162.355 296.257ZM159.439 298.957L159.439 289.597L160.231 289.597L160.231 294.475L160.327 294.475L160.327 298.957L159.439 298.957ZM162.265 295.435C162.717 295.435 163.093 295.321 163.393 295.093C163.693 294.865 163.917 294.555 164.065 294.163C164.217 293.767 164.293 293.323 164.293 292.831C164.293 292.343 164.219 291.903 164.071 291.511C163.923 291.119 163.697 290.809 163.393 290.581C163.093 290.353 162.711 290.239 162.247 290.239C161.795 290.239 161.419 290.349 161.119 290.569C160.823 290.789 160.601 291.095 160.453 291.487C160.305 291.875 160.231 292.323 160.231 292.831C160.231 293.331 160.305 293.779 160.453 294.175C160.601 294.567 160.825 294.875 161.125 295.099C161.425 295.323 161.805 295.435 162.265 295.435ZM166.547 296.077L166.547 289.597L167.339 289.597L167.339 291.157L167.183 290.953C167.255 290.761 167.349 290.585 167.465 290.425C167.581 290.261 167.707 290.127 167.843 290.023C168.011 289.875 168.207 289.763 168.431 289.687C168.655 289.607 168.881 289.561 169.109 289.549C169.337 289.533 169.545 289.549 169.733 289.597L169.733 290.425C169.497 290.365 169.239 290.351 168.959 290.383C168.679 290.415 168.421 290.527 168.185 290.719C167.969 290.887 167.807 291.089 167.699 291.325C167.591 291.557 167.519 291.805 167.483 292.069C167.447 292.329 167.429 292.587 167.429 292.843L167.429 296.077L166.547 296.077ZM170.991 288.367L170.991 287.377L171.873 287.377L171.873 288.367L170.991 288.367ZM170.991 296.077L170.991 289.597L171.873 289.597L171.873 296.077L170.991 296.077ZM173.792 296.077L173.792 287.257L174.674 287.257L174.674 296.077L173.792 296.077Z" fill="#858585"/>
<path d="M248.84 296.077L248.84 287.437L249.65 287.437L253.046 294.703L256.424 287.437L257.246 287.437L257.246 296.071L256.406 296.071L256.406 289.405L253.328 296.077L252.758 296.077L249.686 289.405L249.686 296.077L248.84 296.077ZM260.784 296.257C260.296 296.257 259.886 296.169 259.554 295.993C259.226 295.817 258.98 295.583 258.816 295.291C258.652 294.999 258.57 294.681 258.57 294.337C258.57 293.985 258.64 293.685 258.78 293.437C258.924 293.185 259.118 292.979 259.362 292.819C259.61 292.659 259.896 292.537 260.22 292.453C260.548 292.373 260.91 292.303 261.306 292.243C261.706 292.179 262.096 292.125 262.476 292.081C262.86 292.033 263.196 291.987 263.484 291.943L263.172 292.135C263.184 291.495 263.06 291.021 262.8 290.713C262.54 290.405 262.088 290.251 261.444 290.251C261 290.251 260.624 290.351 260.316 290.551C260.012 290.751 259.798 291.067 259.674 291.499L258.816 291.247C258.964 290.667 259.262 290.217 259.71 289.897C260.158 289.577 260.74 289.417 261.456 289.417C262.048 289.417 262.55 289.529 262.962 289.753C263.378 289.973 263.672 290.293 263.844 290.713C263.924 290.901 263.976 291.111 264 291.343C264.024 291.575 264.036 291.811 264.036 292.051L264.036 296.077L263.25 296.077L263.25 294.451L263.478 294.547C263.258 295.103 262.916 295.527 262.452 295.819C261.988 296.111 261.432 296.257 260.784 296.257ZM260.886 295.495C261.298 295.495 261.658 295.421 261.966 295.273C262.274 295.125 262.522 294.923 262.71 294.667C262.898 294.407 263.02 294.115 263.076 293.791C263.124 293.583 263.15 293.355 263.154 293.107C263.158 292.855 263.16 292.667 263.16 292.543L263.496 292.717C263.196 292.757 262.87 292.797 262.518 292.837C262.17 292.877 261.826 292.923 261.486 292.975C261.15 293.027 260.846 293.089 260.574 293.161C260.39 293.213 260.212 293.287 260.04 293.383C259.868 293.475 259.726 293.599 259.614 293.755C259.506 293.911 259.452 294.105 259.452 294.337C259.452 294.525 259.498 294.707 259.59 294.883C259.686 295.059 259.838 295.205 260.046 295.321C260.258 295.437 260.538 295.495 260.886 295.495ZM266.159 298.957L267.413 295.555L267.431 296.563L264.593 289.597L265.529 289.597L267.857 295.423L267.473 295.423L269.621 289.597L270.521 289.597L267.041 298.957L266.159 298.957Z" fill="#858585"/>
<path d="M342.316 296.251C341.74 296.251 341.246 296.091 340.834 295.771C340.422 295.451 340.144 295.023 340 294.487L340.882 294.277C340.954 294.593 341.12 294.861 341.38 295.081C341.644 295.297 341.954 295.405 342.31 295.405C342.534 295.405 342.76 295.351 342.988 295.243C343.22 295.135 343.402 294.957 343.534 294.709C343.622 294.537 343.672 294.351 343.684 294.151C343.7 293.947 343.708 293.703 343.708 293.419L343.708 287.437L344.596 287.437L344.596 293.419C344.596 293.659 344.594 293.877 344.59 294.073C344.586 294.265 344.564 294.451 344.524 294.631C344.488 294.807 344.418 294.985 344.314 295.165C344.106 295.529 343.826 295.801 343.474 295.981C343.126 296.161 342.74 296.251 342.316 296.251ZM348.884 296.239C348.496 296.239 348.156 296.179 347.864 296.059C347.576 295.939 347.33 295.777 347.126 295.573C346.926 295.369 346.764 295.137 346.64 294.877C346.516 294.613 346.426 294.335 346.37 294.043C346.314 293.747 346.286 293.453 346.286 293.161L346.286 289.597L347.174 289.597L347.174 292.903C347.174 293.259 347.208 293.589 347.276 293.893C347.344 294.197 347.452 294.463 347.6 294.691C347.752 294.915 347.946 295.089 348.182 295.213C348.422 295.337 348.712 295.399 349.052 295.399C349.364 295.399 349.638 295.345 349.874 295.237C350.114 295.129 350.314 294.975 350.474 294.775C350.638 294.571 350.762 294.325 350.846 294.037C350.93 293.745 350.972 293.417 350.972 293.053L351.596 293.191C351.596 293.855 351.48 294.413 351.248 294.865C351.016 295.317 350.696 295.659 350.288 295.891C349.88 296.123 349.412 296.239 348.884 296.239ZM351.062 296.077L351.062 294.481L350.972 294.481L350.972 289.597L351.854 289.597L351.854 296.077L351.062 296.077ZM358.211 296.077L358.211 292.771C358.211 292.411 358.177 292.081 358.109 291.781C358.041 291.477 357.931 291.213 357.779 290.989C357.631 290.761 357.437 290.585 357.197 290.461C356.961 290.337 356.673 290.275 356.333 290.275C356.021 290.275 355.745 290.329 355.505 290.437C355.269 290.545 355.069 290.701 354.905 290.905C354.745 291.105 354.623 291.349 354.539 291.637C354.455 291.925 354.413 292.253 354.413 292.621L353.789 292.483C353.789 291.819 353.905 291.261 354.137 290.809C354.369 290.357 354.689 290.015 355.097 289.783C355.505 289.551 355.973 289.435 356.501 289.435C356.889 289.435 357.227 289.495 357.515 289.615C357.807 289.735 358.053 289.897 358.253 290.101C358.457 290.305 358.621 290.539 358.745 290.803C358.869 291.063 358.959 291.341 359.015 291.637C359.071 291.929 359.099 292.221 359.099 292.513L359.099 296.077L358.211 296.077ZM353.525 296.077L353.525 289.597L354.323 289.597L354.323 291.193L354.413 291.193L354.413 296.077L353.525 296.077ZM363.363 296.257C362.731 296.257 362.183 296.117 361.719 295.837C361.259 295.557 360.901 295.163 360.645 294.655C360.389 294.147 360.261 293.551 360.261 292.867C360.261 292.159 360.387 291.547 360.639 291.031C360.891 290.515 361.245 290.117 361.701 289.837C362.161 289.557 362.703 289.417 363.327 289.417C363.967 289.417 364.513 289.565 364.965 289.861C365.417 290.153 365.759 290.573 365.991 291.121C366.223 291.669 366.329 292.323 366.309 293.083L365.409 293.083L365.409 292.771C365.393 291.931 365.211 291.297 364.863 290.869C364.519 290.441 364.015 290.227 363.351 290.227C362.655 290.227 362.121 290.453 361.749 290.905C361.381 291.357 361.197 292.001 361.197 292.837C361.197 293.653 361.381 294.287 361.749 294.739C362.121 295.187 362.647 295.411 363.327 295.411C363.791 295.411 364.195 295.305 364.539 295.093C364.887 294.877 365.161 294.567 365.361 294.163L366.183 294.481C365.927 295.045 365.549 295.483 365.049 295.795C364.553 296.103 363.991 296.257 363.363 296.257ZM360.885 293.083L360.885 292.345L365.835 292.345L365.835 293.083L360.885 293.083Z" fill="#858585"/>
<path d="M103.934 149.375C82.6256 159.903 64 206.689 64 206.689L64 265L345 265L345 193.731C345 193.731 301.546 89.1242 257.073 92.0607C220.224 94.4937 211 165.291 174.641 173.796C146.564 180.363 130.711 136.145 103.934 149.375Z" fill="url(#paint0_linear_449_695)" fill-opacity="0.14"/>
<rect x="241" y="115.077" width="38" height="153" rx="4" fill="url(#paint1_linear_449_695)" fill-opacity="0.2"/>
<path d="M64 207C64 207 82.6256 160.087 103.934 149.53C130.711 136.264 146.564 180.602 174.641 174.017C211 165.49 220.224 94.5005 257.073 92.0609C301.546 89.1164 345 194.007 345 194.007" stroke="#7A4AFF" stroke-width="4" stroke-linecap="round"/>
<circle cx="260.001" cy="94.0774" r="8" fill="#7A4AFF" stroke="#D3CBF8" stroke-width="4"/>
<defs>
<linearGradient id="paint0_linear_449_695" x1="204.5" y1="92" x2="204.5" y2="265" gradientUnits="userSpaceOnUse">
<stop stop-color="#5030E5"/>
<stop offset="1" stop-color="#5030E5" stop-opacity="0"/>
</linearGradient>
<linearGradient id="paint1_linear_449_695" x1="260" y1="115.077" x2="260" y2="268.077" gradientUnits="userSpaceOnUse">
<stop stop-color="#5030E5" stop-opacity="0"/>
<stop offset="1" stop-color="#5030E5"/>
</linearGradient>
</defs>
</svg>
