<svg width="256" height="256" viewBox="0 0 256 256" fill="none" xmlns="http://www.w3.org/2000/svg">
<mask id="mask0_284_311" style="mask-type:luminance" maskUnits="userSpaceOnUse" x="56" y="11" width="115" height="102">
<path d="M60.2684 54.7145L56.3533 67.0133L163.038 112.416L166.926 100.111C172.149 83.8092 171.542 65.783 165.239 49.9969C158.935 34.2108 147.45 21.9573 133.311 15.9312C126.307 12.938 118.859 11.5671 111.394 11.8969C103.93 12.2268 96.5952 14.251 89.8102 17.8536C83.0253 21.4562 76.9234 26.5664 71.8542 32.8916C66.7849 39.2167 62.8478 46.6326 60.2684 54.7145Z" fill="white"/>
</mask>
<g mask="url(#mask0_284_311)">
<path d="M69.5561 -21.4669L20.8302 101.477L164.621 145.721L213.347 22.7762L69.5561 -21.4669Z" fill="url(#paint0_linear_284_311)"/>
</g>
<mask id="mask1_284_311" style="mask-type:luminance" maskUnits="userSpaceOnUse" x="46" y="47" width="165" height="197">
<path d="M60.2899 54.702L59.4416 57.3535L56.3313 66.9757L52.3239 79.5127C48.1629 92.489 46.0221 106.21 46 120.045L46 120.465C46.0467 144.508 52.4712 167.959 64.4116 187.672C76.352 207.384 93.2368 222.415 112.8 230.747L134.338 239.905C140.597 242.573 147.214 243.948 153.886 243.967H154.115C165.724 243.936 177.046 239.809 186.561 232.142C196.076 224.475 203.328 213.635 207.343 201.078C207.655 200.1 207.946 199.116 208.218 198.126C212.433 181.764 211.05 164.163 204.354 148.94C197.657 133.718 186.157 122.032 172.216 116.284L77.7063 76.0838C72.7647 73.9863 68.6075 69.9771 65.944 64.7403C63.2805 59.5034 62.2757 53.3634 63.1011 47.3678C62.0344 49.7437 61.0955 52.1931 60.2899 54.702Z" fill="white"/>
</mask>
<g mask="url(#mask1_284_311)">
<path d="M284.649 89.6741L82.796 -36.5424L-21.6592 201.661L180.193 327.871L284.649 89.6741Z" fill="url(#paint1_linear_284_311)"/>
</g>
<defs>
<linearGradient id="paint0_linear_284_311" x1="46.0499" y1="244.027" x2="47.3975" y2="244.027" gradientUnits="userSpaceOnUse">
<stop stop-color="#7A4AFF"/>
<stop offset="1" stop-color="#5232C6"/>
</linearGradient>
<linearGradient id="paint1_linear_284_311" x1="46.0348" y1="244.056" x2="47.26" y2="244.056" gradientUnits="userSpaceOnUse">
<stop stop-color="#8C62FF"/>
<stop offset="0.585" stop-color="#7A4AFF"/>
<stop offset="1" stop-color="#6F4AFF"/>
</linearGradient>
</defs>
</svg>
