<svg width="255" height="72" viewBox="0 0 255 72" fill="none" xmlns="http://www.w3.org/2000/svg">
<g clip-path="url(#clip0_115_124)">
<path d="M0 0H98.4788C109.103 0 119.292 4.23387 126.805 11.7702C134.317 19.3066 138.538 29.528 138.538 40.186V72H40.0592C29.4348 72 19.2456 67.7661 11.7331 60.2298C4.22051 52.6934 0 42.472 0 31.814L0 0Z" fill="#6CBC2A"/>
<path d="M167.192 56.9303C170.091 56.9874 172.967 56.3954 175.609 55.1972C177.918 54.1521 179.904 52.5025 181.358 50.4218C182.752 48.3768 183.478 45.9482 183.438 43.4713C183.496 41.4412 182.788 39.464 181.455 37.9356C180.031 36.3827 178.114 35.3731 176.032 35.0791L176.128 34.5768C177.889 34.2732 179.559 33.5737 181.012 32.5306C182.384 31.5405 183.501 30.2378 184.272 28.7297C185.057 27.1831 185.458 25.4689 185.441 23.7332C185.48 21.9879 184.961 20.2759 183.958 18.8489C182.889 17.4041 181.441 16.2853 179.776 15.6173C177.769 14.8056 175.619 14.4114 173.456 14.4586H157.821L148.813 56.9303H167.192ZM163.34 19.9792H171.018C173.029 19.8407 175.037 20.2965 176.793 21.2902C177.421 21.7213 177.928 22.3082 178.264 22.9939C178.599 23.6797 178.752 24.4408 178.707 25.2034C178.727 26.5548 178.281 27.8715 177.444 28.9306C176.517 30.0684 175.308 30.9411 173.939 31.4607C172.289 32.1003 170.532 32.4114 168.764 32.3766H160.654L163.34 19.9792ZM156.611 51.254L159.579 37.5673H168.592C170.098 37.5247 171.599 37.7515 173.026 38.237C174.111 38.6076 175.054 39.3103 175.721 40.2463C176.35 41.2205 176.666 42.3649 176.626 43.5249C176.643 44.9584 176.176 46.3555 175.302 47.4899C174.355 48.7015 173.114 49.6497 171.699 50.2443C170.063 50.9395 168.3 51.2818 166.524 51.2489L156.611 51.254ZM221.065 24.8769H214.717L210.674 43.8999C210.375 45.3563 209.793 46.7393 208.962 47.9704C208.18 49.123 207.134 50.0709 205.912 50.7349C204.628 51.4179 203.193 51.7635 201.74 51.7396C200.168 51.8675 198.61 51.3708 197.4 50.3565C196.892 49.7923 196.504 49.1301 196.26 48.4103C196.016 47.6905 195.921 46.9283 195.981 46.1704C195.99 45.6879 196.024 45.2061 196.083 44.7271C196.151 44.1143 196.238 43.5561 196.345 43.0527L200.184 24.8685H193.808L189.802 44.0858C189.658 44.8178 189.55 45.5566 189.48 46.2994C189.402 47.0953 189.363 47.7332 189.363 48.2132C189.33 49.9033 189.74 51.5724 190.551 53.054C191.333 54.4528 192.496 55.5998 193.903 56.3609C195.463 57.1843 197.207 57.5946 198.969 57.5531C200.394 57.5736 201.812 57.347 203.16 56.8834C204.343 56.4686 205.442 55.8448 206.405 55.0415C207.315 54.2817 208.095 53.3766 208.712 52.3624H209.202L208.203 56.9303H214.303L221.065 24.8769ZM222.734 68.6093C224.393 68.637 226.044 68.3613 227.604 67.7956C229.145 67.1717 230.523 66.2046 231.635 64.9675C233.143 63.2814 234.433 61.4114 235.474 59.4017L255.003 24.8702H248.16L235.014 49.6549H234.523L231.443 24.8735H225.101L229.903 56.8365C229.803 57.0296 229.7 57.2238 229.594 57.4192C229.488 57.6145 229.382 57.8138 229.275 58.0169C229.164 58.2201 229.053 58.4183 228.941 58.6114C228.279 59.9995 227.309 61.2167 226.104 62.1695C225.152 62.8377 224.016 63.1918 222.854 63.1825C222.307 63.1858 221.76 63.1522 221.217 63.0821C220.723 63.0151 220.329 62.9515 220.035 62.8912L218.97 68.2493C219.325 68.3096 219.855 68.3844 220.561 68.4737C221.28 68.5646 222.005 68.6099 222.731 68.6093H222.734Z" fill="#6CBC2A"/>
<path d="M113.14 28.0035C113.199 26.5284 112.77 25.3896 111.855 24.5872C110.951 23.7847 109.584 23.3835 107.754 23.3835C106.51 23.3835 105.43 23.5605 104.515 23.9145C103.599 24.2567 102.866 24.7347 102.315 25.3483C101.775 25.9501 101.44 26.6464 101.311 27.437C101.182 28.0861 101.223 28.6525 101.434 29.1363C101.657 29.6202 102.004 30.0391 102.473 30.3931C102.954 30.7353 103.523 31.0362 104.18 31.2959C104.838 31.5437 105.536 31.7561 106.275 31.9331L109.373 32.7119C110.887 33.066 112.248 33.538 113.457 34.128C114.677 34.7181 115.698 35.4438 116.52 36.3053C117.353 37.1667 117.939 38.1816 118.28 39.3498C118.62 40.5181 118.667 41.8575 118.421 43.368C118.045 45.5865 117.171 47.51 115.798 49.1385C114.425 50.7552 112.624 52.012 110.394 52.9088C108.164 53.7939 105.583 54.2364 102.649 54.2364C99.7387 54.2364 97.2803 53.788 95.2736 52.8911C93.267 51.9943 91.806 50.6667 90.8906 48.9084C89.9871 47.1383 89.7172 44.9493 90.0809 42.3413H97.4563C97.3272 43.5568 97.5032 44.5716 97.9844 45.3859C98.4772 46.1883 99.2107 46.7961 100.185 47.2091C101.159 47.6103 102.303 47.8109 103.617 47.8109C104.92 47.8109 106.076 47.6221 107.085 47.2445C108.106 46.8669 108.933 46.3418 109.567 45.6691C110.2 44.9965 110.588 44.2235 110.728 43.3503C110.869 42.536 110.746 41.8516 110.359 41.297C109.972 40.7423 109.35 40.2703 108.493 39.8809C107.648 39.4796 106.598 39.1256 105.342 38.8188L101.575 37.8275C98.665 37.0841 96.4647 35.9217 94.9744 34.3404C93.484 32.7591 92.9501 30.6291 93.3726 27.9504C93.7481 25.7554 94.6575 23.8378 96.1009 22.1975C97.556 20.5454 99.3867 19.265 101.593 18.3564C103.811 17.4359 106.234 16.9757 108.863 16.9757C111.538 16.9757 113.797 17.4418 115.639 18.3741C117.482 19.2945 118.825 20.5808 119.67 22.2329C120.515 23.885 120.773 25.8085 120.445 28.0035H113.14Z" fill="white"/>
<path d="M80.6593 28.0035C80.718 26.5284 80.2897 25.3896 79.3744 24.5872C78.4708 23.7847 77.1037 23.3835 75.273 23.3835C74.0292 23.3835 72.9495 23.5605 72.0342 23.9145C71.1189 24.2567 70.3855 24.7347 69.8339 25.3483C69.2941 25.9501 68.9597 26.6464 68.8306 27.437C68.7015 28.0861 68.7426 28.6525 68.9538 29.1363C69.1768 29.6202 69.523 30.0391 69.9924 30.3931C70.4735 30.7353 71.0426 31.0362 71.6998 31.2959C72.3569 31.5437 73.0552 31.7561 73.7945 31.9331L76.8925 32.7119C78.4063 33.066 79.7675 33.538 80.9762 34.128C82.1966 34.7181 83.2175 35.4438 84.039 36.3053C84.8722 37.1667 85.4589 38.1816 85.7992 39.3498C86.1395 40.5181 86.1865 41.8575 85.94 43.368C85.5645 45.5865 84.6903 47.51 83.3173 49.1385C81.9443 50.7552 80.143 52.012 77.9134 52.9088C75.6838 53.7939 73.1021 54.2364 70.1684 54.2364C67.2581 54.2364 64.7997 53.788 62.793 52.8911C60.7864 51.9943 59.3254 50.6667 58.4101 48.9084C57.5065 47.1383 57.2366 44.9493 57.6004 42.3413H64.9757C64.8466 43.5568 65.0227 44.5716 65.5038 45.3859C65.9966 46.1883 66.7301 46.7961 67.7041 47.2091C68.6781 47.6103 69.8222 47.8109 71.1365 47.8109C72.4391 47.8109 73.595 47.6221 74.6042 47.2445C75.6251 46.8669 76.4524 46.3418 77.0861 45.6691C77.7198 44.9965 78.107 44.2235 78.2478 43.3503C78.3887 42.536 78.2654 41.8516 77.8782 41.297C77.4909 40.7423 76.869 40.2703 76.0123 39.8809C75.1674 39.4796 74.1172 39.1256 72.8615 38.8188L69.0946 37.8275C66.1844 37.0841 63.9841 35.9217 62.4938 34.3404C61.0035 32.7591 60.4695 30.6291 60.892 27.9504C61.2675 25.7554 62.1769 23.8378 63.6203 22.1975C65.0755 20.5454 66.9061 19.265 69.1122 18.3564C71.3301 17.4359 73.7534 16.9757 76.382 16.9757C79.0575 16.9757 81.3165 17.4418 83.1589 18.3741C85.0012 19.2945 86.3449 20.5808 87.1898 22.2329C88.0347 23.885 88.2929 25.8085 87.9643 28.0035H80.6593Z" fill="white"/>
<path d="M55.268 30.163H47.6639C47.6873 29.1481 47.5582 28.2513 47.2766 27.4724C46.995 26.6818 46.5725 26.0091 46.0092 25.4545C45.4577 24.8999 44.7829 24.481 43.985 24.1977C43.187 23.9027 42.2893 23.7552 41.2918 23.7552C39.3673 23.7552 37.6012 24.239 35.9935 25.2067C34.3859 26.1744 33.0305 27.5786 31.9274 29.4195C30.8243 31.2487 30.0616 33.4613 29.6391 36.0574C29.2284 38.5592 29.2519 40.6538 29.7095 42.3413C30.1672 44.0288 30.9769 45.3033 32.1386 46.1647C33.3121 47.0144 34.7731 47.4392 36.5216 47.4392C37.6012 47.4392 38.628 47.3035 39.602 47.0321C40.576 46.7489 41.462 46.3476 42.26 45.8284C43.0697 45.2974 43.7738 44.6542 44.3722 43.899C44.9824 43.1438 45.4577 42.2882 45.798 41.3324H53.455C52.9739 42.9963 52.2228 44.6011 51.2019 46.147C50.1927 47.6929 48.943 49.0736 47.4526 50.2891C45.9623 51.4928 44.2666 52.4486 42.3656 53.1567C40.4645 53.8647 38.3816 54.2187 36.1168 54.2187C32.8427 54.2187 30.0322 53.4635 27.6853 51.953C25.35 50.4425 23.6661 48.2653 22.6334 45.4213C21.6007 42.5773 21.4071 39.1492 22.0525 35.137C22.6979 31.2546 23.9594 27.9622 25.837 25.2598C27.7263 22.5456 30.0205 20.4864 32.7195 19.0821C35.4303 17.6778 38.3288 16.9757 41.415 16.9757C43.5625 16.9757 45.5046 17.2707 47.2414 17.8608C48.9782 18.4508 50.4568 19.3122 51.6772 20.4451C52.9093 21.5662 53.8364 22.941 54.4583 24.5695C55.0803 26.198 55.3502 28.0625 55.268 30.163Z" fill="white"/>
</g>
<defs>
<clipPath id="clip0_115_124">
<rect width="255" height="72" fill="white"/>
</clipPath>
</defs>
</svg>
