<svg width="100" height="44" viewBox="0 0 100 44" fill="none" xmlns="http://www.w3.org/2000/svg">
<g clip-path="url(#clip0_1344_1229)">
<path d="M14.8649 36.8649C23.0745 36.8649 29.7297 30.2096 29.7297 22C29.7297 13.7904 23.0745 7.13513 14.8649 7.13513C6.65523 7.13513 0 13.7904 0 22C0 30.2096 6.65523 36.8649 14.8649 36.8649Z" fill="black"/>
<mask id="mask0_1344_1229" style="mask-type:luminance" maskUnits="userSpaceOnUse" x="4" y="11" width="22" height="21">
<path d="M4.1291 11.2643H25.6006V31.9099H4.1291V11.2643Z" fill="white"/>
</mask>
<g mask="url(#mask0_1344_1229)">
<mask id="mask1_1344_1229" style="mask-type:luminance" maskUnits="userSpaceOnUse" x="4" y="11" width="22" height="21">
<path d="M4.12915 11.2643H25.6006V31.9099H4.12915V11.2643Z" fill="white"/>
</mask>
<g mask="url(#mask1_1344_1229)">
<path d="M4.2947 25.2766C4.52938 24.5407 5.32087 22.9303 5.66963 22.4214C5.77855 22.2824 5.85551 22.1191 5.89458 21.9441C5.94587 21.681 5.86018 21.5661 5.94574 21.4222C6.05486 21.2384 6.32972 21.1976 6.5089 21.2214C6.84586 21.2663 7.09485 21.5732 7.1618 21.8638C7.20039 22.0679 7.17336 22.2796 7.08505 22.466C6.81512 23.1087 6.37963 24.3037 6.26593 24.9955C6.21935 25.2789 6.04356 26.3478 6.66272 27.0967C7.02518 27.5353 7.53917 27.6887 7.96336 27.7447C7.9914 27.5622 8.03268 27.3823 8.08701 27.2064C8.09782 27.1746 8.10856 27.1421 8.11836 27.1089C8.23106 26.7442 8.28829 26.3632 8.28789 25.9798C8.28789 25.9409 8.28728 25.9028 8.28586 25.8647C8.27701 25.5391 8.22613 25.2162 8.13451 24.9047L8.1339 24.9019C8.11917 24.8074 8.08451 24.7174 8.03241 24.6386C7.98025 24.5597 7.91201 24.4941 7.83255 24.4464C7.75282 24.4008 7.72045 24.4104 7.65836 24.3532C7.61464 24.3124 7.58032 24.2618 7.55795 24.2051C7.53897 24.1561 7.52917 24.1037 7.52917 24.0508C7.52903 23.9628 7.55626 23.8773 7.60681 23.8071C7.62762 23.7782 7.65194 23.7523 7.67917 23.73C7.72099 23.7038 7.76451 23.6807 7.80951 23.6609C7.96485 23.5914 8.13343 23.5603 8.30208 23.57C8.47079 23.5797 8.63512 23.6299 8.78221 23.7167C8.93545 23.851 9.0766 23.9997 9.20376 24.161C9.70349 24.7886 9.97633 25.5799 9.97451 26.3966C9.97451 26.4807 9.97181 26.564 9.96647 26.6467L9.9766 26.6424C9.97518 26.6678 9.97451 26.6933 9.97451 26.7193C9.97424 26.8711 10.0003 27.0216 10.0516 27.1637C10.1185 27.3512 10.2271 27.5195 10.3682 27.6547C10.5094 27.7899 10.6793 27.8883 10.8638 27.9415C11.0484 27.9948 11.2424 28.0016 11.43 27.9614C11.6175 27.921 11.7933 27.8349 11.9428 27.7098C11.5329 27.6824 11.1433 27.5137 10.8349 27.2299C10.6944 27.0962 10.5759 26.9392 10.4842 26.7653C10.573 26.6591 10.648 26.5412 10.7073 26.4144C11.0002 25.7862 10.8047 25.139 10.7336 24.9342L10.6423 24.6657L9.85302 23.3751L9.63579 23.02L9.09295 22.1323L8.85789 21.6301C8.41626 20.6026 8.2039 19.4836 8.23701 18.3576C8.35849 14.7392 11.1554 11.3172 14.8628 11.2643H14.8667C18.5742 11.3168 21.3709 14.739 21.4926 18.3571C21.5257 19.4831 21.3134 20.6022 20.8717 21.6297L20.6367 22.132L20.0938 23.0196L19.8766 23.3747L19.0873 24.6653L18.996 24.9338C18.9249 25.1386 18.7294 25.7859 19.0223 26.414C19.0816 26.5408 19.1567 26.6587 19.2455 26.7649C19.1537 26.9388 19.0352 27.0958 18.8947 27.2295C18.5864 27.5133 18.1967 27.682 17.7868 27.7094C17.9652 27.8582 18.1801 27.9514 18.4069 27.9781C18.6336 28.0049 18.863 27.9642 19.0686 27.8608C19.2742 27.7572 19.4477 27.5952 19.5691 27.3933C19.6906 27.1912 19.755 26.9575 19.7551 26.7189C19.7551 26.6927 19.7545 26.6674 19.7531 26.642L19.7632 26.6463C19.7578 26.5637 19.7551 26.4803 19.7551 26.3962C19.7533 25.5795 20.0261 24.7882 20.5259 24.1606C20.6531 23.9993 20.7942 23.8505 20.9474 23.7163C21.0946 23.6295 21.2588 23.5793 21.4275 23.5697C21.5963 23.5599 21.7648 23.5911 21.9201 23.6605C21.9651 23.6803 22.0088 23.7034 22.0506 23.7296C22.0778 23.7519 22.1021 23.7778 22.1229 23.8067C22.1734 23.8769 22.2007 23.9625 22.2005 24.0503C22.2005 24.1033 22.1908 24.1557 22.1718 24.2047C22.1494 24.2614 22.115 24.312 22.0713 24.3528C22.0092 24.4101 21.9771 24.4004 21.8973 24.446C21.8178 24.4937 21.7496 24.5593 21.6974 24.6382C21.6453 24.717 21.6106 24.807 21.5959 24.9016L21.5953 24.9043C21.5037 25.2158 21.4528 25.5387 21.444 25.8643C21.4425 25.9024 21.4419 25.9405 21.4419 25.9795C21.4415 26.3628 21.4988 26.7438 21.6115 27.1085C21.6209 27.1417 21.6317 27.1742 21.6428 27.206C21.6971 27.3819 21.7384 27.5618 21.7665 27.7443C22.1907 27.6884 22.7046 27.5349 23.0671 27.0963C23.6862 26.3472 23.5105 25.2784 23.4639 24.9951C23.3502 24.3033 22.9145 23.1083 22.6448 22.4656C22.5565 22.2792 22.5294 22.0675 22.568 21.8634C22.6347 21.5728 22.8838 21.266 23.2209 21.221C23.4001 21.1972 23.6751 21.2381 23.7841 21.4218C23.8696 21.5658 23.7841 21.6806 23.8354 21.9437C23.8744 22.1187 23.9513 22.282 24.0603 22.421C24.4091 22.9299 25.2006 24.5403 25.4353 25.2762C25.8035 26.4306 25.4696 27.5272 25.2816 28.1449C25.1711 28.508 24.3315 31.1411 22.1074 31.7137C21.5909 31.8431 21.0539 31.8565 20.532 31.7531C21.1123 31.4998 21.5771 31.0226 21.8298 30.4205C22.2312 29.4382 21.8732 28.5595 21.8117 28.4151L21.811 28.4164C21.7942 29.3062 21.4671 30.1591 20.8911 30.8144C20.8911 30.8144 20.8898 30.8172 20.8878 30.8187C20.5888 31.1599 20.2309 31.4393 19.833 31.6419C19.658 31.7312 19.4761 31.8049 19.2893 31.8624C19.1283 31.894 18.9648 31.9098 18.8009 31.9097C18.168 31.9108 17.5565 31.6704 17.081 31.2337C17.0395 31.1866 16.9971 31.1406 16.9538 31.0954C16.9538 31.0954 16.8968 31.0364 16.8378 30.9794C15.9823 30.1572 15.2289 30.0254 15.2289 30.0254C14.9877 29.9836 14.7415 29.9836 14.5003 30.0254C14.5003 30.0254 13.7469 30.1574 12.8918 30.9797C12.8328 31.0365 12.7758 31.0958 12.7758 31.0958C12.7325 31.1409 12.6901 31.187 12.6486 31.2341C12.1733 31.6706 11.5621 31.911 10.9294 31.9102C10.7656 31.9103 10.6021 31.8945 10.4411 31.863C10.2543 31.8054 10.0724 31.7316 9.89735 31.6424C9.49944 31.4397 9.1416 31.1605 8.84262 30.8192C8.84059 30.8178 8.8393 30.8149 8.8393 30.8149C8.26329 30.1596 7.93613 29.3068 7.91944 28.4169L7.91876 28.4156C7.85721 28.5601 7.49931 29.4387 7.90052 30.421C8.15329 31.0231 8.61802 31.5003 9.19836 31.7537C8.67647 31.857 8.13958 31.8436 7.62295 31.7143C5.39891 31.1417 4.5592 28.5087 4.44877 28.1454C4.26074 27.5279 3.92649 26.4313 4.2947 25.2766ZM15.8035 24.077C15.8352 24.077 15.8665 24.0705 15.8958 24.0578C15.9251 24.0452 15.9517 24.0267 15.9742 24.0033C15.9966 23.9799 16.0144 23.9521 16.0265 23.9215C16.0386 23.8909 16.0449 23.858 16.0449 23.8249C16.0441 23.7399 16.0594 23.6554 16.09 23.5766C16.1206 23.4977 16.1658 23.426 16.2231 23.3655C16.2803 23.305 16.3485 23.257 16.4236 23.2242C16.4987 23.1914 16.5793 23.1746 16.6607 23.1746C16.7421 23.1746 16.8226 23.1914 16.8978 23.2242C16.9729 23.257 17.041 23.305 17.0983 23.3655C17.1555 23.426 17.2007 23.4977 17.2313 23.5766C17.2619 23.6554 17.2772 23.7399 17.2764 23.8249C17.2764 23.8918 17.3018 23.956 17.3471 24.0033C17.3923 24.0506 17.4537 24.0772 17.5177 24.0772C17.5817 24.0772 17.643 24.0506 17.6883 24.0033C17.7336 23.956 17.759 23.8918 17.759 23.8249C17.759 23.5204 17.6432 23.2283 17.4373 23.0129C17.2313 22.7976 16.952 22.6766 16.6607 22.6766C16.3694 22.6766 16.0901 22.7976 15.8841 23.0129C15.6782 23.2283 15.5625 23.5204 15.5625 23.8249C15.5625 23.8918 15.5878 23.9559 15.633 24.0031C15.6782 24.0504 15.7396 24.077 15.8035 24.077ZM12.7823 23.1811C12.8632 23.181 12.9433 23.1976 13.018 23.2299C13.0928 23.2623 13.1607 23.3097 13.2178 23.3695C13.275 23.4293 13.3204 23.5003 13.3513 23.5785C13.3822 23.6566 13.3981 23.7403 13.398 23.8249C13.398 23.8918 13.4234 23.956 13.4687 24.0033C13.514 24.0506 13.5753 24.0772 13.6393 24.0772C13.7033 24.0772 13.7646 24.0506 13.8098 24.0033C13.8551 23.956 13.8805 23.8918 13.8805 23.8249C13.8805 23.5204 13.7648 23.2283 13.5588 23.0129C13.3529 22.7976 13.0736 22.6766 12.7823 22.6766C12.491 22.6766 12.2117 22.7976 12.0057 23.0129C11.7997 23.2283 11.684 23.5204 11.684 23.8249C11.684 23.8918 11.7094 23.956 11.7547 24.0033C11.7999 24.0506 11.8613 24.0772 11.9253 24.0772C11.9892 24.0772 12.0506 24.0506 12.0959 24.0033C12.1411 23.956 12.1665 23.8918 12.1665 23.8249C12.1665 23.7404 12.1824 23.6566 12.2134 23.5785C12.2442 23.5004 12.2896 23.4294 12.3468 23.3696C12.404 23.3098 12.4719 23.2624 12.5466 23.2301C12.6213 23.1977 12.7014 23.1811 12.7823 23.1811Z" fill="white"/>
</g>
</g>
<path d="M89.5689 34.7402C89.0148 34.7402 88.4209 34.6742 88.0777 34.6082V32.378C88.3027 32.4307 88.6324 32.4835 89.0148 32.4835C90.3608 32.4835 91.1 32.1272 91.575 30.7811L91.8128 30.1213L86.7581 16.2251H89.8466L93.3432 27.5216H93.4358L96.9331 16.2251H99.9418L94.7689 30.7547C93.7391 33.6316 92.2878 34.7402 89.5689 34.7402Z" fill="black"/>
<path d="M80.0541 30.1081V18.4949H78.1406V16.2251H80.0541V14.747C80.0541 12.0549 81.321 10.788 84.1454 10.788C84.7264 10.788 85.3595 10.8408 85.742 10.9068V13.0183C85.4649 12.9787 85.1089 12.9523 84.7528 12.9523C83.4724 12.9523 82.8656 13.5725 82.8656 14.7999V16.2251H85.6893V18.4949H82.9183V30.1081H80.0541Z" fill="black"/>
<path d="M70.4337 30.3853C66.4484 30.3853 63.8486 27.6271 63.8486 23.1666V23.1402C63.8486 18.7061 66.4748 15.9612 70.4209 15.9612C74.3796 15.9612 77.0188 18.6929 77.0188 23.1402V23.1666C77.0188 27.6403 74.406 30.3853 70.4337 30.3853ZM70.4472 27.9966C72.6769 27.9966 74.1026 26.2282 74.1026 23.1666V23.1402C74.1026 20.1049 72.6506 18.3498 70.4209 18.3498C68.2296 18.3498 66.7651 20.1049 66.7651 23.1402V23.1666C66.7651 26.2414 68.2168 27.9966 70.4472 27.9966Z" fill="black"/>
<path d="M55.6799 30.3853C51.6945 30.3853 49.0947 27.6271 49.0947 23.1666V23.1402C49.0947 18.7061 51.7209 15.9612 55.6667 15.9612C59.6257 15.9612 62.2651 18.6929 62.2651 23.1402V23.1666C62.2651 27.6403 59.6522 30.3853 55.6799 30.3853ZM55.6931 27.9966C57.9234 27.9966 59.3486 26.2282 59.3486 23.1666V23.1402C59.3486 20.1049 57.897 18.3498 55.6667 18.3498C53.476 18.3498 52.0112 20.1049 52.0112 23.1402V23.1666C52.0112 26.2414 53.4628 27.9966 55.6931 27.9966Z" fill="black"/>
<path d="M39.5139 30.3853C35.9771 30.3853 33.7073 27.5875 33.7073 23.1666V23.1534C33.7073 18.7325 36.0036 15.9612 39.4875 15.9612C41.4538 15.9612 43.0374 16.9509 43.8688 18.5873H43.9216V11.0652H46.7853V30.1081H43.9216V27.7591H43.8688C43.0374 29.3823 41.5066 30.3853 39.5139 30.3853ZM40.2661 27.9306C42.4171 27.9306 43.9348 26.0567 43.9348 23.1666V23.1534C43.9348 20.2765 42.404 18.4026 40.2661 18.4026C38.0226 18.4026 36.6238 20.2237 36.6238 23.1534V23.1666C36.6238 26.1227 38.0094 27.9306 40.2661 27.9306Z" fill="black"/>
</g>
<defs>
<clipPath id="clip0_1344_1229">
<rect width="100" height="44" fill="white"/>
</clipPath>
</defs>
</svg>
