<svg width="92" height="24" viewBox="0 0 92 24" fill="none" xmlns="http://www.w3.org/2000/svg">
<g clip-path="url(#clip0_131_84)">
<mask id="mask0_131_84" style="mask-type:luminance" maskUnits="userSpaceOnUse" x="0" y="0" width="92" height="24">
<path d="M91.5685 0H0.480469V24H91.5685V0Z" fill="white"/>
</mask>
<g mask="url(#mask0_131_84)">
<path d="M10.5159 0H0.480469V24L10.5159 0Z" fill="white"/>
<path d="M17.5767 0H27.599V24L17.5767 0Z" fill="white"/>
<path d="M14.0462 8.8457L20.4336 24.0002H16.2429L14.3339 19.1753H9.65942L14.0462 8.8457Z" fill="white"/>
<path d="M43.971 15.2628L45.1543 18.6559C45.1935 18.7409 45.2524 18.7801 45.357 18.7801H47.6321C47.7563 18.7801 47.7759 18.7213 47.7563 18.5971L43.0557 5.54121C43.0361 5.43661 43.0165 5.41699 42.9119 5.41699H40.0876C40.0091 5.41699 39.9633 5.47583 39.9633 5.56082C39.9241 6.24728 39.8653 6.45649 39.7803 6.65916L35.5896 18.5774C35.57 18.7213 35.6158 18.7801 35.7334 18.7801H37.7667C37.8909 18.7801 37.9497 18.7409 37.9955 18.6167L39.1134 15.2628H43.971ZM39.7607 13.0465C40.3752 11.1898 41.1859 8.81007 41.5128 7.45023H41.5324C41.9377 8.87545 42.8922 11.6997 43.3237 13.0465H39.7607Z" fill="white"/>
<path d="M53.7992 18.9826C55.0218 18.9826 56.3228 18.7603 57.6434 18.1915C57.748 18.1523 57.7676 18.1065 57.7676 18.0084C57.7284 17.6423 57.6827 17.1128 57.6827 16.7074V4.41651C57.6827 4.33806 57.6827 4.29883 57.5846 4.29883H55.3683C55.2833 4.29883 55.2441 4.33806 55.2441 4.44266V8.60719C54.8976 8.56796 54.6557 8.54835 54.368 8.54835C50.7919 8.54835 48.5952 10.9085 48.5952 13.857C48.5952 17.2762 50.8507 18.9826 53.7992 18.9826ZM55.2441 16.7074C54.878 16.8251 54.4726 16.8709 54.0608 16.8709C52.4394 16.8709 51.1122 15.9556 51.1122 13.7328C51.1122 11.7649 52.4786 10.6012 54.2896 10.6012C54.6557 10.6012 54.976 10.6404 55.2441 10.745V16.7074Z" fill="white"/>
<path d="M64.8382 8.54834C61.785 8.54834 59.8956 10.8888 59.8956 13.7785C59.8956 16.3609 61.3993 18.9826 64.7924 18.9826C67.6625 18.9826 69.6761 16.8709 69.6761 13.7131C69.6761 10.9281 67.9697 8.54834 64.8382 8.54834ZM64.7139 10.6012C66.4399 10.6012 67.1721 12.0853 67.1721 13.7785C67.1721 15.8706 66.0934 16.9101 64.8382 16.9101C63.2887 16.9101 62.3734 15.6091 62.3734 13.7328C62.3734 11.8041 63.3476 10.6012 64.7139 10.6012Z" fill="white"/>
<path d="M71.9673 4.29883C71.8823 4.29883 71.8235 4.33806 71.8235 4.44266V18.3549C71.8235 18.4138 71.8823 18.5184 71.9673 18.538C72.9414 18.8387 73.9613 18.9826 75.0139 18.9826C78.0278 18.9826 80.9567 17.1128 80.9567 13.347C80.9567 10.6208 79.0869 8.54835 76.158 8.54835C75.4846 8.54835 74.857 8.65296 74.3078 8.83601L74.2817 4.46227C74.2817 4.31844 74.2424 4.29883 74.0986 4.29883H71.9673ZM78.4527 13.5955C78.4527 15.851 76.9098 16.9101 75.2427 16.9101C74.8962 16.9101 74.5889 16.8905 74.3078 16.8055V10.8692C74.6282 10.745 75.0139 10.6404 75.7265 10.6404C77.3348 10.6404 78.4527 11.6603 78.4527 13.5955Z" fill="white"/>
<path d="M89.2279 14.3277C90.2217 14.3277 91.0389 14.3081 91.32 14.2427C91.4246 14.2231 91.4638 14.1839 91.4834 14.0989C91.5423 13.8766 91.5684 13.4124 91.5684 12.8436C91.5684 10.9085 90.4047 8.54834 87.3974 8.54834C84.3246 8.54834 82.6183 11.0523 82.6183 13.8766C82.6183 16.3805 83.9389 18.9826 87.6393 18.9826C89.0253 18.9826 89.9209 18.7603 90.6924 18.3942C90.7708 18.3549 90.8101 18.2896 90.8101 18.1719V16.4786C90.8101 16.3805 90.7512 16.3609 90.6924 16.4002C89.9209 16.727 89.0841 16.8905 88.1688 16.8905C86.0964 16.8905 85.1549 15.7464 85.0961 14.3277H89.2279ZM85.0961 12.5756C85.2595 11.5818 85.8871 10.5031 87.2928 10.5031C88.8422 10.5031 89.2475 11.8041 89.2475 12.3925C89.2475 12.4121 89.2475 12.4971 89.2475 12.556C89.1625 12.5756 88.901 12.5756 88.1296 12.5756H85.0961Z" fill="white"/>
</g>
</g>
<defs>
<clipPath id="clip0_131_84">
<rect width="92" height="24" fill="white"/>
</clipPath>
</defs>
</svg>
