<svg width="78" height="36" viewBox="0 0 78 36" fill="none" xmlns="http://www.w3.org/2000/svg">
<mask id="mask0_131_133" style="mask-type:luminance" maskUnits="userSpaceOnUse" x="0" y="11" width="77" height="24">
<path d="M76.8035 11.5H0.600159V34.5H76.8035V11.5Z" fill="white"/>
</mask>
<g mask="url(#mask0_131_133)">
<path d="M47.8647 29.4684C43.4417 32.7285 37.0308 34.4679 31.5111 34.4679C23.7717 34.4679 16.8042 31.6053 11.5331 26.8444C11.1189 26.47 11.49 25.9598 11.9869 26.2513C17.6756 29.5612 24.7093 31.5523 31.975 31.5523C36.8751 31.5523 42.2655 30.5385 47.2219 28.4347C47.9707 28.1166 48.5969 28.925 47.8647 29.4684Z" fill="white"/>
<path d="M49.7035 27.3647C49.1403 26.6424 45.9663 27.0234 44.5417 27.1924C44.1076 27.2454 44.0414 26.8677 44.4323 26.596C46.9602 24.8169 51.1082 25.3304 51.592 25.9268C52.0757 26.5265 51.4661 30.6844 49.0906 32.669C48.7261 32.9738 48.3782 32.8114 48.5406 32.4072C49.074 31.0754 50.27 28.0903 49.7035 27.3647Z" fill="white"/>
<path d="M44.641 14.0359V12.3065C44.641 12.0447 44.8398 11.8691 45.0784 11.8691H52.8211C53.0696 11.8691 53.2684 12.048 53.2684 12.3065V13.7874C53.2651 14.0359 53.0564 14.3606 52.6853 14.8741L48.6731 20.6025C50.164 20.5661 51.7377 20.7881 53.0895 21.5501C53.3943 21.7224 53.4771 21.9741 53.5003 22.2226V24.068C53.5003 24.3198 53.222 24.6147 52.9305 24.4623C50.5483 23.2133 47.3843 23.0774 44.7504 24.4756C44.482 24.6213 44.2004 24.3298 44.2004 24.078V22.3253C44.2004 22.0437 44.2037 21.5633 44.4853 21.1359L49.1336 14.4699H45.0883C44.8398 14.4699 44.641 14.2943 44.641 14.0359Z" fill="white"/>
<path d="M16.3967 24.8266H14.0411C13.8158 24.81 13.6369 24.641 13.6203 24.4257V12.3361C13.6203 12.0942 13.8224 11.9021 14.0742 11.9021H16.2708C16.4994 11.912 16.6816 12.0876 16.6982 12.3063V13.8866H16.7413C17.3144 12.3593 18.3912 11.647 19.8423 11.647C21.3167 11.647 22.2377 12.3593 22.9004 13.8866C23.4702 12.3593 24.7656 11.647 26.1538 11.647C27.1411 11.647 28.2212 12.0545 28.8805 12.9689C29.626 13.986 29.4736 15.4637 29.4736 16.7591L29.4703 24.3892C29.4703 24.6311 29.2682 24.8266 29.0164 24.8266H26.6641C26.4288 24.81 26.24 24.6211 26.24 24.3892V17.9817C26.24 17.4714 26.2864 16.1992 26.1737 15.7155C25.9981 14.9038 25.4713 14.6752 24.7888 14.6752C24.219 14.6752 23.6226 15.0562 23.3808 15.6658C23.1389 16.2754 23.1621 17.2958 23.1621 17.9817V24.3892C23.1621 24.6311 22.96 24.8266 22.7082 24.8266H20.3559C20.1173 24.81 19.9318 24.6211 19.9318 24.3892L19.9285 17.9817C19.9285 16.6332 20.1505 14.6487 18.4773 14.6487C16.7843 14.6487 16.8506 16.5835 16.8506 17.9817V24.3892C16.8506 24.6311 16.6485 24.8266 16.3967 24.8266Z" fill="white"/>
<path d="M59.9344 11.647C63.4297 11.647 65.3215 14.6487 65.3215 18.4654C65.3215 22.1529 63.2309 25.0784 59.9344 25.0784C56.502 25.0784 54.6334 22.0767 54.6334 18.3362C54.6334 14.5725 56.5252 11.647 59.9344 11.647ZM59.9543 14.1152C58.2182 14.1152 58.1089 16.4808 58.1089 17.9552C58.1089 19.4328 58.0857 22.5869 59.9344 22.5869C61.7599 22.5869 61.8461 20.0424 61.8461 18.4919C61.8461 17.4714 61.803 16.2522 61.4949 15.2848C61.2298 14.4432 60.703 14.1152 59.9543 14.1152Z" fill="white"/>
<path d="M69.8539 24.8266H67.5082C67.2729 24.81 67.0841 24.6211 67.0841 24.3892L67.0808 12.2963C67.1007 12.0744 67.2961 11.9021 67.5347 11.9021H69.718C69.9234 11.912 70.0924 12.0512 70.1388 12.24V14.0887H70.1819C70.8412 12.4355 71.7655 11.647 73.3923 11.647C74.4491 11.647 75.4795 12.028 76.1422 13.0716C76.7584 14.039 76.7584 15.6658 76.7584 16.8353V24.4455C76.7319 24.6576 76.5364 24.8266 76.3045 24.8266H73.9422C73.7269 24.81 73.548 24.651 73.5248 24.4455V17.8789C73.5248 16.557 73.6772 14.6222 72.0505 14.6222C71.4773 14.6222 70.9505 15.0065 70.6888 15.5896C70.3574 16.3284 70.3144 17.0639 70.3144 17.8789V24.3892C70.3111 24.6311 70.1057 24.8266 69.8539 24.8266Z" fill="white"/>
<path d="M38.4687 19.052V18.5418C36.7657 18.5418 34.9667 18.9063 34.9667 20.914C34.9667 21.9311 35.4935 22.6203 36.398 22.6203C37.0606 22.6203 37.6537 22.2127 38.028 21.5501C38.4919 20.7351 38.4687 19.9698 38.4687 19.052ZM40.8442 24.7937C40.6885 24.9328 40.4632 24.9428 40.2876 24.85C39.5057 24.2006 39.3665 23.8991 38.9358 23.2796C37.6437 24.5982 36.7293 24.9924 35.0529 24.9924C33.0716 24.9924 31.5277 23.7699 31.5277 21.3215C31.5277 19.4098 32.5647 18.1078 34.0391 17.4717C35.3179 16.9084 37.1037 16.809 38.4687 16.6533V16.3485C38.4687 15.7886 38.5118 15.126 38.1838 14.6423C37.8955 14.2082 37.3455 14.0293 36.8618 14.0293C35.964 14.0293 35.1622 14.4899 34.9667 15.444C34.927 15.6561 34.7713 15.8648 34.5592 15.8747L32.2732 15.6296C32.081 15.5865 31.869 15.4308 31.922 15.1359C32.4488 12.3662 34.9502 11.5312 37.1898 11.5312C38.3362 11.5312 39.8337 11.8361 40.7382 12.7041C41.8845 13.7742 41.7752 15.2022 41.7752 16.756V20.427C41.7752 21.5302 42.2324 22.014 42.6631 22.6103C42.8155 22.8224 42.8486 23.0775 42.6565 23.2365C42.1761 23.6374 41.3213 24.3828 40.8508 24.8003L40.8442 24.7937Z" fill="white"/>
<path d="M7.58713 19.052V18.5418C5.88419 18.5418 4.08516 18.9063 4.08516 20.914C4.08516 21.9311 4.61195 22.6203 5.51643 22.6203C6.17905 22.6203 6.7721 22.2127 7.14648 21.5501C7.61032 20.7351 7.58713 19.9698 7.58713 19.052ZM9.96263 24.7937C9.80692 24.9328 9.58162 24.9428 9.40603 24.85C8.62413 24.2006 8.48498 23.8991 8.05428 23.2796C6.76216 24.5982 5.84774 24.9924 4.1713 24.9924C2.19006 24.9924 0.646149 23.7699 0.646149 21.3215C0.646149 19.4098 1.68315 18.1078 3.15749 17.4717C4.43635 16.9084 6.22212 16.809 7.58713 16.6533V16.3485C7.58713 15.7886 7.6302 15.126 7.3022 14.6423C7.01396 14.2082 6.46398 14.0293 5.98027 14.0293C5.08241 14.0293 4.28064 14.4899 4.08516 15.444C4.04541 15.6561 3.88969 15.8648 3.67765 15.8747L1.3916 15.6296C1.19944 15.5865 0.987399 15.4308 1.04041 15.1359C1.56719 12.3662 4.0686 11.5312 6.30827 11.5312C7.4546 11.5312 8.95213 11.8361 9.85661 12.7041C11.003 13.7742 10.8936 15.2022 10.8936 16.756V20.427C10.8936 21.5302 11.3508 22.014 11.7815 22.6103C11.9339 22.8224 11.9671 23.0775 11.7749 23.2365C11.2945 23.6374 10.4397 24.3828 9.96926 24.8003L9.96263 24.7937Z" fill="white"/>
</g>
</svg>
