<svg width="77" height="32" viewBox="0 0 77 32" fill="none" xmlns="http://www.w3.org/2000/svg">
<path d="M65.5454 13.9773C64.2738 14.2707 60.9154 14.4337 60.9154 14.4337L60.5023 15.7597C60.5023 15.7597 62.1653 15.6184 63.3826 15.738C63.3826 15.738 63.7738 15.7054 63.8173 16.1727C63.839 16.651 63.7847 17.1509 63.7847 17.1509C63.7847 17.1509 63.7521 17.4444 63.3499 17.5205C62.8826 17.5966 59.7307 17.7378 59.7307 17.7378L59.2198 19.4551C59.2198 19.4551 59.0351 19.8464 59.4589 19.7377C59.8502 19.629 63.1543 18.9986 63.5891 19.0856C64.0455 19.1943 64.5672 19.8246 64.4151 20.3898C64.2412 21.0745 60.9371 23.1831 58.9372 23.0418C58.9372 23.0418 57.883 23.107 57.0026 21.6832C56.1548 20.3246 57.2961 17.7705 57.2961 17.7705C57.2961 17.7705 56.7852 16.5749 57.1656 16.1401C57.1656 16.1401 57.383 15.9554 58.0351 15.901L58.8503 14.2272C58.8503 14.2272 57.9264 14.2816 57.383 13.6077C56.8831 12.9556 56.8396 12.673 57.2309 12.4991C57.6439 12.2817 61.4697 11.597 64.0999 11.684C64.0999 11.684 65.0237 11.5753 65.8389 13.173C65.8389 13.173 66.2084 13.8251 65.5563 13.9773M55.6331 20.4116C55.3071 21.205 54.405 22.0419 53.3181 21.531C52.2095 21.0093 50.4596 17.4444 50.4596 17.4444C50.4596 17.4444 49.8075 16.1184 49.6771 16.1619C49.6771 16.1619 49.5358 15.901 49.4597 17.3574C49.351 18.803 49.4814 21.618 48.8837 22.0636C48.3402 22.4983 47.6881 22.3136 47.3186 21.8028C47.0142 21.2919 46.8838 20.0638 47.0577 17.9226C47.2534 15.7815 47.7425 13.499 48.362 12.7926C49.0141 12.0752 49.5358 12.5969 49.7314 12.7926C49.7314 12.7926 50.5683 13.5534 51.9813 15.8032L52.2204 16.2162C52.2204 16.2162 53.5029 18.3574 53.6333 18.3465C53.6333 18.3465 53.742 18.4552 53.8289 18.3682C53.9594 18.3356 53.9159 17.64 53.9159 17.64C53.9159 17.64 53.6768 15.325 52.4812 11.4122C52.4812 11.4122 52.3073 10.9123 52.4269 10.4341C52.5356 9.99931 53.0029 10.2167 53.0029 10.2167C53.0029 10.2167 54.8071 11.0862 55.6875 14.0207C56.557 16.9553 55.9701 19.6181 55.644 20.4116M46.786 12.8795C46.6121 13.1838 46.536 13.6077 45.7861 13.7273C45.7861 13.7273 38.504 14.2381 38.1454 14.7489C38.1454 14.7489 37.9062 15.0533 38.2975 15.1293C38.7105 15.2163 40.3626 15.4337 41.1451 15.4771C41.9929 15.4771 44.8405 15.4989 45.8839 16.7814C45.8839 16.7814 46.4817 17.39 46.4599 18.7704C46.4382 20.1833 46.1882 20.6833 45.6339 21.1941C45.0579 21.6723 40.1235 23.8895 36.9389 20.4985C36.9389 20.4985 35.4825 18.8682 37.4498 17.6292C37.4498 17.6292 38.8627 16.7597 42.482 17.7705C42.482 17.7705 43.5689 18.1617 43.5254 18.5639C43.4602 18.9986 42.6233 19.4334 41.406 19.4116C40.2322 19.379 39.3627 18.8138 39.5366 18.9117C39.6996 18.966 38.2649 18.2161 37.8193 18.7269C37.3845 19.2051 37.4932 19.4877 37.928 19.7812C39.0149 20.4116 43.2863 20.1833 44.5579 18.7595C44.5579 18.7595 45.0687 18.1835 44.2971 17.7161C43.5363 17.2814 41.319 17.0096 40.4604 16.977C39.6452 16.9336 36.5911 16.977 36.1346 16.1836C36.1346 16.1836 35.6999 15.6184 36.1781 14.0751C36.6781 12.4448 40.2322 11.8144 41.7755 11.684C41.7755 11.684 46.0143 11.5101 46.8077 12.3796C46.8077 12.3796 46.9164 12.5752 46.786 12.8687M34.7652 22.4331C34.2544 22.8135 33.1675 22.6505 32.8523 22.2158C32.548 21.8354 32.4393 20.3355 32.4936 17.977C32.5697 15.5641 32.6023 12.6078 33.1457 12.1296C33.6892 11.6622 34.0152 12.0752 34.2326 12.3904C34.45 12.7165 34.7326 13.0752 34.7761 13.8251C34.8413 14.5859 35.026 18.4987 35.026 18.4987C35.026 18.4987 35.2651 22.0636 34.7761 22.4331M35.8521 9.71672C34.3522 10.2276 33.3305 10.0645 32.461 9.68411C32.0806 10.3688 31.8524 10.5753 31.5698 10.6188C31.135 10.6623 30.7546 9.9667 30.7003 9.74933C30.6133 9.5863 30.4068 9.29284 30.6568 8.62985C29.809 7.86904 29.7438 6.84738 29.896 6.16265C30.0916 5.35836 31.5263 2.33685 35.8738 1.97818C35.8738 1.97818 38.0041 1.82602 38.3736 2.95637H38.4388C38.4388 2.95637 40.5039 2.95637 40.4604 4.80405C40.4604 6.65174 38.178 8.95591 35.8521 9.74933M37.7867 4.45625C36.4172 4.67363 34.3087 6.49958 33.2979 8.01033C34.8521 8.29292 37.5693 8.18423 38.7866 5.7279C38.7866 5.7279 39.3627 4.18454 37.7867 4.45625ZM31.7763 5.65182C31.3415 6.35828 31.3198 6.78216 31.5263 7.06475C32.0371 6.30394 32.9392 5.10838 34.2978 4.17367C33.2544 4.28236 32.3741 4.7171 31.7763 5.65182ZM68.8061 22.3571C67.8061 24.8134 66.9584 27.3023 66.4693 31.0303C66.4693 31.0303 66.3606 31.7585 65.7628 31.5194C65.165 31.302 64.1868 30.3238 63.9695 28.9435C63.7521 27.1393 64.5564 24.0961 66.1976 20.5963C65.7193 19.8355 65.3824 18.7052 65.6541 17.1183C65.6541 17.1183 66.0889 14.1838 69.0234 11.5318C69.0234 11.5318 69.3712 11.2383 69.5669 11.3362C69.806 11.4448 69.7082 12.3796 69.5125 12.8578C69.3386 13.3143 68.0344 15.575 68.0344 15.575C68.0344 15.575 67.2192 17.1183 67.4475 18.3248C68.9908 15.9554 72.5014 11.1514 74.6752 12.673C76.0555 13.6512 76.0555 16.8031 75.023 18.6291C74.2078 20.0746 71.9036 23.0635 68.8278 22.3679M73.3492 14.9772C72.5449 15.8467 71.1102 17.4987 69.9799 19.7377C71.1754 19.6073 72.3384 18.9443 72.6971 18.6073C73.2731 18.0965 74.5991 16.7162 74.3926 14.8902C74.3926 14.8902 74.2622 13.9338 73.3492 14.9772ZM24.6573 23.6396C20.8097 24.8134 17.1796 24.27 15.2015 23.7483C15.1471 24.5525 15.0602 24.8895 14.9297 25.0199C14.7776 25.1938 13.5168 25.9111 12.8212 24.8895C12.5169 24.4004 12.3647 23.52 12.2778 22.7157C7.8216 20.6941 5.75654 17.7161 5.69133 17.6074C5.58264 17.4987 4.57185 16.4445 5.58264 15.1402C6.52822 13.9664 9.65841 12.7817 12.4625 12.3143C12.5712 9.92323 12.8321 8.07554 13.169 7.26039C13.5712 6.2822 14.082 7.1517 14.5385 7.80382C14.908 8.29292 15.1363 10.3906 15.158 12.0644C16.9839 11.9774 18.0925 12.1078 20.125 12.4991C22.7987 12.9556 24.5812 14.3251 24.4399 15.8684C24.3095 17.39 22.9183 18.0204 22.3748 18.0639C21.8314 18.1074 20.9619 17.7052 20.9619 17.7052C20.3532 17.4227 20.9076 17.1618 21.614 16.8575C22.3966 16.4771 22.2227 16.0967 22.2227 16.0967C21.9401 15.2272 18.473 14.6511 15.0276 14.6511C15.0276 16.5532 15.1036 19.7051 15.158 21.5419C17.5709 21.9984 19.3751 21.9006 19.3751 21.9006C19.3751 21.9006 28.1787 21.6506 28.4287 16.0315C28.7004 10.4015 19.625 5.01056 12.9408 3.31504C6.26737 1.56517 2.48505 2.80421 2.15899 2.96724C1.80032 3.14114 2.12638 3.20635 2.12638 3.20635C2.12638 3.20635 2.48505 3.26069 3.13717 3.47807C3.7893 3.69544 3.2676 4.02151 3.2676 4.02151C2.12638 4.41278 0.854741 4.18454 0.60476 3.66284C0.354779 3.15201 0.767791 2.68465 1.25688 1.99992C1.71337 1.29345 2.23507 1.31519 2.23507 1.31519C10.4953 -1.56502 20.5815 3.59762 20.5815 3.59762C30.0155 8.35813 31.6241 13.9555 31.4502 16.1293C31.2981 18.2704 30.472 21.8897 24.6573 23.6504M6.50648 15.8684C5.57177 16.3032 6.22389 16.9988 6.22389 16.9988C7.98463 18.8791 10.1366 20.0638 12.2017 20.8028C12.4408 17.5422 12.4191 16.3793 12.4191 14.7381C9.22366 14.9554 7.37598 15.4771 6.50648 15.8684Z" fill="white"/>
</svg>
