<svg width="100" height="44" viewBox="0 0 100 44" fill="none" xmlns="http://www.w3.org/2000/svg">
<g clip-path="url(#clip0_406_975)">
<path d="M14.8649 36.865C23.0745 36.865 29.7297 30.2098 29.7297 22.0001C29.7297 13.7905 23.0745 7.13525 14.8649 7.13525C6.65523 7.13525 0 13.7905 0 22.0001C0 30.2098 6.65523 36.865 14.8649 36.865Z" fill="white"/>
<mask id="mask0_406_975" style="mask-type:luminance" maskUnits="userSpaceOnUse" x="4" y="11" width="22" height="21">
<path d="M4.1291 11.2642H25.6006V31.9098H4.1291V11.2642Z" fill="white"/>
</mask>
<g mask="url(#mask0_406_975)">
<mask id="mask1_406_975" style="mask-type:luminance" maskUnits="userSpaceOnUse" x="4" y="11" width="22" height="21">
<path d="M4.12891 11.2642H25.6004V31.9098H4.12891V11.2642Z" fill="white"/>
</mask>
<g mask="url(#mask1_406_975)">
<path d="M4.29446 25.2765C4.52914 24.5406 5.32063 22.9303 5.66939 22.4213C5.77831 22.2823 5.85527 22.119 5.89433 21.944C5.94563 21.6809 5.85993 21.566 5.9455 21.4221C6.05462 21.2383 6.32948 21.1975 6.50866 21.2213C6.84561 21.2662 7.0946 21.5731 7.16156 21.8637C7.20014 22.0678 7.17311 22.2795 7.0848 22.4659C6.81487 23.1086 6.37939 24.3036 6.26569 24.9954C6.2191 25.2788 6.04332 26.3477 6.66247 27.0966C7.02494 27.5353 7.53893 27.6886 7.96311 27.7446C7.99116 27.5621 8.03244 27.3822 8.08676 27.2063C8.09757 27.1745 8.10832 27.142 8.11811 27.1088C8.23082 26.7441 8.28805 26.3631 8.28764 25.9797C8.28764 25.9408 8.28703 25.9027 8.28561 25.8646C8.27676 25.539 8.22589 25.2161 8.13426 24.9046L8.13366 24.9018C8.11893 24.8073 8.08426 24.7173 8.03217 24.6385C7.98001 24.5596 7.91176 24.494 7.8323 24.4463C7.75257 24.4007 7.72021 24.4103 7.65812 24.3531C7.6144 24.3123 7.58007 24.2617 7.55771 24.205C7.53872 24.156 7.52893 24.1036 7.52893 24.0507C7.52879 23.9628 7.55602 23.8772 7.60656 23.807C7.62737 23.7781 7.6517 23.7522 7.67893 23.7299C7.72075 23.7037 7.76426 23.6806 7.80926 23.6608C7.9646 23.5913 8.13318 23.5603 8.30183 23.5699C8.47055 23.5796 8.63487 23.6298 8.78197 23.7166C8.93521 23.8509 9.07636 23.9996 9.20352 24.1609C9.70325 24.7885 9.97609 25.5798 9.97426 26.3965C9.97426 26.4806 9.97156 26.5639 9.96622 26.6466L9.97636 26.6423C9.97494 26.6677 9.97426 26.6932 9.97426 26.7192C9.97399 26.871 10.0001 27.0215 10.0514 27.1636C10.1182 27.3511 10.2268 27.5194 10.368 27.6546C10.5092 27.7898 10.6791 27.8882 10.8636 27.9414C11.0482 27.9947 11.2422 28.0015 11.4297 27.9613C11.6173 27.9209 11.793 27.8348 11.9426 27.7097C11.5326 27.6823 11.143 27.5136 10.8347 27.2298C10.6942 27.0961 10.5757 26.9391 10.4839 26.7652C10.5728 26.659 10.6478 26.5411 10.7071 26.4143C10.9999 25.7861 10.8045 25.1389 10.7334 24.9341L10.6421 24.6656L9.85278 23.375L9.63555 23.0199L9.09271 22.1322L8.85764 21.6301C8.41602 20.6026 8.20366 19.4835 8.23676 18.3576C8.35825 14.7391 11.1551 11.3171 14.8626 11.2642H14.8665C18.5739 11.3167 21.3707 14.7389 21.4924 18.357C21.5255 19.483 21.3132 20.6021 20.8715 21.6296L20.6364 22.1319L20.0936 23.0195L19.8764 23.3746L19.087 24.6652L18.9958 24.9337C18.9247 25.1385 18.7292 25.7858 19.0221 26.4139C19.0814 26.5407 19.1564 26.6586 19.2453 26.7648C19.1535 26.9387 19.0349 27.0957 18.8945 27.2294C18.5862 27.5132 18.1965 27.6819 17.7866 27.7093C17.9649 27.8581 18.1799 27.9513 18.4066 27.978C18.6333 28.0048 18.8627 27.9641 19.0683 27.8607C19.2739 27.7571 19.4474 27.5951 19.5689 27.3932C19.6903 27.1911 19.7548 26.9574 19.7549 26.7188C19.7549 26.6926 19.7543 26.6673 19.7528 26.6419L19.763 26.6462C19.7576 26.5636 19.7549 26.4802 19.7549 26.3961C19.753 25.5794 20.0259 24.7881 20.5256 24.1605C20.6528 23.9992 20.7939 23.8505 20.9472 23.7162C21.0943 23.6294 21.2586 23.5792 21.4273 23.5696C21.596 23.5598 21.7645 23.591 21.9199 23.6604C21.9649 23.6802 22.0085 23.7033 22.0503 23.7295C22.0776 23.7518 22.1018 23.7778 22.1226 23.8066C22.1732 23.8768 22.2004 23.9624 22.2003 24.0503C22.2003 24.1032 22.1905 24.1556 22.1716 24.2046C22.1491 24.2613 22.1148 24.3119 22.0711 24.3527C22.009 24.41 21.9769 24.4003 21.897 24.4459C21.8176 24.4936 21.7493 24.5592 21.6972 24.6381C21.645 24.7169 21.6103 24.8069 21.5957 24.9015L21.5951 24.9042C21.5035 25.2157 21.4526 25.5386 21.4437 25.8642C21.4423 25.9023 21.4417 25.9405 21.4417 25.9794C21.4413 26.3627 21.4985 26.7437 21.6112 27.1084C21.6207 27.1416 21.6315 27.1741 21.6426 27.2059C21.6969 27.3818 21.7382 27.5617 21.7662 27.7442C22.1905 27.6883 22.7044 27.5348 23.0669 27.0962C23.686 26.3471 23.5103 25.2783 23.4637 24.995C23.3499 24.3032 22.9143 23.1082 22.6445 22.4655C22.5562 22.2791 22.5292 22.0674 22.5678 21.8633C22.6345 21.5727 22.8835 21.2659 23.2207 21.2209C23.3999 21.1971 23.6748 21.238 23.7839 21.4217C23.8694 21.5657 23.7839 21.6805 23.8351 21.9436C23.8741 22.1186 23.9511 22.2819 24.0601 22.4209C24.4089 22.9298 25.2003 24.5402 25.435 25.2761C25.8033 26.4305 25.4694 27.5271 25.2814 28.1448C25.1708 28.508 24.3312 31.141 22.1072 31.7136C21.5906 31.843 21.0537 31.8564 20.5318 31.753C21.1121 31.4997 21.5768 31.0225 21.8296 30.4205C22.231 29.4381 21.8729 28.5594 21.8114 28.415L21.8108 28.4163C21.794 29.3061 21.4669 30.159 20.8908 30.8143C20.8908 30.8143 20.8896 30.8171 20.8875 30.8186C20.5885 31.1599 20.2307 31.4392 19.8328 31.6418C19.6577 31.7311 19.4759 31.8048 19.2891 31.8624C19.128 31.8939 18.9645 31.9097 18.8007 31.9096C18.1678 31.9107 17.5563 31.6703 17.0808 31.2336C17.0393 31.1865 16.9969 31.1405 16.9535 31.0953C16.9535 31.0953 16.8966 31.0363 16.8375 30.9793C15.982 30.1571 15.2287 30.0253 15.2287 30.0253C14.9874 29.9835 14.7413 29.9835 14.5001 30.0253C14.5001 30.0253 13.7467 30.1573 12.8916 30.9796C12.8325 31.0364 12.7755 31.0957 12.7755 31.0957C12.7322 31.1408 12.6899 31.1869 12.6484 31.234C12.173 31.6705 11.5618 31.9109 10.9292 31.9101C10.7653 31.9103 10.6019 31.8944 10.4408 31.8629C10.2541 31.8053 10.0722 31.7315 9.8971 31.6424C9.4992 31.4396 9.14136 31.1604 8.84237 30.8191C8.84034 30.8177 8.83906 30.8149 8.83906 30.8149C8.26305 30.1595 7.93589 29.3067 7.9192 28.4168L7.91852 28.4155C7.85697 28.56 7.49906 29.4386 7.90028 30.4209C8.15305 31.023 8.61778 31.5003 9.19811 31.7536C8.67622 31.8569 8.13933 31.8435 7.62271 31.7142C5.39867 31.1416 4.55896 28.5086 4.44853 28.1453C4.26049 27.5278 3.92624 26.4312 4.29446 25.2765ZM15.8033 24.0769C15.8349 24.0769 15.8663 24.0705 15.8955 24.0578C15.9249 24.0451 15.9515 24.0266 15.9739 24.0032C15.9964 23.9798 16.0141 23.952 16.0263 23.9214C16.0384 23.8908 16.0447 23.858 16.0447 23.8248C16.0439 23.7398 16.0592 23.6553 16.0897 23.5765C16.1203 23.4976 16.1655 23.4259 16.2228 23.3654C16.2801 23.3049 16.3483 23.2569 16.4233 23.2241C16.4985 23.1913 16.5791 23.1745 16.6604 23.1745C16.7418 23.1745 16.8224 23.1913 16.8975 23.2241C16.9726 23.2569 17.0408 23.3049 17.098 23.3654C17.1553 23.4259 17.2005 23.4976 17.2311 23.5765C17.2617 23.6553 17.277 23.7398 17.2762 23.8248C17.2762 23.8917 17.3016 23.9559 17.3468 24.0032C17.3921 24.0505 17.4535 24.0771 17.5174 24.0771C17.5814 24.0771 17.6428 24.0505 17.688 24.0032C17.7333 23.9559 17.7587 23.8917 17.7587 23.8248C17.7587 23.5203 17.643 23.2282 17.437 23.0128C17.2311 22.7975 16.9518 22.6765 16.6605 22.6765C16.3692 22.6765 16.0899 22.7975 15.8839 23.0128C15.6779 23.2282 15.5622 23.5203 15.5622 23.8248C15.5622 23.8917 15.5876 23.9558 15.6328 24.003C15.678 24.0503 15.7393 24.0769 15.8033 24.0769ZM12.782 23.181C12.8629 23.1809 12.943 23.1976 13.0178 23.2298C13.0925 23.2622 13.1604 23.3096 13.2176 23.3694C13.2748 23.4292 13.3201 23.5003 13.3511 23.5784C13.382 23.6565 13.3978 23.7403 13.3978 23.8248C13.3978 23.8917 13.4232 23.9559 13.4685 24.0032C13.5137 24.0505 13.5751 24.0771 13.6391 24.0771C13.703 24.0771 13.7644 24.0505 13.8096 24.0032C13.8549 23.9559 13.8803 23.8917 13.8803 23.8248C13.8803 23.5203 13.7646 23.2282 13.5586 23.0128C13.3526 22.7975 13.0733 22.6765 12.782 22.6765C12.4907 22.6765 12.2114 22.7975 12.0055 23.0128C11.7995 23.2282 11.6838 23.5203 11.6838 23.8248C11.6838 23.8917 11.7092 23.9559 11.7545 24.0032C11.7997 24.0505 11.861 24.0771 11.925 24.0771C11.989 24.0771 12.0503 24.0505 12.0956 24.0032C12.1408 23.9559 12.1663 23.8917 12.1663 23.8248C12.1662 23.7403 12.1822 23.6565 12.2131 23.5784C12.244 23.5003 12.2894 23.4293 12.3466 23.3695C12.4037 23.3097 12.4716 23.2623 12.5464 23.23C12.6211 23.1976 12.7012 23.181 12.782 23.181Z" fill="black"/>
</g>
</g>
<path d="M89.5686 34.7402C89.0146 34.7402 88.4207 34.6742 88.0774 34.6083V32.378C88.3024 32.4308 88.6321 32.4835 89.0146 32.4835C90.3605 32.4835 91.0997 32.1273 91.5747 30.7812L91.8125 30.1213L86.7578 16.2251H89.8463L93.3429 27.5216H93.4355L96.9328 16.2251H99.9416L94.7686 30.7548C93.7389 33.6317 92.2875 34.7402 89.5686 34.7402Z" fill="white"/>
<path d="M80.0541 30.1082V18.495H78.1406V16.2251H80.0541V14.7471C80.0541 12.055 81.321 10.7881 84.1454 10.7881C84.7264 10.7881 85.3595 10.8409 85.742 10.9069V13.0183C85.4649 12.9788 85.1089 12.9524 84.7528 12.9524C83.4724 12.9524 82.8656 13.5726 82.8656 14.7999V16.2251H85.6893V18.495H82.9183V30.1082H80.0541Z" fill="white"/>
<path d="M70.4337 30.3851C66.4484 30.3851 63.8486 27.6269 63.8486 23.1664V23.14C63.8486 18.7059 66.4748 15.9609 70.4209 15.9609C74.3796 15.9609 77.0188 18.6927 77.0188 23.14V23.1664C77.0188 27.6401 74.406 30.3851 70.4337 30.3851ZM70.4472 27.9964C72.6769 27.9964 74.1026 26.228 74.1026 23.1664V23.14C74.1026 20.1047 72.6506 18.3496 70.4209 18.3496C68.2296 18.3496 66.7651 20.1047 66.7651 23.14V23.1664C66.7651 26.2412 68.2168 27.9964 70.4472 27.9964Z" fill="white"/>
<path d="M55.6799 30.3851C51.6945 30.3851 49.0947 27.6269 49.0947 23.1664V23.14C49.0947 18.7059 51.7209 15.9609 55.6667 15.9609C59.6257 15.9609 62.2651 18.6927 62.2651 23.14V23.1664C62.2651 27.6401 59.6522 30.3851 55.6799 30.3851ZM55.6931 27.9964C57.9234 27.9964 59.3486 26.228 59.3486 23.1664V23.14C59.3486 20.1047 57.897 18.3496 55.6667 18.3496C53.476 18.3496 52.0112 20.1047 52.0112 23.14V23.1664C52.0112 26.2412 53.4628 27.9964 55.6931 27.9964Z" fill="white"/>
<path d="M39.5137 30.3851C35.9769 30.3851 33.707 27.5873 33.707 23.1664V23.1532C33.707 18.7323 36.0033 15.9609 39.4872 15.9609C41.4536 15.9609 43.0372 16.9507 43.8686 18.5871H43.9214V11.0649H46.7851V30.1079H43.9214V27.7589H43.8686C43.0372 29.3821 41.5064 30.3851 39.5137 30.3851ZM40.2659 27.9304C42.4169 27.9304 43.9345 26.0565 43.9345 23.1664V23.1532C43.9345 20.2763 42.4037 18.4024 40.2659 18.4024C38.0224 18.4024 36.6235 20.2235 36.6235 23.1532V23.1664C36.6235 26.1225 38.0092 27.9304 40.2659 27.9304Z" fill="white"/>
</g>
<defs>
<clipPath id="clip0_406_975">
<rect width="100" height="44" fill="white"/>
</clipPath>
</defs>
</svg>
