<svg width="104" height="26" viewBox="0 0 104 26" fill="none" xmlns="http://www.w3.org/2000/svg">
<path d="M8.32852 4.40598C7.11189 4.40598 6.76014 4.94558 6.76014 6.13574V8.11009H10.0053L9.68006 11.2998H6.7614V20.9799H2.86692V11.2998H0.243286V8.11009H2.86692V6.18995C2.86692 2.9725 4.16424 1.273 7.78388 1.273C8.54235 1.27123 9.30031 1.31624 10.0532 1.4079V4.40976L8.32852 4.40598Z" fill="white"/>
<path d="M10.2751 14.1392C10.2751 10.5436 11.9784 7.83545 15.5476 7.83545C17.4942 7.83545 18.6831 8.83649 19.2517 10.0796V8.11029H22.9823V20.9801H19.2517V19.0335C18.7109 20.2779 17.4942 21.2512 15.5476 21.2512C11.9784 21.2512 10.2751 18.5468 10.2751 14.9474V14.1392ZM14.1684 15.0054C14.1684 16.9242 14.8706 18.1951 16.6823 18.1951C18.2784 18.1951 19.0891 17.0327 19.0891 15.1945V13.9022C19.0891 12.064 18.2784 10.9016 16.6823 10.9016C14.8706 10.9016 14.1684 12.1725 14.1684 14.0913V15.0054Z" fill="white"/>
<path d="M31.094 7.83887C32.6069 7.83887 34.0404 8.16414 34.8246 8.70374L33.9597 11.4623C33.1485 11.076 32.2622 10.8728 31.3638 10.8672C29.2546 10.8672 28.338 12.0838 28.338 14.1666V14.9231C28.338 17.0058 29.2571 18.2225 31.3638 18.2225C32.2622 18.2168 33.1485 18.0137 33.9597 17.6274L34.8246 20.3847C34.0404 20.9255 32.6082 21.2508 31.094 21.2508C26.5238 21.2508 24.4423 18.7898 24.4423 14.8424V14.2473C24.4423 10.2999 26.5238 7.83887 31.094 7.83887Z" fill="white"/>
<path d="M35.3377 15.0369V13.9022C35.3377 10.2523 37.4192 7.85059 41.6654 7.85059C45.6671 7.85059 47.4246 10.2838 47.4246 13.8531V15.9081H39.2297C39.3116 17.6656 40.0958 18.4498 42.2555 18.4498C43.7167 18.4498 45.2573 18.1522 46.3933 17.6656L47.1056 20.3321C46.0781 20.8742 43.9689 21.2789 42.1042 21.2789C37.1759 21.2777 35.3377 18.8192 35.3377 15.0369ZM39.2309 13.3601H43.9361V13.0361C43.9361 11.6303 43.3687 10.5146 41.6667 10.5146C39.908 10.5158 39.2309 11.6253 39.2309 13.3551V13.3601Z" fill="white"/>
<path d="M61.8565 14.951C61.8565 18.5466 60.1268 21.2547 56.5613 21.2547C54.6147 21.2547 53.2632 20.2814 52.7223 19.0371V20.9837H49.046V1.64745L52.9392 1.29443V9.8928C53.5065 8.75812 54.7509 7.83776 56.5626 7.83776C60.1318 7.83776 61.8578 10.5421 61.8578 14.1415L61.8565 14.951ZM57.9633 14.0583C57.9633 12.2466 57.2611 10.8951 55.3951 10.8951C53.799 10.8951 52.9341 12.0298 52.9341 13.8692V15.2208C52.9341 17.0589 53.799 18.1949 55.3951 18.1949C57.2611 18.1949 57.9633 16.8434 57.9633 15.0316V14.0583Z" fill="white"/>
<path d="M63.1589 14.8688V14.2208C63.1589 10.5155 65.2681 7.83887 69.5673 7.83887C73.8665 7.83887 75.977 10.5155 75.977 14.2208V14.8688C75.977 18.573 73.8678 21.2508 69.5686 21.2508C65.2694 21.2508 63.1589 18.573 63.1589 14.8688ZM72.0825 13.9498C72.0825 12.2465 71.379 10.8949 69.561 10.8949C67.743 10.8949 67.0458 12.2465 67.0458 13.9498V15.1399C67.0458 16.8432 67.7493 18.1947 69.561 18.1947C71.3727 18.1947 72.0825 16.8432 72.0825 15.1399V13.9498Z" fill="white"/>
<path d="M77.2718 14.8688V14.2208C77.2718 10.5155 79.381 7.83887 83.6802 7.83887C87.9794 7.83887 90.0886 10.5155 90.0886 14.2208V14.8688C90.0886 18.573 87.9794 21.2508 83.6802 21.2508C79.381 21.2508 77.2718 18.573 77.2718 14.8688ZM86.1954 13.9498C86.1954 12.2465 85.4919 10.8949 83.6802 10.8949C81.8685 10.8949 81.1663 12.2465 81.1663 13.9498V15.1399C81.1663 16.8432 81.8685 18.1947 83.6802 18.1947C85.4919 18.1947 86.1954 16.8432 86.1954 15.1399V13.9498Z" fill="white"/>
<path d="M95.4418 14.2475L99.2808 8.11009H103.417L99.3892 14.4643L103.58 20.9799H99.4434L95.4418 14.6761V20.9799H91.5473V1.64745L95.4418 1.29443V14.2475Z" fill="white"/>
</svg>
