<svg width="36" height="27" viewBox="0 0 36 27" fill="none" xmlns="http://www.w3.org/2000/svg">
<g clip-path="url(#clip0_131_146)">
<path fill-rule="evenodd" clip-rule="evenodd" d="M0.137939 0.557247H5.58377V15.5283C5.58377 17.8976 6.64178 19.3089 7.4784 19.9139C6.59269 20.7204 3.88607 21.4261 1.86843 19.7121C0.6789 18.7019 0.137939 17.0406 0.137939 15.4779V0.557247ZM34.1722 12.9934V11.4201H35.8332V5.90052H34.0092C33.309 2.5867 30.4288 0.103516 26.9843 0.103516C23.0162 0.103516 19.7996 3.39859 19.7996 7.46306V20.3529C20.9301 20.5157 22.2769 20.3327 23.4228 19.3594C24.6121 18.3489 25.1531 16.6878 25.1531 15.1251V14.6502H27.8729V9.13064H25.1531V7.46306H25.1596C25.1596 6.43089 25.9765 5.59413 26.9843 5.59413C27.992 5.59413 28.8121 6.43089 28.8121 7.46306V12.9934C28.8121 17.0579 32.0321 20.3529 36 20.3529V14.8623C34.9924 14.8623 34.1722 14.0256 34.1722 12.9934ZM13.5469 5.90052V14.0011C13.5469 14.4609 13.1744 14.8337 12.7148 14.8337C12.2552 14.8337 11.8827 14.4609 11.8827 14.0011V5.90052H6.49413V15.4276C6.49413 17.1414 7.06154 19.3089 9.64369 20.0146C12.2286 20.7211 13.7281 19.2586 13.7281 19.2586C13.5915 20.2221 12.7056 20.9278 11.2785 21.0791C10.1988 21.1934 8.81794 20.8271 8.12915 20.5246V25.5721C9.88428 26.1022 11.7407 26.2735 13.5574 25.9124C16.8544 25.2571 18.9353 22.4343 18.9353 18.6789V5.90052H13.5469Z" fill="white"/>
</g>
<defs>
<clipPath id="clip0_131_146">
<rect width="36" height="27" fill="white"/>
</clipPath>
</defs>
</svg>
