<svg width="114" height="24" viewBox="0 0 114 24" fill="none" xmlns="http://www.w3.org/2000/svg">
<g clip-path="url(#clip0_131_97)">
<mask id="mask0_131_97" style="mask-type:luminance" maskUnits="userSpaceOnUse" x="0" y="0" width="114" height="24">
<path d="M113.649 0H0.0488281V24H113.649V0Z" fill="white"/>
</mask>
<g mask="url(#mask0_131_97)">
<path d="M47.2924 4.80007V19.2001H44.7687V7.90007H44.7351L40.2261 19.2001H38.5436L33.9336 7.90007H33.9V19.2001H31.5782V4.80007H35.2123L39.3848 15.4667H39.4521L43.8602 4.80007H47.2924ZM49.3787 5.90007C49.3787 5.50007 49.5133 5.16673 49.8161 4.90007C50.1189 4.6334 50.4554 4.50007 50.8592 4.50007C51.2967 4.50007 51.6668 4.6334 51.936 4.90007C52.2052 5.16673 52.3734 5.50007 52.3734 5.90007C52.3734 6.30007 52.2388 6.6334 51.936 6.90007C51.6332 7.16673 51.2967 7.30007 50.8592 7.30007C50.4218 7.30007 50.0853 7.16673 49.8161 6.90007C49.5469 6.60007 49.3787 6.26673 49.3787 5.90007ZM52.1043 8.86673V19.2001H49.6479V8.86673H52.1043ZM59.5407 17.4334C59.9109 17.4334 60.3147 17.3667 60.7521 17.1667C61.1896 17.0001 61.5934 16.7667 61.9635 16.5001V18.7667C61.5597 19.0001 61.1223 19.1667 60.6175 19.2667C60.1128 19.3667 59.5744 19.4334 58.9687 19.4334C57.4208 19.4334 56.1758 18.9667 55.2336 18.0001C54.2578 17.0334 53.7867 15.8001 53.7867 14.3334C53.7867 12.6667 54.2915 11.3001 55.2673 10.2334C56.2431 9.16673 57.6227 8.6334 59.4398 8.6334C59.9109 8.6334 60.382 8.70007 60.8194 8.80007C61.2905 8.90007 61.6606 9.06673 61.9298 9.20007V11.5334C61.5597 11.2667 61.1559 11.0334 60.7858 10.9001C60.382 10.7667 59.9782 10.6667 59.5744 10.6667C58.5986 10.6667 57.8246 10.9667 57.2189 11.6001C56.6133 12.2334 56.3441 13.0667 56.3441 14.1334C56.3441 15.1667 56.6469 16.0001 57.2189 16.5667C57.791 17.1334 58.5649 17.4334 59.5407 17.4334ZM68.9289 8.70007C69.1308 8.70007 69.299 8.70007 69.4673 8.7334C69.6355 8.76673 69.7701 8.80007 69.8711 8.8334V11.3001C69.7365 11.2001 69.5682 11.1001 69.299 11.0334C69.0298 10.9667 68.7607 10.9001 68.3905 10.9001C67.7848 10.9001 67.2801 11.1667 66.8763 11.6667C66.4725 12.1667 66.237 12.9334 66.237 14.0001V19.2001H63.7806V8.86673H66.237V10.5001H66.2706C66.5062 9.9334 66.8426 9.50007 67.2801 9.16673C67.7512 8.86673 68.2896 8.70007 68.9289 8.70007ZM70.0057 14.2001C70.0057 12.5001 70.5104 11.1334 71.4526 10.1334C72.4284 9.1334 73.7744 8.6334 75.4905 8.6334C77.1057 8.6334 78.3843 9.10007 79.2929 10.0667C80.2014 11.0334 80.6725 12.3334 80.6725 13.9667C80.6725 15.6334 80.1678 16.9667 79.2256 17.9667C78.2498 18.9667 76.9374 19.4667 75.255 19.4667C73.6398 19.4667 72.3611 19.0001 71.4189 18.0667C70.4768 17.1001 70.0057 15.8001 70.0057 14.2001ZM72.563 14.1001C72.563 15.1667 72.7986 16.0001 73.3033 16.5667C73.808 17.1334 74.5147 17.4334 75.4232 17.4334C76.2981 17.4334 77.0047 17.1667 77.4758 16.5667C77.9469 16.0001 78.1825 15.1667 78.1825 14.0334C78.1825 12.9334 77.9469 12.1001 77.4758 11.5001C77.0047 10.9334 76.2981 10.6334 75.4569 10.6334C74.5483 10.6334 73.8753 10.9334 73.3706 11.5334C72.7986 12.1667 72.563 13.0001 72.563 14.1001ZM84.3403 11.6001C84.3403 11.9334 84.4412 12.2334 84.6768 12.4334C84.9123 12.6334 85.3834 12.8667 86.1573 13.1667C87.1332 13.5667 87.8398 14.0001 88.2099 14.4667C88.6137 14.9667 88.8156 15.5334 88.8156 16.2334C88.8156 17.2001 88.4455 17.9667 87.6716 18.5667C86.9313 19.1667 85.8881 19.4334 84.6095 19.4334C84.172 19.4334 83.7009 19.3667 83.1625 19.2667C82.6242 19.1667 82.1867 19.0334 81.8166 18.8667V16.4667C82.254 16.7667 82.7588 17.0334 83.2635 17.2001C83.7682 17.3667 84.2393 17.4667 84.6768 17.4667C85.2152 17.4667 85.6526 17.4001 85.8881 17.2334C86.1573 17.0667 86.2919 16.8334 86.2919 16.4667C86.2919 16.1334 86.1573 15.8667 85.8881 15.6001C85.6189 15.3667 85.0806 15.1001 84.3403 14.8001C83.4317 14.4334 82.7924 14.0001 82.4223 13.5334C82.0521 13.0667 81.8502 12.4667 81.8502 11.7334C81.8502 10.8001 82.2204 10.0334 82.9607 9.4334C83.7009 8.8334 84.6768 8.5334 85.8545 8.5334C86.2246 8.5334 86.6284 8.56673 87.0659 8.66673C87.5033 8.76673 87.9071 8.86673 88.2099 8.96673V11.3334C87.8734 11.1334 87.5033 10.9334 87.0659 10.7667C86.6284 10.6001 86.191 10.5334 85.7872 10.5334C85.3161 10.5334 84.946 10.6334 84.7104 10.8001C84.4749 11.0334 84.3403 11.2667 84.3403 11.6001ZM89.8588 14.2001C89.8588 12.5001 90.3635 11.1334 91.3057 10.1334C92.2815 9.1334 93.6275 8.6334 95.3436 8.6334C96.9588 8.6334 98.2374 9.10007 99.146 10.0667C100.054 11.0334 100.526 12.3334 100.526 13.9667C100.526 15.6334 100.021 16.9667 99.0787 17.9667C98.1028 18.9667 96.7905 19.4667 95.108 19.4667C93.4929 19.4667 92.2142 19.0001 91.272 18.0667C90.3635 17.1001 89.8588 15.8001 89.8588 14.2001ZM92.4161 14.1001C92.4161 15.1667 92.6517 16.0001 93.1564 16.5667C93.6611 17.1334 94.3678 17.4334 95.2763 17.4334C96.1512 17.4334 96.8578 17.1667 97.3289 16.5667C97.8 16.0001 98.0355 15.1667 98.0355 14.0334C98.0355 12.9334 97.8 12.1001 97.3289 11.5001C96.8578 10.9334 96.1512 10.6334 95.3099 10.6334C94.4014 10.6334 93.7284 10.9334 93.2237 11.5334C92.6853 12.1667 92.4161 13.0001 92.4161 14.1001ZM108.702 10.8667H105.035V19.2001H102.545V10.8667H100.795V8.86673H102.545V7.4334C102.545 6.36673 102.915 5.46673 103.621 4.76673C104.328 4.06673 105.236 3.7334 106.347 3.7334C106.65 3.7334 106.919 3.76673 107.154 3.76673C107.39 3.76673 107.592 3.8334 107.76 3.90007V6.00007C107.693 5.96673 107.525 5.90007 107.323 5.8334C107.121 5.76673 106.885 5.7334 106.616 5.7334C106.111 5.7334 105.708 5.90007 105.438 6.20007C105.169 6.50007 105.035 7.00007 105.035 7.60007V8.8334H108.702V6.50007L111.159 5.76673V8.8334H113.649V10.8334H111.159V15.6667C111.159 16.3001 111.293 16.7334 111.495 17.0001C111.731 17.2667 112.101 17.4001 112.606 17.4001C112.74 17.4001 112.909 17.3667 113.11 17.3001C113.312 17.2334 113.481 17.1667 113.615 17.0667V19.0667C113.447 19.1667 113.211 19.2334 112.841 19.3001C112.471 19.3667 112.135 19.4001 111.764 19.4001C110.721 19.4001 109.947 19.1334 109.443 18.6001C108.938 18.0667 108.669 17.2334 108.669 16.1334L108.702 10.8667Z" fill="white"/>
<path d="M11.0488 0H0.0488281V11H11.0488V0Z" fill="white"/>
<path d="M24.0488 0H13.0488V11H24.0488V0Z" fill="white"/>
<path d="M11.0488 13H0.0488281V24H11.0488V13Z" fill="white"/>
<path d="M24.0488 13H13.0488V24H24.0488V13Z" fill="white"/>
</g>
</g>
<defs>
<clipPath id="clip0_131_97">
<rect width="114" height="24" fill="white"/>
</clipPath>
</defs>
</svg>
