<svg width="124" height="30" viewBox="0 0 124 30" fill="none" xmlns="http://www.w3.org/2000/svg">
<path d="M34.7441 23.0002H37.2741V16.3302H41.5981C44.7031 16.3302 46.9801 14.9042 46.9801 11.4542C46.9801 8.00418 44.7031 6.55518 41.5981 6.55518H34.7441V23.0002ZM37.2741 14.1452V8.74018H41.4831C43.3921 8.74018 44.3581 9.59118 44.3581 11.4542C44.3581 13.2942 43.3921 14.1452 41.4831 14.1452H37.2741ZM51.3652 23.3222C53.2742 23.3222 54.6082 22.5632 55.3672 21.3442H55.4132C55.5512 22.6782 56.1492 23.1152 57.2762 23.1152C57.6442 23.1152 58.0352 23.0692 58.4262 22.9772V21.5972C58.2882 21.6202 58.2192 21.6202 58.1502 21.6202C57.7132 21.6202 57.5982 21.1832 57.5982 20.3322V14.9502C57.5982 11.9142 55.6662 10.9022 53.2512 10.9022C49.6632 10.9022 48.1912 12.6732 48.0762 14.9272H50.3762C50.4912 13.3632 51.1122 12.7192 53.1592 12.7192C54.8842 12.7192 55.3902 13.4322 55.3902 14.2832C55.3902 15.4332 54.2632 15.6632 52.4232 16.0082C49.5022 16.5602 47.5242 17.3422 47.5242 19.9642C47.5242 21.9652 49.0192 23.3222 51.3652 23.3222ZM49.8702 19.8032C49.8702 18.5842 50.7442 18.0092 52.8142 17.5952C54.0102 17.3422 55.0222 17.0892 55.3902 16.7442V18.4232C55.3902 20.4702 53.8952 21.5052 51.8712 21.5052C50.4682 21.5052 49.8702 20.9072 49.8702 19.8032ZM61.4996 27.1172C63.3166 27.1172 64.4436 26.1742 65.5706 23.2762L70.2166 11.2702H67.8476L64.6276 20.2402H64.5816L61.1546 11.2702H58.6936L63.4316 22.8852C62.9716 24.7252 61.9136 25.1852 61.0166 25.1852C60.6486 25.1852 60.4416 25.1622 60.0506 25.1162V26.9562C60.6486 27.0712 60.9936 27.1172 61.4996 27.1172ZM71.5939 23.0002H73.8479V6.55518H71.5939V23.0002ZM81.622 23.3452C85.279 23.3452 87.487 20.7922 87.487 17.1122C87.487 13.4552 85.279 10.9022 81.645 10.9022C77.965 10.9022 75.757 13.4782 75.757 17.1352C75.757 20.8152 77.965 23.3452 81.622 23.3452ZM78.103 17.1352C78.103 14.6742 79.207 12.7882 81.645 12.7882C84.037 12.7882 85.141 14.6742 85.141 17.1352C85.141 19.5732 84.037 21.4822 81.645 21.4822C79.207 21.4822 78.103 19.5732 78.103 17.1352ZM92.6484 23.3222C94.5574 23.3222 95.8914 22.5632 96.6504 21.3442H96.6964C96.8344 22.6782 97.4324 23.1152 98.5594 23.1152C98.9274 23.1152 99.3184 23.0692 99.7094 22.9772V21.5972C99.5714 21.6202 99.5024 21.6202 99.4334 21.6202C98.9964 21.6202 98.8814 21.1832 98.8814 20.3322V14.9502C98.8814 11.9142 96.9494 10.9022 94.5344 10.9022C90.9464 10.9022 89.4744 12.6732 89.3594 14.9272H91.6594C91.7744 13.3632 92.3954 12.7192 94.4424 12.7192C96.1674 12.7192 96.6734 13.4322 96.6734 14.2832C96.6734 15.4332 95.5464 15.6632 93.7064 16.0082C90.7854 16.5602 88.8074 17.3422 88.8074 19.9642C88.8074 21.9652 90.3024 23.3222 92.6484 23.3222ZM91.1534 19.8032C91.1534 18.5842 92.0274 18.0092 94.0974 17.5952C95.2934 17.3422 96.3054 17.0892 96.6734 16.7442V18.4232C96.6734 20.4702 95.1784 21.5052 93.1544 21.5052C91.7514 21.5052 91.1534 20.9072 91.1534 19.8032ZM106.181 23.3222C108.021 23.3222 109.148 22.4482 109.792 21.6202H109.838V23.0002H112.092V6.55518H109.838V12.6962H109.792C109.148 11.7762 108.021 10.9252 106.181 10.9252C103.191 10.9252 100.914 13.2712 100.914 17.1352C100.914 20.9992 103.191 23.3222 106.181 23.3222ZM103.26 17.1352C103.26 14.8352 104.341 12.8112 106.549 12.8112C108.573 12.8112 109.815 14.4672 109.815 17.1352C109.815 19.7802 108.573 21.4592 106.549 21.4592C104.341 21.4592 103.26 19.4352 103.26 17.1352Z" fill="white"/>
<mask id="mask0_406_961" style="mask-type:luminance" maskUnits="userSpaceOnUse" x="0" y="0" width="26" height="29">
<path d="M26 0.685547H0V28.6855H26V0.685547Z" fill="white"/>
</mask>
<g mask="url(#mask0_406_961)">
<mask id="mask1_406_961" style="mask-type:luminance" maskUnits="userSpaceOnUse" x="3" y="0" width="20" height="26">
<path d="M22.0994 0.685547H3.89941V25.8855H22.0994V0.685547Z" fill="white"/>
</mask>
<g mask="url(#mask1_406_961)">
<path d="M12.2455 2.33838L22.2862 8.83812V21.1751L14.7256 25.8854V13.5484L4.67285 7.05725L12.2455 2.33838Z" fill="white"/>
<path d="M11.476 25.2012V15.5742L3.89941 20.2931L11.476 25.2012Z" fill="white"/>
</g>
</g>
</svg>
