<svg width="101" height="32" viewBox="0 0 101 32" fill="none" xmlns="http://www.w3.org/2000/svg">
<mask id="mask0_131_116" style="mask-type:luminance" maskUnits="userSpaceOnUse" x="0" y="0" width="100" height="28">
<path d="M99.829 0H0.829041V28H99.829V0Z" fill="white"/>
</mask>
<g mask="url(#mask0_131_116)">
<path d="M21.942 5.07934C21.8416 5.07094 19.8748 5.04115 19.8748 5.04115C19.8748 5.04115 18.2299 3.44879 18.0674 3.28681C18.0069 3.22644 17.9249 3.19511 17.839 3.18213L17.8398 27.5402L25.2111 25.7141C25.2111 25.7141 22.2034 5.44306 22.1843 5.30398C22.1651 5.1649 22.0424 5.08774 21.942 5.07934Z" fill="white"/>
<path fill-rule="evenodd" clip-rule="evenodd" d="M21.9413 5.07856C22.0424 5.08696 22.1643 5.16412 22.1835 5.3032C22.2026 5.44228 25.2103 25.7141 25.2103 25.7141L17.8383 27.541L0.829041 24.6085C0.829041 24.6085 2.85871 8.96312 2.93383 8.41226C3.035 7.68329 3.05953 7.65961 3.83522 7.41665C3.85171 7.41133 4.37456 7.24993 5.20686 6.99299C5.57358 6.87978 6.00039 6.74803 6.47043 6.60291C6.63445 5.43159 7.21316 3.91869 7.97353 2.7145C9.05428 1.00296 10.3872 0.0394553 11.7255 0.00125133C12.4192 -0.0193788 12.9978 0.215194 13.4493 0.696562C13.4815 0.731713 13.5122 0.767622 13.5429 0.804298C13.5505 0.803645 13.5582 0.802984 13.5659 0.802324C13.6301 0.796798 13.6938 0.791312 13.7582 0.791312H13.762C14.7984 0.792836 15.6561 1.38194 16.2416 2.49597C16.4233 2.84133 16.5506 3.18517 16.6372 3.46483C16.7694 3.42403 16.8878 3.38747 16.991 3.35563C17.2916 3.26286 17.4634 3.20962 17.4634 3.20962C17.5868 3.17295 17.9042 3.12405 18.0666 3.28603C18.2291 3.44802 19.8741 5.04037 19.8741 5.04037C19.8741 5.04037 21.8409 5.07016 21.9413 5.07856ZM14.941 3.98825C15.2429 3.89504 15.5261 3.80766 15.7856 3.72767C15.5748 3.04458 15.075 1.89923 14.0594 1.70744C14.3752 2.51966 14.4557 3.45948 14.4657 4.13493C14.6286 4.08466 14.7872 4.0357 14.941 3.98825ZM10.7359 5.2864L13.5758 4.40999C13.585 3.67265 13.5045 2.58231 13.1343 1.81212C12.7403 1.97411 12.4077 2.25758 12.1701 2.51202C11.5308 3.19587 11.0103 4.23884 10.7359 5.2864ZM12.5571 1.09923C12.331 0.951004 12.0666 0.882234 11.7523 0.88911C9.68659 0.948709 7.88461 4.16472 7.42391 6.30799C7.84676 6.17781 8.2907 6.0407 8.74696 5.89979C9.07806 5.79753 9.41565 5.69327 9.75635 5.5882C10.0162 4.22661 10.6677 2.81536 11.5178 1.9061C11.8458 1.55539 12.1953 1.28643 12.5571 1.09923ZM12.8965 12.0508L13.7526 8.85773C13.7526 8.85773 13.0145 8.49098 11.5719 8.58342C7.82765 8.81876 6.13061 11.4289 6.29389 14.0045C6.40281 15.724 7.41906 16.4429 8.30979 17.0729C9.00466 17.5644 9.62313 18.0019 9.67485 18.8182C9.70322 19.2683 9.4227 19.9048 8.63779 19.9545C7.43593 20.0301 5.9344 18.9008 5.9344 18.9008L5.36029 21.3351C5.36029 21.3351 6.85188 22.9282 9.56144 22.7578C11.8187 22.6157 13.3855 20.8156 13.2191 18.1841C13.0912 16.1608 11.6619 15.2473 10.5323 14.5252C9.7942 14.0535 9.18405 13.6635 9.14831 13.0991C9.13141 12.837 9.14905 11.7933 10.8093 11.6886C11.9414 11.6176 12.8965 12.0508 12.8965 12.0508Z" fill="white"/>
<path d="M34.9183 15.5438C34.0706 15.0853 33.635 14.6988 33.635 14.1675C33.635 13.4915 34.2401 13.0572 35.1851 13.0572C36.2852 13.0572 37.2674 13.5157 37.2674 13.5157L38.0421 11.1497C38.0421 11.1497 37.3297 10.5942 35.233 10.5942C32.3152 10.5942 30.293 12.26 30.293 14.6017C30.293 15.9295 31.2372 16.9435 32.4969 17.6672C33.5141 18.2462 33.8775 18.657 33.8775 19.2602C33.8775 19.8878 33.3689 20.3947 32.4247 20.3947C31.0174 20.3947 29.6885 19.6702 29.6885 19.6702L28.8652 22.0362C28.8652 22.0362 30.093 22.857 32.1586 22.857C35.1615 22.857 37.3168 21.3845 37.3168 18.729C37.3161 17.3057 36.2266 16.2917 34.9183 15.5438Z" fill="white"/>
<path d="M46.8815 10.5708C45.4043 10.5708 44.2419 11.2711 43.3463 12.3328L43.2977 12.3086L44.5809 5.62207H41.2389L37.9942 22.6403H41.3362L42.45 16.8231C42.8856 14.6261 44.0237 13.2748 45.0896 13.2748C45.8399 13.2748 46.1311 13.7818 46.1311 14.5063C46.1311 14.9648 46.0824 15.5203 45.9859 15.9789L44.7269 22.6411H48.0691L49.3763 15.7613C49.5219 15.0368 49.619 14.1684 49.619 13.5886C49.6176 11.7053 48.6249 10.5708 46.8815 10.5708Z" fill="white"/>
<path d="M57.1729 10.5708C53.1526 10.5708 50.4897 14.1918 50.4897 18.2228C50.4897 20.8056 52.0876 22.8813 55.0907 22.8813C59.0378 22.8813 61.7016 19.3573 61.7016 15.2293C61.7016 12.8398 60.2967 10.5708 57.1729 10.5708ZM55.5263 20.3236C54.388 20.3236 53.9036 19.3581 53.9036 18.1508C53.9036 16.2441 54.8969 13.1301 56.7129 13.1301C57.8996 13.1301 58.2863 14.1441 58.2863 15.1338C58.2863 17.1853 57.2945 20.3236 55.5263 20.3236Z" fill="white"/>
<path d="M70.2497 10.5708C67.9939 10.5708 66.7138 12.5503 66.7138 12.5503H66.6659L66.8597 10.764H63.9054C63.7604 11.9713 63.4933 13.8053 63.2276 15.1816L60.9027 27.3716H64.2448L65.1643 22.4471H65.2375C65.2375 22.4471 65.9232 22.8813 67.1991 22.8813C71.1218 22.8813 73.6884 18.8746 73.6884 14.8186C73.6884 12.5746 72.6952 10.5708 70.2497 10.5708ZM67.0531 20.3713C66.1856 20.3713 65.6722 19.8886 65.6722 19.8886L66.2294 16.7746C66.6171 14.6988 67.7065 13.3226 68.8692 13.3226C69.8864 13.3226 70.2009 14.2638 70.2009 15.1573C70.2009 17.3058 68.9176 20.3713 67.0531 20.3713Z" fill="white"/>
<path d="M78.4591 5.79102C77.394 5.79102 76.5463 6.63602 76.5463 7.72201C76.5463 8.71178 77.1758 9.38778 78.1202 9.38778H78.1685C79.2101 9.38778 80.1057 8.6875 80.1301 7.45679C80.1301 6.49125 79.4763 5.79102 78.4591 5.79102Z" fill="white"/>
<path d="M73.7856 22.6404H77.1267L79.4037 10.8369H76.0373L73.7856 22.6404Z" fill="white"/>
<path d="M87.9034 10.8128H85.5786L85.6992 10.2573C85.893 9.12284 86.5713 8.10882 87.6852 8.10882C88.2796 8.10882 88.7502 8.27783 88.7502 8.27783L89.4041 5.67085C89.4041 5.67085 88.823 5.38135 87.5876 5.38135C86.4009 5.38135 85.2152 5.71932 84.3187 6.49157C83.1804 7.45711 82.6477 8.85684 82.3815 10.2573L82.2853 10.8128H80.7349L80.2505 13.3236H81.8009L80.0332 22.6414H83.3752L85.143 13.3236H87.4434L87.9034 10.8128Z" fill="white"/>
<path d="M95.9427 10.8372C95.9427 10.8372 93.8536 16.0838 92.9156 18.9477H92.8668C92.8033 18.0254 92.0435 10.8372 92.0435 10.8372H88.532L90.5429 21.6752C90.5917 21.9162 90.5673 22.0617 90.4701 22.2307C90.0819 22.9787 89.4285 23.7032 88.6536 24.2345C88.0241 24.6929 87.3219 24.9824 86.7652 25.1757L87.6852 28.0002C88.3635 27.8555 89.7674 27.3 90.954 26.1897C92.48 24.7657 93.884 22.5687 95.3368 19.5752L99.4294 10.8364L95.9427 10.8372Z" fill="white"/>
</g>
</svg>
