<svg width="132" height="32" viewBox="0 0 132 32" fill="none" xmlns="http://www.w3.org/2000/svg">
<g clip-path="url(#clip0_406_952)">
<path fill-rule="evenodd" clip-rule="evenodd" d="M126.649 4.6739C127.188 5.2143 127.824 5.4845 128.557 5.4845C129.313 5.4845 129.961 5.2143 130.499 4.6739C131.038 4.13349 131.307 3.49537 131.307 2.7595C131.307 2.02363 131.038 1.37975 130.499 0.827849C129.961 0.275947 129.313 0 128.557 0C127.824 0 127.188 0.275947 126.649 0.827849C126.111 1.37975 125.841 2.02363 125.841 2.7595C125.841 3.49537 126.111 4.13349 126.649 4.6739ZM68.6542 11.7297C68.6542 11.7862 68.6084 11.832 68.5519 11.832H64.7696V19.0066C64.7696 19.6045 64.9186 20.0415 65.2165 20.3174C65.5144 20.5934 65.9499 20.7486 66.5228 20.7831C67.047 20.8146 67.6862 20.8125 68.4406 20.7767L68.5465 20.7714C68.6051 20.7684 68.6542 20.815 68.6542 20.8736V24.7101C68.6542 24.7622 68.615 24.806 68.5632 24.8117L68.4939 24.8192C65.5307 25.1362 63.4355 24.8429 62.2085 23.9393C60.9595 23.0194 60.335 21.3752 60.335 19.0066V11.832H57.4465C57.39 11.832 57.3442 11.7862 57.3442 11.7297V7.65703C57.3442 7.60053 57.39 7.55473 57.4465 7.55473H60.335V4.70599C60.335 4.62496 60.3828 4.55156 60.4569 4.51883L64.626 2.67769C64.6936 2.64782 64.7696 2.69734 64.7696 2.77127V7.55473H68.5519C68.6084 7.55473 68.6542 7.60053 68.6542 7.65703V11.7297ZM76.6958 10.5204C77.1083 9.41658 77.7901 8.58874 78.7412 8.03683C79.6116 7.53176 80.5732 7.25779 81.6259 7.21494C81.6768 7.21287 81.7548 7.21134 81.8178 7.21035C81.8747 7.20946 81.9211 7.25542 81.9211 7.31232V11.9929C81.9211 12.0906 81.8362 12.1658 81.7389 12.157C80.4601 12.0409 79.3119 12.3232 78.2943 13.0039C77.2286 13.7168 76.6958 14.9011 76.6958 16.5568V24.6985C76.6958 24.755 76.65 24.8008 76.5935 24.8008H72.3634C72.3069 24.8008 72.2611 24.755 72.2611 24.6985V7.65622C72.2611 7.59972 72.3069 7.55392 72.3634 7.55392H76.5935C76.65 7.55392 76.6958 7.59972 76.6958 7.65622V10.5204ZM97.6643 7.5542C97.6078 7.5542 97.562 7.6 97.562 7.6565V9.58933C96.2327 7.91063 94.3649 7.07129 91.9585 7.07129C89.6667 7.07129 87.7015 7.95087 86.0629 9.71006C84.4242 11.4692 83.6049 13.6251 83.6049 16.1776C83.6049 18.7302 84.4242 20.886 86.0629 22.6452C87.7015 24.4044 89.6667 25.284 91.9585 25.284C94.3649 25.284 96.2327 24.4446 97.562 22.7659V24.6988C97.562 24.7553 97.6078 24.8011 97.6643 24.8011H101.894C101.95 24.8011 101.996 24.7553 101.996 24.6988V7.6565C101.996 7.6 101.95 7.5542 101.894 7.5542H97.6643ZM89.3797 19.6964C90.2735 20.5933 91.4079 21.0417 92.783 21.0417C94.1581 21.0417 95.2983 20.5875 96.2035 19.6792C97.1088 18.7708 97.5614 17.6038 97.5614 16.1781C97.5614 14.7523 97.1088 13.5853 96.2035 12.677C95.2983 11.7686 94.1581 11.3145 92.783 11.3145C91.4079 11.3145 90.2735 11.7686 89.3797 12.677C88.4859 13.5853 88.039 14.7523 88.039 16.1781C88.039 17.6038 88.4859 18.7766 89.3797 19.6964ZM121.257 9.71006C119.618 7.95087 117.642 7.07129 115.327 7.07129C112.921 7.07129 111.064 7.91063 109.758 9.58933V7.6565C109.758 7.6 109.712 7.5542 109.656 7.5542H105.426C105.369 7.5542 105.323 7.6 105.323 7.6565V31.5975C105.323 31.654 105.369 31.6998 105.426 31.6998H109.656C109.712 31.6998 109.758 31.654 109.758 31.5975V22.7659C111.064 24.4446 112.921 25.284 115.327 25.284C117.642 25.284 119.618 24.4044 121.257 22.6452C122.896 20.886 123.715 18.7302 123.715 16.1776C123.715 13.6251 122.896 11.4692 121.257 9.71006ZM111.099 19.6964C111.992 20.5933 113.127 21.0417 114.502 21.0417C115.877 21.0417 117.017 20.5875 117.922 19.6792C118.828 18.7708 119.28 17.6038 119.28 16.1781C119.28 14.7523 118.828 13.5853 117.922 12.677C117.017 11.7686 115.877 11.3145 114.502 11.3145C113.127 11.3145 111.992 11.7686 111.099 12.677C110.205 13.5853 109.758 14.7523 109.758 16.1781C109.758 17.6038 110.205 18.7766 111.099 19.6964ZM126.459 24.8015C126.403 24.8015 126.357 24.7557 126.357 24.6992V7.65699C126.357 7.60049 126.403 7.55469 126.459 7.55469H130.689C130.746 7.55469 130.792 7.60049 130.792 7.65699V24.6992C130.792 24.7557 130.746 24.8015 130.689 24.8015H126.459ZM47.2995 13.5734C46.6922 13.2859 46.3885 12.9122 46.3885 12.4523C46.3885 12.0154 46.5776 11.6705 46.9557 11.4175C47.3339 11.1645 47.8094 11.0381 48.3824 11.0381C49.481 11.0381 50.311 11.4678 50.8722 12.3272C50.9114 12.3872 50.9875 12.4115 51.053 12.3824L54.7945 10.7215C54.8502 10.6968 54.8721 10.6292 54.8411 10.5767C54.7999 10.507 54.7456 10.416 54.7095 10.3591C54.0681 9.34756 53.2386 8.59399 52.1982 8.01987C51.0523 7.38748 49.7804 7.07129 48.3824 7.07129C46.526 7.07129 44.9733 7.55995 43.7243 8.53727C42.4753 9.5146 41.8507 10.8541 41.8507 12.5558C41.8507 13.6826 42.1544 14.6197 42.7617 15.367C43.3691 16.1144 44.1082 16.6605 44.9791 17.0055C45.8499 17.3504 46.7208 17.6379 47.5917 17.8678C48.4626 18.0978 49.2017 18.3565 49.809 18.6439C50.4164 18.9314 50.72 19.3051 50.72 19.765C50.72 20.7538 49.9294 21.2482 48.348 21.2482C46.8427 21.2482 45.7996 20.69 45.2187 19.5737C45.1688 19.4778 45.0546 19.4339 44.9558 19.4778L41.2248 21.1366C41.1722 21.1599 41.1492 21.2221 41.1742 21.2739C41.1893 21.3052 41.2052 21.3379 41.2169 21.3613C42.5207 23.9764 44.8978 25.284 48.348 25.284C50.319 25.284 51.9633 24.8068 53.2811 23.8525C54.5989 22.8982 55.2578 21.5357 55.2578 19.765C55.2578 18.5922 54.9541 17.6149 54.3468 16.833C53.7395 16.0512 53.0004 15.4935 52.1295 15.1601C51.2586 14.8266 50.3877 14.5507 49.5168 14.3322C48.6459 14.1138 47.9068 13.8608 47.2995 13.5734Z" fill="white"/>
<path fill-rule="evenodd" clip-rule="evenodd" d="M26.0466 0.299805H5.65311C2.53098 0.299805 0 2.83079 0 5.95291V26.3464C0 29.4685 2.53098 31.9995 5.65311 31.9995H26.0466C29.1687 31.9995 31.6997 29.4685 31.6997 26.3464V5.95291C31.6997 2.83079 29.1687 0.299805 26.0466 0.299805ZM11.1628 9.8623H11.1621V9.86297L5.8944 15.1305C5.84462 15.1803 5.87987 15.2654 5.95026 15.2654H11.1621V15.2656H16.5762C16.5771 15.2656 16.5779 15.2656 16.5787 15.2656H11.1641V20.6795C11.1641 20.7668 11.2348 20.8376 11.3221 20.8376H16.7344V26.0498C16.7344 26.1202 16.8195 26.1555 16.8692 26.1057L22.1376 20.8374L22.1374 20.8374V10.0203C22.1374 9.93305 22.0667 9.8623 21.9794 9.8623H11.1628Z" fill="white"/>
</g>
<defs>
<clipPath id="clip0_406_952">
<rect width="132" height="32" fill="white"/>
</clipPath>
</defs>
</svg>
